%TF.GenerationSoftware,KiCad,Pcbnew,10.0.5*%
%TF.CreationDate,2026-08-25T12:53:40+01:00*%
%TF.ProjectId,FPGA PROJECT,46504741-2050-4524-9f4a-4543542e6b69,rev?*%
%TF.SameCoordinates,Original*%
%TF.FileFunction,Soldermask,Bot*%
%TF.FilePolarity,Negative*%
%FSLAX46Y46*%
G04 Gerber Fmt 4.6, Leading zero omitted, Abs format (unit mm)*
G04 Created by KiCad (PCBNEW 10.0.5) date 2026-08-25 12:53:40*
%MOMM*%
%LPD*%
G01*
G04 APERTURE LIST*
G04 Aperture macros list*
%AMRoundRect*
0 Rectangle with rounded corners*
0 $1 Rounding radius*
0 $2 $3 $4 $5 $6 $7 $8 $9 X,Y pos of 4 corners*
0 Add a 4 corners polygon primitive as box body*
4,1,4,$2,$3,$4,$5,$6,$7,$8,$9,$2,$3,0*
0 Add four circle primitives for the rounded corners*
1,1,$1+$1,$2,$3*
1,1,$1+$1,$4,$5*
1,1,$1+$1,$6,$7*
1,1,$1+$1,$8,$9*
0 Add four rect primitives between the rounded corners*
20,1,$1+$1,$2,$3,$4,$5,0*
20,1,$1+$1,$4,$5,$6,$7,0*
20,1,$1+$1,$6,$7,$8,$9,0*
20,1,$1+$1,$8,$9,$2,$3,0*%
G04 Aperture macros list end*
%ADD10C,2.050000*%
%ADD11C,2.250000*%
%ADD12C,3.200000*%
%ADD13R,1.700000X1.700000*%
%ADD14C,1.700000*%
%ADD15C,0.650000*%
%ADD16O,1.000000X2.100000*%
%ADD17O,1.000000X1.800000*%
%ADD18RoundRect,0.140000X0.170000X-0.140000X0.170000X0.140000X-0.170000X0.140000X-0.170000X-0.140000X0*%
%ADD19RoundRect,0.140000X-0.140000X-0.170000X0.140000X-0.170000X0.140000X0.170000X-0.140000X0.170000X0*%
%ADD20RoundRect,0.140000X0.140000X0.170000X-0.140000X0.170000X-0.140000X-0.170000X0.140000X-0.170000X0*%
G04 APERTURE END LIST*
D10*
%TO.C,J2*%
X36500000Y-98500000D03*
D11*
X33960000Y-95960000D03*
X33960000Y-101040000D03*
X39040000Y-95960000D03*
X39040000Y-101040000D03*
%TD*%
D12*
%TO.C,REF\u002A\u002A*%
X90500000Y-25000000D03*
%TD*%
%TO.C,REF\u002A\u002A*%
X90500000Y-102500000D03*
%TD*%
%TO.C,REF\u002A\u002A*%
X26500000Y-25000000D03*
%TD*%
D13*
%TO.C,J4*%
X46580000Y-21500000D03*
D14*
X44040000Y-21500000D03*
X41500000Y-21500000D03*
X38960000Y-21500000D03*
X36420000Y-21500000D03*
%TD*%
D13*
%TO.C,J3*%
X52920000Y-21500000D03*
D14*
X55460000Y-21500000D03*
X58000000Y-21500000D03*
X60540000Y-21500000D03*
X63080000Y-21500000D03*
X65620000Y-21500000D03*
%TD*%
D12*
%TO.C,REF\u002A\u002A*%
X26000000Y-103000000D03*
%TD*%
D15*
%TO.C,J5*%
X73610000Y-22895000D03*
X79390000Y-22895000D03*
D16*
X72180000Y-22395000D03*
D17*
X72180000Y-26575000D03*
D16*
X80820000Y-22395000D03*
D17*
X80820000Y-26575000D03*
%TD*%
D18*
%TO.C,C27*%
X78000000Y-79460000D03*
X78000000Y-78500000D03*
%TD*%
D19*
%TO.C,C29*%
X55040000Y-73000000D03*
X56000000Y-73000000D03*
%TD*%
D20*
%TO.C,C30*%
X76960000Y-72000000D03*
X76000000Y-72000000D03*
%TD*%
D18*
%TO.C,C52*%
X69000000Y-70000000D03*
X69000000Y-69040000D03*
%TD*%
D20*
%TO.C,C22*%
X61460000Y-90000000D03*
X60500000Y-90000000D03*
%TD*%
%TO.C,C23*%
X57000000Y-90500000D03*
X56040000Y-90500000D03*
%TD*%
D19*
%TO.C,C36*%
X74540000Y-87020000D03*
X75500000Y-87020000D03*
%TD*%
D18*
%TO.C,C26*%
X73000000Y-70000000D03*
X73000000Y-69040000D03*
%TD*%
%TO.C,C53*%
X64000000Y-69460000D03*
X64000000Y-68500000D03*
%TD*%
%TO.C,C48*%
X66550000Y-90580000D03*
X66550000Y-89620000D03*
%TD*%
D20*
%TO.C,C11*%
X56100000Y-76900000D03*
X55140000Y-76900000D03*
%TD*%
D18*
%TO.C,C28*%
X69080868Y-90930000D03*
X69080868Y-89970000D03*
%TD*%
%TO.C,C55*%
X55560000Y-86960000D03*
X55560000Y-86000000D03*
%TD*%
D20*
%TO.C,C51*%
X77900000Y-74500000D03*
X76940000Y-74500000D03*
%TD*%
D19*
%TO.C,C12*%
X55140000Y-75200000D03*
X56100000Y-75200000D03*
%TD*%
D20*
%TO.C,C16*%
X75500000Y-79000000D03*
X74540000Y-79000000D03*
%TD*%
D18*
%TO.C,C45*%
X60000000Y-69480000D03*
X60000000Y-68520000D03*
%TD*%
D19*
%TO.C,C46*%
X55520000Y-70000000D03*
X56480000Y-70000000D03*
%TD*%
D18*
%TO.C,C42*%
X71450000Y-90080000D03*
X71450000Y-89120000D03*
%TD*%
M02*
