%TF.GenerationSoftware,KiCad,Pcbnew,10.0.5*%
%TF.CreationDate,2026-08-25T12:53:40+01:00*%
%TF.ProjectId,FPGA PROJECT,46504741-2050-4524-9f4a-4543542e6b69,rev?*%
%TF.SameCoordinates,Original*%
%TF.FileFunction,Copper,L4,Bot*%
%TF.FilePolarity,Positive*%
%FSLAX46Y46*%
G04 Gerber Fmt 4.6, Leading zero omitted, Abs format (unit mm)*
G04 Created by KiCad (PCBNEW 10.0.5) date 2026-08-25 12:53:40*
%MOMM*%
%LPD*%
G01*
G04 APERTURE LIST*
G04 Aperture macros list*
%AMRoundRect*
0 Rectangle with rounded corners*
0 $1 Rounding radius*
0 $2 $3 $4 $5 $6 $7 $8 $9 X,Y pos of 4 corners*
0 Add a 4 corners polygon primitive as box body*
4,1,4,$2,$3,$4,$5,$6,$7,$8,$9,$2,$3,0*
0 Add four circle primitives for the rounded corners*
1,1,$1+$1,$2,$3*
1,1,$1+$1,$4,$5*
1,1,$1+$1,$6,$7*
1,1,$1+$1,$8,$9*
0 Add four rect primitives between the rounded corners*
20,1,$1+$1,$2,$3,$4,$5,0*
20,1,$1+$1,$4,$5,$6,$7,0*
20,1,$1+$1,$6,$7,$8,$9,0*
20,1,$1+$1,$8,$9,$2,$3,0*%
G04 Aperture macros list end*
%TA.AperFunction,ComponentPad*%
%ADD10C,2.050000*%
%TD*%
%TA.AperFunction,ComponentPad*%
%ADD11C,2.250000*%
%TD*%
%TA.AperFunction,ComponentPad*%
%ADD12R,1.700000X1.700000*%
%TD*%
%TA.AperFunction,ComponentPad*%
%ADD13C,1.700000*%
%TD*%
%TA.AperFunction,ComponentPad*%
%ADD14O,1.000000X2.100000*%
%TD*%
%TA.AperFunction,ComponentPad*%
%ADD15O,1.000000X1.800000*%
%TD*%
%TA.AperFunction,SMDPad,CuDef*%
%ADD16RoundRect,0.140000X0.170000X-0.140000X0.170000X0.140000X-0.170000X0.140000X-0.170000X-0.140000X0*%
%TD*%
%TA.AperFunction,SMDPad,CuDef*%
%ADD17RoundRect,0.140000X-0.140000X-0.170000X0.140000X-0.170000X0.140000X0.170000X-0.140000X0.170000X0*%
%TD*%
%TA.AperFunction,SMDPad,CuDef*%
%ADD18RoundRect,0.140000X0.140000X0.170000X-0.140000X0.170000X-0.140000X-0.170000X0.140000X-0.170000X0*%
%TD*%
%TA.AperFunction,ViaPad*%
%ADD19C,0.600000*%
%TD*%
%TA.AperFunction,ViaPad*%
%ADD20C,0.400000*%
%TD*%
%TA.AperFunction,Conductor*%
%ADD21C,0.200000*%
%TD*%
%TA.AperFunction,Conductor*%
%ADD22C,0.100000*%
%TD*%
G04 APERTURE END LIST*
D10*
%TO.P,J2,1,In_1*%
%TO.N,Net-(J2-In)*%
X36500000Y-98500000D03*
D11*
%TO.P,J2,2,Ext_2*%
%TO.N,GND*%
X33960000Y-95960000D03*
X33960000Y-101040000D03*
X39040000Y-95960000D03*
X39040000Y-101040000D03*
%TD*%
D12*
%TO.P,J4,1,Pin_1_1*%
%TO.N,/JTAG_TCK*%
X46580000Y-21500000D03*
D13*
%TO.P,J4,2,Pin_2_2*%
%TO.N,/JTAG_TDI*%
X44040000Y-21500000D03*
%TO.P,J4,3,Pin_3_3*%
%TO.N,/JTAG_TDO*%
X41500000Y-21500000D03*
%TO.P,J4,4,Pin_4_4*%
%TO.N,/JTAG_TMS*%
X38960000Y-21500000D03*
%TO.P,J4,5,Pin_5_5*%
%TO.N,GND*%
X36420000Y-21500000D03*
%TD*%
D12*
%TO.P,J3,1*%
%TO.N,/JTAG_TCK*%
X52920000Y-21500000D03*
D13*
%TO.P,J3,2*%
%TO.N,/JTAG_TMS*%
X55460000Y-21500000D03*
%TO.P,J3,3*%
%TO.N,/JTAG_TDI*%
X58000000Y-21500000D03*
%TO.P,J3,4*%
%TO.N,/JTAG_TDO*%
X60540000Y-21500000D03*
%TO.P,J3,5*%
%TO.N,GND*%
X63080000Y-21500000D03*
%TO.P,J3,6*%
%TO.N,+3.3V*%
X65620000Y-21500000D03*
%TD*%
D14*
%TO.P,J5,SH,SHIELD_SH*%
%TO.N,Net-(J5-SHIELD)*%
X72180000Y-22395000D03*
D15*
X72180000Y-26575000D03*
D14*
X80820000Y-22395000D03*
D15*
X80820000Y-26575000D03*
%TD*%
D16*
%TO.P,C27,1*%
%TO.N,+3.3V*%
X78000000Y-79460000D03*
%TO.P,C27,2*%
%TO.N,GND*%
X78000000Y-78500000D03*
%TD*%
D17*
%TO.P,C29,1*%
%TO.N,+3.3V*%
X55040000Y-73000000D03*
%TO.P,C29,2*%
%TO.N,GND*%
X56000000Y-73000000D03*
%TD*%
D18*
%TO.P,C30,1*%
%TO.N,+3.3V*%
X76960000Y-72000000D03*
%TO.P,C30,2*%
%TO.N,GND*%
X76000000Y-72000000D03*
%TD*%
D16*
%TO.P,C52,1*%
%TO.N,+3.3V*%
X69000000Y-70000000D03*
%TO.P,C52,2*%
%TO.N,GND*%
X69000000Y-69040000D03*
%TD*%
D18*
%TO.P,C22,1*%
%TO.N,GND*%
X61460000Y-90000000D03*
%TO.P,C22,2*%
%TO.N,+1V1*%
X60500000Y-90000000D03*
%TD*%
%TO.P,C23,1*%
%TO.N,GND*%
X57000000Y-90500000D03*
%TO.P,C23,2*%
%TO.N,+1V1*%
X56040000Y-90500000D03*
%TD*%
D17*
%TO.P,C36,1*%
%TO.N,GND*%
X74540000Y-87020000D03*
%TO.P,C36,2*%
%TO.N,+2V5*%
X75500000Y-87020000D03*
%TD*%
D16*
%TO.P,C26,1*%
%TO.N,+3.3V*%
X73000000Y-70000000D03*
%TO.P,C26,2*%
%TO.N,GND*%
X73000000Y-69040000D03*
%TD*%
%TO.P,C53,1*%
%TO.N,+3.3V*%
X64000000Y-69460000D03*
%TO.P,C53,2*%
%TO.N,GND*%
X64000000Y-68500000D03*
%TD*%
%TO.P,C48,1*%
%TO.N,GND*%
X66550000Y-90580000D03*
%TO.P,C48,2*%
%TO.N,+3.3V*%
X66550000Y-89620000D03*
%TD*%
D18*
%TO.P,C11,1*%
%TO.N,+1V1*%
X56100000Y-76900000D03*
%TO.P,C11,2*%
%TO.N,GND*%
X55140000Y-76900000D03*
%TD*%
D16*
%TO.P,C28,1*%
%TO.N,GND*%
X69080868Y-90930000D03*
%TO.P,C28,2*%
%TO.N,+3.3V*%
X69080868Y-89970000D03*
%TD*%
%TO.P,C55,1*%
%TO.N,GND*%
X55560000Y-86960000D03*
%TO.P,C55,2*%
%TO.N,+3.3V*%
X55560000Y-86000000D03*
%TD*%
D18*
%TO.P,C51,1*%
%TO.N,GND*%
X77900000Y-74500000D03*
%TO.P,C51,2*%
%TO.N,+3.3V*%
X76940000Y-74500000D03*
%TD*%
D17*
%TO.P,C12,1*%
%TO.N,GND*%
X55140000Y-75200000D03*
%TO.P,C12,2*%
%TO.N,+1V1*%
X56100000Y-75200000D03*
%TD*%
D18*
%TO.P,C16,1*%
%TO.N,GND*%
X75500000Y-79000000D03*
%TO.P,C16,2*%
%TO.N,+1V1*%
X74540000Y-79000000D03*
%TD*%
D16*
%TO.P,C45,1*%
%TO.N,GND*%
X60000000Y-69480000D03*
%TO.P,C45,2*%
%TO.N,+3.3V*%
X60000000Y-68520000D03*
%TD*%
D17*
%TO.P,C46,1*%
%TO.N,GND*%
X55520000Y-70000000D03*
%TO.P,C46,2*%
%TO.N,+3.3V*%
X56480000Y-70000000D03*
%TD*%
D16*
%TO.P,C42,1*%
%TO.N,+3.3V*%
X71450000Y-90080000D03*
%TO.P,C42,2*%
%TO.N,GND*%
X71450000Y-89120000D03*
%TD*%
D19*
%TO.N,+3.3V*%
X81200000Y-91450000D03*
D20*
X64504019Y-77495981D03*
X63704019Y-78295981D03*
D19*
X26600000Y-45200000D03*
D20*
X80200000Y-74400000D03*
D19*
X27300000Y-72600000D03*
X55100000Y-72200000D03*
D20*
X69650000Y-89100000D03*
D19*
X77247723Y-79750001D03*
D20*
X67700000Y-77500000D03*
D19*
X80900000Y-85500000D03*
X49100000Y-90800000D03*
X82500000Y-80800000D03*
X61700000Y-60900000D03*
X56100000Y-64400000D03*
X57300000Y-69800000D03*
X50900000Y-84000000D03*
X30400000Y-48400000D03*
X81900000Y-94800000D03*
D20*
X66100000Y-77500000D03*
X66100000Y-82300000D03*
X64600000Y-63600000D03*
D19*
X67450000Y-59700000D03*
X40000000Y-80425000D03*
X60100000Y-67700000D03*
X81200000Y-97800000D03*
X65500000Y-54300000D03*
D20*
X65300000Y-81500000D03*
D19*
X56500000Y-86300000D03*
D20*
X66250000Y-63050000D03*
X66250000Y-88250000D03*
X65300000Y-82300000D03*
D19*
X89300000Y-73200000D03*
X50800000Y-68200000D03*
X90000000Y-88500000D03*
X65200000Y-24100000D03*
D20*
X70550000Y-90550000D03*
D19*
X45000000Y-54300000D03*
X37000000Y-90100000D03*
X76100000Y-74700000D03*
X65700000Y-69100000D03*
X78900000Y-54800000D03*
D20*
X66900000Y-81500000D03*
D19*
X85900000Y-88800000D03*
X67900000Y-70100000D03*
X42275000Y-88205000D03*
X82300000Y-35900000D03*
X80000000Y-38200000D03*
X92500000Y-72100000D03*
X79900000Y-66500000D03*
X77400000Y-87700000D03*
X93600000Y-69200000D03*
X90000000Y-83700000D03*
D20*
X63704019Y-82304019D03*
D19*
X83650000Y-71500000D03*
D20*
X63708078Y-81500000D03*
X63041693Y-78322942D03*
X62963998Y-77548002D03*
X66108079Y-81500000D03*
D19*
X85200000Y-72000000D03*
X78000000Y-72100000D03*
D20*
X66900000Y-77491922D03*
D19*
X31550000Y-37200000D03*
%TO.N,/FLASH_MISO*%
X88200000Y-74000000D03*
X80200000Y-81100000D03*
D20*
%TO.N,GND*%
X70900000Y-74300000D03*
D19*
X84500000Y-73450000D03*
X27800000Y-83200000D03*
X43850000Y-86525000D03*
X61400000Y-44500000D03*
D20*
X65300000Y-79100000D03*
D19*
X33200000Y-52100000D03*
D20*
X65300000Y-79900000D03*
D19*
X82200000Y-21100000D03*
X31500000Y-100400000D03*
D20*
X62100000Y-74300000D03*
D19*
X27100000Y-77800000D03*
D20*
X75000000Y-84000000D03*
X53800000Y-75400000D03*
D19*
X67800000Y-26900000D03*
X68400000Y-96000000D03*
X27800000Y-88300000D03*
X39000000Y-88300000D03*
X40100000Y-82300000D03*
X64200000Y-49800000D03*
X81000000Y-72000000D03*
D20*
X70900000Y-83100000D03*
X37625000Y-77200000D03*
D19*
X48900000Y-95200000D03*
D20*
X37850000Y-42900000D03*
X65300000Y-80600000D03*
X76150000Y-79350000D03*
D19*
X35300000Y-48700000D03*
X40500000Y-93300000D03*
D20*
X56400000Y-73700000D03*
D19*
X87000000Y-50600000D03*
D20*
X59700000Y-74300000D03*
D19*
X83900000Y-28100000D03*
D20*
X69100000Y-68100000D03*
X62900000Y-79100000D03*
D19*
X31500000Y-96500000D03*
X76500000Y-34400000D03*
D20*
X55900000Y-88100000D03*
X73300000Y-68100000D03*
X54200000Y-76800000D03*
X64516415Y-80562910D03*
D19*
X56200000Y-95400000D03*
D20*
X78750000Y-74400000D03*
D19*
X82900000Y-68600000D03*
X64300000Y-61000000D03*
X89600000Y-43000000D03*
D20*
X66100000Y-79100000D03*
D19*
X80900000Y-88800000D03*
X87600000Y-36100000D03*
X64400000Y-65700000D03*
X93200000Y-88600000D03*
D20*
X65287700Y-73384625D03*
X70550000Y-88500000D03*
X66100000Y-79900000D03*
X54700000Y-69800000D03*
D19*
X41200000Y-96600000D03*
D20*
X66100000Y-80700000D03*
X69300000Y-74300000D03*
X69530868Y-91600000D03*
X75500000Y-88100000D03*
D19*
X45950000Y-72925000D03*
D20*
X71600000Y-86300000D03*
D19*
X73000000Y-20100000D03*
X56000000Y-35500000D03*
D20*
X50100000Y-86625000D03*
D19*
X49900000Y-63500000D03*
D20*
X75700000Y-73000000D03*
D19*
X78600000Y-77700000D03*
X51800000Y-37100000D03*
X35100000Y-44200000D03*
D20*
X62100000Y-84700000D03*
D19*
X62000000Y-95000000D03*
D20*
X71800000Y-76800000D03*
X66100000Y-91900000D03*
X65300000Y-78300000D03*
D19*
X77200000Y-66700000D03*
X79300000Y-41800000D03*
X28100000Y-40100000D03*
X59000000Y-64000000D03*
X41300000Y-101040000D03*
D20*
X64500000Y-78300000D03*
X38600000Y-73150000D03*
D19*
X63200000Y-64400000D03*
D20*
X59100000Y-69500000D03*
X64500000Y-79900000D03*
X66900000Y-80700000D03*
D19*
X41175000Y-71275000D03*
X50200000Y-85200000D03*
D20*
X62900000Y-79900000D03*
X68500000Y-85500000D03*
X66900000Y-82300000D03*
D19*
X86500000Y-93600000D03*
X70300000Y-60700000D03*
X40200000Y-76400000D03*
X31900000Y-90000000D03*
D20*
X63748002Y-79036002D03*
D19*
X50800000Y-75700000D03*
D20*
X59600000Y-86400000D03*
X72500000Y-90050000D03*
X58100000Y-89900000D03*
D19*
X50400000Y-37200000D03*
D20*
X63900000Y-70300000D03*
X62700000Y-89700000D03*
X65300000Y-85500000D03*
D19*
%TO.N,/JTAG_TMS*%
X39500000Y-26000000D03*
X45600000Y-50200000D03*
X75400000Y-49400000D03*
D20*
%TO.N,+2V5*%
X71750000Y-56300000D03*
X67650000Y-81450000D03*
X66000000Y-70350000D03*
X70950000Y-66400000D03*
X75800000Y-40700000D03*
X63704018Y-77495982D03*
D19*
X73000000Y-95300000D03*
D20*
X67900000Y-88650000D03*
X76700000Y-88650000D03*
X71800000Y-46800000D03*
D19*
X76300000Y-87100000D03*
%TO.N,+1V1*%
X74600000Y-77700000D03*
X59500000Y-90000000D03*
X56800000Y-96900000D03*
D20*
X64451998Y-79163998D03*
D19*
X55000000Y-90500000D03*
D20*
X75000000Y-81550000D03*
D19*
X57550000Y-46100000D03*
X51000000Y-96600000D03*
X58500000Y-41800000D03*
D20*
X66891920Y-79899998D03*
X63700000Y-80700000D03*
X63695982Y-79904018D03*
X64450000Y-81450000D03*
X54550000Y-45750000D03*
X66891922Y-79100000D03*
D19*
X62400000Y-97400000D03*
D20*
X55300000Y-76150000D03*
D19*
X56786091Y-76163910D03*
%TO.N,/JTAG_TDI*%
X44800000Y-60900000D03*
D20*
X70900000Y-77500000D03*
D19*
X71700000Y-70600000D03*
X48500000Y-28400000D03*
X54200000Y-70900000D03*
%TO.N,Net-(IC1H-CFG0)*%
X60600000Y-64800000D03*
X62600000Y-71500000D03*
X62100000Y-68000000D03*
D20*
X68500000Y-78300000D03*
D19*
X62500000Y-70200000D03*
X74450000Y-74700000D03*
D20*
%TO.N,Net-(IC1H-CFG1)*%
X70100000Y-78300000D03*
D19*
X78200000Y-91000000D03*
%TO.N,+3.3VA*%
X41400000Y-85300000D03*
X25400000Y-84800000D03*
X39400000Y-85700000D03*
X45400000Y-92900000D03*
D20*
X46750000Y-87175000D03*
D19*
X24600000Y-71300000D03*
X24200000Y-77900000D03*
X37000000Y-88600000D03*
%TO.N,Net-(U8-~{HOLD}{slash}~{RESET}{slash}IO_{3})*%
X87500000Y-85500000D03*
X94500000Y-75000000D03*
%TO.N,Net-(IC1H-DONE)*%
X73634313Y-86265687D03*
D20*
X70100000Y-79900001D03*
D19*
%TO.N,Net-(U4-AIN)*%
X36900000Y-92300000D03*
X30900000Y-89100000D03*
%TO.N,Net-(U4-REFTS)*%
X39050000Y-84000000D03*
X39500000Y-79100000D03*
%TO.N,/PT4B*%
X55500000Y-84500000D03*
D20*
X59700001Y-84700000D03*
%TO.N,/PT11B*%
X59700000Y-83900000D03*
D19*
X50487851Y-77085421D03*
%TO.N,/PT11A*%
X51000000Y-77700000D03*
D20*
X61300000Y-83100000D03*
%TO.N,/PT9B*%
X62100000Y-83100000D03*
D19*
X51900000Y-78475000D03*
D20*
%TO.N,/PT9A*%
X62900000Y-83100002D03*
D19*
X55900000Y-78100000D03*
%TO.N,Net-(IC1B-PT24A)*%
X67300000Y-67500000D03*
X55100000Y-74200000D03*
D20*
X62104019Y-80695981D03*
D19*
%TO.N,/JTAG_TDO*%
X74400000Y-73300000D03*
D20*
X67700000Y-78300000D03*
%TO.N,/FLASH_CS*%
X69300000Y-80700000D03*
D19*
X95100000Y-80900000D03*
%TO.N,Net-(IC1H-MCLK{slash}CCLK)*%
X78400000Y-94000000D03*
D20*
X68500000Y-79900000D03*
D19*
%TO.N,Net-(IC1H-~{PROGRAM})*%
X74200000Y-85700000D03*
D20*
X70900000Y-79900000D03*
%TO.N,Net-(IC1H-CFG2)*%
X70900000Y-78300000D03*
D19*
X81500000Y-87500000D03*
%TO.N,/FLASH_MOSI*%
X86600000Y-86200000D03*
X83800000Y-84800000D03*
%TO.N,/JTAG_TCK*%
X81000000Y-75300000D03*
X68400000Y-49500000D03*
X52000000Y-26500000D03*
%TO.N,Net-(U2-FB)*%
X34000000Y-46500000D03*
X32000000Y-46500000D03*
%TO.N,Net-(U4-REFTF)*%
X34500000Y-74000000D03*
X35700000Y-78800000D03*
%TO.N,Net-(J5-CC2)*%
X77000000Y-24400000D03*
X73300000Y-28200000D03*
%TO.N,+5V*%
X74200000Y-20200000D03*
X30150000Y-41250000D03*
X55600000Y-42100000D03*
X54800000Y-35300000D03*
D20*
X37650000Y-40100000D03*
D19*
X78800000Y-20200000D03*
X50100000Y-41600000D03*
%TO.N,Net-(U4-REFBF)*%
X37600000Y-81200000D03*
X34500000Y-82300000D03*
%TO.N,Net-(J5-CC1)*%
X76800000Y-20200000D03*
X82500000Y-19900000D03*
%TD*%
%TO.N,+3.3V*%
D21*
X76960000Y-72000000D02*
X76960000Y-72040000D01*
X60000000Y-68520000D02*
X60000000Y-67800000D01*
X55560000Y-86000000D02*
X55500000Y-86000000D01*
X76300000Y-74500000D02*
X76100000Y-74700000D01*
X71450000Y-90150000D02*
X71450000Y-90080000D01*
X77247723Y-79750001D02*
X77247723Y-79594413D01*
X64200000Y-82800000D02*
X64800000Y-82800000D01*
X76960000Y-72000000D02*
X77900000Y-72000000D01*
X55040000Y-72260000D02*
X55100000Y-72200000D01*
X68000000Y-70000000D02*
X67900000Y-70100000D01*
X55040000Y-73000000D02*
X55040000Y-72260000D01*
X69080868Y-89669132D02*
X69080868Y-89970000D01*
X77247723Y-79594413D02*
X77382136Y-79460000D01*
X66350000Y-88350000D02*
X66350000Y-88500000D01*
X64640000Y-69460000D02*
X64000000Y-69460000D01*
X57100000Y-70000000D02*
X57300000Y-69800000D01*
X65300000Y-82300000D02*
X64800000Y-82800000D01*
X77900000Y-72000000D02*
X78000000Y-72100000D01*
X60000000Y-67800000D02*
X60100000Y-67700000D01*
X65700000Y-69100000D02*
X65000000Y-69100000D01*
X63704019Y-82304019D02*
X64200000Y-82800000D01*
X76940000Y-74500000D02*
X76300000Y-74500000D01*
X65000000Y-69100000D02*
X64640000Y-69460000D01*
X73000000Y-70000000D02*
X69000000Y-70000000D01*
X63704019Y-78295981D02*
X64504019Y-77495981D01*
X77382136Y-79460000D02*
X78000000Y-79460000D01*
X55560000Y-86000000D02*
X56200000Y-86000000D01*
X56200000Y-86000000D02*
X56500000Y-86300000D01*
X66550000Y-88700000D02*
X66550000Y-89620000D01*
X70550000Y-90550000D02*
X71050000Y-90550000D01*
X56480000Y-70000000D02*
X57100000Y-70000000D01*
X66250000Y-88250000D02*
X66350000Y-88350000D01*
X69000000Y-70000000D02*
X68000000Y-70000000D01*
X69650000Y-89100000D02*
X69080868Y-89669132D01*
X71050000Y-90550000D02*
X71450000Y-90150000D01*
X66350000Y-88500000D02*
X66550000Y-88700000D01*
%TO.N,/FLASH_MISO*%
D22*
X84500000Y-74000000D02*
X88200000Y-74000000D01*
X80200000Y-78300000D02*
X84500000Y-74000000D01*
X80200000Y-81100000D02*
X80200000Y-78300000D01*
%TO.N,GND*%
D21*
X63390000Y-69940000D02*
X63390000Y-69110000D01*
X78650000Y-74500000D02*
X78750000Y-74400000D01*
X54900000Y-70000000D02*
X54700000Y-69800000D01*
X54100000Y-75200000D02*
X55140000Y-75200000D01*
X56400000Y-73650000D02*
X56000000Y-73250000D01*
X77900000Y-74500000D02*
X78650000Y-74500000D01*
X69080868Y-90930000D02*
X69080868Y-91150000D01*
X56000000Y-73250000D02*
X56000000Y-73000000D01*
X60000000Y-69480000D02*
X59120000Y-69480000D01*
X75500000Y-79000000D02*
X75800000Y-79000000D01*
X70750000Y-88500000D02*
X71370000Y-89120000D01*
X69000000Y-68400000D02*
X69000000Y-69040000D01*
X66550000Y-91300000D02*
X66550000Y-90580000D01*
X59120000Y-69480000D02*
X59100000Y-69500000D01*
X76000000Y-72700000D02*
X75700000Y-73000000D01*
X73000000Y-68400000D02*
X73300000Y-68100000D01*
X57000000Y-90500000D02*
X57500000Y-90500000D01*
X61460000Y-90000000D02*
X62400000Y-90000000D01*
X66100000Y-91750000D02*
X66550000Y-91300000D01*
X56400000Y-73700000D02*
X56400000Y-73650000D01*
X73000000Y-69040000D02*
X73000000Y-68400000D01*
X76000000Y-72000000D02*
X76000000Y-72700000D01*
X63900000Y-70300000D02*
X63390000Y-69940000D01*
X66100000Y-91900000D02*
X66100000Y-91750000D01*
X78000000Y-78300000D02*
X78000000Y-78500000D01*
X62400000Y-90000000D02*
X62700000Y-89700000D01*
X78600000Y-77700000D02*
X78000000Y-78300000D01*
X70550000Y-88500000D02*
X70750000Y-88500000D01*
X57500000Y-90500000D02*
X58100000Y-89900000D01*
X69530868Y-91600000D02*
X69580868Y-91650000D01*
X63390000Y-69110000D02*
X64000000Y-68500000D01*
X53800000Y-75400000D02*
X54100000Y-75200000D01*
X69080868Y-91150000D02*
X69530868Y-91600000D01*
X55520000Y-70000000D02*
X54900000Y-70000000D01*
X74540000Y-87140000D02*
X75500000Y-88100000D01*
X71370000Y-89120000D02*
X71450000Y-89120000D01*
X69100000Y-68100000D02*
X69000000Y-68400000D01*
X55560000Y-86960000D02*
X55560000Y-87760000D01*
X55140000Y-76900000D02*
X54300000Y-76900000D01*
X55560000Y-87760000D02*
X55900000Y-88100000D01*
X75800000Y-79000000D02*
X76150000Y-79350000D01*
X54300000Y-76900000D02*
X54200000Y-76800000D01*
X74540000Y-87020000D02*
X74540000Y-87140000D01*
%TO.N,/JTAG_TMS*%
D22*
X46600000Y-51200000D02*
X45600000Y-50200000D01*
X75400000Y-49400000D02*
X70400000Y-49400000D01*
X68600000Y-51200000D02*
X46600000Y-51200000D01*
D21*
X50960000Y-26000000D02*
X55460000Y-21500000D01*
X39500000Y-26000000D02*
X50960000Y-26000000D01*
D22*
X70400000Y-49400000D02*
X68600000Y-51200000D01*
%TO.N,+2V5*%
D21*
X67650000Y-79150000D02*
X66650000Y-78150000D01*
X75500000Y-87020000D02*
X75500000Y-86900000D01*
X71750000Y-65600000D02*
X70950000Y-66400000D01*
X64703088Y-76995981D02*
X64157107Y-76450000D01*
X67650000Y-88000000D02*
X67650000Y-81450000D01*
X67900000Y-88650000D02*
X67900000Y-88250000D01*
X66000000Y-70350000D02*
X63704018Y-72645982D01*
X75800000Y-40700000D02*
X71800000Y-44700000D01*
X71750000Y-56300000D02*
X71750000Y-65600000D01*
X76700000Y-87500000D02*
X76300000Y-87100000D01*
X66650000Y-78150000D02*
X65857107Y-78150000D01*
X64157107Y-76450000D02*
X63704018Y-76450000D01*
X63704018Y-72645982D02*
X63704018Y-76450000D01*
X64711126Y-76995981D02*
X64703088Y-76995981D01*
X65004019Y-77288874D02*
X64711126Y-76995981D01*
X71800000Y-44700000D02*
X71800000Y-46800000D01*
X76220000Y-87020000D02*
X76300000Y-87100000D01*
X65004019Y-77296912D02*
X65004019Y-77288874D01*
X76700000Y-88650000D02*
X76700000Y-87500000D01*
X65857107Y-78150000D02*
X65004019Y-77296912D01*
X63704018Y-76450000D02*
X63704018Y-77495982D01*
X75500000Y-87020000D02*
X76220000Y-87020000D01*
X67650000Y-81450000D02*
X67650000Y-79150000D01*
X67900000Y-88250000D02*
X67650000Y-88000000D01*
%TO.N,+1V1*%
X55900000Y-76150000D02*
X56100000Y-75950000D01*
X56786091Y-76163910D02*
X56450000Y-76500001D01*
X63700000Y-79908036D02*
X63695982Y-79904018D01*
X56040000Y-90500000D02*
X55000000Y-90500000D01*
X55300000Y-76150000D02*
X55900000Y-76150000D01*
X63700000Y-80700000D02*
X63700000Y-79908036D01*
X56450000Y-76550000D02*
X56100000Y-76900000D01*
X60500000Y-90000000D02*
X59500000Y-90000000D01*
X56100000Y-75950000D02*
X56100000Y-75200000D01*
X74540000Y-79000000D02*
X74540000Y-77760000D01*
X74540000Y-77760000D02*
X74600000Y-77700000D01*
X56450000Y-76500001D02*
X56450000Y-76550000D01*
%TO.N,/JTAG_TDI*%
X48500000Y-28400000D02*
X43000000Y-33900000D01*
D22*
X44800000Y-60900000D02*
X43000000Y-60900000D01*
X72759584Y-77740416D02*
X75000000Y-75500000D01*
D21*
X45000000Y-70000000D02*
X53000000Y-70000000D01*
X43000000Y-33900000D02*
X43000000Y-60900000D01*
D22*
X70900000Y-77500000D02*
X72759584Y-77740416D01*
D21*
X43000000Y-68000000D02*
X45000000Y-70000000D01*
X43000000Y-60900000D02*
X43000000Y-68000000D01*
D22*
X75100000Y-73300000D02*
X75100000Y-71100000D01*
D21*
X53500000Y-70500000D02*
X53800000Y-70500000D01*
D22*
X75000000Y-73400000D02*
X75100000Y-73300000D01*
X75000000Y-71000000D02*
X72100000Y-71000000D01*
X75100000Y-71100000D02*
X75000000Y-71000000D01*
D21*
X53000000Y-70000000D02*
X53500000Y-70500000D01*
D22*
X72100000Y-71000000D02*
X71700000Y-70600000D01*
X75000000Y-75500000D02*
X75000000Y-73400000D01*
D21*
X53800000Y-70500000D02*
X54200000Y-70900000D01*
%TO.N,Net-(IC1H-CFG0)*%
X61100000Y-65400000D02*
X60600000Y-64900000D01*
X70450000Y-75500000D02*
X73600000Y-75500000D01*
X61100000Y-65400000D02*
X61500000Y-65400000D01*
X62100000Y-68000000D02*
X62200000Y-67900000D01*
X73600000Y-75500000D02*
X74400000Y-74700000D01*
X61500000Y-65400000D02*
X62200000Y-66100000D01*
X62600000Y-70300000D02*
X62500000Y-70200000D01*
X62600000Y-71500000D02*
X62600000Y-70300000D01*
X60600000Y-64900000D02*
X60600000Y-64800000D01*
X69800000Y-76150000D02*
X70450000Y-75500000D01*
X69800000Y-77000000D02*
X69800000Y-76150000D01*
X62200000Y-67900000D02*
X62200000Y-66100000D01*
X68500000Y-78300000D02*
X69800000Y-77000000D01*
X74400000Y-74700000D02*
X74450000Y-74700000D01*
%TO.N,Net-(IC1H-CFG1)*%
D22*
X77500000Y-91000000D02*
X78200000Y-91000000D01*
X69609581Y-83109581D02*
X77500000Y-91000000D01*
X70150000Y-78950000D02*
X70150000Y-78350000D01*
X69300000Y-79250000D02*
X69400000Y-79150000D01*
X69800000Y-80450000D02*
X69800000Y-80400000D01*
X69800000Y-80377819D02*
X69300000Y-79877819D01*
X69800000Y-80450000D02*
X69800000Y-82000000D01*
X69800000Y-82000000D02*
X69609581Y-82190419D01*
X69800000Y-80450000D02*
X69800000Y-80377819D01*
X69300000Y-79877819D02*
X69300000Y-79250000D01*
X69400000Y-79150000D02*
X69950000Y-79150000D01*
X69950000Y-79150000D02*
X70150000Y-78950000D01*
X70150000Y-78350000D02*
X70100000Y-78300000D01*
X69609581Y-82190419D02*
X69609581Y-83109581D01*
%TO.N,Net-(U8-~{HOLD}{slash}~{RESET}{slash}IO_{3})*%
D21*
X90500000Y-86000000D02*
X88000000Y-86000000D01*
X94000000Y-82500000D02*
X90500000Y-86000000D01*
X94500000Y-75000000D02*
X94500000Y-77000000D01*
X88000000Y-86000000D02*
X87500000Y-85500000D01*
X94000000Y-77500000D02*
X94000000Y-82500000D01*
X94500000Y-77000000D02*
X94000000Y-77500000D01*
%TO.N,Net-(IC1H-DONE)*%
D22*
X73650000Y-86250000D02*
X73634313Y-86265687D01*
X72500000Y-85100000D02*
X73650000Y-86250000D01*
X72300000Y-84924264D02*
X72475736Y-85100000D01*
X70100000Y-79900001D02*
X70100000Y-80200000D01*
X71900000Y-84500000D02*
X72300000Y-84900000D01*
X71900000Y-82000000D02*
X71900000Y-84500000D01*
X72475736Y-85100000D02*
X72500000Y-85100000D01*
X70100000Y-80200000D02*
X71900000Y-82000000D01*
X72300000Y-84900000D02*
X72300000Y-84924264D01*
%TO.N,Net-(U4-AIN)*%
D21*
X31500000Y-92300000D02*
X36900000Y-92300000D01*
X30900000Y-89100000D02*
X30900000Y-91900000D01*
X30900000Y-91900000D02*
X31500000Y-92300000D01*
%TO.N,Net-(U4-REFTS)*%
X38900000Y-79500000D02*
X39300000Y-79100000D01*
X39050000Y-84000000D02*
X38900000Y-83850000D01*
X38900000Y-83850000D02*
X38900000Y-79500000D01*
X39300000Y-79100000D02*
X39500000Y-79100000D01*
%TO.N,/PT4B*%
D22*
X59000000Y-84500000D02*
X55500000Y-84500000D01*
X59300000Y-84800000D02*
X59000000Y-84500000D01*
X59600001Y-84800000D02*
X59300000Y-84800000D01*
X59700001Y-84700000D02*
X59600001Y-84800000D01*
%TO.N,/PT11B*%
X56300000Y-80800000D02*
X51500000Y-80800000D01*
X57100001Y-80500000D02*
X56600000Y-80500000D01*
X51500000Y-80800000D02*
X50450000Y-79750000D01*
X59600000Y-83800000D02*
X59600000Y-82999999D01*
X59600000Y-82999999D02*
X57100001Y-80500000D01*
X50450000Y-79750000D02*
X50450000Y-77123272D01*
X50450000Y-77123272D02*
X50487851Y-77085421D01*
X56600000Y-80500000D02*
X56300000Y-80800000D01*
X59700000Y-83900000D02*
X59600000Y-83800000D01*
%TO.N,/PT11A*%
X61300000Y-83100000D02*
X60546079Y-83100000D01*
X57146079Y-79700000D02*
X52347182Y-79700000D01*
X51000000Y-78352818D02*
X51000000Y-77700000D01*
X60546079Y-83100000D02*
X57146079Y-79700000D01*
X52347182Y-79700000D02*
X51000000Y-78352818D01*
%TO.N,/PT9B*%
X54300000Y-78700000D02*
X53700000Y-79300000D01*
X53700000Y-79300000D02*
X52725000Y-79300000D01*
X56700000Y-78900000D02*
X56500000Y-78700000D01*
X52725000Y-79300000D02*
X51900000Y-78475000D01*
X56500000Y-78700000D02*
X54300000Y-78700000D01*
X57419163Y-78900000D02*
X56700000Y-78900000D01*
X62100000Y-83100000D02*
X57419163Y-78900000D01*
%TO.N,/PT9A*%
X62900000Y-82500000D02*
X62700000Y-82300000D01*
X62700000Y-82300000D02*
X62100000Y-82300000D01*
X57900000Y-78100000D02*
X55900000Y-78100000D01*
X62100000Y-82300000D02*
X57900000Y-78100000D01*
X62900000Y-83100002D02*
X62900000Y-82500000D01*
%TO.N,Net-(IC1B-PT24A)*%
X62104019Y-80695981D02*
X62095980Y-80695981D01*
X56900000Y-75500001D02*
X56900000Y-74200000D01*
X61600000Y-70200000D02*
X63000000Y-68800000D01*
D21*
X55100000Y-74200000D02*
X56900000Y-74200000D01*
D22*
X57900000Y-70200000D02*
X61600000Y-70200000D01*
X63500000Y-67500000D02*
X67300000Y-67500000D01*
X63000000Y-68800000D02*
X63000000Y-68000000D01*
X63000000Y-68000000D02*
X63500000Y-67500000D01*
X56900000Y-71200000D02*
X57900000Y-70200000D01*
X62095980Y-80695981D02*
X56900000Y-75500001D01*
X56900000Y-74200000D02*
X56900000Y-71200000D01*
%TO.N,/JTAG_TDO*%
X68850000Y-74113603D02*
X69050000Y-73913603D01*
X69050000Y-76950000D02*
X69050000Y-74686397D01*
X68850000Y-74486397D02*
X68850000Y-74113603D01*
X69050000Y-74686397D02*
X68850000Y-74486397D01*
X69050000Y-73650000D02*
X69400000Y-73300000D01*
X69400000Y-73300000D02*
X74400000Y-73300000D01*
X69050000Y-73913603D02*
X69050000Y-73650000D01*
X67700000Y-78300000D02*
X69050000Y-76950000D01*
%TO.N,/FLASH_CS*%
X70800000Y-85300000D02*
X70800000Y-86136397D01*
X69300000Y-80700000D02*
X69300000Y-83800000D01*
X95200000Y-81000000D02*
X95100000Y-80900000D01*
X75524264Y-90324264D02*
X75524264Y-90700000D01*
X71413603Y-86750000D02*
X71950000Y-86750000D01*
X71950000Y-86750000D02*
X75524264Y-90324264D01*
X91600000Y-92000000D02*
X95200000Y-88400000D01*
X70800000Y-86136397D02*
X71413603Y-86750000D01*
X75524264Y-90700000D02*
X76824264Y-92000000D01*
X76824264Y-92000000D02*
X91600000Y-92000000D01*
X69300000Y-83800000D02*
X70800000Y-85300000D01*
X95200000Y-88400000D02*
X95200000Y-81000000D01*
%TO.N,Net-(IC1H-MCLK{slash}CCLK)*%
X68500000Y-81000000D02*
X68700000Y-81200000D01*
X74591667Y-91000000D02*
X75400000Y-91000000D01*
X69400000Y-84900000D02*
X69400000Y-85800000D01*
X72200000Y-89000000D02*
X72700000Y-89300000D01*
X75400000Y-91000000D02*
X78400000Y-94000000D01*
X68700000Y-81200000D02*
X68700000Y-84200000D01*
X69400000Y-85800000D02*
X72200000Y-88600000D01*
X68700000Y-84200000D02*
X69400000Y-84900000D01*
X72200000Y-88600000D02*
X72200000Y-89000000D01*
X72700000Y-89300000D02*
X73200000Y-89608333D01*
X73200000Y-89608333D02*
X74591667Y-91000000D01*
X68500000Y-81000000D02*
X68500000Y-79900000D01*
%TO.N,Net-(IC1H-~{PROGRAM})*%
X70900000Y-79900000D02*
X70900000Y-80219163D01*
X73300000Y-84800000D02*
X74200000Y-85700000D01*
X72600000Y-84800000D02*
X73300000Y-84800000D01*
X70900000Y-80219163D02*
X72600000Y-81919163D01*
X72600000Y-81919163D02*
X72600000Y-84800000D01*
%TO.N,Net-(IC1H-CFG2)*%
D21*
X76500000Y-85500000D02*
X76500000Y-82000000D01*
D22*
X72702404Y-80200000D02*
X75800000Y-80200000D01*
X76600000Y-81000000D02*
X76600000Y-81900000D01*
X72400000Y-80501202D02*
X72401202Y-80501202D01*
D21*
X81500000Y-87500000D02*
X79500000Y-85500000D01*
D22*
X75800000Y-80200000D02*
X76600000Y-81000000D01*
X72401202Y-80501202D02*
X72702404Y-80200000D01*
D21*
X79500000Y-85500000D02*
X76500000Y-85500000D01*
D22*
X70900000Y-78300000D02*
X72400000Y-80501202D01*
X76600000Y-81900000D02*
X76500000Y-82000000D01*
%TO.N,/FLASH_MOSI*%
D21*
X86600000Y-86200000D02*
X85200000Y-84800000D01*
X85200000Y-84800000D02*
X83800000Y-84800000D01*
%TO.N,/JTAG_TCK*%
D22*
X81000000Y-75300000D02*
X84200000Y-72100000D01*
D21*
X69000000Y-43100000D02*
X69000000Y-47400000D01*
D22*
X84200000Y-72100000D02*
X84200000Y-54400000D01*
D21*
X52000000Y-26500000D02*
X52000000Y-32000000D01*
D22*
X77200000Y-47400000D02*
X69000000Y-47400000D01*
D21*
X54300000Y-34300000D02*
X60200000Y-34300000D01*
D22*
X68400000Y-49500000D02*
X68400000Y-48000000D01*
D21*
X52000000Y-32000000D02*
X54300000Y-34300000D01*
X60200000Y-34300000D02*
X69000000Y-43100000D01*
D22*
X68400000Y-48000000D02*
X69000000Y-47400000D01*
X84200000Y-54400000D02*
X77200000Y-47400000D01*
%TO.N,Net-(U2-FB)*%
D21*
X34000000Y-46500000D02*
X32000000Y-46500000D01*
%TO.N,Net-(U4-REFTF)*%
X35700000Y-78800000D02*
X34500000Y-77600000D01*
X34500000Y-77600000D02*
X34500000Y-74000000D01*
%TO.N,Net-(J5-CC2)*%
X73300000Y-28100000D02*
X77000000Y-24400000D01*
X73300000Y-28200000D02*
X73300000Y-28100000D01*
%TO.N,Net-(U4-REFBF)*%
X37600000Y-81200000D02*
X36800000Y-81600000D01*
X36100000Y-82300000D02*
X34500000Y-82300000D01*
X36800000Y-81600000D02*
X36100000Y-82300000D01*
%TO.N,Net-(J5-CC1)*%
X82100000Y-19500000D02*
X77400000Y-19500000D01*
X82500000Y-19900000D02*
X82100000Y-19500000D01*
X76800000Y-20100000D02*
X76800000Y-20200000D01*
X77400000Y-19500000D02*
X76800000Y-20100000D01*
%TD*%
M02*
