%TF.GenerationSoftware,KiCad,Pcbnew,10.0.5*%
%TF.CreationDate,2026-08-25T12:53:40+01:00*%
%TF.ProjectId,FPGA PROJECT,46504741-2050-4524-9f4a-4543542e6b69,rev?*%
%TF.SameCoordinates,Original*%
%TF.FileFunction,Copper,L2,Inr*%
%TF.FilePolarity,Positive*%
%FSLAX46Y46*%
G04 Gerber Fmt 4.6, Leading zero omitted, Abs format (unit mm)*
G04 Created by KiCad (PCBNEW 10.0.5) date 2026-08-25 12:53:40*
%MOMM*%
%LPD*%
G01*
G04 APERTURE LIST*
%TA.AperFunction,ComponentPad*%
%ADD10C,2.050000*%
%TD*%
%TA.AperFunction,ComponentPad*%
%ADD11C,2.250000*%
%TD*%
%TA.AperFunction,ComponentPad*%
%ADD12R,1.700000X1.700000*%
%TD*%
%TA.AperFunction,ComponentPad*%
%ADD13C,1.700000*%
%TD*%
%TA.AperFunction,ComponentPad*%
%ADD14O,1.000000X2.100000*%
%TD*%
%TA.AperFunction,ComponentPad*%
%ADD15O,1.000000X1.800000*%
%TD*%
%TA.AperFunction,ViaPad*%
%ADD16C,0.600000*%
%TD*%
%TA.AperFunction,ViaPad*%
%ADD17C,0.400000*%
%TD*%
%TA.AperFunction,Conductor*%
%ADD18C,0.100000*%
%TD*%
%TA.AperFunction,Conductor*%
%ADD19C,0.200000*%
%TD*%
G04 APERTURE END LIST*
D10*
%TO.N,Net-(J2-In)*%
%TO.C,J2*%
X36500000Y-98500000D03*
D11*
%TO.N,GND*%
X33960000Y-95960000D03*
X33960000Y-101040000D03*
X39040000Y-95960000D03*
X39040000Y-101040000D03*
%TD*%
D12*
%TO.N,/JTAG_TCK*%
%TO.C,J4*%
X46580000Y-21500000D03*
D13*
%TO.N,/JTAG_TDI*%
X44040000Y-21500000D03*
%TO.N,/JTAG_TDO*%
X41500000Y-21500000D03*
%TO.N,/JTAG_TMS*%
X38960000Y-21500000D03*
%TO.N,GND*%
X36420000Y-21500000D03*
%TD*%
D12*
%TO.N,/JTAG_TCK*%
%TO.C,J3*%
X52920000Y-21500000D03*
D13*
%TO.N,/JTAG_TMS*%
X55460000Y-21500000D03*
%TO.N,/JTAG_TDI*%
X58000000Y-21500000D03*
%TO.N,/JTAG_TDO*%
X60540000Y-21500000D03*
%TO.N,GND*%
X63080000Y-21500000D03*
%TO.N,+3.3V*%
X65620000Y-21500000D03*
%TD*%
D14*
%TO.N,Net-(J5-SHIELD)*%
%TO.C,J5*%
X72180000Y-22395000D03*
D15*
X72180000Y-26575000D03*
D14*
X80820000Y-22395000D03*
D15*
X80820000Y-26575000D03*
%TD*%
D16*
%TO.N,+3.3V*%
X81200000Y-91450000D03*
D17*
X64504019Y-77495981D03*
X63704019Y-78295981D03*
D16*
X26600000Y-45200000D03*
D17*
X80200000Y-74400000D03*
D16*
X27300000Y-72600000D03*
X55100000Y-72200000D03*
D17*
X69650000Y-89100000D03*
D16*
X77247723Y-79750001D03*
D17*
X67700000Y-77500000D03*
D16*
X80900000Y-85500000D03*
X49100000Y-90800000D03*
X82500000Y-80800000D03*
X61700000Y-60900000D03*
X56100000Y-64400000D03*
X57300000Y-69800000D03*
X50900000Y-84000000D03*
X30400000Y-48400000D03*
X81900000Y-94800000D03*
D17*
X66100000Y-77500000D03*
X66100000Y-82300000D03*
X64600000Y-63600000D03*
D16*
X67450000Y-59700000D03*
X40000000Y-80425000D03*
X60100000Y-67700000D03*
X81200000Y-97800000D03*
X65500000Y-54300000D03*
D17*
X65300000Y-81500000D03*
D16*
X56500000Y-86300000D03*
D17*
X66250000Y-63050000D03*
X66250000Y-88250000D03*
X65300000Y-82300000D03*
D16*
X89300000Y-73200000D03*
X50800000Y-68200000D03*
X90000000Y-88500000D03*
X65200000Y-24100000D03*
D17*
X70550000Y-90550000D03*
D16*
X45000000Y-54300000D03*
X37000000Y-90100000D03*
X76100000Y-74700000D03*
X65700000Y-69100000D03*
X78900000Y-54800000D03*
D17*
X66900000Y-81500000D03*
D16*
X85900000Y-88800000D03*
X67900000Y-70100000D03*
X42275000Y-88205000D03*
X82300000Y-35900000D03*
X80000000Y-38200000D03*
X92500000Y-72100000D03*
X79900000Y-66500000D03*
X77400000Y-87700000D03*
X93600000Y-69200000D03*
X90000000Y-83700000D03*
D17*
X63704019Y-82304019D03*
D16*
X83650000Y-71500000D03*
D17*
X63708078Y-81500000D03*
X63041693Y-78322942D03*
X62963998Y-77548002D03*
X66108079Y-81500000D03*
D16*
X85200000Y-72000000D03*
X78000000Y-72100000D03*
D17*
X66900000Y-77491922D03*
D16*
X31550000Y-37200000D03*
%TO.N,/FLASH_MISO*%
X88200000Y-74000000D03*
X80200000Y-81100000D03*
D17*
%TO.N,GND*%
X70900000Y-74300000D03*
D16*
X84500000Y-73450000D03*
X27800000Y-83200000D03*
X43850000Y-86525000D03*
X61400000Y-44500000D03*
D17*
X65300000Y-79100000D03*
D16*
X33200000Y-52100000D03*
D17*
X65300000Y-79900000D03*
D16*
X82200000Y-21100000D03*
X31500000Y-100400000D03*
D17*
X62100000Y-74300000D03*
D16*
X27100000Y-77800000D03*
D17*
X75000000Y-84000000D03*
X53800000Y-75400000D03*
D16*
X67800000Y-26900000D03*
X68400000Y-96000000D03*
X27800000Y-88300000D03*
X39000000Y-88300000D03*
X40100000Y-82300000D03*
X64200000Y-49800000D03*
X81000000Y-72000000D03*
D17*
X70900000Y-83100000D03*
X37625000Y-77200000D03*
D16*
X48900000Y-95200000D03*
D17*
X37850000Y-42900000D03*
X65300000Y-80600000D03*
X76150000Y-79350000D03*
D16*
X35300000Y-48700000D03*
X40500000Y-93300000D03*
D17*
X56400000Y-73700000D03*
D16*
X87000000Y-50600000D03*
D17*
X59700000Y-74300000D03*
D16*
X83900000Y-28100000D03*
D17*
X69100000Y-68100000D03*
X62900000Y-79100000D03*
D16*
X31500000Y-96500000D03*
X76500000Y-34400000D03*
D17*
X55900000Y-88100000D03*
X73300000Y-68100000D03*
X54200000Y-76800000D03*
X64516415Y-80562910D03*
D16*
X56200000Y-95400000D03*
D17*
X78750000Y-74400000D03*
D16*
X82900000Y-68600000D03*
X64300000Y-61000000D03*
X89600000Y-43000000D03*
D17*
X66100000Y-79100000D03*
D16*
X80900000Y-88800000D03*
X87600000Y-36100000D03*
X64400000Y-65700000D03*
X93200000Y-88600000D03*
D17*
X65287700Y-73384625D03*
X70550000Y-88500000D03*
X66100000Y-79900000D03*
X54700000Y-69800000D03*
D16*
X41200000Y-96600000D03*
D17*
X66100000Y-80700000D03*
X69300000Y-74300000D03*
X69530868Y-91600000D03*
X75500000Y-88100000D03*
D16*
X45950000Y-72925000D03*
D17*
X71600000Y-86300000D03*
D16*
X73000000Y-20100000D03*
X56000000Y-35500000D03*
D17*
X50100000Y-86625000D03*
D16*
X49900000Y-63500000D03*
D17*
X75700000Y-73000000D03*
D16*
X78600000Y-77700000D03*
X51800000Y-37100000D03*
X35100000Y-44200000D03*
D17*
X62100000Y-84700000D03*
D16*
X62000000Y-95000000D03*
D17*
X71800000Y-76800000D03*
X66100000Y-91900000D03*
X65300000Y-78300000D03*
D16*
X77200000Y-66700000D03*
X79300000Y-41800000D03*
X28100000Y-40100000D03*
X59000000Y-64000000D03*
X41300000Y-101040000D03*
D17*
X64500000Y-78300000D03*
X38600000Y-73150000D03*
D16*
X63200000Y-64400000D03*
D17*
X59100000Y-69500000D03*
X64500000Y-79900000D03*
X66900000Y-80700000D03*
D16*
X41175000Y-71275000D03*
X50200000Y-85200000D03*
D17*
X62900000Y-79900000D03*
X68500000Y-85500000D03*
X66900000Y-82300000D03*
D16*
X86500000Y-93600000D03*
X70300000Y-60700000D03*
X40200000Y-76400000D03*
X31900000Y-90000000D03*
D17*
X63748002Y-79036002D03*
D16*
X50800000Y-75700000D03*
D17*
X59600000Y-86400000D03*
X72500000Y-90050000D03*
X58100000Y-89900000D03*
D16*
X50400000Y-37200000D03*
D17*
X63900000Y-70300000D03*
X62700000Y-89700000D03*
X65300000Y-85500000D03*
D16*
%TO.N,/JTAG_TMS*%
X39500000Y-26000000D03*
X45600000Y-50200000D03*
X75400000Y-49400000D03*
D17*
%TO.N,+2V5*%
X71750000Y-56300000D03*
X67650000Y-81450000D03*
X66000000Y-70350000D03*
X70950000Y-66400000D03*
X75800000Y-40700000D03*
X63704018Y-77495982D03*
D16*
X73000000Y-95300000D03*
D17*
X67900000Y-88650000D03*
X76700000Y-88650000D03*
X71800000Y-46800000D03*
D16*
X76300000Y-87100000D03*
%TO.N,+1V1*%
X74600000Y-77700000D03*
X59500000Y-90000000D03*
X56800000Y-96900000D03*
D17*
X64451998Y-79163998D03*
D16*
X55000000Y-90500000D03*
D17*
X75000000Y-81550000D03*
D16*
X57550000Y-46100000D03*
X51000000Y-96600000D03*
X58500000Y-41800000D03*
D17*
X66891920Y-79899998D03*
X63700000Y-80700000D03*
X63695982Y-79904018D03*
X64450000Y-81450000D03*
X54550000Y-45750000D03*
X66891922Y-79100000D03*
D16*
X62400000Y-97400000D03*
D17*
X55300000Y-76150000D03*
D16*
X56786091Y-76163910D03*
%TO.N,/JTAG_TDI*%
X44800000Y-60900000D03*
D17*
X70900000Y-77500000D03*
D16*
X71700000Y-70600000D03*
X48500000Y-28400000D03*
X54200000Y-70900000D03*
%TO.N,Net-(IC1H-CFG0)*%
X60600000Y-64800000D03*
X62600000Y-71500000D03*
X62100000Y-68000000D03*
D17*
X68500000Y-78300000D03*
D16*
X62500000Y-70200000D03*
X74450000Y-74700000D03*
D17*
%TO.N,Net-(IC1H-CFG1)*%
X70100000Y-78300000D03*
D16*
X78200000Y-91000000D03*
%TO.N,+3.3VA*%
X41400000Y-85300000D03*
X25400000Y-84800000D03*
X39400000Y-85700000D03*
X45400000Y-92900000D03*
D17*
X46750000Y-87175000D03*
D16*
X24600000Y-71300000D03*
X24200000Y-77900000D03*
X37000000Y-88600000D03*
%TO.N,Net-(U8-~{HOLD}{slash}~{RESET}{slash}IO_{3})*%
X87500000Y-85500000D03*
X94500000Y-75000000D03*
%TO.N,Net-(IC1H-DONE)*%
X73634313Y-86265687D03*
D17*
X70100000Y-79900001D03*
D16*
%TO.N,Net-(U4-AIN)*%
X36900000Y-92300000D03*
X30900000Y-89100000D03*
%TO.N,Net-(U4-REFTS)*%
X39050000Y-84000000D03*
X39500000Y-79100000D03*
%TO.N,/PT4B*%
X55500000Y-84500000D03*
D17*
X59700001Y-84700000D03*
%TO.N,/PT11B*%
X59700000Y-83900000D03*
D16*
X50487851Y-77085421D03*
%TO.N,/PT11A*%
X51000000Y-77700000D03*
D17*
X61300000Y-83100000D03*
%TO.N,/PT9B*%
X62100000Y-83100000D03*
D16*
X51900000Y-78475000D03*
D17*
%TO.N,/PT9A*%
X62900000Y-83100002D03*
D16*
X55900000Y-78100000D03*
%TO.N,Net-(IC1B-PT24A)*%
X67300000Y-67500000D03*
X55100000Y-74200000D03*
D17*
X62104019Y-80695981D03*
D16*
%TO.N,/JTAG_TDO*%
X74400000Y-73300000D03*
D17*
X67700000Y-78300000D03*
%TO.N,/FLASH_CS*%
X69300000Y-80700000D03*
D16*
X95100000Y-80900000D03*
%TO.N,Net-(IC1H-MCLK{slash}CCLK)*%
X78400000Y-94000000D03*
D17*
X68500000Y-79900000D03*
D16*
%TO.N,Net-(IC1H-~{PROGRAM})*%
X74200000Y-85700000D03*
D17*
X70900000Y-79900000D03*
%TO.N,Net-(IC1H-CFG2)*%
X70900000Y-78300000D03*
D16*
X81500000Y-87500000D03*
%TO.N,/FLASH_MOSI*%
X86600000Y-86200000D03*
X83800000Y-84800000D03*
%TO.N,/JTAG_TCK*%
X81000000Y-75300000D03*
X68400000Y-49500000D03*
X52000000Y-26500000D03*
%TO.N,Net-(U2-FB)*%
X34000000Y-46500000D03*
X32000000Y-46500000D03*
%TO.N,Net-(U4-REFTF)*%
X34500000Y-74000000D03*
X35700000Y-78800000D03*
%TO.N,Net-(J5-CC2)*%
X77000000Y-24400000D03*
X73300000Y-28200000D03*
%TO.N,+5V*%
X74200000Y-20200000D03*
X30150000Y-41250000D03*
X55600000Y-42100000D03*
X54800000Y-35300000D03*
D17*
X37650000Y-40100000D03*
D16*
X78800000Y-20200000D03*
X50100000Y-41600000D03*
%TO.N,Net-(U4-REFBF)*%
X37600000Y-81200000D03*
X34500000Y-82300000D03*
%TO.N,Net-(J5-CC1)*%
X76800000Y-20200000D03*
X82500000Y-19900000D03*
%TD*%
%TO.N,GND*%
D18*
X33000000Y-51000000D02*
X32500000Y-51000000D01*
X73600000Y-21400000D02*
X73300000Y-21700000D01*
X73550000Y-20750000D02*
X79550000Y-20750000D01*
D19*
X39240000Y-101040000D02*
X39500000Y-101300000D01*
X39040000Y-101040000D02*
X39240000Y-101040000D01*
%TD*%
%TA.AperFunction,Conductor*%
%TO.N,GND*%
G36*
X95245401Y-19020185D02*
G01*
X95291156Y-19072989D01*
X95302359Y-19123808D01*
X95355085Y-28593187D01*
X95643740Y-80435876D01*
X95624429Y-80503024D01*
X95571881Y-80549072D01*
X95502779Y-80559400D01*
X95439062Y-80530730D01*
X95432061Y-80524247D01*
X95407316Y-80499502D01*
X95407314Y-80499500D01*
X95328653Y-80454085D01*
X95293187Y-80433608D01*
X95229539Y-80416554D01*
X95165892Y-80399500D01*
X95034108Y-80399500D01*
X94906812Y-80433608D01*
X94792686Y-80499500D01*
X94792683Y-80499502D01*
X94699502Y-80592683D01*
X94699500Y-80592686D01*
X94633608Y-80706812D01*
X94599500Y-80834108D01*
X94599500Y-80965891D01*
X94633608Y-81093187D01*
X94664893Y-81147373D01*
X94699500Y-81207314D01*
X94792686Y-81300500D01*
X94906814Y-81366392D01*
X95034108Y-81400500D01*
X95034110Y-81400500D01*
X95165890Y-81400500D01*
X95165892Y-81400500D01*
X95293186Y-81366392D01*
X95407314Y-81300500D01*
X95437194Y-81270619D01*
X95498514Y-81237135D01*
X95568206Y-81242119D01*
X95624140Y-81283989D01*
X95648558Y-81349453D01*
X95648872Y-81357611D01*
X95799303Y-108374810D01*
X95779992Y-108441958D01*
X95727444Y-108488006D01*
X95675305Y-108499500D01*
X20723860Y-108499500D01*
X20656821Y-108479815D01*
X20611066Y-108427011D01*
X20599860Y-108375643D01*
X20593711Y-102878711D01*
X24149500Y-102878711D01*
X24149500Y-103121288D01*
X24181161Y-103361785D01*
X24243947Y-103596104D01*
X24296400Y-103722736D01*
X24336776Y-103820212D01*
X24458064Y-104030289D01*
X24458066Y-104030292D01*
X24458067Y-104030293D01*
X24605733Y-104222736D01*
X24605739Y-104222743D01*
X24777256Y-104394260D01*
X24777262Y-104394265D01*
X24969711Y-104541936D01*
X25179788Y-104663224D01*
X25403900Y-104756054D01*
X25638211Y-104818838D01*
X25818586Y-104842584D01*
X25878711Y-104850500D01*
X25878712Y-104850500D01*
X26121289Y-104850500D01*
X26169388Y-104844167D01*
X26361789Y-104818838D01*
X26596100Y-104756054D01*
X26820212Y-104663224D01*
X27030289Y-104541936D01*
X27222738Y-104394265D01*
X27394265Y-104222738D01*
X27541936Y-104030289D01*
X27663224Y-103820212D01*
X27756054Y-103596100D01*
X27818838Y-103361789D01*
X27850500Y-103121288D01*
X27850500Y-102878712D01*
X27818838Y-102638211D01*
X27756054Y-102403900D01*
X27663226Y-102179794D01*
X27663226Y-102179793D01*
X27663224Y-102179788D01*
X27541936Y-101969711D01*
X27394265Y-101777262D01*
X27394260Y-101777256D01*
X27222743Y-101605739D01*
X27222736Y-101605733D01*
X27030293Y-101458067D01*
X27030292Y-101458066D01*
X27030289Y-101458064D01*
X26820212Y-101336776D01*
X26702302Y-101287936D01*
X26596104Y-101243947D01*
X26361785Y-101181161D01*
X26121289Y-101149500D01*
X26121288Y-101149500D01*
X25878712Y-101149500D01*
X25878711Y-101149500D01*
X25638214Y-101181161D01*
X25403895Y-101243947D01*
X25179794Y-101336773D01*
X25179785Y-101336777D01*
X24969706Y-101458067D01*
X24777263Y-101605733D01*
X24777256Y-101605739D01*
X24605739Y-101777256D01*
X24605733Y-101777263D01*
X24458067Y-101969706D01*
X24336777Y-102179785D01*
X24336773Y-102179794D01*
X24243947Y-102403895D01*
X24181161Y-102638214D01*
X24149500Y-102878711D01*
X20593711Y-102878711D01*
X20591511Y-100912110D01*
X32335000Y-100912110D01*
X32335000Y-101167889D01*
X32375013Y-101420523D01*
X32454051Y-101663781D01*
X32454052Y-101663784D01*
X32570175Y-101891686D01*
X32647850Y-101998595D01*
X32647850Y-101998596D01*
X33205884Y-101440561D01*
X33206740Y-101442626D01*
X33299762Y-101581844D01*
X33418156Y-101700238D01*
X33557374Y-101793260D01*
X33559437Y-101794114D01*
X33001402Y-102352148D01*
X33108313Y-102429824D01*
X33336215Y-102545947D01*
X33336218Y-102545948D01*
X33579476Y-102624986D01*
X33832111Y-102665000D01*
X34087889Y-102665000D01*
X34340523Y-102624986D01*
X34583781Y-102545948D01*
X34583784Y-102545947D01*
X34811685Y-102429825D01*
X34918595Y-102352148D01*
X34918596Y-102352148D01*
X34360562Y-101794114D01*
X34362626Y-101793260D01*
X34501844Y-101700238D01*
X34620238Y-101581844D01*
X34713260Y-101442626D01*
X34714114Y-101440562D01*
X35272148Y-101998596D01*
X35272148Y-101998595D01*
X35349825Y-101891685D01*
X35465947Y-101663784D01*
X35465948Y-101663781D01*
X35544986Y-101420523D01*
X35585000Y-101167889D01*
X35585000Y-100912110D01*
X37415000Y-100912110D01*
X37415000Y-101167889D01*
X37455013Y-101420523D01*
X37534051Y-101663781D01*
X37534052Y-101663784D01*
X37650175Y-101891686D01*
X37727850Y-101998595D01*
X37727850Y-101998596D01*
X38285884Y-101440561D01*
X38286740Y-101442626D01*
X38379762Y-101581844D01*
X38498156Y-101700238D01*
X38637374Y-101793260D01*
X38639437Y-101794114D01*
X38081402Y-102352148D01*
X38188313Y-102429824D01*
X38416215Y-102545947D01*
X38416218Y-102545948D01*
X38659476Y-102624986D01*
X38912111Y-102665000D01*
X39167889Y-102665000D01*
X39420523Y-102624986D01*
X39663781Y-102545948D01*
X39663784Y-102545947D01*
X39891685Y-102429825D01*
X39962036Y-102378711D01*
X88649500Y-102378711D01*
X88649500Y-102621288D01*
X88681161Y-102861785D01*
X88743947Y-103096104D01*
X88754379Y-103121288D01*
X88836776Y-103320212D01*
X88958064Y-103530289D01*
X88958066Y-103530292D01*
X88958067Y-103530293D01*
X89105733Y-103722736D01*
X89105739Y-103722743D01*
X89277256Y-103894260D01*
X89277262Y-103894265D01*
X89469711Y-104041936D01*
X89679788Y-104163224D01*
X89903900Y-104256054D01*
X90138211Y-104318838D01*
X90318586Y-104342584D01*
X90378711Y-104350500D01*
X90378712Y-104350500D01*
X90621289Y-104350500D01*
X90669388Y-104344167D01*
X90861789Y-104318838D01*
X91096100Y-104256054D01*
X91320212Y-104163224D01*
X91530289Y-104041936D01*
X91722738Y-103894265D01*
X91894265Y-103722738D01*
X92041936Y-103530289D01*
X92163224Y-103320212D01*
X92256054Y-103096100D01*
X92318838Y-102861789D01*
X92350500Y-102621288D01*
X92350500Y-102378712D01*
X92318838Y-102138211D01*
X92256054Y-101903900D01*
X92163224Y-101679788D01*
X92041936Y-101469711D01*
X91939929Y-101336773D01*
X91894266Y-101277263D01*
X91894260Y-101277256D01*
X91722743Y-101105739D01*
X91722736Y-101105733D01*
X91530293Y-100958067D01*
X91530292Y-100958066D01*
X91530289Y-100958064D01*
X91320212Y-100836776D01*
X91320205Y-100836773D01*
X91096104Y-100743947D01*
X90861785Y-100681161D01*
X90621289Y-100649500D01*
X90621288Y-100649500D01*
X90378712Y-100649500D01*
X90378711Y-100649500D01*
X90138214Y-100681161D01*
X89903895Y-100743947D01*
X89679794Y-100836773D01*
X89679785Y-100836777D01*
X89469706Y-100958067D01*
X89277263Y-101105733D01*
X89277256Y-101105739D01*
X89105739Y-101277256D01*
X89105733Y-101277263D01*
X88958067Y-101469706D01*
X88836777Y-101679785D01*
X88836773Y-101679794D01*
X88743947Y-101903895D01*
X88681161Y-102138214D01*
X88649500Y-102378711D01*
X39962036Y-102378711D01*
X39998596Y-102352148D01*
X39440562Y-101794114D01*
X39442626Y-101793260D01*
X39581844Y-101700238D01*
X39700238Y-101581844D01*
X39793260Y-101442626D01*
X39794114Y-101440562D01*
X40352148Y-101998596D01*
X40352148Y-101998595D01*
X40429825Y-101891685D01*
X40545947Y-101663784D01*
X40545948Y-101663781D01*
X40624986Y-101420523D01*
X40665000Y-101167889D01*
X40665000Y-100912110D01*
X40624986Y-100659476D01*
X40545948Y-100416218D01*
X40545947Y-100416215D01*
X40429824Y-100188313D01*
X40352148Y-100081403D01*
X40352148Y-100081402D01*
X39794114Y-100639436D01*
X39793260Y-100637374D01*
X39700238Y-100498156D01*
X39581844Y-100379762D01*
X39442626Y-100286740D01*
X39440560Y-100285884D01*
X39998596Y-99727850D01*
X39891686Y-99650175D01*
X39663784Y-99534052D01*
X39663781Y-99534051D01*
X39420523Y-99455013D01*
X39167889Y-99415000D01*
X38912111Y-99415000D01*
X38659476Y-99455013D01*
X38416218Y-99534051D01*
X38416215Y-99534052D01*
X38188310Y-99650177D01*
X38081403Y-99727849D01*
X38081402Y-99727850D01*
X38639437Y-100285885D01*
X38637374Y-100286740D01*
X38498156Y-100379762D01*
X38379762Y-100498156D01*
X38286740Y-100637374D01*
X38285885Y-100639437D01*
X37727850Y-100081402D01*
X37727849Y-100081403D01*
X37650177Y-100188310D01*
X37534052Y-100416215D01*
X37534051Y-100416218D01*
X37455013Y-100659476D01*
X37415000Y-100912110D01*
X35585000Y-100912110D01*
X35544986Y-100659476D01*
X35465948Y-100416218D01*
X35465947Y-100416215D01*
X35349824Y-100188313D01*
X35272148Y-100081403D01*
X35272148Y-100081402D01*
X34714114Y-100639436D01*
X34713260Y-100637374D01*
X34620238Y-100498156D01*
X34501844Y-100379762D01*
X34362626Y-100286740D01*
X34360560Y-100285884D01*
X34918596Y-99727850D01*
X34811686Y-99650175D01*
X34583784Y-99534052D01*
X34583781Y-99534051D01*
X34340523Y-99455013D01*
X34087889Y-99415000D01*
X33832111Y-99415000D01*
X33579476Y-99455013D01*
X33336218Y-99534051D01*
X33336215Y-99534052D01*
X33108310Y-99650177D01*
X33001403Y-99727849D01*
X33001402Y-99727850D01*
X33559437Y-100285885D01*
X33557374Y-100286740D01*
X33418156Y-100379762D01*
X33299762Y-100498156D01*
X33206740Y-100637374D01*
X33205885Y-100639437D01*
X32647850Y-100081402D01*
X32647849Y-100081403D01*
X32570177Y-100188310D01*
X32454052Y-100416215D01*
X32454051Y-100416218D01*
X32375013Y-100659476D01*
X32335000Y-100912110D01*
X20591511Y-100912110D01*
X20588705Y-98403551D01*
X35274500Y-98403551D01*
X35274500Y-98596448D01*
X35304675Y-98786969D01*
X35304676Y-98786972D01*
X35364285Y-98970429D01*
X35451859Y-99142302D01*
X35565241Y-99298359D01*
X35701641Y-99434759D01*
X35857698Y-99548141D01*
X36029571Y-99635715D01*
X36213028Y-99695324D01*
X36403551Y-99725500D01*
X36403552Y-99725500D01*
X36596448Y-99725500D01*
X36596449Y-99725500D01*
X36786972Y-99695324D01*
X36970429Y-99635715D01*
X37142302Y-99548141D01*
X37298359Y-99434759D01*
X37434759Y-99298359D01*
X37548141Y-99142302D01*
X37635715Y-98970429D01*
X37695324Y-98786972D01*
X37725500Y-98596449D01*
X37725500Y-98403551D01*
X37695324Y-98213028D01*
X37635715Y-98029571D01*
X37548141Y-97857698D01*
X37434759Y-97701641D01*
X37298359Y-97565241D01*
X37142302Y-97451859D01*
X36970429Y-97364285D01*
X36786972Y-97304676D01*
X36786969Y-97304675D01*
X36640614Y-97281495D01*
X36596449Y-97274500D01*
X36403551Y-97274500D01*
X36367697Y-97280178D01*
X36213030Y-97304675D01*
X36029568Y-97364286D01*
X35857697Y-97451859D01*
X35801504Y-97492686D01*
X35701641Y-97565241D01*
X35701639Y-97565243D01*
X35701638Y-97565243D01*
X35565243Y-97701638D01*
X35565243Y-97701639D01*
X35565241Y-97701641D01*
X35541651Y-97734110D01*
X35451859Y-97857697D01*
X35364286Y-98029568D01*
X35304675Y-98213030D01*
X35274500Y-98403551D01*
X20588705Y-98403551D01*
X20585829Y-95832110D01*
X32335000Y-95832110D01*
X32335000Y-96087889D01*
X32375013Y-96340523D01*
X32454051Y-96583781D01*
X32454052Y-96583784D01*
X32570175Y-96811686D01*
X32647850Y-96918595D01*
X32647850Y-96918596D01*
X33205884Y-96360561D01*
X33206740Y-96362626D01*
X33299762Y-96501844D01*
X33418156Y-96620238D01*
X33557374Y-96713260D01*
X33559437Y-96714114D01*
X33001402Y-97272148D01*
X33108313Y-97349824D01*
X33336215Y-97465947D01*
X33336218Y-97465948D01*
X33579476Y-97544986D01*
X33832111Y-97585000D01*
X34087889Y-97585000D01*
X34340523Y-97544986D01*
X34583781Y-97465948D01*
X34583784Y-97465947D01*
X34811685Y-97349825D01*
X34918595Y-97272148D01*
X34918596Y-97272148D01*
X34360562Y-96714114D01*
X34362626Y-96713260D01*
X34501844Y-96620238D01*
X34620238Y-96501844D01*
X34713260Y-96362626D01*
X34714114Y-96360562D01*
X35272148Y-96918596D01*
X35272148Y-96918595D01*
X35349825Y-96811685D01*
X35465947Y-96583784D01*
X35465948Y-96583781D01*
X35544986Y-96340523D01*
X35585000Y-96087889D01*
X35585000Y-95832110D01*
X37415000Y-95832110D01*
X37415000Y-96087889D01*
X37455013Y-96340523D01*
X37534051Y-96583781D01*
X37534052Y-96583784D01*
X37650175Y-96811686D01*
X37727850Y-96918595D01*
X37727850Y-96918596D01*
X38285884Y-96360561D01*
X38286740Y-96362626D01*
X38379762Y-96501844D01*
X38498156Y-96620238D01*
X38637374Y-96713260D01*
X38639437Y-96714114D01*
X38081402Y-97272148D01*
X38188313Y-97349824D01*
X38416215Y-97465947D01*
X38416218Y-97465948D01*
X38659476Y-97544986D01*
X38912111Y-97585000D01*
X39167889Y-97585000D01*
X39420523Y-97544986D01*
X39663781Y-97465948D01*
X39663784Y-97465947D01*
X39891685Y-97349825D01*
X39998595Y-97272148D01*
X39998596Y-97272148D01*
X39440562Y-96714114D01*
X39442626Y-96713260D01*
X39581844Y-96620238D01*
X39700238Y-96501844D01*
X39793260Y-96362626D01*
X39794114Y-96360562D01*
X40352148Y-96918596D01*
X40352148Y-96918595D01*
X40429825Y-96811685D01*
X40545947Y-96583784D01*
X40545948Y-96583781D01*
X40562088Y-96534108D01*
X50499500Y-96534108D01*
X50499500Y-96665891D01*
X50533608Y-96793187D01*
X50566554Y-96850250D01*
X50599500Y-96907314D01*
X50692686Y-97000500D01*
X50806814Y-97066392D01*
X50934108Y-97100500D01*
X50934110Y-97100500D01*
X51065890Y-97100500D01*
X51065892Y-97100500D01*
X51193186Y-97066392D01*
X51307314Y-97000500D01*
X51400500Y-96907314D01*
X51442766Y-96834108D01*
X56299500Y-96834108D01*
X56299500Y-96965891D01*
X56333608Y-97093187D01*
X56366554Y-97150250D01*
X56399500Y-97207314D01*
X56492686Y-97300500D01*
X56578119Y-97349825D01*
X56603164Y-97364285D01*
X56606814Y-97366392D01*
X56734108Y-97400500D01*
X56734110Y-97400500D01*
X56865890Y-97400500D01*
X56865892Y-97400500D01*
X56993186Y-97366392D01*
X57049103Y-97334108D01*
X61899500Y-97334108D01*
X61899500Y-97465892D01*
X61916554Y-97529539D01*
X61933608Y-97593187D01*
X61941475Y-97606812D01*
X61999500Y-97707314D01*
X62092686Y-97800500D01*
X62191521Y-97857563D01*
X62205944Y-97865890D01*
X62206814Y-97866392D01*
X62334108Y-97900500D01*
X62334110Y-97900500D01*
X62465890Y-97900500D01*
X62465892Y-97900500D01*
X62593186Y-97866392D01*
X62707314Y-97800500D01*
X62773706Y-97734108D01*
X80699500Y-97734108D01*
X80699500Y-97865891D01*
X80733608Y-97993187D01*
X80754613Y-98029568D01*
X80799500Y-98107314D01*
X80892686Y-98200500D01*
X81006814Y-98266392D01*
X81134108Y-98300500D01*
X81134110Y-98300500D01*
X81265890Y-98300500D01*
X81265892Y-98300500D01*
X81393186Y-98266392D01*
X81507314Y-98200500D01*
X81600500Y-98107314D01*
X81666392Y-97993186D01*
X81700500Y-97865892D01*
X81700500Y-97734108D01*
X81666392Y-97606814D01*
X81600500Y-97492686D01*
X81507314Y-97399500D01*
X81409142Y-97342820D01*
X81393187Y-97333608D01*
X81285209Y-97304676D01*
X81265892Y-97299500D01*
X81134108Y-97299500D01*
X81006812Y-97333608D01*
X80892686Y-97399500D01*
X80892683Y-97399502D01*
X80799502Y-97492683D01*
X80799500Y-97492686D01*
X80733608Y-97606812D01*
X80699500Y-97734108D01*
X62773706Y-97734108D01*
X62800500Y-97707314D01*
X62813023Y-97685622D01*
X62825520Y-97663980D01*
X62866390Y-97593189D01*
X62866392Y-97593186D01*
X62900500Y-97465892D01*
X62900500Y-97334108D01*
X62866392Y-97206814D01*
X62800500Y-97092686D01*
X62707314Y-96999500D01*
X62649100Y-96965890D01*
X62593187Y-96933608D01*
X62529539Y-96916554D01*
X62465892Y-96899500D01*
X62334108Y-96899500D01*
X62206812Y-96933608D01*
X62092686Y-96999500D01*
X62092683Y-96999502D01*
X61999502Y-97092683D01*
X61999500Y-97092686D01*
X61933608Y-97206812D01*
X61933473Y-97207316D01*
X61899500Y-97334108D01*
X57049103Y-97334108D01*
X57107314Y-97300500D01*
X57200500Y-97207314D01*
X57266392Y-97093186D01*
X57300500Y-96965892D01*
X57300500Y-96834108D01*
X57266392Y-96706814D01*
X57200500Y-96592686D01*
X57107314Y-96499500D01*
X57050250Y-96466554D01*
X56993187Y-96433608D01*
X56893188Y-96406814D01*
X56865892Y-96399500D01*
X56734108Y-96399500D01*
X56606812Y-96433608D01*
X56492686Y-96499500D01*
X56492683Y-96499502D01*
X56399502Y-96592683D01*
X56399500Y-96592686D01*
X56333608Y-96706812D01*
X56299500Y-96834108D01*
X51442766Y-96834108D01*
X51466392Y-96793186D01*
X51500500Y-96665892D01*
X51500500Y-96534108D01*
X51466392Y-96406814D01*
X51400500Y-96292686D01*
X51307314Y-96199500D01*
X51250250Y-96166554D01*
X51193187Y-96133608D01*
X51129539Y-96116554D01*
X51065892Y-96099500D01*
X50934108Y-96099500D01*
X50806812Y-96133608D01*
X50692686Y-96199500D01*
X50692683Y-96199502D01*
X50599502Y-96292683D01*
X50599500Y-96292686D01*
X50533608Y-96406812D01*
X50499500Y-96534108D01*
X40562088Y-96534108D01*
X40577179Y-96487663D01*
X40624986Y-96340523D01*
X40665000Y-96087889D01*
X40665000Y-95832110D01*
X40624986Y-95579476D01*
X40545948Y-95336218D01*
X40545947Y-95336215D01*
X40518463Y-95282276D01*
X40493920Y-95234108D01*
X72499500Y-95234108D01*
X72499500Y-95365891D01*
X72533608Y-95493187D01*
X72566554Y-95550250D01*
X72599500Y-95607314D01*
X72692686Y-95700500D01*
X72806814Y-95766392D01*
X72934108Y-95800500D01*
X72934110Y-95800500D01*
X73065890Y-95800500D01*
X73065892Y-95800500D01*
X73193186Y-95766392D01*
X73307314Y-95700500D01*
X73400500Y-95607314D01*
X73466392Y-95493186D01*
X73500500Y-95365892D01*
X73500500Y-95234108D01*
X73466392Y-95106814D01*
X73400500Y-94992686D01*
X73307314Y-94899500D01*
X73193186Y-94833608D01*
X73065892Y-94799500D01*
X72934108Y-94799500D01*
X72806812Y-94833608D01*
X72692686Y-94899500D01*
X72692683Y-94899502D01*
X72599502Y-94992683D01*
X72599500Y-94992686D01*
X72533608Y-95106812D01*
X72499500Y-95234108D01*
X40493920Y-95234108D01*
X40429824Y-95108313D01*
X40352148Y-95001403D01*
X40352148Y-95001402D01*
X39794114Y-95559436D01*
X39793260Y-95557374D01*
X39700238Y-95418156D01*
X39581844Y-95299762D01*
X39442626Y-95206740D01*
X39440560Y-95205884D01*
X39912338Y-94734108D01*
X81399500Y-94734108D01*
X81399500Y-94865891D01*
X81433608Y-94993187D01*
X81438352Y-95001403D01*
X81499500Y-95107314D01*
X81592686Y-95200500D01*
X81706814Y-95266392D01*
X81834108Y-95300500D01*
X81834110Y-95300500D01*
X81965890Y-95300500D01*
X81965892Y-95300500D01*
X82093186Y-95266392D01*
X82207314Y-95200500D01*
X82300500Y-95107314D01*
X82366392Y-94993186D01*
X82400500Y-94865892D01*
X82400500Y-94734108D01*
X82366392Y-94606814D01*
X82300500Y-94492686D01*
X82207314Y-94399500D01*
X82150250Y-94366554D01*
X82093187Y-94333608D01*
X82029539Y-94316554D01*
X81965892Y-94299500D01*
X81834108Y-94299500D01*
X81706812Y-94333608D01*
X81592686Y-94399500D01*
X81592683Y-94399502D01*
X81499502Y-94492683D01*
X81499500Y-94492686D01*
X81433608Y-94606812D01*
X81399500Y-94734108D01*
X39912338Y-94734108D01*
X39998596Y-94647850D01*
X39891686Y-94570175D01*
X39663784Y-94454052D01*
X39663781Y-94454051D01*
X39420523Y-94375013D01*
X39167889Y-94335000D01*
X38912111Y-94335000D01*
X38659476Y-94375013D01*
X38416218Y-94454051D01*
X38416215Y-94454052D01*
X38188310Y-94570177D01*
X38081403Y-94647849D01*
X38081402Y-94647850D01*
X38639437Y-95205885D01*
X38637374Y-95206740D01*
X38498156Y-95299762D01*
X38379762Y-95418156D01*
X38286740Y-95557374D01*
X38285885Y-95559437D01*
X37727850Y-95001402D01*
X37727849Y-95001403D01*
X37650177Y-95108310D01*
X37534052Y-95336215D01*
X37534051Y-95336218D01*
X37455013Y-95579476D01*
X37415000Y-95832110D01*
X35585000Y-95832110D01*
X35544986Y-95579476D01*
X35465948Y-95336218D01*
X35465947Y-95336215D01*
X35349824Y-95108313D01*
X35272148Y-95001403D01*
X35272148Y-95001402D01*
X34714114Y-95559436D01*
X34713260Y-95557374D01*
X34620238Y-95418156D01*
X34501844Y-95299762D01*
X34362626Y-95206740D01*
X34360560Y-95205884D01*
X34918596Y-94647850D01*
X34811686Y-94570175D01*
X34583784Y-94454052D01*
X34583781Y-94454051D01*
X34340523Y-94375013D01*
X34087889Y-94335000D01*
X33832111Y-94335000D01*
X33579476Y-94375013D01*
X33336218Y-94454051D01*
X33336215Y-94454052D01*
X33108310Y-94570177D01*
X33001403Y-94647849D01*
X33001402Y-94647850D01*
X33559437Y-95205885D01*
X33557374Y-95206740D01*
X33418156Y-95299762D01*
X33299762Y-95418156D01*
X33206740Y-95557374D01*
X33205885Y-95559437D01*
X32647850Y-95001402D01*
X32647849Y-95001403D01*
X32570177Y-95108310D01*
X32454052Y-95336215D01*
X32454051Y-95336218D01*
X32375013Y-95579476D01*
X32335000Y-95832110D01*
X20585829Y-95832110D01*
X20583706Y-93934108D01*
X77899500Y-93934108D01*
X77899500Y-94065891D01*
X77933608Y-94193187D01*
X77966554Y-94250250D01*
X77999500Y-94307314D01*
X78092686Y-94400500D01*
X78206814Y-94466392D01*
X78334108Y-94500500D01*
X78334110Y-94500500D01*
X78465890Y-94500500D01*
X78465892Y-94500500D01*
X78593186Y-94466392D01*
X78707314Y-94400500D01*
X78800500Y-94307314D01*
X78866392Y-94193186D01*
X78900500Y-94065892D01*
X78900500Y-93934108D01*
X78866392Y-93806814D01*
X78800500Y-93692686D01*
X78707314Y-93599500D01*
X78650250Y-93566554D01*
X78593187Y-93533608D01*
X78529539Y-93516554D01*
X78465892Y-93499500D01*
X78334108Y-93499500D01*
X78206812Y-93533608D01*
X78092686Y-93599500D01*
X78092683Y-93599502D01*
X77999502Y-93692683D01*
X77999500Y-93692686D01*
X77933608Y-93806812D01*
X77899500Y-93934108D01*
X20583706Y-93934108D01*
X20582476Y-92834108D01*
X44899500Y-92834108D01*
X44899500Y-92965891D01*
X44933608Y-93093187D01*
X44966554Y-93150250D01*
X44999500Y-93207314D01*
X45092686Y-93300500D01*
X45206814Y-93366392D01*
X45334108Y-93400500D01*
X45334110Y-93400500D01*
X45465890Y-93400500D01*
X45465892Y-93400500D01*
X45593186Y-93366392D01*
X45707314Y-93300500D01*
X45800500Y-93207314D01*
X45866392Y-93093186D01*
X45900500Y-92965892D01*
X45900500Y-92834108D01*
X45866392Y-92706814D01*
X45800500Y-92592686D01*
X45707314Y-92499500D01*
X45650250Y-92466554D01*
X45593187Y-92433608D01*
X45529539Y-92416554D01*
X45465892Y-92399500D01*
X45334108Y-92399500D01*
X45206812Y-92433608D01*
X45092686Y-92499500D01*
X45092683Y-92499502D01*
X44999502Y-92592683D01*
X44999500Y-92592686D01*
X44933608Y-92706812D01*
X44899500Y-92834108D01*
X20582476Y-92834108D01*
X20581805Y-92234108D01*
X36399500Y-92234108D01*
X36399500Y-92365891D01*
X36433608Y-92493187D01*
X36466554Y-92550250D01*
X36499500Y-92607314D01*
X36592686Y-92700500D01*
X36691521Y-92757563D01*
X36706810Y-92766390D01*
X36706814Y-92766392D01*
X36834108Y-92800500D01*
X36834110Y-92800500D01*
X36965890Y-92800500D01*
X36965892Y-92800500D01*
X37093186Y-92766392D01*
X37207314Y-92700500D01*
X37300500Y-92607314D01*
X37366392Y-92493186D01*
X37400500Y-92365892D01*
X37400500Y-92234108D01*
X37366392Y-92106814D01*
X37300500Y-91992686D01*
X37207314Y-91899500D01*
X37122439Y-91850497D01*
X37093187Y-91833608D01*
X37029539Y-91816554D01*
X36965892Y-91799500D01*
X36834108Y-91799500D01*
X36706812Y-91833608D01*
X36592686Y-91899500D01*
X36592683Y-91899502D01*
X36499502Y-91992683D01*
X36499500Y-91992686D01*
X36433608Y-92106812D01*
X36399500Y-92234108D01*
X20581805Y-92234108D01*
X20580127Y-90734108D01*
X48599500Y-90734108D01*
X48599500Y-90865892D01*
X48608772Y-90900497D01*
X48633608Y-90993187D01*
X48666121Y-91049500D01*
X48699500Y-91107314D01*
X48792686Y-91200500D01*
X48906814Y-91266392D01*
X49034108Y-91300500D01*
X49034110Y-91300500D01*
X49165890Y-91300500D01*
X49165892Y-91300500D01*
X49293186Y-91266392D01*
X49407314Y-91200500D01*
X49500500Y-91107314D01*
X49566392Y-90993186D01*
X49600500Y-90865892D01*
X49600500Y-90734108D01*
X49566392Y-90606814D01*
X49564032Y-90602727D01*
X49500503Y-90492691D01*
X49500502Y-90492690D01*
X49500500Y-90492686D01*
X49441922Y-90434108D01*
X54499500Y-90434108D01*
X54499500Y-90565891D01*
X54533608Y-90693187D01*
X54566554Y-90750250D01*
X54599500Y-90807314D01*
X54692686Y-90900500D01*
X54806814Y-90966392D01*
X54934108Y-91000500D01*
X54934110Y-91000500D01*
X55065890Y-91000500D01*
X55065892Y-91000500D01*
X55193186Y-90966392D01*
X55307314Y-90900500D01*
X55400500Y-90807314D01*
X55466392Y-90693186D01*
X55500500Y-90565892D01*
X55500500Y-90434108D01*
X55466392Y-90306814D01*
X55464816Y-90304085D01*
X55457563Y-90291521D01*
X55400500Y-90192686D01*
X55307314Y-90099500D01*
X55231228Y-90055572D01*
X55193188Y-90033609D01*
X55193187Y-90033608D01*
X55193186Y-90033608D01*
X55065892Y-89999500D01*
X54934108Y-89999500D01*
X54806812Y-90033608D01*
X54692686Y-90099500D01*
X54692683Y-90099502D01*
X54599502Y-90192683D01*
X54599500Y-90192686D01*
X54533608Y-90306812D01*
X54499500Y-90434108D01*
X49441922Y-90434108D01*
X49407314Y-90399500D01*
X49350250Y-90366554D01*
X49293187Y-90333608D01*
X49229539Y-90316554D01*
X49165892Y-90299500D01*
X49034108Y-90299500D01*
X48906812Y-90333608D01*
X48792686Y-90399500D01*
X48792683Y-90399502D01*
X48699502Y-90492683D01*
X48699500Y-90492686D01*
X48633608Y-90606812D01*
X48599500Y-90734108D01*
X20580127Y-90734108D01*
X20579344Y-90034108D01*
X36499500Y-90034108D01*
X36499500Y-90165892D01*
X36506813Y-90193186D01*
X36533608Y-90293187D01*
X36541766Y-90307316D01*
X36599500Y-90407314D01*
X36692686Y-90500500D01*
X36750031Y-90533608D01*
X36805944Y-90565890D01*
X36806814Y-90566392D01*
X36934108Y-90600500D01*
X36934110Y-90600500D01*
X37065890Y-90600500D01*
X37065892Y-90600500D01*
X37193186Y-90566392D01*
X37307314Y-90500500D01*
X37400500Y-90407314D01*
X37466392Y-90293186D01*
X37500500Y-90165892D01*
X37500500Y-90034108D01*
X37473705Y-89934108D01*
X58999500Y-89934108D01*
X58999500Y-90065891D01*
X59033608Y-90193187D01*
X59054585Y-90229520D01*
X59099500Y-90307314D01*
X59192686Y-90400500D01*
X59306814Y-90466392D01*
X59434108Y-90500500D01*
X59434110Y-90500500D01*
X59565890Y-90500500D01*
X59565892Y-90500500D01*
X59577935Y-90497273D01*
X70149500Y-90497273D01*
X70149500Y-90602727D01*
X70176793Y-90704587D01*
X70229520Y-90795913D01*
X70304087Y-90870480D01*
X70395413Y-90923207D01*
X70497273Y-90950500D01*
X70497275Y-90950500D01*
X70602725Y-90950500D01*
X70602727Y-90950500D01*
X70663903Y-90934108D01*
X77699500Y-90934108D01*
X77699500Y-91065892D01*
X77716554Y-91129539D01*
X77733608Y-91193187D01*
X77766554Y-91250250D01*
X77799500Y-91307314D01*
X77892686Y-91400500D01*
X78006814Y-91466392D01*
X78134108Y-91500500D01*
X78134110Y-91500500D01*
X78265890Y-91500500D01*
X78265892Y-91500500D01*
X78393186Y-91466392D01*
X78507314Y-91400500D01*
X78523706Y-91384108D01*
X80699500Y-91384108D01*
X80699500Y-91515891D01*
X80733608Y-91643187D01*
X80766554Y-91700250D01*
X80799500Y-91757314D01*
X80892686Y-91850500D01*
X81006814Y-91916392D01*
X81134108Y-91950500D01*
X81134110Y-91950500D01*
X81265890Y-91950500D01*
X81265892Y-91950500D01*
X81393186Y-91916392D01*
X81507314Y-91850500D01*
X81600500Y-91757314D01*
X81666392Y-91643186D01*
X81700500Y-91515892D01*
X81700500Y-91384108D01*
X81666392Y-91256814D01*
X81600500Y-91142686D01*
X81507314Y-91049500D01*
X81422442Y-91000499D01*
X81393187Y-90983608D01*
X81328931Y-90966391D01*
X81265892Y-90949500D01*
X81134108Y-90949500D01*
X81006812Y-90983608D01*
X80892686Y-91049500D01*
X80892683Y-91049502D01*
X80799502Y-91142683D01*
X80799500Y-91142686D01*
X80733608Y-91256812D01*
X80699500Y-91384108D01*
X78523706Y-91384108D01*
X78600500Y-91307314D01*
X78666392Y-91193186D01*
X78700500Y-91065892D01*
X78700500Y-90934108D01*
X78666392Y-90806814D01*
X78600500Y-90692686D01*
X78507314Y-90599500D01*
X78449100Y-90565890D01*
X78393187Y-90533608D01*
X78329539Y-90516554D01*
X78265892Y-90499500D01*
X78134108Y-90499500D01*
X78006812Y-90533608D01*
X77892686Y-90599500D01*
X77892683Y-90599502D01*
X77799502Y-90692683D01*
X77799500Y-90692686D01*
X77733608Y-90806812D01*
X77717778Y-90865892D01*
X77699500Y-90934108D01*
X70663903Y-90934108D01*
X70704587Y-90923207D01*
X70795913Y-90870480D01*
X70870480Y-90795913D01*
X70923207Y-90704587D01*
X70950500Y-90602727D01*
X70950500Y-90497273D01*
X70923207Y-90395413D01*
X70870480Y-90304087D01*
X70795913Y-90229520D01*
X70704587Y-90176793D01*
X70602727Y-90149500D01*
X70497273Y-90149500D01*
X70395413Y-90176793D01*
X70395410Y-90176794D01*
X70304085Y-90229521D01*
X70229521Y-90304085D01*
X70176794Y-90395410D01*
X70176793Y-90395413D01*
X70149500Y-90497273D01*
X59577935Y-90497273D01*
X59693186Y-90466392D01*
X59807314Y-90400500D01*
X59900500Y-90307314D01*
X59966392Y-90193186D01*
X60000500Y-90065892D01*
X60000500Y-89934108D01*
X59966392Y-89806814D01*
X59900500Y-89692686D01*
X59807314Y-89599500D01*
X59749968Y-89566391D01*
X59693187Y-89533608D01*
X59629539Y-89516554D01*
X59565892Y-89499500D01*
X59434108Y-89499500D01*
X59306812Y-89533608D01*
X59192686Y-89599500D01*
X59192683Y-89599502D01*
X59099502Y-89692683D01*
X59099500Y-89692686D01*
X59033608Y-89806812D01*
X58999500Y-89934108D01*
X37473705Y-89934108D01*
X37466392Y-89906814D01*
X37400500Y-89792686D01*
X37307314Y-89699500D01*
X37250250Y-89666554D01*
X37193187Y-89633608D01*
X37129539Y-89616554D01*
X37065892Y-89599500D01*
X36934108Y-89599500D01*
X36806812Y-89633608D01*
X36692686Y-89699500D01*
X36692683Y-89699502D01*
X36599502Y-89792683D01*
X36599500Y-89792686D01*
X36533608Y-89906812D01*
X36526294Y-89934110D01*
X36499500Y-90034108D01*
X20579344Y-90034108D01*
X20578226Y-89034108D01*
X30399500Y-89034108D01*
X30399500Y-89165891D01*
X30433608Y-89293187D01*
X30464050Y-89345913D01*
X30499500Y-89407314D01*
X30592686Y-89500500D01*
X30706814Y-89566392D01*
X30834108Y-89600500D01*
X30834110Y-89600500D01*
X30965890Y-89600500D01*
X30965892Y-89600500D01*
X31093186Y-89566392D01*
X31207314Y-89500500D01*
X31300500Y-89407314D01*
X31366392Y-89293186D01*
X31400500Y-89165892D01*
X31400500Y-89034108D01*
X31366392Y-88906814D01*
X31300500Y-88792686D01*
X31207314Y-88699500D01*
X31093186Y-88633608D01*
X30965892Y-88599500D01*
X30834108Y-88599500D01*
X30706812Y-88633608D01*
X30592686Y-88699500D01*
X30592683Y-88699502D01*
X30499502Y-88792683D01*
X30499500Y-88792686D01*
X30433608Y-88906812D01*
X30399500Y-89034108D01*
X20578226Y-89034108D01*
X20577667Y-88534108D01*
X36499500Y-88534108D01*
X36499500Y-88665892D01*
X36515818Y-88726793D01*
X36533608Y-88793187D01*
X36541766Y-88807316D01*
X36599500Y-88907314D01*
X36692686Y-89000500D01*
X36806814Y-89066392D01*
X36934108Y-89100500D01*
X36934110Y-89100500D01*
X37065890Y-89100500D01*
X37065892Y-89100500D01*
X37193186Y-89066392D01*
X37307314Y-89000500D01*
X37400500Y-88907314D01*
X37466392Y-88793186D01*
X37500500Y-88665892D01*
X37500500Y-88534108D01*
X37466392Y-88406814D01*
X37465107Y-88404589D01*
X37424126Y-88333608D01*
X37400500Y-88292686D01*
X37307314Y-88199500D01*
X37249968Y-88166391D01*
X37202713Y-88139108D01*
X41774500Y-88139108D01*
X41774500Y-88270892D01*
X41783030Y-88302725D01*
X41808608Y-88398187D01*
X41829349Y-88434110D01*
X41874500Y-88512314D01*
X41967686Y-88605500D01*
X42081814Y-88671392D01*
X42209108Y-88705500D01*
X42209110Y-88705500D01*
X42340890Y-88705500D01*
X42340892Y-88705500D01*
X42468186Y-88671392D01*
X42582314Y-88605500D01*
X42675500Y-88512314D01*
X42741392Y-88398186D01*
X42775500Y-88270892D01*
X42775500Y-88197273D01*
X65849500Y-88197273D01*
X65849500Y-88302727D01*
X65876659Y-88404085D01*
X65876793Y-88404586D01*
X65876794Y-88404589D01*
X65878079Y-88406814D01*
X65929520Y-88495913D01*
X66004087Y-88570480D01*
X66095413Y-88623207D01*
X66197273Y-88650500D01*
X66197275Y-88650500D01*
X66302725Y-88650500D01*
X66302727Y-88650500D01*
X66404587Y-88623207D01*
X66449506Y-88597273D01*
X67499500Y-88597273D01*
X67499500Y-88702727D01*
X67523739Y-88793187D01*
X67526793Y-88804586D01*
X67526794Y-88804589D01*
X67540922Y-88829059D01*
X67579520Y-88895913D01*
X67654087Y-88970480D01*
X67745413Y-89023207D01*
X67847273Y-89050500D01*
X67847275Y-89050500D01*
X67952725Y-89050500D01*
X67952727Y-89050500D01*
X67964770Y-89047273D01*
X69249500Y-89047273D01*
X69249500Y-89152727D01*
X69276793Y-89254587D01*
X69329520Y-89345913D01*
X69404087Y-89420480D01*
X69495413Y-89473207D01*
X69597273Y-89500500D01*
X69597275Y-89500500D01*
X69702725Y-89500500D01*
X69702727Y-89500500D01*
X69804587Y-89473207D01*
X69895913Y-89420480D01*
X69970480Y-89345913D01*
X70023207Y-89254587D01*
X70050500Y-89152727D01*
X70050500Y-89047273D01*
X70023207Y-88945413D01*
X69970480Y-88854087D01*
X69895913Y-88779520D01*
X69829059Y-88740922D01*
X69804589Y-88726794D01*
X69804588Y-88726793D01*
X69804587Y-88726793D01*
X69702727Y-88699500D01*
X69597273Y-88699500D01*
X69495413Y-88726793D01*
X69495410Y-88726794D01*
X69404085Y-88779521D01*
X69329521Y-88854085D01*
X69276794Y-88945410D01*
X69276793Y-88945413D01*
X69249500Y-89047273D01*
X67964770Y-89047273D01*
X68054587Y-89023207D01*
X68145913Y-88970480D01*
X68220480Y-88895913D01*
X68273207Y-88804587D01*
X68300500Y-88702727D01*
X68300500Y-88597273D01*
X76299500Y-88597273D01*
X76299500Y-88702727D01*
X76323739Y-88793187D01*
X76326793Y-88804586D01*
X76326794Y-88804589D01*
X76340922Y-88829059D01*
X76379520Y-88895913D01*
X76454087Y-88970480D01*
X76545413Y-89023207D01*
X76647273Y-89050500D01*
X76647275Y-89050500D01*
X76752725Y-89050500D01*
X76752727Y-89050500D01*
X76854587Y-89023207D01*
X76945913Y-88970480D01*
X77020480Y-88895913D01*
X77073207Y-88804587D01*
X77092092Y-88734108D01*
X85399500Y-88734108D01*
X85399500Y-88865892D01*
X85416554Y-88929539D01*
X85433608Y-88993187D01*
X85464835Y-89047273D01*
X85499500Y-89107314D01*
X85592686Y-89200500D01*
X85706814Y-89266392D01*
X85834108Y-89300500D01*
X85834110Y-89300500D01*
X85965890Y-89300500D01*
X85965892Y-89300500D01*
X86093186Y-89266392D01*
X86207314Y-89200500D01*
X86300500Y-89107314D01*
X86366392Y-88993186D01*
X86400500Y-88865892D01*
X86400500Y-88734108D01*
X86366392Y-88606814D01*
X86365633Y-88605500D01*
X86300503Y-88492691D01*
X86300502Y-88492690D01*
X86300500Y-88492686D01*
X86241922Y-88434108D01*
X89499500Y-88434108D01*
X89499500Y-88565892D01*
X89507909Y-88597275D01*
X89533608Y-88693187D01*
X89566554Y-88750250D01*
X89599500Y-88807314D01*
X89692686Y-88900500D01*
X89806814Y-88966392D01*
X89934108Y-89000500D01*
X89934110Y-89000500D01*
X90065890Y-89000500D01*
X90065892Y-89000500D01*
X90193186Y-88966392D01*
X90307314Y-88900500D01*
X90400500Y-88807314D01*
X90466392Y-88693186D01*
X90500500Y-88565892D01*
X90500500Y-88434108D01*
X90466392Y-88306814D01*
X90400500Y-88192686D01*
X90307314Y-88099500D01*
X90250250Y-88066554D01*
X90193187Y-88033608D01*
X90111841Y-88011812D01*
X90065892Y-87999500D01*
X89934108Y-87999500D01*
X89806812Y-88033608D01*
X89692686Y-88099500D01*
X89692683Y-88099502D01*
X89599502Y-88192683D01*
X89599500Y-88192686D01*
X89533608Y-88306812D01*
X89506814Y-88406812D01*
X89499500Y-88434108D01*
X86241922Y-88434108D01*
X86207314Y-88399500D01*
X86150250Y-88366554D01*
X86093187Y-88333608D01*
X85993188Y-88306814D01*
X85965892Y-88299500D01*
X85834108Y-88299500D01*
X85706812Y-88333608D01*
X85592686Y-88399500D01*
X85592683Y-88399502D01*
X85499502Y-88492683D01*
X85499500Y-88492686D01*
X85433608Y-88606812D01*
X85407910Y-88702722D01*
X85399500Y-88734108D01*
X77092092Y-88734108D01*
X77100500Y-88702727D01*
X77100500Y-88597273D01*
X77073207Y-88495413D01*
X77020480Y-88404087D01*
X76945913Y-88329520D01*
X76854587Y-88276793D01*
X76752727Y-88249500D01*
X76647273Y-88249500D01*
X76545413Y-88276793D01*
X76545410Y-88276794D01*
X76454085Y-88329521D01*
X76379521Y-88404085D01*
X76326794Y-88495410D01*
X76326793Y-88495413D01*
X76299500Y-88597273D01*
X68300500Y-88597273D01*
X68273207Y-88495413D01*
X68220480Y-88404087D01*
X68145913Y-88329520D01*
X68054587Y-88276793D01*
X67952727Y-88249500D01*
X67847273Y-88249500D01*
X67745413Y-88276793D01*
X67745410Y-88276794D01*
X67654085Y-88329521D01*
X67579521Y-88404085D01*
X67526794Y-88495410D01*
X67526793Y-88495413D01*
X67499500Y-88597273D01*
X66449506Y-88597273D01*
X66495913Y-88570480D01*
X66570480Y-88495913D01*
X66623207Y-88404587D01*
X66650500Y-88302727D01*
X66650500Y-88197273D01*
X66623207Y-88095413D01*
X66570480Y-88004087D01*
X66495913Y-87929520D01*
X66404587Y-87876793D01*
X66302727Y-87849500D01*
X66197273Y-87849500D01*
X66095413Y-87876793D01*
X66095410Y-87876794D01*
X66004085Y-87929521D01*
X65929521Y-88004085D01*
X65876794Y-88095410D01*
X65876793Y-88095413D01*
X65849500Y-88197273D01*
X42775500Y-88197273D01*
X42775500Y-88139108D01*
X42741392Y-88011814D01*
X42734282Y-87999500D01*
X42732563Y-87996521D01*
X42675500Y-87897686D01*
X42582314Y-87804500D01*
X42515443Y-87765892D01*
X42468187Y-87738608D01*
X42404539Y-87721554D01*
X42340892Y-87704500D01*
X42209108Y-87704500D01*
X42081812Y-87738608D01*
X41967686Y-87804500D01*
X41967683Y-87804502D01*
X41874502Y-87897683D01*
X41874500Y-87897686D01*
X41808608Y-88011812D01*
X41802768Y-88033608D01*
X41774500Y-88139108D01*
X37202713Y-88139108D01*
X37193187Y-88133608D01*
X37129539Y-88116554D01*
X37065892Y-88099500D01*
X36934108Y-88099500D01*
X36806812Y-88133608D01*
X36692686Y-88199500D01*
X36692683Y-88199502D01*
X36599502Y-88292683D01*
X36599500Y-88292686D01*
X36533608Y-88406812D01*
X36505340Y-88512313D01*
X36499500Y-88534108D01*
X20577667Y-88534108D01*
X20577372Y-88270890D01*
X20576660Y-87634108D01*
X76899500Y-87634108D01*
X76899500Y-87765892D01*
X76916554Y-87829539D01*
X76933608Y-87893187D01*
X76954585Y-87929520D01*
X76999500Y-88007314D01*
X77092686Y-88100500D01*
X77206814Y-88166392D01*
X77334108Y-88200500D01*
X77334110Y-88200500D01*
X77465890Y-88200500D01*
X77465892Y-88200500D01*
X77593186Y-88166392D01*
X77707314Y-88100500D01*
X77800500Y-88007314D01*
X77866392Y-87893186D01*
X77900500Y-87765892D01*
X77900500Y-87634108D01*
X77866392Y-87506814D01*
X77862747Y-87500500D01*
X77855520Y-87487982D01*
X77855519Y-87487981D01*
X77824415Y-87434108D01*
X80999500Y-87434108D01*
X80999500Y-87565892D01*
X81008773Y-87600499D01*
X81033608Y-87693187D01*
X81040140Y-87704500D01*
X81099500Y-87807314D01*
X81192686Y-87900500D01*
X81306814Y-87966392D01*
X81434108Y-88000500D01*
X81434110Y-88000500D01*
X81565890Y-88000500D01*
X81565892Y-88000500D01*
X81693186Y-87966392D01*
X81807314Y-87900500D01*
X81900500Y-87807314D01*
X81966392Y-87693186D01*
X82000500Y-87565892D01*
X82000500Y-87434108D01*
X81966392Y-87306814D01*
X81900500Y-87192686D01*
X81807314Y-87099500D01*
X81750250Y-87066554D01*
X81693187Y-87033608D01*
X81629539Y-87016554D01*
X81565892Y-86999500D01*
X81434108Y-86999500D01*
X81306812Y-87033608D01*
X81192686Y-87099500D01*
X81192683Y-87099502D01*
X81099502Y-87192683D01*
X81099500Y-87192686D01*
X81033608Y-87306812D01*
X81010600Y-87392683D01*
X80999500Y-87434108D01*
X77824415Y-87434108D01*
X77816797Y-87420914D01*
X77800500Y-87392686D01*
X77707314Y-87299500D01*
X77650250Y-87266554D01*
X77593187Y-87233608D01*
X77529539Y-87216554D01*
X77465892Y-87199500D01*
X77334108Y-87199500D01*
X77206812Y-87233608D01*
X77092686Y-87299500D01*
X77092683Y-87299502D01*
X76999502Y-87392683D01*
X76999500Y-87392686D01*
X76933608Y-87506812D01*
X76917644Y-87566392D01*
X76899500Y-87634108D01*
X20576660Y-87634108D01*
X20576088Y-87122273D01*
X46349500Y-87122273D01*
X46349500Y-87227727D01*
X46376793Y-87329587D01*
X46429520Y-87420913D01*
X46504087Y-87495480D01*
X46595413Y-87548207D01*
X46697273Y-87575500D01*
X46697275Y-87575500D01*
X46802725Y-87575500D01*
X46802727Y-87575500D01*
X46904587Y-87548207D01*
X46995913Y-87495480D01*
X47070480Y-87420913D01*
X47123207Y-87329587D01*
X47150500Y-87227727D01*
X47150500Y-87122273D01*
X47126877Y-87034108D01*
X75799500Y-87034108D01*
X75799500Y-87165892D01*
X75808505Y-87199500D01*
X75833608Y-87293187D01*
X75854624Y-87329587D01*
X75899500Y-87407314D01*
X75992686Y-87500500D01*
X76075315Y-87548206D01*
X76106810Y-87566390D01*
X76106814Y-87566392D01*
X76234108Y-87600500D01*
X76234110Y-87600500D01*
X76365890Y-87600500D01*
X76365892Y-87600500D01*
X76493186Y-87566392D01*
X76607314Y-87500500D01*
X76700500Y-87407314D01*
X76766392Y-87293186D01*
X76800500Y-87165892D01*
X76800500Y-87034108D01*
X76766392Y-86906814D01*
X76700500Y-86792686D01*
X76607314Y-86699500D01*
X76549609Y-86666184D01*
X76493187Y-86633608D01*
X76429539Y-86616554D01*
X76365892Y-86599500D01*
X76234108Y-86599500D01*
X76106812Y-86633608D01*
X75992686Y-86699500D01*
X75992683Y-86699502D01*
X75899502Y-86792683D01*
X75899500Y-86792686D01*
X75833608Y-86906812D01*
X75799634Y-87033608D01*
X75799500Y-87034108D01*
X47126877Y-87034108D01*
X47123207Y-87020413D01*
X47070480Y-86929087D01*
X46995913Y-86854520D01*
X46904587Y-86801793D01*
X46802727Y-86774500D01*
X46697273Y-86774500D01*
X46595413Y-86801793D01*
X46595410Y-86801794D01*
X46504085Y-86854521D01*
X46429521Y-86929085D01*
X46376794Y-87020410D01*
X46376794Y-87020411D01*
X46376793Y-87020413D01*
X46349500Y-87122273D01*
X20576088Y-87122273D01*
X20576079Y-87114285D01*
X20575094Y-86234108D01*
X55999500Y-86234108D01*
X55999500Y-86365891D01*
X56033608Y-86493187D01*
X56041766Y-86507316D01*
X56099500Y-86607314D01*
X56192686Y-86700500D01*
X56306814Y-86766392D01*
X56434108Y-86800500D01*
X56434110Y-86800500D01*
X56565890Y-86800500D01*
X56565892Y-86800500D01*
X56693186Y-86766392D01*
X56807314Y-86700500D01*
X56900500Y-86607314D01*
X56966392Y-86493186D01*
X57000500Y-86365892D01*
X57000500Y-86234108D01*
X56991306Y-86199795D01*
X73133813Y-86199795D01*
X73133813Y-86331578D01*
X73167921Y-86458874D01*
X73187732Y-86493187D01*
X73233813Y-86573001D01*
X73326999Y-86666187D01*
X73441127Y-86732079D01*
X73568421Y-86766187D01*
X73568423Y-86766187D01*
X73700203Y-86766187D01*
X73700205Y-86766187D01*
X73827499Y-86732079D01*
X73941627Y-86666187D01*
X74034813Y-86573001D01*
X74100705Y-86458873D01*
X74134813Y-86331579D01*
X74134813Y-86324500D01*
X74154498Y-86257461D01*
X74207302Y-86211706D01*
X74258813Y-86200500D01*
X74265890Y-86200500D01*
X74265892Y-86200500D01*
X74393186Y-86166392D01*
X74449103Y-86134108D01*
X86099500Y-86134108D01*
X86099500Y-86265891D01*
X86133608Y-86393187D01*
X86166554Y-86450250D01*
X86199500Y-86507314D01*
X86292686Y-86600500D01*
X86350031Y-86633608D01*
X86406453Y-86666184D01*
X86406814Y-86666392D01*
X86534108Y-86700500D01*
X86534110Y-86700500D01*
X86665890Y-86700500D01*
X86665892Y-86700500D01*
X86793186Y-86666392D01*
X86907314Y-86600500D01*
X87000500Y-86507314D01*
X87066392Y-86393186D01*
X87100500Y-86265892D01*
X87100500Y-86134108D01*
X87087058Y-86083941D01*
X87088721Y-86014095D01*
X87127883Y-85956232D01*
X87192111Y-85928728D01*
X87261014Y-85940314D01*
X87268833Y-85944464D01*
X87289216Y-85956232D01*
X87306814Y-85966392D01*
X87434108Y-86000500D01*
X87434110Y-86000500D01*
X87565890Y-86000500D01*
X87565892Y-86000500D01*
X87693186Y-85966392D01*
X87807314Y-85900500D01*
X87900500Y-85807314D01*
X87966392Y-85693186D01*
X88000500Y-85565892D01*
X88000500Y-85434108D01*
X87966392Y-85306814D01*
X87900500Y-85192686D01*
X87807314Y-85099500D01*
X87750250Y-85066554D01*
X87693187Y-85033608D01*
X87629539Y-85016554D01*
X87565892Y-84999500D01*
X87434108Y-84999500D01*
X87306812Y-85033608D01*
X87192686Y-85099500D01*
X87192683Y-85099502D01*
X87099502Y-85192683D01*
X87099500Y-85192686D01*
X87033608Y-85306812D01*
X86999500Y-85434108D01*
X86999500Y-85565891D01*
X87012941Y-85616055D01*
X87011278Y-85685905D01*
X86972115Y-85743768D01*
X86907886Y-85771271D01*
X86838984Y-85759684D01*
X86831166Y-85755535D01*
X86793189Y-85733609D01*
X86793186Y-85733608D01*
X86665892Y-85699500D01*
X86534108Y-85699500D01*
X86406812Y-85733608D01*
X86292686Y-85799500D01*
X86292683Y-85799502D01*
X86199502Y-85892683D01*
X86199500Y-85892686D01*
X86133608Y-86006812D01*
X86099500Y-86134108D01*
X74449103Y-86134108D01*
X74507314Y-86100500D01*
X74600500Y-86007314D01*
X74666392Y-85893186D01*
X74700500Y-85765892D01*
X74700500Y-85634108D01*
X74666392Y-85506814D01*
X74666389Y-85506808D01*
X74655520Y-85487982D01*
X74655519Y-85487981D01*
X74624415Y-85434108D01*
X80399500Y-85434108D01*
X80399500Y-85565892D01*
X80412941Y-85616055D01*
X80433608Y-85693187D01*
X80442291Y-85708226D01*
X80499500Y-85807314D01*
X80592686Y-85900500D01*
X80661646Y-85940314D01*
X80706810Y-85966390D01*
X80706814Y-85966392D01*
X80834108Y-86000500D01*
X80834110Y-86000500D01*
X80965890Y-86000500D01*
X80965892Y-86000500D01*
X81093186Y-85966392D01*
X81207314Y-85900500D01*
X81300500Y-85807314D01*
X81366392Y-85693186D01*
X81400500Y-85565892D01*
X81400500Y-85434108D01*
X81366392Y-85306814D01*
X81300500Y-85192686D01*
X81207314Y-85099500D01*
X81150250Y-85066554D01*
X81093187Y-85033608D01*
X81029539Y-85016554D01*
X80965892Y-84999500D01*
X80834108Y-84999500D01*
X80706812Y-85033608D01*
X80592686Y-85099500D01*
X80592683Y-85099502D01*
X80499502Y-85192683D01*
X80499500Y-85192686D01*
X80433608Y-85306812D01*
X80417778Y-85365892D01*
X80399500Y-85434108D01*
X74624415Y-85434108D01*
X74600500Y-85392686D01*
X74507314Y-85299500D01*
X74449968Y-85266391D01*
X74393187Y-85233608D01*
X74329539Y-85216554D01*
X74265892Y-85199500D01*
X74134108Y-85199500D01*
X74006812Y-85233608D01*
X73892686Y-85299500D01*
X73892683Y-85299502D01*
X73799502Y-85392683D01*
X73799500Y-85392686D01*
X73733608Y-85506812D01*
X73699500Y-85634108D01*
X73699500Y-85641187D01*
X73679815Y-85708226D01*
X73627011Y-85753981D01*
X73575500Y-85765187D01*
X73568421Y-85765187D01*
X73441125Y-85799295D01*
X73326999Y-85865187D01*
X73326996Y-85865189D01*
X73233815Y-85958370D01*
X73233813Y-85958373D01*
X73167921Y-86072499D01*
X73133813Y-86199795D01*
X56991306Y-86199795D01*
X56966392Y-86106814D01*
X56900500Y-85992686D01*
X56807314Y-85899500D01*
X56747882Y-85865187D01*
X56693187Y-85833608D01*
X56629539Y-85816554D01*
X56565892Y-85799500D01*
X56434108Y-85799500D01*
X56306812Y-85833608D01*
X56192686Y-85899500D01*
X56192683Y-85899502D01*
X56099502Y-85992683D01*
X56099500Y-85992686D01*
X56033608Y-86106812D01*
X55999500Y-86234108D01*
X20575094Y-86234108D01*
X20574423Y-85634108D01*
X38899500Y-85634108D01*
X38899500Y-85765892D01*
X38916554Y-85829539D01*
X38933608Y-85893187D01*
X38954128Y-85928728D01*
X38999500Y-86007314D01*
X39092686Y-86100500D01*
X39191521Y-86157563D01*
X39206810Y-86166390D01*
X39206814Y-86166392D01*
X39334108Y-86200500D01*
X39334110Y-86200500D01*
X39465890Y-86200500D01*
X39465892Y-86200500D01*
X39593186Y-86166392D01*
X39707314Y-86100500D01*
X39800500Y-86007314D01*
X39866392Y-85893186D01*
X39900500Y-85765892D01*
X39900500Y-85634108D01*
X39866392Y-85506814D01*
X39800500Y-85392686D01*
X39707314Y-85299500D01*
X39649968Y-85266391D01*
X39594053Y-85234108D01*
X40899500Y-85234108D01*
X40899500Y-85365892D01*
X40906680Y-85392689D01*
X40933608Y-85493187D01*
X40941474Y-85506811D01*
X40999500Y-85607314D01*
X41092686Y-85700500D01*
X41185318Y-85753981D01*
X41205944Y-85765890D01*
X41206814Y-85766392D01*
X41334108Y-85800500D01*
X41334110Y-85800500D01*
X41465890Y-85800500D01*
X41465892Y-85800500D01*
X41593186Y-85766392D01*
X41707314Y-85700500D01*
X41800500Y-85607314D01*
X41866392Y-85493186D01*
X41900500Y-85365892D01*
X41900500Y-85234108D01*
X41866392Y-85106814D01*
X41800500Y-84992686D01*
X41707314Y-84899500D01*
X41629521Y-84854586D01*
X41593187Y-84833608D01*
X41529539Y-84816554D01*
X41465892Y-84799500D01*
X41334108Y-84799500D01*
X41206812Y-84833608D01*
X41092686Y-84899500D01*
X41092683Y-84899502D01*
X40999502Y-84992683D01*
X40999500Y-84992686D01*
X40933608Y-85106812D01*
X40933473Y-85107316D01*
X40899500Y-85234108D01*
X39594053Y-85234108D01*
X39593187Y-85233608D01*
X39529539Y-85216554D01*
X39465892Y-85199500D01*
X39334108Y-85199500D01*
X39206812Y-85233608D01*
X39092686Y-85299500D01*
X39092683Y-85299502D01*
X38999502Y-85392683D01*
X38999500Y-85392686D01*
X38933608Y-85506812D01*
X38917778Y-85565892D01*
X38899500Y-85634108D01*
X20574423Y-85634108D01*
X20574414Y-85626120D01*
X20574012Y-85266391D01*
X20573417Y-84734108D01*
X24899500Y-84734108D01*
X24899500Y-84865891D01*
X24933608Y-84993187D01*
X24949365Y-85020478D01*
X24999500Y-85107314D01*
X25092686Y-85200500D01*
X25206814Y-85266392D01*
X25334108Y-85300500D01*
X25334110Y-85300500D01*
X25465890Y-85300500D01*
X25465892Y-85300500D01*
X25593186Y-85266392D01*
X25707314Y-85200500D01*
X25800500Y-85107314D01*
X25866392Y-84993186D01*
X25900500Y-84865892D01*
X25900500Y-84734108D01*
X25866392Y-84606814D01*
X25800500Y-84492686D01*
X25707314Y-84399500D01*
X25650250Y-84366554D01*
X25593187Y-84333608D01*
X25529539Y-84316554D01*
X25465892Y-84299500D01*
X25334108Y-84299500D01*
X25206812Y-84333608D01*
X25092686Y-84399500D01*
X25092683Y-84399502D01*
X24999502Y-84492683D01*
X24999500Y-84492686D01*
X24933608Y-84606812D01*
X24899500Y-84734108D01*
X20573417Y-84734108D01*
X20572522Y-83934108D01*
X38549500Y-83934108D01*
X38549500Y-84065891D01*
X38583608Y-84193187D01*
X38594653Y-84212317D01*
X38649500Y-84307314D01*
X38742686Y-84400500D01*
X38856814Y-84466392D01*
X38984108Y-84500500D01*
X38984110Y-84500500D01*
X39115890Y-84500500D01*
X39115892Y-84500500D01*
X39243186Y-84466392D01*
X39357314Y-84400500D01*
X39450500Y-84307314D01*
X39516392Y-84193186D01*
X39550500Y-84065892D01*
X39550500Y-83934108D01*
X50399500Y-83934108D01*
X50399500Y-84065891D01*
X50433608Y-84193187D01*
X50444653Y-84212317D01*
X50499500Y-84307314D01*
X50592686Y-84400500D01*
X50706814Y-84466392D01*
X50834108Y-84500500D01*
X50834110Y-84500500D01*
X50965890Y-84500500D01*
X50965892Y-84500500D01*
X51093186Y-84466392D01*
X51149103Y-84434108D01*
X54999500Y-84434108D01*
X54999500Y-84565891D01*
X55033608Y-84693187D01*
X55066554Y-84750250D01*
X55099500Y-84807314D01*
X55192686Y-84900500D01*
X55306814Y-84966392D01*
X55434108Y-85000500D01*
X55434110Y-85000500D01*
X55565890Y-85000500D01*
X55565892Y-85000500D01*
X55693186Y-84966392D01*
X55807314Y-84900500D01*
X55900500Y-84807314D01*
X55966392Y-84693186D01*
X56000500Y-84565892D01*
X56000500Y-84434108D01*
X55966392Y-84306814D01*
X55900500Y-84192686D01*
X55807314Y-84099500D01*
X55729521Y-84054586D01*
X55693187Y-84033608D01*
X55629539Y-84016554D01*
X55565892Y-83999500D01*
X55434108Y-83999500D01*
X55306812Y-84033608D01*
X55192686Y-84099500D01*
X55192683Y-84099502D01*
X55099502Y-84192683D01*
X55099500Y-84192686D01*
X55033608Y-84306812D01*
X54999500Y-84434108D01*
X51149103Y-84434108D01*
X51207314Y-84400500D01*
X51300500Y-84307314D01*
X51366392Y-84193186D01*
X51400500Y-84065892D01*
X51400500Y-83934108D01*
X51377233Y-83847273D01*
X59299500Y-83847273D01*
X59299500Y-83952727D01*
X59326793Y-84054587D01*
X59352723Y-84099500D01*
X59379521Y-84145914D01*
X59445926Y-84212319D01*
X59479411Y-84273642D01*
X59474427Y-84343334D01*
X59445927Y-84387681D01*
X59379521Y-84454087D01*
X59326795Y-84545410D01*
X59326794Y-84545413D01*
X59299501Y-84647273D01*
X59299501Y-84752727D01*
X59326794Y-84854587D01*
X59379521Y-84945913D01*
X59454088Y-85020480D01*
X59545414Y-85073207D01*
X59647274Y-85100500D01*
X59647276Y-85100500D01*
X59752726Y-85100500D01*
X59752728Y-85100500D01*
X59854588Y-85073207D01*
X59945914Y-85020480D01*
X60020481Y-84945913D01*
X60073208Y-84854587D01*
X60100501Y-84752727D01*
X60100501Y-84734108D01*
X83299500Y-84734108D01*
X83299500Y-84865891D01*
X83333608Y-84993187D01*
X83349365Y-85020478D01*
X83399500Y-85107314D01*
X83492686Y-85200500D01*
X83606814Y-85266392D01*
X83734108Y-85300500D01*
X83734110Y-85300500D01*
X83865890Y-85300500D01*
X83865892Y-85300500D01*
X83993186Y-85266392D01*
X84107314Y-85200500D01*
X84200500Y-85107314D01*
X84266392Y-84993186D01*
X84300500Y-84865892D01*
X84300500Y-84734108D01*
X84266392Y-84606814D01*
X84200500Y-84492686D01*
X84107314Y-84399500D01*
X84050250Y-84366554D01*
X83993187Y-84333608D01*
X83929539Y-84316554D01*
X83865892Y-84299500D01*
X83734108Y-84299500D01*
X83606812Y-84333608D01*
X83492686Y-84399500D01*
X83492683Y-84399502D01*
X83399502Y-84492683D01*
X83399500Y-84492686D01*
X83333608Y-84606812D01*
X83299500Y-84734108D01*
X60100501Y-84734108D01*
X60100501Y-84647273D01*
X60073208Y-84545413D01*
X60020481Y-84454087D01*
X59954074Y-84387680D01*
X59920589Y-84326357D01*
X59925573Y-84256665D01*
X59954070Y-84212322D01*
X60020480Y-84145913D01*
X60073207Y-84054587D01*
X60100500Y-83952727D01*
X60100500Y-83847273D01*
X60073207Y-83745413D01*
X60020480Y-83654087D01*
X60000501Y-83634108D01*
X89499500Y-83634108D01*
X89499500Y-83765891D01*
X89533608Y-83893187D01*
X89566554Y-83950250D01*
X89599500Y-84007314D01*
X89692686Y-84100500D01*
X89806814Y-84166392D01*
X89934108Y-84200500D01*
X89934110Y-84200500D01*
X90065890Y-84200500D01*
X90065892Y-84200500D01*
X90193186Y-84166392D01*
X90307314Y-84100500D01*
X90400500Y-84007314D01*
X90466392Y-83893186D01*
X90500500Y-83765892D01*
X90500500Y-83634108D01*
X90466392Y-83506814D01*
X90400500Y-83392686D01*
X90307314Y-83299500D01*
X90229526Y-83254589D01*
X90193187Y-83233608D01*
X90129539Y-83216554D01*
X90065892Y-83199500D01*
X89934108Y-83199500D01*
X89806812Y-83233608D01*
X89692686Y-83299500D01*
X89692683Y-83299502D01*
X89599502Y-83392683D01*
X89599500Y-83392686D01*
X89533608Y-83506812D01*
X89499500Y-83634108D01*
X60000501Y-83634108D01*
X59945913Y-83579520D01*
X59854587Y-83526793D01*
X59752727Y-83499500D01*
X59647273Y-83499500D01*
X59545413Y-83526793D01*
X59545410Y-83526794D01*
X59454085Y-83579521D01*
X59379521Y-83654085D01*
X59326794Y-83745410D01*
X59326793Y-83745413D01*
X59299500Y-83847273D01*
X51377233Y-83847273D01*
X51366392Y-83806814D01*
X51300500Y-83692686D01*
X51207314Y-83599500D01*
X51150250Y-83566554D01*
X51093187Y-83533608D01*
X50993188Y-83506814D01*
X50965892Y-83499500D01*
X50834108Y-83499500D01*
X50706812Y-83533608D01*
X50592686Y-83599500D01*
X50592683Y-83599502D01*
X50499502Y-83692683D01*
X50499500Y-83692686D01*
X50433608Y-83806812D01*
X50399500Y-83934108D01*
X39550500Y-83934108D01*
X39516392Y-83806814D01*
X39450500Y-83692686D01*
X39357314Y-83599500D01*
X39300250Y-83566554D01*
X39243187Y-83533608D01*
X39143188Y-83506814D01*
X39115892Y-83499500D01*
X38984108Y-83499500D01*
X38856812Y-83533608D01*
X38742686Y-83599500D01*
X38742683Y-83599502D01*
X38649502Y-83692683D01*
X38649500Y-83692686D01*
X38583608Y-83806812D01*
X38549500Y-83934108D01*
X20572522Y-83934108D01*
X20571530Y-83047273D01*
X60899500Y-83047273D01*
X60899500Y-83152727D01*
X60926793Y-83254587D01*
X60979520Y-83345913D01*
X61054087Y-83420480D01*
X61145413Y-83473207D01*
X61247273Y-83500500D01*
X61247275Y-83500500D01*
X61352725Y-83500500D01*
X61352727Y-83500500D01*
X61454587Y-83473207D01*
X61545913Y-83420480D01*
X61612319Y-83354074D01*
X61673642Y-83320589D01*
X61743334Y-83325573D01*
X61787681Y-83354074D01*
X61854087Y-83420480D01*
X61945413Y-83473207D01*
X62047273Y-83500500D01*
X62047275Y-83500500D01*
X62152725Y-83500500D01*
X62152727Y-83500500D01*
X62254587Y-83473207D01*
X62345913Y-83420480D01*
X62412318Y-83354075D01*
X62473641Y-83320590D01*
X62543333Y-83325574D01*
X62587680Y-83354075D01*
X62654087Y-83420482D01*
X62745413Y-83473209D01*
X62847273Y-83500502D01*
X62847275Y-83500502D01*
X62952725Y-83500502D01*
X62952727Y-83500502D01*
X63054587Y-83473209D01*
X63145913Y-83420482D01*
X63220480Y-83345915D01*
X63273207Y-83254589D01*
X63300500Y-83152729D01*
X63300500Y-83047275D01*
X63273207Y-82945415D01*
X63220480Y-82854089D01*
X63145913Y-82779522D01*
X63054587Y-82726795D01*
X62952727Y-82699502D01*
X62847273Y-82699502D01*
X62745413Y-82726795D01*
X62745410Y-82726796D01*
X62654085Y-82779523D01*
X62587682Y-82845927D01*
X62526359Y-82879412D01*
X62456667Y-82874428D01*
X62412320Y-82845927D01*
X62345914Y-82779521D01*
X62345913Y-82779520D01*
X62254592Y-82726796D01*
X62254589Y-82726794D01*
X62254588Y-82726793D01*
X62254587Y-82726793D01*
X62152727Y-82699500D01*
X62047273Y-82699500D01*
X61945413Y-82726793D01*
X61945410Y-82726794D01*
X61854085Y-82779521D01*
X61787681Y-82845926D01*
X61726358Y-82879411D01*
X61656666Y-82874427D01*
X61612319Y-82845926D01*
X61545914Y-82779521D01*
X61545913Y-82779520D01*
X61454592Y-82726796D01*
X61454589Y-82726794D01*
X61454588Y-82726793D01*
X61454587Y-82726793D01*
X61352727Y-82699500D01*
X61247273Y-82699500D01*
X61145413Y-82726793D01*
X61145410Y-82726794D01*
X61054085Y-82779521D01*
X60979521Y-82854085D01*
X60926794Y-82945410D01*
X60926793Y-82945413D01*
X60899500Y-83047273D01*
X20571530Y-83047273D01*
X20570757Y-82356744D01*
X20570620Y-82234108D01*
X33999500Y-82234108D01*
X33999500Y-82365891D01*
X34033608Y-82493187D01*
X34064050Y-82545913D01*
X34099500Y-82607314D01*
X34192686Y-82700500D01*
X34306814Y-82766392D01*
X34434108Y-82800500D01*
X34434110Y-82800500D01*
X34565890Y-82800500D01*
X34565892Y-82800500D01*
X34693186Y-82766392D01*
X34807314Y-82700500D01*
X34900500Y-82607314D01*
X34966392Y-82493186D01*
X35000500Y-82365892D01*
X35000500Y-82234108D01*
X34966392Y-82106814D01*
X34900500Y-81992686D01*
X34807314Y-81899500D01*
X34722442Y-81850499D01*
X34693187Y-81833608D01*
X34629539Y-81816554D01*
X34565892Y-81799500D01*
X34434108Y-81799500D01*
X34306812Y-81833608D01*
X34192686Y-81899500D01*
X34192683Y-81899502D01*
X34099502Y-81992683D01*
X34099500Y-81992686D01*
X34033608Y-82106812D01*
X33999500Y-82234108D01*
X20570620Y-82234108D01*
X20570611Y-82226120D01*
X20569390Y-81134108D01*
X37099500Y-81134108D01*
X37099500Y-81265891D01*
X37133608Y-81393187D01*
X37141766Y-81407316D01*
X37199500Y-81507314D01*
X37292686Y-81600500D01*
X37386367Y-81654587D01*
X37400022Y-81662471D01*
X37406814Y-81666392D01*
X37534108Y-81700500D01*
X37534110Y-81700500D01*
X37665890Y-81700500D01*
X37665892Y-81700500D01*
X37793186Y-81666392D01*
X37907314Y-81600500D01*
X38000500Y-81507314D01*
X38066392Y-81393186D01*
X38100500Y-81265892D01*
X38100500Y-81134108D01*
X38066392Y-81006814D01*
X38000500Y-80892686D01*
X37907314Y-80799500D01*
X37826301Y-80752727D01*
X37793187Y-80733608D01*
X37693188Y-80706814D01*
X37665892Y-80699500D01*
X37534108Y-80699500D01*
X37406812Y-80733608D01*
X37292686Y-80799500D01*
X37292683Y-80799502D01*
X37199502Y-80892683D01*
X37199500Y-80892686D01*
X37133608Y-81006812D01*
X37099500Y-81134108D01*
X20569390Y-81134108D01*
X20569381Y-81126120D01*
X20568523Y-80359108D01*
X39499500Y-80359108D01*
X39499500Y-80490892D01*
X39513031Y-80541391D01*
X39533608Y-80618187D01*
X39566554Y-80675250D01*
X39599500Y-80732314D01*
X39692686Y-80825500D01*
X39806814Y-80891392D01*
X39934108Y-80925500D01*
X39934110Y-80925500D01*
X40065890Y-80925500D01*
X40065892Y-80925500D01*
X40193186Y-80891392D01*
X40307314Y-80825500D01*
X40400500Y-80732314D01*
X40451919Y-80643254D01*
X61703519Y-80643254D01*
X61703519Y-80748708D01*
X61724095Y-80825497D01*
X61730812Y-80850567D01*
X61730813Y-80850570D01*
X61739658Y-80865890D01*
X61783539Y-80941894D01*
X61858106Y-81016461D01*
X61949432Y-81069188D01*
X62051292Y-81096481D01*
X62051294Y-81096481D01*
X62156744Y-81096481D01*
X62156746Y-81096481D01*
X62258606Y-81069188D01*
X62349932Y-81016461D01*
X62424499Y-80941894D01*
X62477226Y-80850568D01*
X62504519Y-80748708D01*
X62504519Y-80643254D01*
X62477226Y-80541394D01*
X62424499Y-80450068D01*
X62349932Y-80375501D01*
X62258606Y-80322774D01*
X62156746Y-80295481D01*
X62051292Y-80295481D01*
X61949432Y-80322774D01*
X61949429Y-80322775D01*
X61858104Y-80375502D01*
X61783540Y-80450066D01*
X61730813Y-80541391D01*
X61730812Y-80541394D01*
X61703519Y-80643254D01*
X40451919Y-80643254D01*
X40466392Y-80618186D01*
X40469440Y-80606812D01*
X40470453Y-80603032D01*
X40479387Y-80569687D01*
X40500500Y-80490892D01*
X40500500Y-80359108D01*
X40466392Y-80231814D01*
X40400500Y-80117686D01*
X40307314Y-80024500D01*
X40250250Y-79991554D01*
X40193187Y-79958608D01*
X40129539Y-79941554D01*
X40065892Y-79924500D01*
X39934108Y-79924500D01*
X39806812Y-79958608D01*
X39692686Y-80024500D01*
X39692683Y-80024502D01*
X39599502Y-80117683D01*
X39599500Y-80117686D01*
X39533608Y-80231812D01*
X39509235Y-80322775D01*
X39499500Y-80359108D01*
X20568523Y-80359108D01*
X20568514Y-80351120D01*
X20567955Y-79851291D01*
X63295482Y-79851291D01*
X63295482Y-79956745D01*
X63322775Y-80058605D01*
X63373183Y-80145915D01*
X63375503Y-80149932D01*
X63441908Y-80216337D01*
X63475393Y-80277660D01*
X63470409Y-80347352D01*
X63441908Y-80391699D01*
X63379521Y-80454085D01*
X63326794Y-80545410D01*
X63326793Y-80545413D01*
X63299500Y-80647273D01*
X63299500Y-80752727D01*
X63326793Y-80854587D01*
X63377200Y-80941895D01*
X63379521Y-80945914D01*
X63449965Y-81016358D01*
X63483450Y-81077681D01*
X63478466Y-81147373D01*
X63449965Y-81191720D01*
X63387599Y-81254085D01*
X63334872Y-81345410D01*
X63334871Y-81345413D01*
X63307578Y-81447273D01*
X63307578Y-81552727D01*
X63334871Y-81654587D01*
X63363738Y-81704587D01*
X63387599Y-81745914D01*
X63453984Y-81812299D01*
X63487469Y-81873622D01*
X63482485Y-81943314D01*
X63453984Y-81987661D01*
X63383540Y-82058104D01*
X63330813Y-82149429D01*
X63330812Y-82149432D01*
X63303519Y-82251292D01*
X63303519Y-82356746D01*
X63330812Y-82458606D01*
X63383539Y-82549932D01*
X63458106Y-82624499D01*
X63549432Y-82677226D01*
X63651292Y-82704519D01*
X63651294Y-82704519D01*
X63756744Y-82704519D01*
X63756746Y-82704519D01*
X63858606Y-82677226D01*
X63949932Y-82624499D01*
X64024499Y-82549932D01*
X64077226Y-82458606D01*
X64104519Y-82356746D01*
X64104519Y-82251292D01*
X64077226Y-82149432D01*
X64024499Y-82058106D01*
X63958113Y-81991720D01*
X63924628Y-81930397D01*
X63929612Y-81860705D01*
X63958113Y-81816358D01*
X64016358Y-81758113D01*
X64077681Y-81724628D01*
X64147373Y-81729612D01*
X64191720Y-81758113D01*
X64204087Y-81770480D01*
X64295413Y-81823207D01*
X64397273Y-81850500D01*
X64397275Y-81850500D01*
X64502725Y-81850500D01*
X64502727Y-81850500D01*
X64604587Y-81823207D01*
X64695913Y-81770480D01*
X64770439Y-81695953D01*
X64831758Y-81662471D01*
X64901450Y-81667455D01*
X64957384Y-81709326D01*
X64965503Y-81721635D01*
X64979521Y-81745914D01*
X65045926Y-81812319D01*
X65079411Y-81873642D01*
X65074427Y-81943334D01*
X65045926Y-81987681D01*
X64979521Y-82054085D01*
X64926794Y-82145410D01*
X64926793Y-82145413D01*
X64899500Y-82247273D01*
X64899500Y-82352727D01*
X64903028Y-82365891D01*
X64926793Y-82454586D01*
X64926794Y-82454589D01*
X64940922Y-82479059D01*
X64979520Y-82545913D01*
X65054087Y-82620480D01*
X65145413Y-82673207D01*
X65247273Y-82700500D01*
X65247275Y-82700500D01*
X65352725Y-82700500D01*
X65352727Y-82700500D01*
X65454587Y-82673207D01*
X65545913Y-82620480D01*
X65612319Y-82554074D01*
X65673642Y-82520589D01*
X65743334Y-82525573D01*
X65787681Y-82554074D01*
X65854087Y-82620480D01*
X65945413Y-82673207D01*
X66047273Y-82700500D01*
X66047275Y-82700500D01*
X66152725Y-82700500D01*
X66152727Y-82700500D01*
X66254587Y-82673207D01*
X66345913Y-82620480D01*
X66420480Y-82545913D01*
X66473207Y-82454587D01*
X66500500Y-82352727D01*
X66500500Y-82247273D01*
X66473207Y-82145413D01*
X66420480Y-82054087D01*
X66358113Y-81991720D01*
X66324628Y-81930397D01*
X66329612Y-81860705D01*
X66358111Y-81816360D01*
X66416360Y-81758111D01*
X66477681Y-81724628D01*
X66547373Y-81729612D01*
X66591720Y-81758113D01*
X66654087Y-81820480D01*
X66745413Y-81873207D01*
X66847273Y-81900500D01*
X66847275Y-81900500D01*
X66952725Y-81900500D01*
X66952727Y-81900500D01*
X67054587Y-81873207D01*
X67145913Y-81820480D01*
X67212319Y-81754074D01*
X67273642Y-81720589D01*
X67343334Y-81725573D01*
X67387681Y-81754074D01*
X67404087Y-81770480D01*
X67495413Y-81823207D01*
X67597273Y-81850500D01*
X67597275Y-81850500D01*
X67702725Y-81850500D01*
X67702727Y-81850500D01*
X67804587Y-81823207D01*
X67895913Y-81770480D01*
X67970480Y-81695913D01*
X68023207Y-81604587D01*
X68050500Y-81502727D01*
X68050500Y-81497273D01*
X74599500Y-81497273D01*
X74599500Y-81602727D01*
X74626793Y-81704587D01*
X74679520Y-81795913D01*
X74754087Y-81870480D01*
X74845413Y-81923207D01*
X74947273Y-81950500D01*
X74947275Y-81950500D01*
X75052725Y-81950500D01*
X75052727Y-81950500D01*
X75154587Y-81923207D01*
X75245913Y-81870480D01*
X75320480Y-81795913D01*
X75373207Y-81704587D01*
X75400500Y-81602727D01*
X75400500Y-81497273D01*
X75373207Y-81395413D01*
X75320480Y-81304087D01*
X75245913Y-81229520D01*
X75159312Y-81179521D01*
X75154589Y-81176794D01*
X75154588Y-81176793D01*
X75154587Y-81176793D01*
X75052727Y-81149500D01*
X74947273Y-81149500D01*
X74845413Y-81176793D01*
X74845410Y-81176794D01*
X74754085Y-81229521D01*
X74679521Y-81304085D01*
X74626794Y-81395410D01*
X74626793Y-81395413D01*
X74599500Y-81497273D01*
X68050500Y-81497273D01*
X68050500Y-81397273D01*
X68023207Y-81295413D01*
X67970480Y-81204087D01*
X67895913Y-81129520D01*
X67804587Y-81076793D01*
X67702727Y-81049500D01*
X67597273Y-81049500D01*
X67495413Y-81076793D01*
X67495410Y-81076794D01*
X67404085Y-81129521D01*
X67337681Y-81195926D01*
X67276358Y-81229411D01*
X67206666Y-81224427D01*
X67162319Y-81195926D01*
X67145914Y-81179521D01*
X67145913Y-81179520D01*
X67079059Y-81140922D01*
X67054589Y-81126794D01*
X67054588Y-81126793D01*
X67054587Y-81126793D01*
X66952727Y-81099500D01*
X66847273Y-81099500D01*
X66745413Y-81126793D01*
X66745410Y-81126794D01*
X66654087Y-81179520D01*
X66591720Y-81241887D01*
X66530396Y-81275371D01*
X66460705Y-81270386D01*
X66416358Y-81241886D01*
X66353993Y-81179521D01*
X66353992Y-81179520D01*
X66287138Y-81140922D01*
X66262668Y-81126794D01*
X66262667Y-81126793D01*
X66262666Y-81126793D01*
X66160806Y-81099500D01*
X66055352Y-81099500D01*
X65953492Y-81126793D01*
X65953489Y-81126794D01*
X65862166Y-81179520D01*
X65791720Y-81249966D01*
X65730396Y-81283450D01*
X65660705Y-81278465D01*
X65616358Y-81249965D01*
X65545914Y-81179521D01*
X65545913Y-81179520D01*
X65479059Y-81140922D01*
X65454589Y-81126794D01*
X65454588Y-81126793D01*
X65454587Y-81126793D01*
X65352727Y-81099500D01*
X65247273Y-81099500D01*
X65145413Y-81126793D01*
X65145410Y-81126794D01*
X65054087Y-81179520D01*
X64979563Y-81254044D01*
X64918239Y-81287528D01*
X64848548Y-81282543D01*
X64792614Y-81240672D01*
X64784500Y-81228371D01*
X64770480Y-81204087D01*
X64695913Y-81129520D01*
X64604587Y-81076793D01*
X64502727Y-81049500D01*
X64397273Y-81049500D01*
X64295413Y-81076793D01*
X64295410Y-81076794D01*
X64204085Y-81129521D01*
X64141720Y-81191887D01*
X64080397Y-81225372D01*
X64010705Y-81220388D01*
X63966358Y-81191887D01*
X63958113Y-81183642D01*
X63924628Y-81122319D01*
X63929612Y-81052627D01*
X63958113Y-81008280D01*
X63973207Y-80993186D01*
X64020480Y-80945913D01*
X64073207Y-80854587D01*
X64100500Y-80752727D01*
X64100500Y-80647273D01*
X68899500Y-80647273D01*
X68899500Y-80752727D01*
X68926793Y-80854587D01*
X68979520Y-80945913D01*
X69054087Y-81020480D01*
X69145413Y-81073207D01*
X69247273Y-81100500D01*
X69247275Y-81100500D01*
X69352725Y-81100500D01*
X69352727Y-81100500D01*
X69454587Y-81073207D01*
X69522309Y-81034108D01*
X79699500Y-81034108D01*
X79699500Y-81165892D01*
X79714102Y-81220388D01*
X79733608Y-81293187D01*
X79751542Y-81324249D01*
X79799500Y-81407314D01*
X79892686Y-81500500D01*
X80006814Y-81566392D01*
X80134108Y-81600500D01*
X80134110Y-81600500D01*
X80265890Y-81600500D01*
X80265892Y-81600500D01*
X80393186Y-81566392D01*
X80507314Y-81500500D01*
X80600500Y-81407314D01*
X80666392Y-81293186D01*
X80700500Y-81165892D01*
X80700500Y-81034108D01*
X80666392Y-80906814D01*
X80658233Y-80892683D01*
X80600503Y-80792691D01*
X80600502Y-80792690D01*
X80600500Y-80792686D01*
X80541922Y-80734108D01*
X81999500Y-80734108D01*
X81999500Y-80865892D01*
X82015472Y-80925500D01*
X82033608Y-80993187D01*
X82066121Y-81049500D01*
X82099500Y-81107314D01*
X82192686Y-81200500D01*
X82285427Y-81254044D01*
X82305944Y-81265890D01*
X82306814Y-81266392D01*
X82434108Y-81300500D01*
X82434110Y-81300500D01*
X82565890Y-81300500D01*
X82565892Y-81300500D01*
X82693186Y-81266392D01*
X82807314Y-81200500D01*
X82900500Y-81107314D01*
X82966392Y-80993186D01*
X83000500Y-80865892D01*
X83000500Y-80734108D01*
X82966392Y-80606814D01*
X82964208Y-80603032D01*
X82939017Y-80559400D01*
X82900500Y-80492686D01*
X82807314Y-80399500D01*
X82723518Y-80351120D01*
X82693187Y-80333608D01*
X82629539Y-80316554D01*
X82565892Y-80299500D01*
X82434108Y-80299500D01*
X82306812Y-80333608D01*
X82192686Y-80399500D01*
X82192683Y-80399502D01*
X82099502Y-80492683D01*
X82099500Y-80492686D01*
X82033608Y-80606812D01*
X82006814Y-80706812D01*
X81999500Y-80734108D01*
X80541922Y-80734108D01*
X80507314Y-80699500D01*
X80416858Y-80647275D01*
X80393187Y-80633608D01*
X80293188Y-80606814D01*
X80265892Y-80599500D01*
X80134108Y-80599500D01*
X80006812Y-80633608D01*
X79892686Y-80699500D01*
X79892683Y-80699502D01*
X79799502Y-80792683D01*
X79799500Y-80792686D01*
X79733608Y-80906812D01*
X79704256Y-81016358D01*
X79699500Y-81034108D01*
X69522309Y-81034108D01*
X69545913Y-81020480D01*
X69620480Y-80945913D01*
X69673207Y-80854587D01*
X69700500Y-80752727D01*
X69700500Y-80647273D01*
X69673207Y-80545413D01*
X69620480Y-80454087D01*
X69545913Y-80379520D01*
X69454587Y-80326793D01*
X69352727Y-80299500D01*
X69247273Y-80299500D01*
X69145413Y-80326793D01*
X69145410Y-80326794D01*
X69054085Y-80379521D01*
X68979521Y-80454085D01*
X68926794Y-80545410D01*
X68926793Y-80545413D01*
X68899500Y-80647273D01*
X64100500Y-80647273D01*
X64073207Y-80545413D01*
X64020480Y-80454087D01*
X63954074Y-80387681D01*
X63920589Y-80326358D01*
X63925573Y-80256666D01*
X63954074Y-80212319D01*
X64016462Y-80149931D01*
X64069189Y-80058605D01*
X64096482Y-79956745D01*
X64096482Y-79851291D01*
X64095405Y-79847271D01*
X66491420Y-79847271D01*
X66491420Y-79952725D01*
X66510653Y-80024502D01*
X66518713Y-80054584D01*
X66518714Y-80054587D01*
X66520289Y-80057315D01*
X66571440Y-80145911D01*
X66646007Y-80220478D01*
X66737333Y-80273205D01*
X66839193Y-80300498D01*
X66839195Y-80300498D01*
X66944645Y-80300498D01*
X66944647Y-80300498D01*
X67046507Y-80273205D01*
X67137833Y-80220478D01*
X67212400Y-80145911D01*
X67265127Y-80054585D01*
X67292420Y-79952725D01*
X67292420Y-79847273D01*
X68099500Y-79847273D01*
X68099500Y-79952727D01*
X68126793Y-80054587D01*
X68179520Y-80145913D01*
X68254087Y-80220480D01*
X68345413Y-80273207D01*
X68447273Y-80300500D01*
X68447275Y-80300500D01*
X68552725Y-80300500D01*
X68552727Y-80300500D01*
X68654587Y-80273207D01*
X68745913Y-80220480D01*
X68820480Y-80145913D01*
X68873207Y-80054587D01*
X68900500Y-79952727D01*
X68900500Y-79847274D01*
X69699500Y-79847274D01*
X69699500Y-79952728D01*
X69726793Y-80054586D01*
X69726793Y-80054587D01*
X69726794Y-80054590D01*
X69729112Y-80058604D01*
X69779520Y-80145914D01*
X69854087Y-80220481D01*
X69945413Y-80273208D01*
X70047273Y-80300501D01*
X70047275Y-80300501D01*
X70152725Y-80300501D01*
X70152727Y-80300501D01*
X70254587Y-80273208D01*
X70345913Y-80220481D01*
X70412322Y-80154071D01*
X70473641Y-80120589D01*
X70543333Y-80125573D01*
X70587681Y-80154074D01*
X70654087Y-80220480D01*
X70745413Y-80273207D01*
X70847273Y-80300500D01*
X70847275Y-80300500D01*
X70952725Y-80300500D01*
X70952727Y-80300500D01*
X71054587Y-80273207D01*
X71145913Y-80220480D01*
X71220480Y-80145913D01*
X71273207Y-80054587D01*
X71300500Y-79952727D01*
X71300500Y-79847273D01*
X71273207Y-79745413D01*
X71237813Y-79684109D01*
X76747223Y-79684109D01*
X76747223Y-79815893D01*
X76755632Y-79847275D01*
X76781331Y-79943188D01*
X76790234Y-79958608D01*
X76847223Y-80057315D01*
X76940409Y-80150501D01*
X77039244Y-80207564D01*
X77047480Y-80212319D01*
X77054537Y-80216393D01*
X77181831Y-80250501D01*
X77181833Y-80250501D01*
X77313613Y-80250501D01*
X77313615Y-80250501D01*
X77440909Y-80216393D01*
X77555037Y-80150501D01*
X77648223Y-80057315D01*
X77714115Y-79943187D01*
X77748223Y-79815893D01*
X77748223Y-79684109D01*
X77714115Y-79556815D01*
X77648223Y-79442687D01*
X77555037Y-79349501D01*
X77470165Y-79300500D01*
X77440910Y-79283609D01*
X77376650Y-79266391D01*
X77313615Y-79249501D01*
X77181831Y-79249501D01*
X77054535Y-79283609D01*
X76940409Y-79349501D01*
X76940406Y-79349503D01*
X76847225Y-79442684D01*
X76847223Y-79442687D01*
X76781331Y-79556813D01*
X76748482Y-79679411D01*
X76747223Y-79684109D01*
X71237813Y-79684109D01*
X71220480Y-79654087D01*
X71145913Y-79579520D01*
X71061548Y-79530812D01*
X71054589Y-79526794D01*
X71054588Y-79526793D01*
X71054587Y-79526793D01*
X70952727Y-79499500D01*
X70847273Y-79499500D01*
X70745413Y-79526793D01*
X70745410Y-79526794D01*
X70654087Y-79579520D01*
X70587680Y-79645927D01*
X70526356Y-79679411D01*
X70456665Y-79674426D01*
X70412318Y-79645926D01*
X70345914Y-79579522D01*
X70345913Y-79579521D01*
X70272616Y-79537203D01*
X70254589Y-79526795D01*
X70254588Y-79526794D01*
X70254587Y-79526794D01*
X70152727Y-79499501D01*
X70047273Y-79499501D01*
X69945413Y-79526794D01*
X69945410Y-79526795D01*
X69854085Y-79579522D01*
X69779521Y-79654086D01*
X69726794Y-79745411D01*
X69726793Y-79745414D01*
X69699500Y-79847274D01*
X68900500Y-79847274D01*
X68900500Y-79847273D01*
X68873207Y-79745413D01*
X68820480Y-79654087D01*
X68745913Y-79579520D01*
X68661548Y-79530812D01*
X68654589Y-79526794D01*
X68654588Y-79526793D01*
X68654587Y-79526793D01*
X68552727Y-79499500D01*
X68447273Y-79499500D01*
X68345413Y-79526793D01*
X68345410Y-79526794D01*
X68254085Y-79579521D01*
X68179521Y-79654085D01*
X68126794Y-79745410D01*
X68126793Y-79745413D01*
X68099500Y-79847273D01*
X67292420Y-79847273D01*
X67292420Y-79847271D01*
X67265127Y-79745411D01*
X67212400Y-79654085D01*
X67145996Y-79587681D01*
X67112511Y-79526358D01*
X67117495Y-79456666D01*
X67145996Y-79412319D01*
X67151002Y-79407313D01*
X67212402Y-79345913D01*
X67265129Y-79254587D01*
X67292422Y-79152727D01*
X67292422Y-79047273D01*
X67265129Y-78945413D01*
X67212402Y-78854087D01*
X67137835Y-78779520D01*
X67070981Y-78740922D01*
X67046511Y-78726794D01*
X67046510Y-78726793D01*
X67046509Y-78726793D01*
X66944649Y-78699500D01*
X66839195Y-78699500D01*
X66737335Y-78726793D01*
X66737332Y-78726794D01*
X66646007Y-78779521D01*
X66571443Y-78854085D01*
X66518716Y-78945410D01*
X66518715Y-78945413D01*
X66491422Y-79047273D01*
X66491422Y-79152727D01*
X66518715Y-79254587D01*
X66555665Y-79318587D01*
X66571443Y-79345914D01*
X66637846Y-79412317D01*
X66671331Y-79473640D01*
X66666347Y-79543332D01*
X66637846Y-79587679D01*
X66571441Y-79654083D01*
X66518714Y-79745408D01*
X66518713Y-79745411D01*
X66491420Y-79847271D01*
X64095405Y-79847271D01*
X64069189Y-79749431D01*
X64016462Y-79658105D01*
X63941895Y-79583538D01*
X63850569Y-79530811D01*
X63748709Y-79503518D01*
X63643255Y-79503518D01*
X63541395Y-79530811D01*
X63541392Y-79530812D01*
X63450067Y-79583539D01*
X63375503Y-79658103D01*
X63322776Y-79749428D01*
X63322775Y-79749431D01*
X63295482Y-79851291D01*
X20567955Y-79851291D01*
X20566705Y-78734108D01*
X35199500Y-78734108D01*
X35199500Y-78865892D01*
X35210464Y-78906812D01*
X35233608Y-78993187D01*
X35264835Y-79047273D01*
X35299500Y-79107314D01*
X35392686Y-79200500D01*
X35506814Y-79266392D01*
X35634108Y-79300500D01*
X35634110Y-79300500D01*
X35765890Y-79300500D01*
X35765892Y-79300500D01*
X35893186Y-79266392D01*
X36007314Y-79200500D01*
X36100500Y-79107314D01*
X36142766Y-79034108D01*
X38999500Y-79034108D01*
X38999500Y-79165891D01*
X39033608Y-79293187D01*
X39048272Y-79318585D01*
X39099500Y-79407314D01*
X39192686Y-79500500D01*
X39256261Y-79537205D01*
X39303533Y-79564498D01*
X39306814Y-79566392D01*
X39434108Y-79600500D01*
X39434110Y-79600500D01*
X39565890Y-79600500D01*
X39565892Y-79600500D01*
X39693186Y-79566392D01*
X39807314Y-79500500D01*
X39900500Y-79407314D01*
X39966392Y-79293186D01*
X40000500Y-79165892D01*
X40000500Y-79111271D01*
X64051498Y-79111271D01*
X64051498Y-79216725D01*
X64078791Y-79318585D01*
X64131518Y-79409911D01*
X64206085Y-79484478D01*
X64297411Y-79537205D01*
X64399271Y-79564498D01*
X64399273Y-79564498D01*
X64504723Y-79564498D01*
X64504725Y-79564498D01*
X64606585Y-79537205D01*
X64697911Y-79484478D01*
X64772478Y-79409911D01*
X64825205Y-79318585D01*
X64852498Y-79216725D01*
X64852498Y-79111271D01*
X64825205Y-79009411D01*
X64772478Y-78918085D01*
X64697911Y-78843518D01*
X64606585Y-78790791D01*
X64504725Y-78763498D01*
X64399271Y-78763498D01*
X64297411Y-78790791D01*
X64297408Y-78790792D01*
X64206083Y-78843519D01*
X64131519Y-78918083D01*
X64078792Y-79009408D01*
X64078791Y-79009411D01*
X64051498Y-79111271D01*
X40000500Y-79111271D01*
X40000500Y-79034108D01*
X39966392Y-78906814D01*
X39900500Y-78792686D01*
X39807314Y-78699500D01*
X39750250Y-78666554D01*
X39693187Y-78633608D01*
X39617544Y-78613340D01*
X39565892Y-78599500D01*
X39434108Y-78599500D01*
X39306812Y-78633608D01*
X39192686Y-78699500D01*
X39192683Y-78699502D01*
X39099502Y-78792683D01*
X39099500Y-78792686D01*
X39033608Y-78906812D01*
X38999500Y-79034108D01*
X36142766Y-79034108D01*
X36166392Y-78993186D01*
X36200500Y-78865892D01*
X36200500Y-78734108D01*
X36166392Y-78606814D01*
X36100500Y-78492686D01*
X36007314Y-78399500D01*
X35926301Y-78352727D01*
X35893187Y-78333608D01*
X35829539Y-78316554D01*
X35765892Y-78299500D01*
X35634108Y-78299500D01*
X35506812Y-78333608D01*
X35392686Y-78399500D01*
X35392683Y-78399502D01*
X35299502Y-78492683D01*
X35299500Y-78492686D01*
X35233608Y-78606812D01*
X35208505Y-78700499D01*
X35199500Y-78734108D01*
X20566705Y-78734108D01*
X20566696Y-78726120D01*
X20565934Y-78044677D01*
X20565698Y-77834108D01*
X23699500Y-77834108D01*
X23699500Y-77965892D01*
X23710946Y-78008608D01*
X23733608Y-78093187D01*
X23755049Y-78130323D01*
X23799500Y-78207314D01*
X23892686Y-78300500D01*
X24006814Y-78366392D01*
X24134108Y-78400500D01*
X24134110Y-78400500D01*
X24265890Y-78400500D01*
X24265892Y-78400500D01*
X24393186Y-78366392D01*
X24507314Y-78300500D01*
X24600500Y-78207314D01*
X24666392Y-78093186D01*
X24700500Y-77965892D01*
X24700500Y-77834108D01*
X24666392Y-77706814D01*
X24600500Y-77592686D01*
X24507314Y-77499500D01*
X24416858Y-77447275D01*
X24393187Y-77433608D01*
X24329539Y-77416554D01*
X24265892Y-77399500D01*
X24134108Y-77399500D01*
X24006812Y-77433608D01*
X23892686Y-77499500D01*
X23892683Y-77499502D01*
X23799502Y-77592683D01*
X23799500Y-77592686D01*
X23733608Y-77706812D01*
X23705316Y-77812402D01*
X23699500Y-77834108D01*
X20565698Y-77834108D01*
X20564787Y-77019529D01*
X49987351Y-77019529D01*
X49987351Y-77151313D01*
X49993833Y-77175503D01*
X50021459Y-77278608D01*
X50035015Y-77302087D01*
X50087351Y-77392735D01*
X50180537Y-77485921D01*
X50279372Y-77542984D01*
X50292515Y-77550572D01*
X50294665Y-77551813D01*
X50407594Y-77582072D01*
X50467254Y-77618436D01*
X50497783Y-77681282D01*
X50499500Y-77701846D01*
X50499500Y-77765892D01*
X50507009Y-77793915D01*
X50533608Y-77893187D01*
X50562561Y-77943334D01*
X50599500Y-78007314D01*
X50692686Y-78100500D01*
X50791521Y-78157563D01*
X50806810Y-78166390D01*
X50806814Y-78166392D01*
X50934108Y-78200500D01*
X50934110Y-78200500D01*
X51065890Y-78200500D01*
X51065892Y-78200500D01*
X51193186Y-78166392D01*
X51255659Y-78130322D01*
X51323559Y-78113849D01*
X51389586Y-78136701D01*
X51432777Y-78191621D01*
X51439419Y-78261175D01*
X51435591Y-78273930D01*
X51435712Y-78273963D01*
X51433608Y-78281812D01*
X51433608Y-78281814D01*
X51399500Y-78409108D01*
X51399500Y-78540892D01*
X51416554Y-78604539D01*
X51433608Y-78668187D01*
X51465510Y-78723441D01*
X51499500Y-78782314D01*
X51592686Y-78875500D01*
X51706814Y-78941392D01*
X51834108Y-78975500D01*
X51834110Y-78975500D01*
X51965890Y-78975500D01*
X51965892Y-78975500D01*
X52093186Y-78941392D01*
X52207314Y-78875500D01*
X52300500Y-78782314D01*
X52366392Y-78668186D01*
X52400500Y-78540892D01*
X52400500Y-78409108D01*
X52366392Y-78281814D01*
X52300500Y-78167686D01*
X52207314Y-78074500D01*
X52137353Y-78034108D01*
X55399500Y-78034108D01*
X55399500Y-78165892D01*
X55416554Y-78229539D01*
X55433608Y-78293187D01*
X55456946Y-78333608D01*
X55499500Y-78407314D01*
X55592686Y-78500500D01*
X55706814Y-78566392D01*
X55834108Y-78600500D01*
X55834110Y-78600500D01*
X55965890Y-78600500D01*
X55965892Y-78600500D01*
X56093186Y-78566392D01*
X56207314Y-78500500D01*
X56300500Y-78407314D01*
X56366392Y-78293186D01*
X56400500Y-78165892D01*
X56400500Y-78034108D01*
X56366392Y-77906814D01*
X56300500Y-77792686D01*
X56207314Y-77699500D01*
X56129526Y-77654589D01*
X56093187Y-77633608D01*
X56049442Y-77621887D01*
X55965892Y-77599500D01*
X55834108Y-77599500D01*
X55706812Y-77633608D01*
X55592686Y-77699500D01*
X55592683Y-77699502D01*
X55499502Y-77792683D01*
X55499500Y-77792686D01*
X55433608Y-77906812D01*
X55411940Y-77987681D01*
X55399500Y-78034108D01*
X52137353Y-78034108D01*
X52093187Y-78008608D01*
X52029539Y-77991554D01*
X51965892Y-77974500D01*
X51834108Y-77974500D01*
X51706814Y-78008608D01*
X51706813Y-78008608D01*
X51706811Y-78008609D01*
X51706810Y-78008609D01*
X51644339Y-78044677D01*
X51576438Y-78061150D01*
X51510412Y-78038297D01*
X51467221Y-77983376D01*
X51460580Y-77913822D01*
X51464408Y-77901069D01*
X51464288Y-77901037D01*
X51466392Y-77893186D01*
X51500500Y-77765892D01*
X51500500Y-77634108D01*
X51466392Y-77506814D01*
X51459730Y-77495275D01*
X62563498Y-77495275D01*
X62563498Y-77600729D01*
X62590791Y-77702589D01*
X62642808Y-77792686D01*
X62643519Y-77793916D01*
X62718085Y-77868482D01*
X62724531Y-77873428D01*
X62722607Y-77875934D01*
X62760551Y-77915734D01*
X62773770Y-77984342D01*
X62747798Y-78049205D01*
X62738015Y-78060226D01*
X62721214Y-78077027D01*
X62668487Y-78168352D01*
X62668486Y-78168355D01*
X62641193Y-78270215D01*
X62641193Y-78375669D01*
X62668486Y-78477529D01*
X62721213Y-78568855D01*
X62795780Y-78643422D01*
X62887106Y-78696149D01*
X62988966Y-78723442D01*
X62988968Y-78723442D01*
X63094418Y-78723442D01*
X63094420Y-78723442D01*
X63196280Y-78696149D01*
X63287606Y-78643422D01*
X63299994Y-78631034D01*
X63361317Y-78597549D01*
X63431009Y-78602533D01*
X63450523Y-78613340D01*
X63451068Y-78612397D01*
X63458104Y-78616459D01*
X63458106Y-78616461D01*
X63549432Y-78669188D01*
X63651292Y-78696481D01*
X63651294Y-78696481D01*
X63756744Y-78696481D01*
X63756746Y-78696481D01*
X63858606Y-78669188D01*
X63949932Y-78616461D01*
X64024499Y-78541894D01*
X64077226Y-78450568D01*
X64104519Y-78348708D01*
X64104519Y-78243254D01*
X64077226Y-78141394D01*
X64024499Y-78050068D01*
X63958093Y-77983662D01*
X63924608Y-77922339D01*
X63929592Y-77852647D01*
X63958093Y-77808300D01*
X64016338Y-77750055D01*
X64077661Y-77716570D01*
X64147353Y-77721554D01*
X64191700Y-77750055D01*
X64258106Y-77816461D01*
X64349432Y-77869188D01*
X64451292Y-77896481D01*
X64451294Y-77896481D01*
X64556744Y-77896481D01*
X64556746Y-77896481D01*
X64658606Y-77869188D01*
X64749932Y-77816461D01*
X64824499Y-77741894D01*
X64877226Y-77650568D01*
X64904519Y-77548708D01*
X64904519Y-77447273D01*
X65699500Y-77447273D01*
X65699500Y-77552727D01*
X65726793Y-77654587D01*
X65779520Y-77745913D01*
X65854087Y-77820480D01*
X65945413Y-77873207D01*
X66047273Y-77900500D01*
X66047275Y-77900500D01*
X66152725Y-77900500D01*
X66152727Y-77900500D01*
X66254587Y-77873207D01*
X66345913Y-77820480D01*
X66416358Y-77750035D01*
X66477681Y-77716550D01*
X66547373Y-77721534D01*
X66591720Y-77750035D01*
X66654087Y-77812402D01*
X66745413Y-77865129D01*
X66847273Y-77892422D01*
X66847275Y-77892422D01*
X66952725Y-77892422D01*
X66952727Y-77892422D01*
X67054587Y-77865129D01*
X67145913Y-77812402D01*
X67208280Y-77750035D01*
X67269603Y-77716550D01*
X67339295Y-77721534D01*
X67383642Y-77750035D01*
X67445926Y-77812319D01*
X67479411Y-77873642D01*
X67474427Y-77943334D01*
X67445926Y-77987681D01*
X67379521Y-78054085D01*
X67326794Y-78145410D01*
X67326793Y-78145413D01*
X67299500Y-78247273D01*
X67299500Y-78352727D01*
X67326793Y-78454587D01*
X67379520Y-78545913D01*
X67454087Y-78620480D01*
X67545413Y-78673207D01*
X67647273Y-78700500D01*
X67647275Y-78700500D01*
X67752725Y-78700500D01*
X67752727Y-78700500D01*
X67854587Y-78673207D01*
X67945913Y-78620480D01*
X68012319Y-78554074D01*
X68073642Y-78520589D01*
X68143334Y-78525573D01*
X68187681Y-78554074D01*
X68254087Y-78620480D01*
X68345413Y-78673207D01*
X68447273Y-78700500D01*
X68447275Y-78700500D01*
X68552725Y-78700500D01*
X68552727Y-78700500D01*
X68654587Y-78673207D01*
X68745913Y-78620480D01*
X68820480Y-78545913D01*
X68873207Y-78454587D01*
X68900500Y-78352727D01*
X68900500Y-78247273D01*
X69699500Y-78247273D01*
X69699500Y-78352727D01*
X69726793Y-78454587D01*
X69779520Y-78545913D01*
X69854087Y-78620480D01*
X69945413Y-78673207D01*
X70047273Y-78700500D01*
X70047275Y-78700500D01*
X70152725Y-78700500D01*
X70152727Y-78700500D01*
X70254587Y-78673207D01*
X70345913Y-78620480D01*
X70412319Y-78554074D01*
X70473642Y-78520589D01*
X70543334Y-78525573D01*
X70587681Y-78554074D01*
X70654087Y-78620480D01*
X70745413Y-78673207D01*
X70847273Y-78700500D01*
X70847275Y-78700500D01*
X70952725Y-78700500D01*
X70952727Y-78700500D01*
X71054587Y-78673207D01*
X71145913Y-78620480D01*
X71220480Y-78545913D01*
X71273207Y-78454587D01*
X71300500Y-78352727D01*
X71300500Y-78247273D01*
X71273207Y-78145413D01*
X71220480Y-78054087D01*
X71154074Y-77987681D01*
X71120589Y-77926358D01*
X71125573Y-77856666D01*
X71154074Y-77812319D01*
X71173710Y-77792683D01*
X71220480Y-77745913D01*
X71273207Y-77654587D01*
X71278694Y-77634108D01*
X74099500Y-77634108D01*
X74099500Y-77765892D01*
X74107009Y-77793915D01*
X74133608Y-77893187D01*
X74162561Y-77943334D01*
X74199500Y-78007314D01*
X74292686Y-78100500D01*
X74391521Y-78157563D01*
X74406810Y-78166390D01*
X74406814Y-78166392D01*
X74534108Y-78200500D01*
X74534110Y-78200500D01*
X74665890Y-78200500D01*
X74665892Y-78200500D01*
X74793186Y-78166392D01*
X74907314Y-78100500D01*
X75000500Y-78007314D01*
X75066392Y-77893186D01*
X75100500Y-77765892D01*
X75100500Y-77634108D01*
X75066392Y-77506814D01*
X75000500Y-77392686D01*
X74907314Y-77299500D01*
X74828653Y-77254085D01*
X74793187Y-77233608D01*
X74729539Y-77216554D01*
X74665892Y-77199500D01*
X74534108Y-77199500D01*
X74406812Y-77233608D01*
X74292686Y-77299500D01*
X74292683Y-77299502D01*
X74199502Y-77392683D01*
X74199500Y-77392686D01*
X74133608Y-77506812D01*
X74110600Y-77592683D01*
X74099500Y-77634108D01*
X71278694Y-77634108D01*
X71300500Y-77552727D01*
X71300500Y-77447273D01*
X71273207Y-77345413D01*
X71220480Y-77254087D01*
X71145913Y-77179520D01*
X71054587Y-77126793D01*
X70952727Y-77099500D01*
X70847273Y-77099500D01*
X70745413Y-77126793D01*
X70745410Y-77126794D01*
X70654085Y-77179521D01*
X70579521Y-77254085D01*
X70526794Y-77345410D01*
X70526793Y-77345413D01*
X70499500Y-77447273D01*
X70499500Y-77552727D01*
X70526793Y-77654587D01*
X70577200Y-77741895D01*
X70579521Y-77745914D01*
X70645926Y-77812319D01*
X70679411Y-77873642D01*
X70674427Y-77943334D01*
X70645926Y-77987681D01*
X70587681Y-78045926D01*
X70526358Y-78079411D01*
X70456666Y-78074427D01*
X70412319Y-78045926D01*
X70345914Y-77979521D01*
X70345913Y-77979520D01*
X70254587Y-77926793D01*
X70152727Y-77899500D01*
X70047273Y-77899500D01*
X69945413Y-77926793D01*
X69945410Y-77926794D01*
X69854085Y-77979521D01*
X69779521Y-78054085D01*
X69726794Y-78145410D01*
X69726793Y-78145413D01*
X69699500Y-78247273D01*
X68900500Y-78247273D01*
X68873207Y-78145413D01*
X68820480Y-78054087D01*
X68745913Y-77979520D01*
X68654587Y-77926793D01*
X68552727Y-77899500D01*
X68447273Y-77899500D01*
X68345413Y-77926793D01*
X68345410Y-77926794D01*
X68254085Y-77979521D01*
X68187681Y-78045926D01*
X68126358Y-78079411D01*
X68056666Y-78074427D01*
X68012319Y-78045926D01*
X67954074Y-77987681D01*
X67920589Y-77926358D01*
X67925573Y-77856666D01*
X67954074Y-77812319D01*
X67973710Y-77792683D01*
X68020480Y-77745913D01*
X68073207Y-77654587D01*
X68100500Y-77552727D01*
X68100500Y-77447273D01*
X68073207Y-77345413D01*
X68020480Y-77254087D01*
X67945913Y-77179520D01*
X67854587Y-77126793D01*
X67752727Y-77099500D01*
X67647273Y-77099500D01*
X67545413Y-77126793D01*
X67545410Y-77126794D01*
X67454085Y-77179521D01*
X67391720Y-77241887D01*
X67330397Y-77275372D01*
X67260705Y-77270388D01*
X67216358Y-77241887D01*
X67145914Y-77171443D01*
X67145913Y-77171442D01*
X67061619Y-77122775D01*
X67054589Y-77118716D01*
X67054588Y-77118715D01*
X67054587Y-77118715D01*
X66952727Y-77091422D01*
X66847273Y-77091422D01*
X66745413Y-77118715D01*
X66745410Y-77118716D01*
X66654085Y-77171443D01*
X66583642Y-77241887D01*
X66522319Y-77275372D01*
X66452627Y-77270388D01*
X66408280Y-77241887D01*
X66345914Y-77179521D01*
X66345913Y-77179520D01*
X66254587Y-77126793D01*
X66152727Y-77099500D01*
X66047273Y-77099500D01*
X65945413Y-77126793D01*
X65945410Y-77126794D01*
X65854085Y-77179521D01*
X65779521Y-77254085D01*
X65726794Y-77345410D01*
X65726793Y-77345413D01*
X65699500Y-77447273D01*
X64904519Y-77447273D01*
X64904519Y-77443254D01*
X64877226Y-77341394D01*
X64824499Y-77250068D01*
X64749932Y-77175501D01*
X64665567Y-77126793D01*
X64658608Y-77122775D01*
X64658607Y-77122774D01*
X64658606Y-77122774D01*
X64556746Y-77095481D01*
X64451292Y-77095481D01*
X64349432Y-77122774D01*
X64349429Y-77122775D01*
X64258104Y-77175502D01*
X64191699Y-77241908D01*
X64130376Y-77275393D01*
X64060684Y-77270409D01*
X64016337Y-77241908D01*
X63949932Y-77175503D01*
X63949931Y-77175502D01*
X63865566Y-77126794D01*
X63858607Y-77122776D01*
X63858606Y-77122775D01*
X63858605Y-77122775D01*
X63756745Y-77095482D01*
X63651291Y-77095482D01*
X63549431Y-77122775D01*
X63549428Y-77122776D01*
X63458103Y-77175503D01*
X63395679Y-77237928D01*
X63334356Y-77271413D01*
X63264664Y-77266429D01*
X63220317Y-77237928D01*
X63209912Y-77227523D01*
X63209911Y-77227522D01*
X63126769Y-77179520D01*
X63118587Y-77174796D01*
X63118586Y-77174795D01*
X63118585Y-77174795D01*
X63016725Y-77147502D01*
X62911271Y-77147502D01*
X62809411Y-77174795D01*
X62809408Y-77174796D01*
X62718083Y-77227523D01*
X62643519Y-77302087D01*
X62590792Y-77393412D01*
X62590791Y-77393415D01*
X62563498Y-77495275D01*
X51459730Y-77495275D01*
X51400500Y-77392686D01*
X51307314Y-77299500D01*
X51193186Y-77233608D01*
X51080257Y-77203349D01*
X51020597Y-77166984D01*
X50990068Y-77104137D01*
X50988351Y-77083574D01*
X50988351Y-77019531D01*
X50988351Y-77019529D01*
X50954243Y-76892235D01*
X50888351Y-76778107D01*
X50795165Y-76684921D01*
X50738101Y-76651975D01*
X50681038Y-76619029D01*
X50617390Y-76601975D01*
X50553743Y-76584921D01*
X50421959Y-76584921D01*
X50294663Y-76619029D01*
X50180537Y-76684921D01*
X50180534Y-76684923D01*
X50087353Y-76778104D01*
X50087351Y-76778107D01*
X50021459Y-76892233D01*
X49987351Y-77019529D01*
X20564787Y-77019529D01*
X20563755Y-76097273D01*
X54899500Y-76097273D01*
X54899500Y-76202727D01*
X54926793Y-76304587D01*
X54979520Y-76395913D01*
X55054087Y-76470480D01*
X55145413Y-76523207D01*
X55247273Y-76550500D01*
X55247275Y-76550500D01*
X55352725Y-76550500D01*
X55352727Y-76550500D01*
X55454587Y-76523207D01*
X55545913Y-76470480D01*
X55620480Y-76395913D01*
X55673207Y-76304587D01*
X55700500Y-76202727D01*
X55700500Y-76098018D01*
X56285591Y-76098018D01*
X56285591Y-76229801D01*
X56319699Y-76357097D01*
X56352645Y-76414160D01*
X56385591Y-76471224D01*
X56478777Y-76564410D01*
X56592905Y-76630302D01*
X56720199Y-76664410D01*
X56720201Y-76664410D01*
X56851981Y-76664410D01*
X56851983Y-76664410D01*
X56979277Y-76630302D01*
X57093405Y-76564410D01*
X57186591Y-76471224D01*
X57252483Y-76357096D01*
X57286591Y-76229802D01*
X57286591Y-76098018D01*
X57252483Y-75970724D01*
X57186591Y-75856596D01*
X57093405Y-75763410D01*
X57036341Y-75730464D01*
X56979278Y-75697518D01*
X56915630Y-75680464D01*
X56851983Y-75663410D01*
X56720199Y-75663410D01*
X56592903Y-75697518D01*
X56478777Y-75763410D01*
X56478774Y-75763412D01*
X56385593Y-75856593D01*
X56385591Y-75856596D01*
X56319699Y-75970722D01*
X56285591Y-76098018D01*
X55700500Y-76098018D01*
X55700500Y-76097273D01*
X55673207Y-75995413D01*
X55620480Y-75904087D01*
X55545913Y-75829520D01*
X55454587Y-75776793D01*
X55352727Y-75749500D01*
X55247273Y-75749500D01*
X55145413Y-75776793D01*
X55145410Y-75776794D01*
X55054085Y-75829521D01*
X54979521Y-75904085D01*
X54926794Y-75995410D01*
X54926793Y-75995413D01*
X54899500Y-76097273D01*
X20563755Y-76097273D01*
X20562789Y-75234108D01*
X80499500Y-75234108D01*
X80499500Y-75365891D01*
X80533608Y-75493187D01*
X80566554Y-75550250D01*
X80599500Y-75607314D01*
X80692686Y-75700500D01*
X80791521Y-75757563D01*
X80801652Y-75763412D01*
X80806814Y-75766392D01*
X80934108Y-75800500D01*
X80934110Y-75800500D01*
X81065890Y-75800500D01*
X81065892Y-75800500D01*
X81193186Y-75766392D01*
X81307314Y-75700500D01*
X81400500Y-75607314D01*
X81466392Y-75493186D01*
X81500500Y-75365892D01*
X81500500Y-75234108D01*
X81466392Y-75106814D01*
X81442764Y-75065890D01*
X81400503Y-74992691D01*
X81400502Y-74992690D01*
X81400500Y-74992686D01*
X81341922Y-74934108D01*
X93999500Y-74934108D01*
X93999500Y-75065891D01*
X94033608Y-75193187D01*
X94066554Y-75250250D01*
X94099500Y-75307314D01*
X94192686Y-75400500D01*
X94306814Y-75466392D01*
X94434108Y-75500500D01*
X94434110Y-75500500D01*
X94565890Y-75500500D01*
X94565892Y-75500500D01*
X94693186Y-75466392D01*
X94807314Y-75400500D01*
X94900500Y-75307314D01*
X94966392Y-75193186D01*
X95000500Y-75065892D01*
X95000500Y-74934108D01*
X94966392Y-74806814D01*
X94900500Y-74692686D01*
X94807314Y-74599500D01*
X94729521Y-74554586D01*
X94693187Y-74533608D01*
X94629539Y-74516554D01*
X94565892Y-74499500D01*
X94434108Y-74499500D01*
X94306812Y-74533608D01*
X94192686Y-74599500D01*
X94192683Y-74599502D01*
X94099502Y-74692683D01*
X94099500Y-74692686D01*
X94033608Y-74806812D01*
X93999500Y-74934108D01*
X81341922Y-74934108D01*
X81307314Y-74899500D01*
X81250250Y-74866554D01*
X81193187Y-74833608D01*
X81093188Y-74806814D01*
X81065892Y-74799500D01*
X80934108Y-74799500D01*
X80806812Y-74833608D01*
X80692686Y-74899500D01*
X80692683Y-74899502D01*
X80599502Y-74992683D01*
X80599500Y-74992686D01*
X80533608Y-75106812D01*
X80499500Y-75234108D01*
X20562789Y-75234108D01*
X20561335Y-73934108D01*
X33999500Y-73934108D01*
X33999500Y-74065892D01*
X34016554Y-74129539D01*
X34033608Y-74193187D01*
X34037253Y-74199500D01*
X34099500Y-74307314D01*
X34192686Y-74400500D01*
X34306814Y-74466392D01*
X34434108Y-74500500D01*
X34434110Y-74500500D01*
X34565890Y-74500500D01*
X34565892Y-74500500D01*
X34693186Y-74466392D01*
X34807314Y-74400500D01*
X34900500Y-74307314D01*
X34966392Y-74193186D01*
X34982222Y-74134108D01*
X54599500Y-74134108D01*
X54599500Y-74265892D01*
X54616554Y-74329539D01*
X54633608Y-74393187D01*
X54638204Y-74401147D01*
X54699500Y-74507314D01*
X54792686Y-74600500D01*
X54906814Y-74666392D01*
X55034108Y-74700500D01*
X55034110Y-74700500D01*
X55165890Y-74700500D01*
X55165892Y-74700500D01*
X55293186Y-74666392D01*
X55349103Y-74634108D01*
X73949500Y-74634108D01*
X73949500Y-74765892D01*
X73951460Y-74773206D01*
X73983608Y-74893187D01*
X74016554Y-74950250D01*
X74049500Y-75007314D01*
X74142686Y-75100500D01*
X74241521Y-75157563D01*
X74256810Y-75166390D01*
X74256814Y-75166392D01*
X74384108Y-75200500D01*
X74384110Y-75200500D01*
X74515890Y-75200500D01*
X74515892Y-75200500D01*
X74643186Y-75166392D01*
X74757314Y-75100500D01*
X74850500Y-75007314D01*
X74916392Y-74893186D01*
X74950500Y-74765892D01*
X74950500Y-74634108D01*
X75599500Y-74634108D01*
X75599500Y-74765892D01*
X75601460Y-74773206D01*
X75633608Y-74893187D01*
X75666554Y-74950250D01*
X75699500Y-75007314D01*
X75792686Y-75100500D01*
X75891521Y-75157563D01*
X75906810Y-75166390D01*
X75906814Y-75166392D01*
X76034108Y-75200500D01*
X76034110Y-75200500D01*
X76165890Y-75200500D01*
X76165892Y-75200500D01*
X76293186Y-75166392D01*
X76407314Y-75100500D01*
X76500500Y-75007314D01*
X76566392Y-74893186D01*
X76600500Y-74765892D01*
X76600500Y-74634108D01*
X76566392Y-74506814D01*
X76500500Y-74392686D01*
X76455087Y-74347273D01*
X79799500Y-74347273D01*
X79799500Y-74452727D01*
X79826793Y-74554587D01*
X79879520Y-74645913D01*
X79954087Y-74720480D01*
X80045413Y-74773207D01*
X80147273Y-74800500D01*
X80147275Y-74800500D01*
X80252725Y-74800500D01*
X80252727Y-74800500D01*
X80354587Y-74773207D01*
X80445913Y-74720480D01*
X80520480Y-74645913D01*
X80573207Y-74554587D01*
X80600500Y-74452727D01*
X80600500Y-74347273D01*
X80573207Y-74245413D01*
X80520480Y-74154087D01*
X80445913Y-74079520D01*
X80354587Y-74026793D01*
X80252727Y-73999500D01*
X80147273Y-73999500D01*
X80045413Y-74026793D01*
X80045410Y-74026794D01*
X79954085Y-74079521D01*
X79879521Y-74154085D01*
X79826794Y-74245410D01*
X79826793Y-74245413D01*
X79799500Y-74347273D01*
X76455087Y-74347273D01*
X76407314Y-74299500D01*
X76313628Y-74245410D01*
X76293187Y-74233608D01*
X76229539Y-74216554D01*
X76165892Y-74199500D01*
X76034108Y-74199500D01*
X75906812Y-74233608D01*
X75792686Y-74299500D01*
X75792683Y-74299502D01*
X75699502Y-74392683D01*
X75699500Y-74392686D01*
X75633608Y-74506812D01*
X75608506Y-74600497D01*
X75599500Y-74634108D01*
X74950500Y-74634108D01*
X74916392Y-74506814D01*
X74850500Y-74392686D01*
X74757314Y-74299500D01*
X74663628Y-74245410D01*
X74643187Y-74233608D01*
X74579539Y-74216554D01*
X74515892Y-74199500D01*
X74384108Y-74199500D01*
X74256812Y-74233608D01*
X74142686Y-74299500D01*
X74142683Y-74299502D01*
X74049502Y-74392683D01*
X74049500Y-74392686D01*
X73983608Y-74506812D01*
X73958506Y-74600497D01*
X73949500Y-74634108D01*
X55349103Y-74634108D01*
X55407314Y-74600500D01*
X55500500Y-74507314D01*
X55566392Y-74393186D01*
X55600500Y-74265892D01*
X55600500Y-74134108D01*
X55566392Y-74006814D01*
X55524415Y-73934108D01*
X87699500Y-73934108D01*
X87699500Y-74065892D01*
X87716554Y-74129539D01*
X87733608Y-74193187D01*
X87737253Y-74199500D01*
X87799500Y-74307314D01*
X87892686Y-74400500D01*
X88006814Y-74466392D01*
X88134108Y-74500500D01*
X88134110Y-74500500D01*
X88265890Y-74500500D01*
X88265892Y-74500500D01*
X88393186Y-74466392D01*
X88507314Y-74400500D01*
X88600500Y-74307314D01*
X88666392Y-74193186D01*
X88700500Y-74065892D01*
X88700500Y-73934108D01*
X88666392Y-73806814D01*
X88600500Y-73692686D01*
X88507314Y-73599500D01*
X88450250Y-73566554D01*
X88393187Y-73533608D01*
X88329539Y-73516554D01*
X88265892Y-73499500D01*
X88134108Y-73499500D01*
X88006812Y-73533608D01*
X87892686Y-73599500D01*
X87892683Y-73599502D01*
X87799502Y-73692683D01*
X87799500Y-73692686D01*
X87733608Y-73806812D01*
X87710600Y-73892683D01*
X87699500Y-73934108D01*
X55524415Y-73934108D01*
X55500500Y-73892686D01*
X55407314Y-73799500D01*
X55349968Y-73766391D01*
X55293187Y-73733608D01*
X55229539Y-73716554D01*
X55165892Y-73699500D01*
X55034108Y-73699500D01*
X54906812Y-73733608D01*
X54792686Y-73799500D01*
X54792683Y-73799502D01*
X54699502Y-73892683D01*
X54699500Y-73892686D01*
X54633608Y-74006812D01*
X54614126Y-74079521D01*
X54599500Y-74134108D01*
X34982222Y-74134108D01*
X35000500Y-74065892D01*
X35000500Y-73934108D01*
X34966392Y-73806814D01*
X34900500Y-73692686D01*
X34807314Y-73599500D01*
X34750250Y-73566554D01*
X34693187Y-73533608D01*
X34629539Y-73516554D01*
X34565892Y-73499500D01*
X34434108Y-73499500D01*
X34306812Y-73533608D01*
X34192686Y-73599500D01*
X34192683Y-73599502D01*
X34099502Y-73692683D01*
X34099500Y-73692686D01*
X34033608Y-73806812D01*
X34010600Y-73892683D01*
X33999500Y-73934108D01*
X20561335Y-73934108D01*
X20560552Y-73234108D01*
X73899500Y-73234108D01*
X73899500Y-73365891D01*
X73933608Y-73493187D01*
X73941766Y-73507316D01*
X73999500Y-73607314D01*
X74092686Y-73700500D01*
X74206814Y-73766392D01*
X74334108Y-73800500D01*
X74334110Y-73800500D01*
X74465890Y-73800500D01*
X74465892Y-73800500D01*
X74593186Y-73766392D01*
X74707314Y-73700500D01*
X74800500Y-73607314D01*
X74866392Y-73493186D01*
X74900500Y-73365892D01*
X74900500Y-73234108D01*
X74873705Y-73134108D01*
X88799500Y-73134108D01*
X88799500Y-73265891D01*
X88833608Y-73393187D01*
X88866554Y-73450250D01*
X88899500Y-73507314D01*
X88992686Y-73600500D01*
X89106814Y-73666392D01*
X89234108Y-73700500D01*
X89234110Y-73700500D01*
X89365890Y-73700500D01*
X89365892Y-73700500D01*
X89493186Y-73666392D01*
X89607314Y-73600500D01*
X89700500Y-73507314D01*
X89766392Y-73393186D01*
X89800500Y-73265892D01*
X89800500Y-73134108D01*
X89766392Y-73006814D01*
X89700500Y-72892686D01*
X89607314Y-72799500D01*
X89550250Y-72766554D01*
X89493187Y-72733608D01*
X89429539Y-72716554D01*
X89365892Y-72699500D01*
X89234108Y-72699500D01*
X89106812Y-72733608D01*
X88992686Y-72799500D01*
X88992683Y-72799502D01*
X88899502Y-72892683D01*
X88899500Y-72892686D01*
X88833608Y-73006812D01*
X88799500Y-73134108D01*
X74873705Y-73134108D01*
X74866392Y-73106814D01*
X74800500Y-72992686D01*
X74707314Y-72899500D01*
X74650250Y-72866554D01*
X74593187Y-72833608D01*
X74529539Y-72816554D01*
X74465892Y-72799500D01*
X74334108Y-72799500D01*
X74206812Y-72833608D01*
X74092686Y-72899500D01*
X74092683Y-72899502D01*
X73999502Y-72992683D01*
X73999500Y-72992686D01*
X73933608Y-73106812D01*
X73899500Y-73234108D01*
X20560552Y-73234108D01*
X20559769Y-72534108D01*
X26799500Y-72534108D01*
X26799500Y-72665891D01*
X26833608Y-72793187D01*
X26856946Y-72833608D01*
X26899500Y-72907314D01*
X26992686Y-73000500D01*
X27106814Y-73066392D01*
X27234108Y-73100500D01*
X27234110Y-73100500D01*
X27365890Y-73100500D01*
X27365892Y-73100500D01*
X27493186Y-73066392D01*
X27607314Y-73000500D01*
X27700500Y-72907314D01*
X27766392Y-72793186D01*
X27800500Y-72665892D01*
X27800500Y-72534108D01*
X27766392Y-72406814D01*
X27700500Y-72292686D01*
X27607314Y-72199500D01*
X27549100Y-72165890D01*
X27494053Y-72134108D01*
X54599500Y-72134108D01*
X54599500Y-72265892D01*
X54616554Y-72329539D01*
X54633608Y-72393187D01*
X54641766Y-72407316D01*
X54699500Y-72507314D01*
X54792686Y-72600500D01*
X54891521Y-72657563D01*
X54905944Y-72665890D01*
X54906814Y-72666392D01*
X55034108Y-72700500D01*
X55034110Y-72700500D01*
X55165890Y-72700500D01*
X55165892Y-72700500D01*
X55293186Y-72666392D01*
X55407314Y-72600500D01*
X55500500Y-72507314D01*
X55566392Y-72393186D01*
X55600500Y-72265892D01*
X55600500Y-72134108D01*
X55573705Y-72034108D01*
X77499500Y-72034108D01*
X77499500Y-72165891D01*
X77533608Y-72293187D01*
X77541766Y-72307316D01*
X77599500Y-72407314D01*
X77692686Y-72500500D01*
X77806814Y-72566392D01*
X77934108Y-72600500D01*
X77934110Y-72600500D01*
X78065890Y-72600500D01*
X78065892Y-72600500D01*
X78193186Y-72566392D01*
X78307314Y-72500500D01*
X78400500Y-72407314D01*
X78466392Y-72293186D01*
X78500500Y-72165892D01*
X78500500Y-72034108D01*
X78466392Y-71906814D01*
X78400500Y-71792686D01*
X78307314Y-71699500D01*
X78250250Y-71666554D01*
X78193187Y-71633608D01*
X78129539Y-71616554D01*
X78065892Y-71599500D01*
X77934108Y-71599500D01*
X77806812Y-71633608D01*
X77692686Y-71699500D01*
X77692683Y-71699502D01*
X77599502Y-71792683D01*
X77599500Y-71792686D01*
X77533608Y-71906812D01*
X77499500Y-72034108D01*
X55573705Y-72034108D01*
X55566392Y-72006814D01*
X55500500Y-71892686D01*
X55407314Y-71799500D01*
X55349968Y-71766391D01*
X55293187Y-71733608D01*
X55229539Y-71716554D01*
X55165892Y-71699500D01*
X55034108Y-71699500D01*
X54906812Y-71733608D01*
X54792686Y-71799500D01*
X54792683Y-71799502D01*
X54699502Y-71892683D01*
X54699500Y-71892686D01*
X54633608Y-72006812D01*
X54617778Y-72065892D01*
X54599500Y-72134108D01*
X27494053Y-72134108D01*
X27493187Y-72133608D01*
X27429539Y-72116554D01*
X27365892Y-72099500D01*
X27234108Y-72099500D01*
X27106812Y-72133608D01*
X26992686Y-72199500D01*
X26992683Y-72199502D01*
X26899502Y-72292683D01*
X26899500Y-72292686D01*
X26833608Y-72406812D01*
X26799500Y-72534108D01*
X20559769Y-72534108D01*
X20558315Y-71234108D01*
X24099500Y-71234108D01*
X24099500Y-71365892D01*
X24099634Y-71366391D01*
X24133608Y-71493187D01*
X24137253Y-71499500D01*
X24199500Y-71607314D01*
X24292686Y-71700500D01*
X24406814Y-71766392D01*
X24534108Y-71800500D01*
X24534110Y-71800500D01*
X24665890Y-71800500D01*
X24665892Y-71800500D01*
X24793186Y-71766392D01*
X24907314Y-71700500D01*
X25000500Y-71607314D01*
X25066392Y-71493186D01*
X25082222Y-71434108D01*
X62099500Y-71434108D01*
X62099500Y-71565892D01*
X62116554Y-71629539D01*
X62133608Y-71693187D01*
X62156946Y-71733608D01*
X62199500Y-71807314D01*
X62292686Y-71900500D01*
X62391521Y-71957563D01*
X62406810Y-71966390D01*
X62406814Y-71966392D01*
X62534108Y-72000500D01*
X62534110Y-72000500D01*
X62665890Y-72000500D01*
X62665892Y-72000500D01*
X62793186Y-71966392D01*
X62907314Y-71900500D01*
X63000500Y-71807314D01*
X63066392Y-71693186D01*
X63100500Y-71565892D01*
X63100500Y-71434108D01*
X83149500Y-71434108D01*
X83149500Y-71565892D01*
X83166554Y-71629539D01*
X83183608Y-71693187D01*
X83206946Y-71733608D01*
X83249500Y-71807314D01*
X83342686Y-71900500D01*
X83441521Y-71957563D01*
X83456810Y-71966390D01*
X83456814Y-71966392D01*
X83584108Y-72000500D01*
X83584110Y-72000500D01*
X83715890Y-72000500D01*
X83715892Y-72000500D01*
X83843186Y-71966392D01*
X83899103Y-71934108D01*
X84699500Y-71934108D01*
X84699500Y-72065891D01*
X84733608Y-72193187D01*
X84766554Y-72250250D01*
X84799500Y-72307314D01*
X84892686Y-72400500D01*
X85006814Y-72466392D01*
X85134108Y-72500500D01*
X85134110Y-72500500D01*
X85265890Y-72500500D01*
X85265892Y-72500500D01*
X85393186Y-72466392D01*
X85507314Y-72400500D01*
X85600500Y-72307314D01*
X85666392Y-72193186D01*
X85700500Y-72065892D01*
X85700500Y-72034108D01*
X91999500Y-72034108D01*
X91999500Y-72165891D01*
X92033608Y-72293187D01*
X92041766Y-72307316D01*
X92099500Y-72407314D01*
X92192686Y-72500500D01*
X92306814Y-72566392D01*
X92434108Y-72600500D01*
X92434110Y-72600500D01*
X92565890Y-72600500D01*
X92565892Y-72600500D01*
X92693186Y-72566392D01*
X92807314Y-72500500D01*
X92900500Y-72407314D01*
X92966392Y-72293186D01*
X93000500Y-72165892D01*
X93000500Y-72034108D01*
X92966392Y-71906814D01*
X92900500Y-71792686D01*
X92807314Y-71699500D01*
X92750250Y-71666554D01*
X92693187Y-71633608D01*
X92629539Y-71616554D01*
X92565892Y-71599500D01*
X92434108Y-71599500D01*
X92306812Y-71633608D01*
X92192686Y-71699500D01*
X92192683Y-71699502D01*
X92099502Y-71792683D01*
X92099500Y-71792686D01*
X92033608Y-71906812D01*
X91999500Y-72034108D01*
X85700500Y-72034108D01*
X85700500Y-71934108D01*
X85666392Y-71806814D01*
X85600500Y-71692686D01*
X85507314Y-71599500D01*
X85449100Y-71565890D01*
X85393187Y-71533608D01*
X85329539Y-71516554D01*
X85265892Y-71499500D01*
X85134108Y-71499500D01*
X85006812Y-71533608D01*
X84892686Y-71599500D01*
X84892683Y-71599502D01*
X84799502Y-71692683D01*
X84799500Y-71692686D01*
X84733608Y-71806812D01*
X84699500Y-71934108D01*
X83899103Y-71934108D01*
X83957314Y-71900500D01*
X84050500Y-71807314D01*
X84116392Y-71693186D01*
X84150500Y-71565892D01*
X84150500Y-71434108D01*
X84116392Y-71306814D01*
X84050500Y-71192686D01*
X83957314Y-71099500D01*
X83899968Y-71066391D01*
X83843187Y-71033608D01*
X83779539Y-71016554D01*
X83715892Y-70999500D01*
X83584108Y-70999500D01*
X83456812Y-71033608D01*
X83342686Y-71099500D01*
X83342683Y-71099502D01*
X83249502Y-71192683D01*
X83249500Y-71192686D01*
X83183608Y-71306812D01*
X83167644Y-71366392D01*
X83149500Y-71434108D01*
X63100500Y-71434108D01*
X63066392Y-71306814D01*
X63000500Y-71192686D01*
X62907314Y-71099500D01*
X62849968Y-71066391D01*
X62793187Y-71033608D01*
X62729539Y-71016554D01*
X62665892Y-70999500D01*
X62534108Y-70999500D01*
X62406812Y-71033608D01*
X62292686Y-71099500D01*
X62292683Y-71099502D01*
X62199502Y-71192683D01*
X62199500Y-71192686D01*
X62133608Y-71306812D01*
X62117644Y-71366392D01*
X62099500Y-71434108D01*
X25082222Y-71434108D01*
X25100500Y-71365892D01*
X25100500Y-71234108D01*
X25066392Y-71106814D01*
X25000500Y-70992686D01*
X24907314Y-70899500D01*
X24850250Y-70866554D01*
X24794053Y-70834108D01*
X53699500Y-70834108D01*
X53699500Y-70965892D01*
X53708505Y-70999500D01*
X53733608Y-71093187D01*
X53741475Y-71106812D01*
X53799500Y-71207314D01*
X53892686Y-71300500D01*
X53991521Y-71357563D01*
X54006810Y-71366390D01*
X54006814Y-71366392D01*
X54134108Y-71400500D01*
X54134110Y-71400500D01*
X54265890Y-71400500D01*
X54265892Y-71400500D01*
X54393186Y-71366392D01*
X54507314Y-71300500D01*
X54600500Y-71207314D01*
X54666392Y-71093186D01*
X54700500Y-70965892D01*
X54700500Y-70834108D01*
X54666392Y-70706814D01*
X54600500Y-70592686D01*
X54507314Y-70499500D01*
X54450250Y-70466554D01*
X54393187Y-70433608D01*
X54329539Y-70416554D01*
X54265892Y-70399500D01*
X54134108Y-70399500D01*
X54006812Y-70433608D01*
X53892686Y-70499500D01*
X53892683Y-70499502D01*
X53799502Y-70592683D01*
X53799500Y-70592686D01*
X53733608Y-70706812D01*
X53708773Y-70799500D01*
X53699500Y-70834108D01*
X24794053Y-70834108D01*
X24793187Y-70833608D01*
X24729539Y-70816554D01*
X24665892Y-70799500D01*
X24534108Y-70799500D01*
X24406812Y-70833608D01*
X24292686Y-70899500D01*
X24292683Y-70899502D01*
X24199502Y-70992683D01*
X24199500Y-70992686D01*
X24133608Y-71106812D01*
X24110600Y-71192683D01*
X24099500Y-71234108D01*
X20558315Y-71234108D01*
X20556637Y-69734108D01*
X56799500Y-69734108D01*
X56799500Y-69865892D01*
X56810464Y-69906812D01*
X56833608Y-69993187D01*
X56866554Y-70050250D01*
X56899500Y-70107314D01*
X56992686Y-70200500D01*
X57091521Y-70257563D01*
X57105949Y-70265893D01*
X57106814Y-70266392D01*
X57234108Y-70300500D01*
X57234110Y-70300500D01*
X57365890Y-70300500D01*
X57365892Y-70300500D01*
X57493186Y-70266392D01*
X57607314Y-70200500D01*
X57673706Y-70134108D01*
X61999500Y-70134108D01*
X61999500Y-70265892D01*
X62007909Y-70297275D01*
X62033608Y-70393187D01*
X62041766Y-70407316D01*
X62099500Y-70507314D01*
X62192686Y-70600500D01*
X62291521Y-70657563D01*
X62305944Y-70665890D01*
X62306814Y-70666392D01*
X62434108Y-70700500D01*
X62434110Y-70700500D01*
X62565890Y-70700500D01*
X62565892Y-70700500D01*
X62693186Y-70666392D01*
X62807314Y-70600500D01*
X62900500Y-70507314D01*
X62966392Y-70393186D01*
X62992092Y-70297273D01*
X65599500Y-70297273D01*
X65599500Y-70402727D01*
X65625431Y-70499502D01*
X65626793Y-70504586D01*
X65626794Y-70504589D01*
X65640922Y-70529059D01*
X65679520Y-70595913D01*
X65754087Y-70670480D01*
X65845413Y-70723207D01*
X65947273Y-70750500D01*
X65947275Y-70750500D01*
X66052725Y-70750500D01*
X66052727Y-70750500D01*
X66154587Y-70723207D01*
X66245913Y-70670480D01*
X66320480Y-70595913D01*
X66373207Y-70504587D01*
X66400500Y-70402727D01*
X66400500Y-70297273D01*
X66373207Y-70195413D01*
X66320480Y-70104087D01*
X66250501Y-70034108D01*
X67399500Y-70034108D01*
X67399500Y-70165891D01*
X67433608Y-70293187D01*
X67466554Y-70350250D01*
X67499500Y-70407314D01*
X67592686Y-70500500D01*
X67706814Y-70566392D01*
X67834108Y-70600500D01*
X67834110Y-70600500D01*
X67965890Y-70600500D01*
X67965892Y-70600500D01*
X68093186Y-70566392D01*
X68149103Y-70534108D01*
X71199500Y-70534108D01*
X71199500Y-70665892D01*
X71208773Y-70700499D01*
X71233608Y-70793187D01*
X71266554Y-70850250D01*
X71299500Y-70907314D01*
X71392686Y-71000500D01*
X71506814Y-71066392D01*
X71634108Y-71100500D01*
X71634110Y-71100500D01*
X71765890Y-71100500D01*
X71765892Y-71100500D01*
X71893186Y-71066392D01*
X72007314Y-71000500D01*
X72100500Y-70907314D01*
X72166392Y-70793186D01*
X72200500Y-70665892D01*
X72200500Y-70534108D01*
X72166392Y-70406814D01*
X72100500Y-70292686D01*
X72007314Y-70199500D01*
X71949100Y-70165890D01*
X71893187Y-70133608D01*
X71829539Y-70116554D01*
X71765892Y-70099500D01*
X71634108Y-70099500D01*
X71506812Y-70133608D01*
X71392686Y-70199500D01*
X71392683Y-70199502D01*
X71299502Y-70292683D01*
X71299500Y-70292686D01*
X71233608Y-70406812D01*
X71206680Y-70507313D01*
X71199500Y-70534108D01*
X68149103Y-70534108D01*
X68207314Y-70500500D01*
X68300500Y-70407314D01*
X68366392Y-70293186D01*
X68400500Y-70165892D01*
X68400500Y-70034108D01*
X68366392Y-69906814D01*
X68300500Y-69792686D01*
X68207314Y-69699500D01*
X68149968Y-69666391D01*
X68093187Y-69633608D01*
X67993188Y-69606814D01*
X67965892Y-69599500D01*
X67834108Y-69599500D01*
X67706812Y-69633608D01*
X67592686Y-69699500D01*
X67592683Y-69699502D01*
X67499502Y-69792683D01*
X67499500Y-69792686D01*
X67433608Y-69906812D01*
X67399500Y-70034108D01*
X66250501Y-70034108D01*
X66245913Y-70029520D01*
X66154587Y-69976793D01*
X66052727Y-69949500D01*
X65947273Y-69949500D01*
X65845413Y-69976793D01*
X65845410Y-69976794D01*
X65754085Y-70029521D01*
X65679521Y-70104085D01*
X65626794Y-70195410D01*
X65626793Y-70195413D01*
X65599500Y-70297273D01*
X62992092Y-70297273D01*
X63000500Y-70265892D01*
X63000500Y-70134108D01*
X62966392Y-70006814D01*
X62900500Y-69892686D01*
X62807314Y-69799500D01*
X62750250Y-69766554D01*
X62693187Y-69733608D01*
X62629539Y-69716554D01*
X62565892Y-69699500D01*
X62434108Y-69699500D01*
X62306812Y-69733608D01*
X62192686Y-69799500D01*
X62192683Y-69799502D01*
X62099502Y-69892683D01*
X62099500Y-69892686D01*
X62033608Y-70006812D01*
X62007544Y-70104087D01*
X61999500Y-70134108D01*
X57673706Y-70134108D01*
X57700500Y-70107314D01*
X57713023Y-70085622D01*
X57725520Y-70063980D01*
X57766390Y-69993189D01*
X57766392Y-69993186D01*
X57800500Y-69865892D01*
X57800500Y-69734108D01*
X57766392Y-69606814D01*
X57700500Y-69492686D01*
X57607314Y-69399500D01*
X57550250Y-69366554D01*
X57493187Y-69333608D01*
X57429539Y-69316554D01*
X57365892Y-69299500D01*
X57234108Y-69299500D01*
X57106812Y-69333608D01*
X56992686Y-69399500D01*
X56992683Y-69399502D01*
X56899502Y-69492683D01*
X56899500Y-69492686D01*
X56833608Y-69606812D01*
X56808505Y-69700499D01*
X56799500Y-69734108D01*
X20556637Y-69734108D01*
X20555854Y-69034108D01*
X65199500Y-69034108D01*
X65199500Y-69165891D01*
X65233608Y-69293187D01*
X65237253Y-69299500D01*
X65299500Y-69407314D01*
X65392686Y-69500500D01*
X65506814Y-69566392D01*
X65634108Y-69600500D01*
X65634110Y-69600500D01*
X65765890Y-69600500D01*
X65765892Y-69600500D01*
X65893186Y-69566392D01*
X66007314Y-69500500D01*
X66100500Y-69407314D01*
X66166392Y-69293186D01*
X66200500Y-69165892D01*
X66200500Y-69134108D01*
X93099500Y-69134108D01*
X93099500Y-69265891D01*
X93133608Y-69393187D01*
X93141766Y-69407316D01*
X93199500Y-69507314D01*
X93292686Y-69600500D01*
X93406814Y-69666392D01*
X93534108Y-69700500D01*
X93534110Y-69700500D01*
X93665890Y-69700500D01*
X93665892Y-69700500D01*
X93793186Y-69666392D01*
X93907314Y-69600500D01*
X94000500Y-69507314D01*
X94066392Y-69393186D01*
X94100500Y-69265892D01*
X94100500Y-69134108D01*
X94066392Y-69006814D01*
X94000500Y-68892686D01*
X93907314Y-68799500D01*
X93850250Y-68766554D01*
X93793187Y-68733608D01*
X93729539Y-68716554D01*
X93665892Y-68699500D01*
X93534108Y-68699500D01*
X93406812Y-68733608D01*
X93292686Y-68799500D01*
X93292683Y-68799502D01*
X93199502Y-68892683D01*
X93199500Y-68892686D01*
X93133608Y-69006812D01*
X93099500Y-69134108D01*
X66200500Y-69134108D01*
X66200500Y-69034108D01*
X66166392Y-68906814D01*
X66100500Y-68792686D01*
X66007314Y-68699500D01*
X65949968Y-68666391D01*
X65893187Y-68633608D01*
X65829539Y-68616554D01*
X65765892Y-68599500D01*
X65634108Y-68599500D01*
X65506812Y-68633608D01*
X65392686Y-68699500D01*
X65392683Y-68699502D01*
X65299502Y-68792683D01*
X65299500Y-68792686D01*
X65233608Y-68906812D01*
X65199500Y-69034108D01*
X20555854Y-69034108D01*
X20554847Y-68134108D01*
X50299500Y-68134108D01*
X50299500Y-68265892D01*
X50316554Y-68329539D01*
X50333608Y-68393187D01*
X50366554Y-68450250D01*
X50399500Y-68507314D01*
X50492686Y-68600500D01*
X50606814Y-68666392D01*
X50734108Y-68700500D01*
X50734110Y-68700500D01*
X50865890Y-68700500D01*
X50865892Y-68700500D01*
X50993186Y-68666392D01*
X51107314Y-68600500D01*
X51200500Y-68507314D01*
X51266392Y-68393186D01*
X51300500Y-68265892D01*
X51300500Y-68134108D01*
X51266392Y-68006814D01*
X51200500Y-67892686D01*
X51107314Y-67799500D01*
X50993186Y-67733608D01*
X50865892Y-67699500D01*
X50734108Y-67699500D01*
X50606812Y-67733608D01*
X50492686Y-67799500D01*
X50492683Y-67799502D01*
X50399502Y-67892683D01*
X50399500Y-67892686D01*
X50333608Y-68006812D01*
X50317778Y-68065892D01*
X50299500Y-68134108D01*
X20554847Y-68134108D01*
X20554288Y-67634108D01*
X59599500Y-67634108D01*
X59599500Y-67765892D01*
X59616554Y-67829539D01*
X59633608Y-67893187D01*
X59666554Y-67950250D01*
X59699500Y-68007314D01*
X59792686Y-68100500D01*
X59906814Y-68166392D01*
X60034108Y-68200500D01*
X60034110Y-68200500D01*
X60165890Y-68200500D01*
X60165892Y-68200500D01*
X60293186Y-68166392D01*
X60407314Y-68100500D01*
X60500500Y-68007314D01*
X60542766Y-67934108D01*
X61599500Y-67934108D01*
X61599500Y-68065891D01*
X61633608Y-68193187D01*
X61666554Y-68250250D01*
X61699500Y-68307314D01*
X61792686Y-68400500D01*
X61906814Y-68466392D01*
X62034108Y-68500500D01*
X62034110Y-68500500D01*
X62165890Y-68500500D01*
X62165892Y-68500500D01*
X62293186Y-68466392D01*
X62407314Y-68400500D01*
X62500500Y-68307314D01*
X62566392Y-68193186D01*
X62600500Y-68065892D01*
X62600500Y-67934108D01*
X62566392Y-67806814D01*
X62500500Y-67692686D01*
X62407314Y-67599500D01*
X62293186Y-67533608D01*
X62165892Y-67499500D01*
X62034108Y-67499500D01*
X61906812Y-67533608D01*
X61792686Y-67599500D01*
X61792683Y-67599502D01*
X61699502Y-67692683D01*
X61699500Y-67692686D01*
X61633608Y-67806812D01*
X61599500Y-67934108D01*
X60542766Y-67934108D01*
X60566392Y-67893186D01*
X60600500Y-67765892D01*
X60600500Y-67634108D01*
X60566392Y-67506814D01*
X60524415Y-67434108D01*
X66799500Y-67434108D01*
X66799500Y-67565891D01*
X66833608Y-67693187D01*
X66837253Y-67699500D01*
X66899500Y-67807314D01*
X66992686Y-67900500D01*
X67106814Y-67966392D01*
X67234108Y-68000500D01*
X67234110Y-68000500D01*
X67365890Y-68000500D01*
X67365892Y-68000500D01*
X67493186Y-67966392D01*
X67607314Y-67900500D01*
X67700500Y-67807314D01*
X67766392Y-67693186D01*
X67800500Y-67565892D01*
X67800500Y-67434108D01*
X67766392Y-67306814D01*
X67700500Y-67192686D01*
X67607314Y-67099500D01*
X67550250Y-67066554D01*
X67493187Y-67033608D01*
X67429539Y-67016554D01*
X67365892Y-66999500D01*
X67234108Y-66999500D01*
X67106812Y-67033608D01*
X66992686Y-67099500D01*
X66992683Y-67099502D01*
X66899502Y-67192683D01*
X66899500Y-67192686D01*
X66833608Y-67306812D01*
X66799500Y-67434108D01*
X60524415Y-67434108D01*
X60500500Y-67392686D01*
X60407314Y-67299500D01*
X60350250Y-67266554D01*
X60293187Y-67233608D01*
X60229539Y-67216554D01*
X60165892Y-67199500D01*
X60034108Y-67199500D01*
X59906812Y-67233608D01*
X59792686Y-67299500D01*
X59792683Y-67299502D01*
X59699502Y-67392683D01*
X59699500Y-67392686D01*
X59633608Y-67506812D01*
X59599500Y-67634108D01*
X20554288Y-67634108D01*
X20552849Y-66347273D01*
X70549500Y-66347273D01*
X70549500Y-66452727D01*
X70576793Y-66554587D01*
X70629520Y-66645913D01*
X70704087Y-66720480D01*
X70795413Y-66773207D01*
X70897273Y-66800500D01*
X70897275Y-66800500D01*
X71002725Y-66800500D01*
X71002727Y-66800500D01*
X71104587Y-66773207D01*
X71195913Y-66720480D01*
X71270480Y-66645913D01*
X71323207Y-66554587D01*
X71350500Y-66452727D01*
X71350500Y-66434108D01*
X79399500Y-66434108D01*
X79399500Y-66565891D01*
X79433608Y-66693187D01*
X79449365Y-66720478D01*
X79499500Y-66807314D01*
X79592686Y-66900500D01*
X79706814Y-66966392D01*
X79834108Y-67000500D01*
X79834110Y-67000500D01*
X79965890Y-67000500D01*
X79965892Y-67000500D01*
X80093186Y-66966392D01*
X80207314Y-66900500D01*
X80300500Y-66807314D01*
X80366392Y-66693186D01*
X80400500Y-66565892D01*
X80400500Y-66434108D01*
X80366392Y-66306814D01*
X80300500Y-66192686D01*
X80207314Y-66099500D01*
X80150250Y-66066554D01*
X80093187Y-66033608D01*
X80029539Y-66016554D01*
X79965892Y-65999500D01*
X79834108Y-65999500D01*
X79706812Y-66033608D01*
X79592686Y-66099500D01*
X79592683Y-66099502D01*
X79499502Y-66192683D01*
X79499500Y-66192686D01*
X79433608Y-66306812D01*
X79399500Y-66434108D01*
X71350500Y-66434108D01*
X71350500Y-66347273D01*
X71323207Y-66245413D01*
X71270480Y-66154087D01*
X71195913Y-66079520D01*
X71104587Y-66026793D01*
X71002727Y-65999500D01*
X70897273Y-65999500D01*
X70795413Y-66026793D01*
X70795410Y-66026794D01*
X70704085Y-66079521D01*
X70629521Y-66154085D01*
X70576794Y-66245410D01*
X70576793Y-66245413D01*
X70549500Y-66347273D01*
X20552849Y-66347273D01*
X20550597Y-64334108D01*
X55599500Y-64334108D01*
X55599500Y-64465892D01*
X55616554Y-64529539D01*
X55633608Y-64593187D01*
X55641475Y-64606812D01*
X55699500Y-64707314D01*
X55792686Y-64800500D01*
X55891521Y-64857563D01*
X55905944Y-64865890D01*
X55906814Y-64866392D01*
X56034108Y-64900500D01*
X56034110Y-64900500D01*
X56165890Y-64900500D01*
X56165892Y-64900500D01*
X56293186Y-64866392D01*
X56407314Y-64800500D01*
X56473706Y-64734108D01*
X60099500Y-64734108D01*
X60099500Y-64865891D01*
X60133608Y-64993187D01*
X60166554Y-65050250D01*
X60199500Y-65107314D01*
X60292686Y-65200500D01*
X60406814Y-65266392D01*
X60534108Y-65300500D01*
X60534110Y-65300500D01*
X60665890Y-65300500D01*
X60665892Y-65300500D01*
X60793186Y-65266392D01*
X60907314Y-65200500D01*
X61000500Y-65107314D01*
X61066392Y-64993186D01*
X61100500Y-64865892D01*
X61100500Y-64734108D01*
X61066392Y-64606814D01*
X61000500Y-64492686D01*
X60907314Y-64399500D01*
X60850250Y-64366554D01*
X60793187Y-64333608D01*
X60729539Y-64316554D01*
X60665892Y-64299500D01*
X60534108Y-64299500D01*
X60406812Y-64333608D01*
X60292686Y-64399500D01*
X60292683Y-64399502D01*
X60199502Y-64492683D01*
X60199500Y-64492686D01*
X60133608Y-64606812D01*
X60099500Y-64734108D01*
X56473706Y-64734108D01*
X56500500Y-64707314D01*
X56513023Y-64685622D01*
X56525520Y-64663980D01*
X56566390Y-64593189D01*
X56566392Y-64593186D01*
X56600500Y-64465892D01*
X56600500Y-64334108D01*
X56566392Y-64206814D01*
X56500500Y-64092686D01*
X56407314Y-63999500D01*
X56350250Y-63966554D01*
X56293187Y-63933608D01*
X56229539Y-63916554D01*
X56165892Y-63899500D01*
X56034108Y-63899500D01*
X55906812Y-63933608D01*
X55792686Y-63999500D01*
X55792683Y-63999502D01*
X55699502Y-64092683D01*
X55699500Y-64092686D01*
X55633608Y-64206812D01*
X55608773Y-64299500D01*
X55599500Y-64334108D01*
X20550597Y-64334108D01*
X20549717Y-63547273D01*
X64199500Y-63547273D01*
X64199500Y-63652727D01*
X64226793Y-63754587D01*
X64279520Y-63845913D01*
X64354087Y-63920480D01*
X64445413Y-63973207D01*
X64547273Y-64000500D01*
X64547275Y-64000500D01*
X64652725Y-64000500D01*
X64652727Y-64000500D01*
X64754587Y-63973207D01*
X64845913Y-63920480D01*
X64920480Y-63845913D01*
X64973207Y-63754587D01*
X65000500Y-63652727D01*
X65000500Y-63547273D01*
X64973207Y-63445413D01*
X64920480Y-63354087D01*
X64845913Y-63279520D01*
X64754587Y-63226793D01*
X64652727Y-63199500D01*
X64547273Y-63199500D01*
X64445413Y-63226793D01*
X64445410Y-63226794D01*
X64354085Y-63279521D01*
X64279521Y-63354085D01*
X64226794Y-63445410D01*
X64226793Y-63445413D01*
X64199500Y-63547273D01*
X20549717Y-63547273D01*
X20549102Y-62997273D01*
X65849500Y-62997273D01*
X65849500Y-63102727D01*
X65876793Y-63204587D01*
X65929520Y-63295913D01*
X66004087Y-63370480D01*
X66095413Y-63423207D01*
X66197273Y-63450500D01*
X66197275Y-63450500D01*
X66302725Y-63450500D01*
X66302727Y-63450500D01*
X66404587Y-63423207D01*
X66495913Y-63370480D01*
X66570480Y-63295913D01*
X66623207Y-63204587D01*
X66650500Y-63102727D01*
X66650500Y-62997273D01*
X66623207Y-62895413D01*
X66570480Y-62804087D01*
X66495913Y-62729520D01*
X66404587Y-62676793D01*
X66302727Y-62649500D01*
X66197273Y-62649500D01*
X66095413Y-62676793D01*
X66095410Y-62676794D01*
X66004085Y-62729521D01*
X65929521Y-62804085D01*
X65876794Y-62895410D01*
X65876793Y-62895413D01*
X65849500Y-62997273D01*
X20549102Y-62997273D01*
X20546682Y-60834108D01*
X44299500Y-60834108D01*
X44299500Y-60965891D01*
X44333608Y-61093187D01*
X44366554Y-61150250D01*
X44399500Y-61207314D01*
X44492686Y-61300500D01*
X44606814Y-61366392D01*
X44734108Y-61400500D01*
X44734110Y-61400500D01*
X44865890Y-61400500D01*
X44865892Y-61400500D01*
X44993186Y-61366392D01*
X45107314Y-61300500D01*
X45200500Y-61207314D01*
X45266392Y-61093186D01*
X45300500Y-60965892D01*
X45300500Y-60834108D01*
X61199500Y-60834108D01*
X61199500Y-60965891D01*
X61233608Y-61093187D01*
X61266554Y-61150250D01*
X61299500Y-61207314D01*
X61392686Y-61300500D01*
X61506814Y-61366392D01*
X61634108Y-61400500D01*
X61634110Y-61400500D01*
X61765890Y-61400500D01*
X61765892Y-61400500D01*
X61893186Y-61366392D01*
X62007314Y-61300500D01*
X62100500Y-61207314D01*
X62166392Y-61093186D01*
X62200500Y-60965892D01*
X62200500Y-60834108D01*
X62166392Y-60706814D01*
X62100500Y-60592686D01*
X62007314Y-60499500D01*
X61950250Y-60466554D01*
X61893187Y-60433608D01*
X61829539Y-60416554D01*
X61765892Y-60399500D01*
X61634108Y-60399500D01*
X61506812Y-60433608D01*
X61392686Y-60499500D01*
X61392683Y-60499502D01*
X61299502Y-60592683D01*
X61299500Y-60592686D01*
X61233608Y-60706812D01*
X61199500Y-60834108D01*
X45300500Y-60834108D01*
X45266392Y-60706814D01*
X45200500Y-60592686D01*
X45107314Y-60499500D01*
X45050250Y-60466554D01*
X44993187Y-60433608D01*
X44929539Y-60416554D01*
X44865892Y-60399500D01*
X44734108Y-60399500D01*
X44606812Y-60433608D01*
X44492686Y-60499500D01*
X44492683Y-60499502D01*
X44399502Y-60592683D01*
X44399500Y-60592686D01*
X44333608Y-60706812D01*
X44299500Y-60834108D01*
X20546682Y-60834108D01*
X20545340Y-59634108D01*
X66949500Y-59634108D01*
X66949500Y-59765891D01*
X66983608Y-59893187D01*
X67016554Y-59950250D01*
X67049500Y-60007314D01*
X67142686Y-60100500D01*
X67256814Y-60166392D01*
X67384108Y-60200500D01*
X67384110Y-60200500D01*
X67515890Y-60200500D01*
X67515892Y-60200500D01*
X67643186Y-60166392D01*
X67757314Y-60100500D01*
X67850500Y-60007314D01*
X67916392Y-59893186D01*
X67950500Y-59765892D01*
X67950500Y-59634108D01*
X67916392Y-59506814D01*
X67850500Y-59392686D01*
X67757314Y-59299500D01*
X67700250Y-59266554D01*
X67643187Y-59233608D01*
X67579539Y-59216554D01*
X67515892Y-59199500D01*
X67384108Y-59199500D01*
X67256812Y-59233608D01*
X67142686Y-59299500D01*
X67142683Y-59299502D01*
X67049502Y-59392683D01*
X67049500Y-59392686D01*
X66983608Y-59506812D01*
X66949500Y-59634108D01*
X20545340Y-59634108D01*
X20541552Y-56247273D01*
X71349500Y-56247273D01*
X71349500Y-56352727D01*
X71376793Y-56454587D01*
X71429520Y-56545913D01*
X71504087Y-56620480D01*
X71595413Y-56673207D01*
X71697273Y-56700500D01*
X71697275Y-56700500D01*
X71802725Y-56700500D01*
X71802727Y-56700500D01*
X71904587Y-56673207D01*
X71995913Y-56620480D01*
X72070480Y-56545913D01*
X72123207Y-56454587D01*
X72150500Y-56352727D01*
X72150500Y-56247273D01*
X72123207Y-56145413D01*
X72070480Y-56054087D01*
X71995913Y-55979520D01*
X71904587Y-55926793D01*
X71802727Y-55899500D01*
X71697273Y-55899500D01*
X71595413Y-55926793D01*
X71595410Y-55926794D01*
X71504085Y-55979521D01*
X71429521Y-56054085D01*
X71376794Y-56145410D01*
X71376793Y-56145413D01*
X71349500Y-56247273D01*
X20541552Y-56247273D01*
X20539300Y-54234108D01*
X44499500Y-54234108D01*
X44499500Y-54365891D01*
X44533608Y-54493187D01*
X44566554Y-54550250D01*
X44599500Y-54607314D01*
X44692686Y-54700500D01*
X44806814Y-54766392D01*
X44934108Y-54800500D01*
X44934110Y-54800500D01*
X45065890Y-54800500D01*
X45065892Y-54800500D01*
X45193186Y-54766392D01*
X45307314Y-54700500D01*
X45400500Y-54607314D01*
X45466392Y-54493186D01*
X45500500Y-54365892D01*
X45500500Y-54234108D01*
X64999500Y-54234108D01*
X64999500Y-54365891D01*
X65033608Y-54493187D01*
X65066554Y-54550250D01*
X65099500Y-54607314D01*
X65192686Y-54700500D01*
X65306814Y-54766392D01*
X65434108Y-54800500D01*
X65434110Y-54800500D01*
X65565890Y-54800500D01*
X65565892Y-54800500D01*
X65693186Y-54766392D01*
X65749103Y-54734108D01*
X78399500Y-54734108D01*
X78399500Y-54865891D01*
X78433608Y-54993187D01*
X78466554Y-55050250D01*
X78499500Y-55107314D01*
X78592686Y-55200500D01*
X78706814Y-55266392D01*
X78834108Y-55300500D01*
X78834110Y-55300500D01*
X78965890Y-55300500D01*
X78965892Y-55300500D01*
X79093186Y-55266392D01*
X79207314Y-55200500D01*
X79300500Y-55107314D01*
X79366392Y-54993186D01*
X79400500Y-54865892D01*
X79400500Y-54734108D01*
X79366392Y-54606814D01*
X79300500Y-54492686D01*
X79207314Y-54399500D01*
X79149100Y-54365890D01*
X79093187Y-54333608D01*
X79029539Y-54316554D01*
X78965892Y-54299500D01*
X78834108Y-54299500D01*
X78706812Y-54333608D01*
X78592686Y-54399500D01*
X78592683Y-54399502D01*
X78499502Y-54492683D01*
X78499500Y-54492686D01*
X78433608Y-54606812D01*
X78399500Y-54734108D01*
X65749103Y-54734108D01*
X65807314Y-54700500D01*
X65900500Y-54607314D01*
X65966392Y-54493186D01*
X66000500Y-54365892D01*
X66000500Y-54234108D01*
X65966392Y-54106814D01*
X65900500Y-53992686D01*
X65807314Y-53899500D01*
X65750250Y-53866554D01*
X65693187Y-53833608D01*
X65629539Y-53816554D01*
X65565892Y-53799500D01*
X65434108Y-53799500D01*
X65306812Y-53833608D01*
X65192686Y-53899500D01*
X65192683Y-53899502D01*
X65099502Y-53992683D01*
X65099500Y-53992686D01*
X65033608Y-54106812D01*
X64999500Y-54234108D01*
X45500500Y-54234108D01*
X45466392Y-54106814D01*
X45400500Y-53992686D01*
X45307314Y-53899500D01*
X45250250Y-53866554D01*
X45193187Y-53833608D01*
X45129539Y-53816554D01*
X45065892Y-53799500D01*
X44934108Y-53799500D01*
X44806812Y-53833608D01*
X44692686Y-53899500D01*
X44692683Y-53899502D01*
X44599502Y-53992683D01*
X44599500Y-53992686D01*
X44533608Y-54106812D01*
X44499500Y-54234108D01*
X20539300Y-54234108D01*
X20534714Y-50134108D01*
X45099500Y-50134108D01*
X45099500Y-50265891D01*
X45133608Y-50393187D01*
X45166554Y-50450250D01*
X45199500Y-50507314D01*
X45292686Y-50600500D01*
X45406814Y-50666392D01*
X45534108Y-50700500D01*
X45534110Y-50700500D01*
X45665890Y-50700500D01*
X45665892Y-50700500D01*
X45793186Y-50666392D01*
X45907314Y-50600500D01*
X46000500Y-50507314D01*
X46066392Y-50393186D01*
X46100500Y-50265892D01*
X46100500Y-50134108D01*
X46066392Y-50006814D01*
X46000500Y-49892686D01*
X45907314Y-49799500D01*
X45850250Y-49766554D01*
X45793187Y-49733608D01*
X45729539Y-49716554D01*
X45665892Y-49699500D01*
X45534108Y-49699500D01*
X45406812Y-49733608D01*
X45292686Y-49799500D01*
X45292683Y-49799502D01*
X45199502Y-49892683D01*
X45199500Y-49892686D01*
X45133608Y-50006812D01*
X45099500Y-50134108D01*
X20534714Y-50134108D01*
X20533931Y-49434108D01*
X67899500Y-49434108D01*
X67899500Y-49565891D01*
X67933608Y-49693187D01*
X67941766Y-49707316D01*
X67999500Y-49807314D01*
X68092686Y-49900500D01*
X68206814Y-49966392D01*
X68334108Y-50000500D01*
X68334110Y-50000500D01*
X68465890Y-50000500D01*
X68465892Y-50000500D01*
X68593186Y-49966392D01*
X68707314Y-49900500D01*
X68800500Y-49807314D01*
X68866392Y-49693186D01*
X68900500Y-49565892D01*
X68900500Y-49434108D01*
X68873705Y-49334108D01*
X74899500Y-49334108D01*
X74899500Y-49465891D01*
X74933608Y-49593187D01*
X74966554Y-49650250D01*
X74999500Y-49707314D01*
X75092686Y-49800500D01*
X75206814Y-49866392D01*
X75334108Y-49900500D01*
X75334110Y-49900500D01*
X75465890Y-49900500D01*
X75465892Y-49900500D01*
X75593186Y-49866392D01*
X75707314Y-49800500D01*
X75800500Y-49707314D01*
X75866392Y-49593186D01*
X75900500Y-49465892D01*
X75900500Y-49334108D01*
X75866392Y-49206814D01*
X75800500Y-49092686D01*
X75707314Y-48999500D01*
X75650250Y-48966554D01*
X75593187Y-48933608D01*
X75529539Y-48916554D01*
X75465892Y-48899500D01*
X75334108Y-48899500D01*
X75206812Y-48933608D01*
X75092686Y-48999500D01*
X75092683Y-48999502D01*
X74999502Y-49092683D01*
X74999500Y-49092686D01*
X74933608Y-49206812D01*
X74899500Y-49334108D01*
X68873705Y-49334108D01*
X68866392Y-49306814D01*
X68800500Y-49192686D01*
X68707314Y-49099500D01*
X68650250Y-49066554D01*
X68593187Y-49033608D01*
X68529539Y-49016554D01*
X68465892Y-48999500D01*
X68334108Y-48999500D01*
X68206812Y-49033608D01*
X68092686Y-49099500D01*
X68092683Y-49099502D01*
X67999502Y-49192683D01*
X67999500Y-49192686D01*
X67933608Y-49306812D01*
X67899500Y-49434108D01*
X20533931Y-49434108D01*
X20532700Y-48334108D01*
X29899500Y-48334108D01*
X29899500Y-48465891D01*
X29933608Y-48593187D01*
X29966554Y-48650250D01*
X29999500Y-48707314D01*
X30092686Y-48800500D01*
X30206814Y-48866392D01*
X30334108Y-48900500D01*
X30334110Y-48900500D01*
X30465890Y-48900500D01*
X30465892Y-48900500D01*
X30593186Y-48866392D01*
X30707314Y-48800500D01*
X30800500Y-48707314D01*
X30866392Y-48593186D01*
X30900500Y-48465892D01*
X30900500Y-48334108D01*
X30866392Y-48206814D01*
X30800500Y-48092686D01*
X30707314Y-47999500D01*
X30650250Y-47966554D01*
X30593187Y-47933608D01*
X30529539Y-47916554D01*
X30465892Y-47899500D01*
X30334108Y-47899500D01*
X30206812Y-47933608D01*
X30092686Y-47999500D01*
X30092683Y-47999502D01*
X29999502Y-48092683D01*
X29999500Y-48092686D01*
X29933608Y-48206812D01*
X29899500Y-48334108D01*
X20532700Y-48334108D01*
X20530575Y-46434108D01*
X31499500Y-46434108D01*
X31499500Y-46565891D01*
X31533608Y-46693187D01*
X31564835Y-46747273D01*
X31599500Y-46807314D01*
X31692686Y-46900500D01*
X31806814Y-46966392D01*
X31934108Y-47000500D01*
X31934110Y-47000500D01*
X32065890Y-47000500D01*
X32065892Y-47000500D01*
X32193186Y-46966392D01*
X32307314Y-46900500D01*
X32400500Y-46807314D01*
X32466392Y-46693186D01*
X32500500Y-46565892D01*
X32500500Y-46434108D01*
X33499500Y-46434108D01*
X33499500Y-46565891D01*
X33533608Y-46693187D01*
X33564835Y-46747273D01*
X33599500Y-46807314D01*
X33692686Y-46900500D01*
X33806814Y-46966392D01*
X33934108Y-47000500D01*
X33934110Y-47000500D01*
X34065890Y-47000500D01*
X34065892Y-47000500D01*
X34193186Y-46966392D01*
X34307314Y-46900500D01*
X34400500Y-46807314D01*
X34435165Y-46747273D01*
X71399500Y-46747273D01*
X71399500Y-46852727D01*
X71426793Y-46954587D01*
X71479520Y-47045913D01*
X71554087Y-47120480D01*
X71645413Y-47173207D01*
X71747273Y-47200500D01*
X71747275Y-47200500D01*
X71852725Y-47200500D01*
X71852727Y-47200500D01*
X71954587Y-47173207D01*
X72045913Y-47120480D01*
X72120480Y-47045913D01*
X72173207Y-46954587D01*
X72200500Y-46852727D01*
X72200500Y-46747273D01*
X72173207Y-46645413D01*
X72120480Y-46554087D01*
X72045913Y-46479520D01*
X71979059Y-46440922D01*
X71954589Y-46426794D01*
X71954588Y-46426793D01*
X71954587Y-46426793D01*
X71852727Y-46399500D01*
X71747273Y-46399500D01*
X71645413Y-46426793D01*
X71645410Y-46426794D01*
X71554085Y-46479521D01*
X71479521Y-46554085D01*
X71426794Y-46645410D01*
X71426793Y-46645413D01*
X71399500Y-46747273D01*
X34435165Y-46747273D01*
X34466392Y-46693186D01*
X34500500Y-46565892D01*
X34500500Y-46434108D01*
X34466392Y-46306814D01*
X34400500Y-46192686D01*
X34307314Y-46099500D01*
X34250250Y-46066554D01*
X34193187Y-46033608D01*
X34129539Y-46016554D01*
X34065892Y-45999500D01*
X33934108Y-45999500D01*
X33806812Y-46033608D01*
X33692686Y-46099500D01*
X33692683Y-46099502D01*
X33599502Y-46192683D01*
X33599500Y-46192686D01*
X33533608Y-46306812D01*
X33499500Y-46434108D01*
X32500500Y-46434108D01*
X32466392Y-46306814D01*
X32400500Y-46192686D01*
X32307314Y-46099500D01*
X32250250Y-46066554D01*
X32193187Y-46033608D01*
X32129539Y-46016554D01*
X32065892Y-45999500D01*
X31934108Y-45999500D01*
X31806812Y-46033608D01*
X31692686Y-46099500D01*
X31692683Y-46099502D01*
X31599502Y-46192683D01*
X31599500Y-46192686D01*
X31533608Y-46306812D01*
X31499500Y-46434108D01*
X20530575Y-46434108D01*
X20529121Y-45134108D01*
X26099500Y-45134108D01*
X26099500Y-45265891D01*
X26133608Y-45393187D01*
X26154585Y-45429520D01*
X26199500Y-45507314D01*
X26292686Y-45600500D01*
X26406814Y-45666392D01*
X26534108Y-45700500D01*
X26534110Y-45700500D01*
X26665890Y-45700500D01*
X26665892Y-45700500D01*
X26677935Y-45697273D01*
X54149500Y-45697273D01*
X54149500Y-45802726D01*
X54176793Y-45904586D01*
X54176794Y-45904589D01*
X54178079Y-45906814D01*
X54229520Y-45995913D01*
X54304087Y-46070480D01*
X54395413Y-46123207D01*
X54497273Y-46150500D01*
X54497275Y-46150500D01*
X54602725Y-46150500D01*
X54602727Y-46150500D01*
X54704587Y-46123207D01*
X54795913Y-46070480D01*
X54832285Y-46034108D01*
X57049500Y-46034108D01*
X57049500Y-46165892D01*
X57066554Y-46229539D01*
X57083608Y-46293187D01*
X57091475Y-46306812D01*
X57149500Y-46407314D01*
X57242686Y-46500500D01*
X57335498Y-46554085D01*
X57355944Y-46565890D01*
X57356814Y-46566392D01*
X57484108Y-46600500D01*
X57484110Y-46600500D01*
X57615890Y-46600500D01*
X57615892Y-46600500D01*
X57743186Y-46566392D01*
X57857314Y-46500500D01*
X57950500Y-46407314D01*
X58016392Y-46293186D01*
X58050500Y-46165892D01*
X58050500Y-46034108D01*
X58016392Y-45906814D01*
X58015107Y-45904589D01*
X58007563Y-45891521D01*
X57950500Y-45792686D01*
X57857314Y-45699500D01*
X57799968Y-45666391D01*
X57743187Y-45633608D01*
X57679539Y-45616554D01*
X57615892Y-45599500D01*
X57484108Y-45599500D01*
X57356812Y-45633608D01*
X57242686Y-45699500D01*
X57242683Y-45699502D01*
X57149502Y-45792683D01*
X57149500Y-45792686D01*
X57083608Y-45906812D01*
X57059734Y-45995913D01*
X57049500Y-46034108D01*
X54832285Y-46034108D01*
X54870480Y-45995913D01*
X54882725Y-45974702D01*
X54888917Y-45963980D01*
X54901749Y-45941752D01*
X54923207Y-45904587D01*
X54950500Y-45802727D01*
X54950500Y-45697273D01*
X54923207Y-45595413D01*
X54870480Y-45504087D01*
X54795913Y-45429520D01*
X54704587Y-45376793D01*
X54602727Y-45349500D01*
X54497273Y-45349500D01*
X54395413Y-45376793D01*
X54395410Y-45376794D01*
X54304085Y-45429521D01*
X54229521Y-45504085D01*
X54176794Y-45595410D01*
X54176793Y-45595413D01*
X54149500Y-45697273D01*
X26677935Y-45697273D01*
X26793186Y-45666392D01*
X26907314Y-45600500D01*
X27000500Y-45507314D01*
X27066392Y-45393186D01*
X27100500Y-45265892D01*
X27100500Y-45134108D01*
X27066392Y-45006814D01*
X27000500Y-44892686D01*
X26907314Y-44799500D01*
X26850250Y-44766554D01*
X26793187Y-44733608D01*
X26729539Y-44716554D01*
X26665892Y-44699500D01*
X26534108Y-44699500D01*
X26406812Y-44733608D01*
X26292686Y-44799500D01*
X26292683Y-44799502D01*
X26199502Y-44892683D01*
X26199500Y-44892686D01*
X26133608Y-45006812D01*
X26099500Y-45134108D01*
X20529121Y-45134108D01*
X20524703Y-41184108D01*
X29649500Y-41184108D01*
X29649500Y-41315891D01*
X29683608Y-41443187D01*
X29683609Y-41443188D01*
X29749500Y-41557314D01*
X29842686Y-41650500D01*
X29956814Y-41716392D01*
X30084108Y-41750500D01*
X30084110Y-41750500D01*
X30215890Y-41750500D01*
X30215892Y-41750500D01*
X30343186Y-41716392D01*
X30457314Y-41650500D01*
X30550500Y-41557314D01*
X30563898Y-41534108D01*
X49599500Y-41534108D01*
X49599500Y-41665891D01*
X49633608Y-41793187D01*
X49666554Y-41850250D01*
X49699500Y-41907314D01*
X49792686Y-42000500D01*
X49906814Y-42066392D01*
X50034108Y-42100500D01*
X50034110Y-42100500D01*
X50165890Y-42100500D01*
X50165892Y-42100500D01*
X50293186Y-42066392D01*
X50349103Y-42034108D01*
X55099500Y-42034108D01*
X55099500Y-42165891D01*
X55133608Y-42293187D01*
X55166554Y-42350250D01*
X55199500Y-42407314D01*
X55292686Y-42500500D01*
X55406814Y-42566392D01*
X55534108Y-42600500D01*
X55534110Y-42600500D01*
X55665890Y-42600500D01*
X55665892Y-42600500D01*
X55793186Y-42566392D01*
X55907314Y-42500500D01*
X56000500Y-42407314D01*
X56066392Y-42293186D01*
X56100500Y-42165892D01*
X56100500Y-42034108D01*
X56066392Y-41906814D01*
X56042764Y-41865890D01*
X56000503Y-41792691D01*
X56000502Y-41792690D01*
X56000500Y-41792686D01*
X55941922Y-41734108D01*
X57999500Y-41734108D01*
X57999500Y-41865892D01*
X58016554Y-41929539D01*
X58033608Y-41993187D01*
X58066554Y-42050250D01*
X58099500Y-42107314D01*
X58192686Y-42200500D01*
X58306814Y-42266392D01*
X58434108Y-42300500D01*
X58434110Y-42300500D01*
X58565890Y-42300500D01*
X58565892Y-42300500D01*
X58693186Y-42266392D01*
X58807314Y-42200500D01*
X58900500Y-42107314D01*
X58966392Y-41993186D01*
X59000500Y-41865892D01*
X59000500Y-41734108D01*
X58966392Y-41606814D01*
X58900500Y-41492686D01*
X58807314Y-41399500D01*
X58750250Y-41366554D01*
X58693187Y-41333608D01*
X58627061Y-41315890D01*
X58565892Y-41299500D01*
X58434108Y-41299500D01*
X58306812Y-41333608D01*
X58192686Y-41399500D01*
X58192683Y-41399502D01*
X58099502Y-41492683D01*
X58099500Y-41492686D01*
X58033608Y-41606812D01*
X58004247Y-41716391D01*
X57999500Y-41734108D01*
X55941922Y-41734108D01*
X55907314Y-41699500D01*
X55822439Y-41650497D01*
X55793187Y-41633608D01*
X55693188Y-41606814D01*
X55665892Y-41599500D01*
X55534108Y-41599500D01*
X55406812Y-41633608D01*
X55292686Y-41699500D01*
X55292683Y-41699502D01*
X55199502Y-41792683D01*
X55199500Y-41792686D01*
X55133608Y-41906812D01*
X55099500Y-42034108D01*
X50349103Y-42034108D01*
X50407314Y-42000500D01*
X50500500Y-41907314D01*
X50566392Y-41793186D01*
X50600500Y-41665892D01*
X50600500Y-41534108D01*
X50566392Y-41406814D01*
X50500500Y-41292686D01*
X50407314Y-41199500D01*
X50350250Y-41166554D01*
X50293187Y-41133608D01*
X50229539Y-41116554D01*
X50165892Y-41099500D01*
X50034108Y-41099500D01*
X49906812Y-41133608D01*
X49792686Y-41199500D01*
X49792683Y-41199502D01*
X49699502Y-41292683D01*
X49699500Y-41292686D01*
X49633608Y-41406812D01*
X49599500Y-41534108D01*
X30563898Y-41534108D01*
X30616392Y-41443186D01*
X30650500Y-41315892D01*
X30650500Y-41184108D01*
X30616392Y-41056814D01*
X30550500Y-40942686D01*
X30457314Y-40849500D01*
X30400250Y-40816554D01*
X30343187Y-40783608D01*
X30296774Y-40771172D01*
X30215892Y-40749500D01*
X30084108Y-40749500D01*
X29956812Y-40783608D01*
X29842686Y-40849500D01*
X29842683Y-40849502D01*
X29749502Y-40942683D01*
X29749500Y-40942686D01*
X29683608Y-41056812D01*
X29649500Y-41184108D01*
X20524703Y-41184108D01*
X20524102Y-40647273D01*
X75399500Y-40647273D01*
X75399500Y-40752727D01*
X75426793Y-40854587D01*
X75479520Y-40945913D01*
X75554087Y-41020480D01*
X75645413Y-41073207D01*
X75747273Y-41100500D01*
X75747275Y-41100500D01*
X75852725Y-41100500D01*
X75852727Y-41100500D01*
X75954587Y-41073207D01*
X76045913Y-41020480D01*
X76120480Y-40945913D01*
X76173207Y-40854587D01*
X76200500Y-40752727D01*
X76200500Y-40647273D01*
X76173207Y-40545413D01*
X76120480Y-40454087D01*
X76045913Y-40379520D01*
X75954587Y-40326793D01*
X75852727Y-40299500D01*
X75747273Y-40299500D01*
X75645413Y-40326793D01*
X75645410Y-40326794D01*
X75554085Y-40379521D01*
X75479521Y-40454085D01*
X75426794Y-40545410D01*
X75426793Y-40545413D01*
X75399500Y-40647273D01*
X20524102Y-40647273D01*
X20523431Y-40047273D01*
X37249500Y-40047273D01*
X37249500Y-40152727D01*
X37276793Y-40254587D01*
X37329520Y-40345913D01*
X37404087Y-40420480D01*
X37495413Y-40473207D01*
X37597273Y-40500500D01*
X37597275Y-40500500D01*
X37702725Y-40500500D01*
X37702727Y-40500500D01*
X37804587Y-40473207D01*
X37895913Y-40420480D01*
X37970480Y-40345913D01*
X38023207Y-40254587D01*
X38050500Y-40152727D01*
X38050500Y-40047273D01*
X38023207Y-39945413D01*
X37970480Y-39854087D01*
X37895913Y-39779520D01*
X37804587Y-39726793D01*
X37702727Y-39699500D01*
X37597273Y-39699500D01*
X37495413Y-39726793D01*
X37495410Y-39726794D01*
X37404085Y-39779521D01*
X37329521Y-39854085D01*
X37276794Y-39945410D01*
X37276793Y-39945413D01*
X37249500Y-40047273D01*
X20523431Y-40047273D01*
X20521291Y-38134108D01*
X79499500Y-38134108D01*
X79499500Y-38265891D01*
X79533608Y-38393187D01*
X79566554Y-38450250D01*
X79599500Y-38507314D01*
X79692686Y-38600500D01*
X79806814Y-38666392D01*
X79934108Y-38700500D01*
X79934110Y-38700500D01*
X80065890Y-38700500D01*
X80065892Y-38700500D01*
X80193186Y-38666392D01*
X80307314Y-38600500D01*
X80400500Y-38507314D01*
X80466392Y-38393186D01*
X80500500Y-38265892D01*
X80500500Y-38134108D01*
X80466392Y-38006814D01*
X80400500Y-37892686D01*
X80307314Y-37799500D01*
X80250250Y-37766554D01*
X80193187Y-37733608D01*
X80129539Y-37716554D01*
X80065892Y-37699500D01*
X79934108Y-37699500D01*
X79806812Y-37733608D01*
X79692686Y-37799500D01*
X79692683Y-37799502D01*
X79599502Y-37892683D01*
X79599500Y-37892686D01*
X79533608Y-38006812D01*
X79499500Y-38134108D01*
X20521291Y-38134108D01*
X20520173Y-37134108D01*
X31049500Y-37134108D01*
X31049500Y-37265891D01*
X31083608Y-37393187D01*
X31116554Y-37450250D01*
X31149500Y-37507314D01*
X31242686Y-37600500D01*
X31356814Y-37666392D01*
X31484108Y-37700500D01*
X31484110Y-37700500D01*
X31615890Y-37700500D01*
X31615892Y-37700500D01*
X31743186Y-37666392D01*
X31857314Y-37600500D01*
X31950500Y-37507314D01*
X32016392Y-37393186D01*
X32050500Y-37265892D01*
X32050500Y-37134108D01*
X32016392Y-37006814D01*
X31950500Y-36892686D01*
X31857314Y-36799500D01*
X31800250Y-36766554D01*
X31743187Y-36733608D01*
X31679539Y-36716554D01*
X31615892Y-36699500D01*
X31484108Y-36699500D01*
X31356812Y-36733608D01*
X31242686Y-36799500D01*
X31242683Y-36799502D01*
X31149502Y-36892683D01*
X31149500Y-36892686D01*
X31083608Y-37006812D01*
X31049500Y-37134108D01*
X20520173Y-37134108D01*
X20518719Y-35834108D01*
X81799500Y-35834108D01*
X81799500Y-35965891D01*
X81833608Y-36093187D01*
X81866554Y-36150250D01*
X81899500Y-36207314D01*
X81992686Y-36300500D01*
X82106814Y-36366392D01*
X82234108Y-36400500D01*
X82234110Y-36400500D01*
X82365890Y-36400500D01*
X82365892Y-36400500D01*
X82493186Y-36366392D01*
X82607314Y-36300500D01*
X82700500Y-36207314D01*
X82766392Y-36093186D01*
X82800500Y-35965892D01*
X82800500Y-35834108D01*
X82766392Y-35706814D01*
X82700500Y-35592686D01*
X82607314Y-35499500D01*
X82550250Y-35466554D01*
X82493187Y-35433608D01*
X82429539Y-35416554D01*
X82365892Y-35399500D01*
X82234108Y-35399500D01*
X82106812Y-35433608D01*
X81992686Y-35499500D01*
X81992683Y-35499502D01*
X81899502Y-35592683D01*
X81899500Y-35592686D01*
X81833608Y-35706812D01*
X81799500Y-35834108D01*
X20518719Y-35834108D01*
X20518048Y-35234108D01*
X54299500Y-35234108D01*
X54299500Y-35365891D01*
X54333608Y-35493187D01*
X54366554Y-35550250D01*
X54399500Y-35607314D01*
X54492686Y-35700500D01*
X54591521Y-35757563D01*
X54606810Y-35766390D01*
X54606814Y-35766392D01*
X54734108Y-35800500D01*
X54734110Y-35800500D01*
X54865890Y-35800500D01*
X54865892Y-35800500D01*
X54993186Y-35766392D01*
X55107314Y-35700500D01*
X55200500Y-35607314D01*
X55266392Y-35493186D01*
X55300500Y-35365892D01*
X55300500Y-35234108D01*
X55266392Y-35106814D01*
X55200500Y-34992686D01*
X55107314Y-34899500D01*
X55050250Y-34866554D01*
X54993187Y-34833608D01*
X54929539Y-34816554D01*
X54865892Y-34799500D01*
X54734108Y-34799500D01*
X54606812Y-34833608D01*
X54492686Y-34899500D01*
X54492683Y-34899502D01*
X54399502Y-34992683D01*
X54399500Y-34992686D01*
X54333608Y-35106812D01*
X54299500Y-35234108D01*
X20518048Y-35234108D01*
X20510329Y-28334108D01*
X47999500Y-28334108D01*
X47999500Y-28465892D01*
X48016554Y-28529539D01*
X48033608Y-28593187D01*
X48066554Y-28650250D01*
X48099500Y-28707314D01*
X48192686Y-28800500D01*
X48306814Y-28866392D01*
X48434108Y-28900500D01*
X48434110Y-28900500D01*
X48565890Y-28900500D01*
X48565892Y-28900500D01*
X48693186Y-28866392D01*
X48807314Y-28800500D01*
X48900500Y-28707314D01*
X48966392Y-28593186D01*
X49000500Y-28465892D01*
X49000500Y-28334108D01*
X48966392Y-28206814D01*
X48966389Y-28206808D01*
X48955520Y-28187982D01*
X48955519Y-28187981D01*
X48924415Y-28134108D01*
X72799500Y-28134108D01*
X72799500Y-28265891D01*
X72833608Y-28393187D01*
X72866554Y-28450250D01*
X72899500Y-28507314D01*
X72992686Y-28600500D01*
X73106814Y-28666392D01*
X73234108Y-28700500D01*
X73234110Y-28700500D01*
X73365890Y-28700500D01*
X73365892Y-28700500D01*
X73493186Y-28666392D01*
X73607314Y-28600500D01*
X73700500Y-28507314D01*
X73766392Y-28393186D01*
X73800500Y-28265892D01*
X73800500Y-28134108D01*
X73766392Y-28006814D01*
X73700500Y-27892686D01*
X73607314Y-27799500D01*
X73550250Y-27766554D01*
X73493187Y-27733608D01*
X73429539Y-27716554D01*
X73365892Y-27699500D01*
X73234108Y-27699500D01*
X73106812Y-27733608D01*
X72992686Y-27799500D01*
X72992683Y-27799502D01*
X72899502Y-27892683D01*
X72899500Y-27892686D01*
X72833608Y-28006812D01*
X72799500Y-28134108D01*
X48924415Y-28134108D01*
X48900500Y-28092686D01*
X48807314Y-27999500D01*
X48750250Y-27966554D01*
X48693187Y-27933608D01*
X48629539Y-27916554D01*
X48565892Y-27899500D01*
X48434108Y-27899500D01*
X48306812Y-27933608D01*
X48192686Y-27999500D01*
X48192683Y-27999502D01*
X48099502Y-28092683D01*
X48099500Y-28092686D01*
X48033608Y-28206812D01*
X48017778Y-28265892D01*
X47999500Y-28334108D01*
X20510329Y-28334108D01*
X20508886Y-27043995D01*
X71479499Y-27043995D01*
X71506418Y-27179322D01*
X71506421Y-27179332D01*
X71559221Y-27306804D01*
X71559228Y-27306817D01*
X71635885Y-27421541D01*
X71635888Y-27421545D01*
X71733454Y-27519111D01*
X71733458Y-27519114D01*
X71848182Y-27595771D01*
X71848195Y-27595778D01*
X71975667Y-27648578D01*
X71975672Y-27648580D01*
X71975676Y-27648580D01*
X71975677Y-27648581D01*
X72111004Y-27675500D01*
X72111007Y-27675500D01*
X72248995Y-27675500D01*
X72340041Y-27657389D01*
X72384328Y-27648580D01*
X72511811Y-27595775D01*
X72626542Y-27519114D01*
X72724114Y-27421542D01*
X72800775Y-27306811D01*
X72853580Y-27179328D01*
X72880500Y-27043995D01*
X80119499Y-27043995D01*
X80146418Y-27179322D01*
X80146421Y-27179332D01*
X80199221Y-27306804D01*
X80199228Y-27306817D01*
X80275885Y-27421541D01*
X80275888Y-27421545D01*
X80373454Y-27519111D01*
X80373458Y-27519114D01*
X80488182Y-27595771D01*
X80488195Y-27595778D01*
X80615667Y-27648578D01*
X80615672Y-27648580D01*
X80615676Y-27648580D01*
X80615677Y-27648581D01*
X80751004Y-27675500D01*
X80751007Y-27675500D01*
X80888995Y-27675500D01*
X80980041Y-27657389D01*
X81024328Y-27648580D01*
X81151811Y-27595775D01*
X81266542Y-27519114D01*
X81364114Y-27421542D01*
X81440775Y-27306811D01*
X81493580Y-27179328D01*
X81520500Y-27043993D01*
X81520500Y-26106007D01*
X81520500Y-26106004D01*
X81493581Y-25970677D01*
X81493580Y-25970676D01*
X81493580Y-25970672D01*
X81478435Y-25934108D01*
X81440778Y-25843195D01*
X81440771Y-25843182D01*
X81364114Y-25728458D01*
X81364111Y-25728454D01*
X81266545Y-25630888D01*
X81266541Y-25630885D01*
X81151817Y-25554228D01*
X81151804Y-25554221D01*
X81024332Y-25501421D01*
X81024322Y-25501418D01*
X80888995Y-25474500D01*
X80888993Y-25474500D01*
X80751007Y-25474500D01*
X80751005Y-25474500D01*
X80615677Y-25501418D01*
X80615667Y-25501421D01*
X80488195Y-25554221D01*
X80488182Y-25554228D01*
X80373458Y-25630885D01*
X80373454Y-25630888D01*
X80275888Y-25728454D01*
X80275885Y-25728458D01*
X80199228Y-25843182D01*
X80199221Y-25843195D01*
X80146421Y-25970667D01*
X80146418Y-25970677D01*
X80119500Y-26106004D01*
X80119500Y-26106007D01*
X80119500Y-27043993D01*
X80119500Y-27043995D01*
X80119499Y-27043995D01*
X72880500Y-27043995D01*
X72880500Y-27043993D01*
X72880500Y-26106007D01*
X72880500Y-26106004D01*
X72853581Y-25970677D01*
X72853580Y-25970676D01*
X72853580Y-25970672D01*
X72838435Y-25934108D01*
X72800778Y-25843195D01*
X72800771Y-25843182D01*
X72724114Y-25728458D01*
X72724111Y-25728454D01*
X72626545Y-25630888D01*
X72626541Y-25630885D01*
X72511817Y-25554228D01*
X72511804Y-25554221D01*
X72384332Y-25501421D01*
X72384322Y-25501418D01*
X72248995Y-25474500D01*
X72248993Y-25474500D01*
X72111007Y-25474500D01*
X72111005Y-25474500D01*
X71975677Y-25501418D01*
X71975667Y-25501421D01*
X71848195Y-25554221D01*
X71848182Y-25554228D01*
X71733458Y-25630885D01*
X71733454Y-25630888D01*
X71635888Y-25728454D01*
X71635885Y-25728458D01*
X71559228Y-25843182D01*
X71559221Y-25843195D01*
X71506421Y-25970667D01*
X71506418Y-25970677D01*
X71479500Y-26106004D01*
X71479500Y-26106007D01*
X71479500Y-27043993D01*
X71479500Y-27043995D01*
X71479499Y-27043995D01*
X20508886Y-27043995D01*
X20506464Y-24878711D01*
X24649500Y-24878711D01*
X24649500Y-25121288D01*
X24681161Y-25361785D01*
X24743947Y-25596104D01*
X24831226Y-25806814D01*
X24836776Y-25820212D01*
X24958064Y-26030289D01*
X24958066Y-26030292D01*
X24958067Y-26030293D01*
X25105733Y-26222736D01*
X25105739Y-26222743D01*
X25277256Y-26394260D01*
X25277263Y-26394266D01*
X25329189Y-26434110D01*
X25469711Y-26541936D01*
X25679788Y-26663224D01*
X25903900Y-26756054D01*
X26138211Y-26818838D01*
X26318586Y-26842584D01*
X26378711Y-26850500D01*
X26378712Y-26850500D01*
X26621289Y-26850500D01*
X26669388Y-26844167D01*
X26861789Y-26818838D01*
X27096100Y-26756054D01*
X27320212Y-26663224D01*
X27530289Y-26541936D01*
X27722738Y-26394265D01*
X27894265Y-26222738D01*
X28041936Y-26030289D01*
X28097466Y-25934108D01*
X38999500Y-25934108D01*
X38999500Y-26065891D01*
X39033608Y-26193187D01*
X39050670Y-26222738D01*
X39099500Y-26307314D01*
X39192686Y-26400500D01*
X39306814Y-26466392D01*
X39434108Y-26500500D01*
X39434110Y-26500500D01*
X39565890Y-26500500D01*
X39565892Y-26500500D01*
X39693186Y-26466392D01*
X39749103Y-26434108D01*
X51499500Y-26434108D01*
X51499500Y-26565891D01*
X51533608Y-26693187D01*
X51566554Y-26750250D01*
X51599500Y-26807314D01*
X51692686Y-26900500D01*
X51806814Y-26966392D01*
X51934108Y-27000500D01*
X51934110Y-27000500D01*
X52065890Y-27000500D01*
X52065892Y-27000500D01*
X52193186Y-26966392D01*
X52307314Y-26900500D01*
X52400500Y-26807314D01*
X52466392Y-26693186D01*
X52500500Y-26565892D01*
X52500500Y-26434108D01*
X52466392Y-26306814D01*
X52400500Y-26192686D01*
X52307314Y-26099500D01*
X52249100Y-26065890D01*
X52193187Y-26033608D01*
X52129539Y-26016554D01*
X52065892Y-25999500D01*
X51934108Y-25999500D01*
X51806812Y-26033608D01*
X51692686Y-26099500D01*
X51692683Y-26099502D01*
X51599502Y-26192683D01*
X51599500Y-26192686D01*
X51533608Y-26306812D01*
X51499500Y-26434108D01*
X39749103Y-26434108D01*
X39807314Y-26400500D01*
X39900500Y-26307314D01*
X39966392Y-26193186D01*
X40000500Y-26065892D01*
X40000500Y-25934108D01*
X39966392Y-25806814D01*
X39900500Y-25692686D01*
X39807314Y-25599500D01*
X39728889Y-25554221D01*
X39693187Y-25533608D01*
X39629539Y-25516554D01*
X39565892Y-25499500D01*
X39434108Y-25499500D01*
X39306812Y-25533608D01*
X39192686Y-25599500D01*
X39192683Y-25599502D01*
X39099502Y-25692683D01*
X39099500Y-25692686D01*
X39033608Y-25806812D01*
X38999500Y-25934108D01*
X28097466Y-25934108D01*
X28163224Y-25820212D01*
X28256054Y-25596100D01*
X28318838Y-25361789D01*
X28350500Y-25121288D01*
X28350500Y-24878712D01*
X28318838Y-24638211D01*
X28256054Y-24403900D01*
X28163224Y-24179788D01*
X28079116Y-24034108D01*
X64699500Y-24034108D01*
X64699500Y-24165892D01*
X64703225Y-24179794D01*
X64733608Y-24293187D01*
X64766554Y-24350250D01*
X64799500Y-24407314D01*
X64892686Y-24500500D01*
X65006814Y-24566392D01*
X65134108Y-24600500D01*
X65134110Y-24600500D01*
X65265890Y-24600500D01*
X65265892Y-24600500D01*
X65393186Y-24566392D01*
X65507314Y-24500500D01*
X65600500Y-24407314D01*
X65642766Y-24334108D01*
X76499500Y-24334108D01*
X76499500Y-24465891D01*
X76533608Y-24593187D01*
X76559603Y-24638211D01*
X76599500Y-24707314D01*
X76692686Y-24800500D01*
X76806814Y-24866392D01*
X76934108Y-24900500D01*
X76934110Y-24900500D01*
X77065890Y-24900500D01*
X77065892Y-24900500D01*
X77147210Y-24878711D01*
X88649500Y-24878711D01*
X88649500Y-25121288D01*
X88681161Y-25361785D01*
X88743947Y-25596104D01*
X88831226Y-25806814D01*
X88836776Y-25820212D01*
X88958064Y-26030289D01*
X88958066Y-26030292D01*
X88958067Y-26030293D01*
X89105733Y-26222736D01*
X89105739Y-26222743D01*
X89277256Y-26394260D01*
X89277263Y-26394266D01*
X89329189Y-26434110D01*
X89469711Y-26541936D01*
X89679788Y-26663224D01*
X89903900Y-26756054D01*
X90138211Y-26818838D01*
X90318586Y-26842584D01*
X90378711Y-26850500D01*
X90378712Y-26850500D01*
X90621289Y-26850500D01*
X90669388Y-26844167D01*
X90861789Y-26818838D01*
X91096100Y-26756054D01*
X91320212Y-26663224D01*
X91530289Y-26541936D01*
X91722738Y-26394265D01*
X91894265Y-26222738D01*
X92041936Y-26030289D01*
X92163224Y-25820212D01*
X92256054Y-25596100D01*
X92318838Y-25361789D01*
X92350500Y-25121288D01*
X92350500Y-24878712D01*
X92318838Y-24638211D01*
X92256054Y-24403900D01*
X92163224Y-24179788D01*
X92041936Y-23969711D01*
X91894265Y-23777262D01*
X91894260Y-23777256D01*
X91722743Y-23605739D01*
X91722736Y-23605733D01*
X91530293Y-23458067D01*
X91530292Y-23458066D01*
X91530289Y-23458064D01*
X91320212Y-23336776D01*
X91320205Y-23336773D01*
X91096104Y-23243947D01*
X90861785Y-23181161D01*
X90621289Y-23149500D01*
X90621288Y-23149500D01*
X90378712Y-23149500D01*
X90378711Y-23149500D01*
X90138214Y-23181161D01*
X89903895Y-23243947D01*
X89679794Y-23336773D01*
X89679785Y-23336777D01*
X89469706Y-23458067D01*
X89277263Y-23605733D01*
X89277256Y-23605739D01*
X89105739Y-23777256D01*
X89105733Y-23777263D01*
X88958067Y-23969706D01*
X88836777Y-24179785D01*
X88836773Y-24179794D01*
X88743947Y-24403895D01*
X88681161Y-24638214D01*
X88649500Y-24878711D01*
X77147210Y-24878711D01*
X77193186Y-24866392D01*
X77307314Y-24800500D01*
X77400500Y-24707314D01*
X77466392Y-24593186D01*
X77500500Y-24465892D01*
X77500500Y-24334108D01*
X77466392Y-24206814D01*
X77400500Y-24092686D01*
X77307314Y-23999500D01*
X77250250Y-23966554D01*
X77193187Y-23933608D01*
X77093188Y-23906814D01*
X77065892Y-23899500D01*
X76934108Y-23899500D01*
X76806812Y-23933608D01*
X76692686Y-23999500D01*
X76692683Y-23999502D01*
X76599502Y-24092683D01*
X76599500Y-24092686D01*
X76533608Y-24206812D01*
X76499500Y-24334108D01*
X65642766Y-24334108D01*
X65666392Y-24293186D01*
X65700500Y-24165892D01*
X65700500Y-24034108D01*
X65666392Y-23906814D01*
X65600500Y-23792686D01*
X65507314Y-23699500D01*
X65450250Y-23666554D01*
X65393187Y-23633608D01*
X65289176Y-23605739D01*
X65265892Y-23599500D01*
X65134108Y-23599500D01*
X65006812Y-23633608D01*
X64892686Y-23699500D01*
X64892683Y-23699502D01*
X64799502Y-23792683D01*
X64799500Y-23792686D01*
X64733608Y-23906812D01*
X64699500Y-24034108D01*
X28079116Y-24034108D01*
X28041936Y-23969711D01*
X27894265Y-23777262D01*
X27894260Y-23777256D01*
X27722743Y-23605739D01*
X27722736Y-23605733D01*
X27530293Y-23458067D01*
X27530292Y-23458066D01*
X27530289Y-23458064D01*
X27320212Y-23336776D01*
X27320205Y-23336773D01*
X27096104Y-23243947D01*
X26861785Y-23181161D01*
X26621289Y-23149500D01*
X26621288Y-23149500D01*
X26378712Y-23149500D01*
X26378711Y-23149500D01*
X26138214Y-23181161D01*
X25903895Y-23243947D01*
X25679794Y-23336773D01*
X25679785Y-23336777D01*
X25469706Y-23458067D01*
X25277263Y-23605733D01*
X25277256Y-23605739D01*
X25105739Y-23777256D01*
X25105733Y-23777263D01*
X24958067Y-23969706D01*
X24836777Y-24179785D01*
X24836773Y-24179794D01*
X24743947Y-24403895D01*
X24681161Y-24638214D01*
X24649500Y-24878711D01*
X20506464Y-24878711D01*
X20504378Y-23013995D01*
X71479499Y-23013995D01*
X71506418Y-23149322D01*
X71506421Y-23149332D01*
X71559221Y-23276804D01*
X71559228Y-23276817D01*
X71635885Y-23391541D01*
X71635888Y-23391545D01*
X71733454Y-23489111D01*
X71733458Y-23489114D01*
X71848182Y-23565771D01*
X71848195Y-23565778D01*
X71944656Y-23605733D01*
X71975672Y-23618580D01*
X71975676Y-23618580D01*
X71975677Y-23618581D01*
X72111004Y-23645500D01*
X72111007Y-23645500D01*
X72248995Y-23645500D01*
X72340041Y-23627389D01*
X72384328Y-23618580D01*
X72511811Y-23565775D01*
X72626542Y-23489114D01*
X72724114Y-23391542D01*
X72800775Y-23276811D01*
X72840394Y-23181162D01*
X72855911Y-23143701D01*
X72857718Y-23144449D01*
X72891044Y-23093565D01*
X72954847Y-23065089D01*
X73023918Y-23075629D01*
X73076325Y-23121838D01*
X73078822Y-23125974D01*
X73091944Y-23148702D01*
X73149485Y-23248365D01*
X73256635Y-23355515D01*
X73387865Y-23431281D01*
X73534234Y-23470500D01*
X73534236Y-23470500D01*
X73685764Y-23470500D01*
X73685766Y-23470500D01*
X73832135Y-23431281D01*
X73963365Y-23355515D01*
X74070515Y-23248365D01*
X74146281Y-23117135D01*
X74185500Y-22970766D01*
X74185500Y-22819234D01*
X78814500Y-22819234D01*
X78814500Y-22970765D01*
X78853719Y-23117136D01*
X78872308Y-23149332D01*
X78929485Y-23248365D01*
X79036635Y-23355515D01*
X79167865Y-23431281D01*
X79314234Y-23470500D01*
X79314236Y-23470500D01*
X79465764Y-23470500D01*
X79465766Y-23470500D01*
X79612135Y-23431281D01*
X79743365Y-23355515D01*
X79850515Y-23248365D01*
X79921177Y-23125974D01*
X79971744Y-23077759D01*
X80040351Y-23064536D01*
X80105216Y-23090504D01*
X80143322Y-23144018D01*
X80144089Y-23143701D01*
X80145469Y-23147033D01*
X80145744Y-23147419D01*
X80146160Y-23148702D01*
X80199221Y-23276804D01*
X80199228Y-23276817D01*
X80275885Y-23391541D01*
X80275888Y-23391545D01*
X80373454Y-23489111D01*
X80373458Y-23489114D01*
X80488182Y-23565771D01*
X80488195Y-23565778D01*
X80584656Y-23605733D01*
X80615672Y-23618580D01*
X80615676Y-23618580D01*
X80615677Y-23618581D01*
X80751004Y-23645500D01*
X80751007Y-23645500D01*
X80888995Y-23645500D01*
X80980041Y-23627389D01*
X81024328Y-23618580D01*
X81151811Y-23565775D01*
X81266542Y-23489114D01*
X81364114Y-23391542D01*
X81440775Y-23276811D01*
X81493580Y-23149328D01*
X81520500Y-23013993D01*
X81520500Y-21776007D01*
X81520500Y-21776004D01*
X81493581Y-21640677D01*
X81493580Y-21640676D01*
X81493580Y-21640672D01*
X81493578Y-21640667D01*
X81440778Y-21513195D01*
X81440771Y-21513182D01*
X81364114Y-21398458D01*
X81364111Y-21398454D01*
X81266545Y-21300888D01*
X81266541Y-21300885D01*
X81151817Y-21224228D01*
X81151804Y-21224221D01*
X81024332Y-21171421D01*
X81024322Y-21171418D01*
X80888995Y-21144500D01*
X80888993Y-21144500D01*
X80751007Y-21144500D01*
X80751005Y-21144500D01*
X80615677Y-21171418D01*
X80615667Y-21171421D01*
X80488195Y-21224221D01*
X80488182Y-21224228D01*
X80373458Y-21300885D01*
X80373454Y-21300888D01*
X80275888Y-21398454D01*
X80275885Y-21398458D01*
X80199228Y-21513182D01*
X80199221Y-21513195D01*
X80146421Y-21640667D01*
X80146418Y-21640677D01*
X80119500Y-21776004D01*
X80119500Y-22544755D01*
X80099815Y-22611794D01*
X80047011Y-22657549D01*
X79977853Y-22667493D01*
X79914297Y-22638468D01*
X79888113Y-22606756D01*
X79875731Y-22585310D01*
X79850515Y-22541635D01*
X79743365Y-22434485D01*
X79631245Y-22369752D01*
X79612136Y-22358719D01*
X79538950Y-22339109D01*
X79465766Y-22319500D01*
X79314234Y-22319500D01*
X79167863Y-22358719D01*
X79036635Y-22434485D01*
X79036632Y-22434487D01*
X78929487Y-22541632D01*
X78929485Y-22541635D01*
X78853719Y-22672863D01*
X78814500Y-22819234D01*
X74185500Y-22819234D01*
X74146281Y-22672865D01*
X74143179Y-22667493D01*
X74113028Y-22615270D01*
X74070515Y-22541635D01*
X73963365Y-22434485D01*
X73851245Y-22369752D01*
X73832136Y-22358719D01*
X73758950Y-22339109D01*
X73685766Y-22319500D01*
X73534234Y-22319500D01*
X73387863Y-22358719D01*
X73256635Y-22434485D01*
X73256632Y-22434487D01*
X73149487Y-22541632D01*
X73149485Y-22541635D01*
X73111887Y-22606756D01*
X73061319Y-22654971D01*
X72992712Y-22668193D01*
X72927847Y-22642225D01*
X72887319Y-22585310D01*
X72880500Y-22544755D01*
X72880500Y-21776004D01*
X72853581Y-21640677D01*
X72853580Y-21640676D01*
X72853580Y-21640672D01*
X72853578Y-21640667D01*
X72800778Y-21513195D01*
X72800771Y-21513182D01*
X72724114Y-21398458D01*
X72724111Y-21398454D01*
X72626545Y-21300888D01*
X72626541Y-21300885D01*
X72511817Y-21224228D01*
X72511804Y-21224221D01*
X72384332Y-21171421D01*
X72384322Y-21171418D01*
X72248995Y-21144500D01*
X72248993Y-21144500D01*
X72111007Y-21144500D01*
X72111005Y-21144500D01*
X71975677Y-21171418D01*
X71975667Y-21171421D01*
X71848195Y-21224221D01*
X71848182Y-21224228D01*
X71733458Y-21300885D01*
X71733454Y-21300888D01*
X71635888Y-21398454D01*
X71635885Y-21398458D01*
X71559228Y-21513182D01*
X71559221Y-21513195D01*
X71506421Y-21640667D01*
X71506418Y-21640677D01*
X71479500Y-21776004D01*
X71479500Y-21776007D01*
X71479500Y-23013993D01*
X71479500Y-23013995D01*
X71479499Y-23013995D01*
X20504378Y-23013995D01*
X20502566Y-21393753D01*
X35070000Y-21393753D01*
X35070000Y-21606246D01*
X35103242Y-21816127D01*
X35103242Y-21816130D01*
X35168904Y-22018217D01*
X35265375Y-22207550D01*
X35304728Y-22261716D01*
X35937037Y-21629408D01*
X35954075Y-21692993D01*
X36019901Y-21807007D01*
X36112993Y-21900099D01*
X36227007Y-21965925D01*
X36290590Y-21982962D01*
X35658282Y-22615269D01*
X35658282Y-22615270D01*
X35712449Y-22654624D01*
X35901782Y-22751095D01*
X36103870Y-22816757D01*
X36313754Y-22850000D01*
X36526246Y-22850000D01*
X36736127Y-22816757D01*
X36736130Y-22816757D01*
X36938217Y-22751095D01*
X37127554Y-22654622D01*
X37181716Y-22615270D01*
X37181717Y-22615270D01*
X36549408Y-21982962D01*
X36612993Y-21965925D01*
X36727007Y-21900099D01*
X36820099Y-21807007D01*
X36885925Y-21692993D01*
X36902962Y-21629408D01*
X37535270Y-22261717D01*
X37535270Y-22261716D01*
X37574622Y-22207554D01*
X37671095Y-22018217D01*
X37728343Y-21842026D01*
X37767780Y-21784351D01*
X37832139Y-21757152D01*
X37900985Y-21769066D01*
X37952461Y-21816310D01*
X37960835Y-21832891D01*
X38015939Y-21965925D01*
X38029059Y-21997598D01*
X38042836Y-22018217D01*
X38144024Y-22169657D01*
X38290342Y-22315975D01*
X38290345Y-22315977D01*
X38462402Y-22430941D01*
X38653580Y-22510130D01*
X38827653Y-22544755D01*
X38856530Y-22550499D01*
X38856534Y-22550500D01*
X38856535Y-22550500D01*
X39063466Y-22550500D01*
X39063467Y-22550499D01*
X39266420Y-22510130D01*
X39457598Y-22430941D01*
X39629655Y-22315977D01*
X39775977Y-22169655D01*
X39890941Y-21997598D01*
X39970130Y-21806420D01*
X40010500Y-21603465D01*
X40010500Y-21396535D01*
X40010499Y-21396530D01*
X40449500Y-21396530D01*
X40449500Y-21603469D01*
X40489868Y-21806412D01*
X40489870Y-21806420D01*
X40555939Y-21965925D01*
X40569059Y-21997598D01*
X40582836Y-22018217D01*
X40684024Y-22169657D01*
X40830342Y-22315975D01*
X40830345Y-22315977D01*
X41002402Y-22430941D01*
X41193580Y-22510130D01*
X41367653Y-22544755D01*
X41396530Y-22550499D01*
X41396534Y-22550500D01*
X41396535Y-22550500D01*
X41603466Y-22550500D01*
X41603467Y-22550499D01*
X41806420Y-22510130D01*
X41997598Y-22430941D01*
X42169655Y-22315977D01*
X42315977Y-22169655D01*
X42430941Y-21997598D01*
X42510130Y-21806420D01*
X42550500Y-21603465D01*
X42550500Y-21396535D01*
X42550499Y-21396530D01*
X42989500Y-21396530D01*
X42989500Y-21603469D01*
X43029868Y-21806412D01*
X43029870Y-21806420D01*
X43095939Y-21965925D01*
X43109059Y-21997598D01*
X43122836Y-22018217D01*
X43224024Y-22169657D01*
X43370342Y-22315975D01*
X43370345Y-22315977D01*
X43542402Y-22430941D01*
X43733580Y-22510130D01*
X43907653Y-22544755D01*
X43936530Y-22550499D01*
X43936534Y-22550500D01*
X43936535Y-22550500D01*
X44143466Y-22550500D01*
X44143467Y-22550499D01*
X44346420Y-22510130D01*
X44537598Y-22430941D01*
X44709655Y-22315977D01*
X44855977Y-22169655D01*
X44970941Y-21997598D01*
X45050130Y-21806420D01*
X45090500Y-21603465D01*
X45090500Y-21396535D01*
X45050130Y-21193580D01*
X44970941Y-21002402D01*
X44855977Y-20830345D01*
X44855975Y-20830342D01*
X44709657Y-20684024D01*
X44629173Y-20630247D01*
X45529500Y-20630247D01*
X45529500Y-22369752D01*
X45541131Y-22428229D01*
X45541132Y-22428230D01*
X45585447Y-22494552D01*
X45651769Y-22538867D01*
X45651770Y-22538868D01*
X45710247Y-22550499D01*
X45710250Y-22550500D01*
X45710252Y-22550500D01*
X47449750Y-22550500D01*
X47449751Y-22550499D01*
X47464568Y-22547552D01*
X47508229Y-22538868D01*
X47508229Y-22538867D01*
X47508231Y-22538867D01*
X47574552Y-22494552D01*
X47618867Y-22428231D01*
X47618867Y-22428229D01*
X47618868Y-22428229D01*
X47630499Y-22369752D01*
X47630500Y-22369750D01*
X47630500Y-20630249D01*
X47630499Y-20630247D01*
X51869500Y-20630247D01*
X51869500Y-22369752D01*
X51881131Y-22428229D01*
X51881132Y-22428230D01*
X51925447Y-22494552D01*
X51991769Y-22538867D01*
X51991770Y-22538868D01*
X52050247Y-22550499D01*
X52050250Y-22550500D01*
X52050252Y-22550500D01*
X53789750Y-22550500D01*
X53789751Y-22550499D01*
X53804568Y-22547552D01*
X53848229Y-22538868D01*
X53848229Y-22538867D01*
X53848231Y-22538867D01*
X53914552Y-22494552D01*
X53958867Y-22428231D01*
X53958867Y-22428229D01*
X53958868Y-22428229D01*
X53970499Y-22369752D01*
X53970500Y-22369750D01*
X53970500Y-21396530D01*
X54409500Y-21396530D01*
X54409500Y-21603469D01*
X54449868Y-21806412D01*
X54449870Y-21806420D01*
X54515939Y-21965925D01*
X54529059Y-21997598D01*
X54542836Y-22018217D01*
X54644024Y-22169657D01*
X54790342Y-22315975D01*
X54790345Y-22315977D01*
X54962402Y-22430941D01*
X55153580Y-22510130D01*
X55327653Y-22544755D01*
X55356530Y-22550499D01*
X55356534Y-22550500D01*
X55356535Y-22550500D01*
X55563466Y-22550500D01*
X55563467Y-22550499D01*
X55766420Y-22510130D01*
X55957598Y-22430941D01*
X56129655Y-22315977D01*
X56275977Y-22169655D01*
X56390941Y-21997598D01*
X56470130Y-21806420D01*
X56510500Y-21603465D01*
X56510500Y-21396535D01*
X56510499Y-21396530D01*
X56949500Y-21396530D01*
X56949500Y-21603469D01*
X56989868Y-21806412D01*
X56989870Y-21806420D01*
X57055939Y-21965925D01*
X57069059Y-21997598D01*
X57082836Y-22018217D01*
X57184024Y-22169657D01*
X57330342Y-22315975D01*
X57330345Y-22315977D01*
X57502402Y-22430941D01*
X57693580Y-22510130D01*
X57867653Y-22544755D01*
X57896530Y-22550499D01*
X57896534Y-22550500D01*
X57896535Y-22550500D01*
X58103466Y-22550500D01*
X58103467Y-22550499D01*
X58306420Y-22510130D01*
X58497598Y-22430941D01*
X58669655Y-22315977D01*
X58815977Y-22169655D01*
X58930941Y-21997598D01*
X59010130Y-21806420D01*
X59050500Y-21603465D01*
X59050500Y-21396535D01*
X59050499Y-21396530D01*
X59489500Y-21396530D01*
X59489500Y-21603469D01*
X59529868Y-21806412D01*
X59529870Y-21806420D01*
X59595939Y-21965925D01*
X59609059Y-21997598D01*
X59622836Y-22018217D01*
X59724024Y-22169657D01*
X59870342Y-22315975D01*
X59870345Y-22315977D01*
X60042402Y-22430941D01*
X60233580Y-22510130D01*
X60407653Y-22544755D01*
X60436530Y-22550499D01*
X60436534Y-22550500D01*
X60436535Y-22550500D01*
X60643466Y-22550500D01*
X60643467Y-22550499D01*
X60846420Y-22510130D01*
X61037598Y-22430941D01*
X61209655Y-22315977D01*
X61355977Y-22169655D01*
X61470941Y-21997598D01*
X61539165Y-21832889D01*
X61583004Y-21778488D01*
X61649298Y-21756423D01*
X61716998Y-21773702D01*
X61764609Y-21824839D01*
X61771656Y-21842026D01*
X61828904Y-22018216D01*
X61925375Y-22207550D01*
X61964728Y-22261716D01*
X62597037Y-21629408D01*
X62614075Y-21692993D01*
X62679901Y-21807007D01*
X62772993Y-21900099D01*
X62887007Y-21965925D01*
X62950590Y-21982962D01*
X62318282Y-22615269D01*
X62318282Y-22615270D01*
X62372449Y-22654624D01*
X62561782Y-22751095D01*
X62763870Y-22816757D01*
X62973754Y-22850000D01*
X63186246Y-22850000D01*
X63396127Y-22816757D01*
X63396130Y-22816757D01*
X63598217Y-22751095D01*
X63787554Y-22654622D01*
X63841716Y-22615270D01*
X63841717Y-22615270D01*
X63209408Y-21982962D01*
X63272993Y-21965925D01*
X63387007Y-21900099D01*
X63480099Y-21807007D01*
X63545925Y-21692993D01*
X63562962Y-21629408D01*
X64195270Y-22261717D01*
X64195270Y-22261716D01*
X64234622Y-22207554D01*
X64331095Y-22018217D01*
X64388343Y-21842026D01*
X64427780Y-21784351D01*
X64492139Y-21757152D01*
X64560985Y-21769066D01*
X64612461Y-21816310D01*
X64620835Y-21832891D01*
X64675939Y-21965925D01*
X64689059Y-21997598D01*
X64702836Y-22018217D01*
X64804024Y-22169657D01*
X64950342Y-22315975D01*
X64950345Y-22315977D01*
X65122402Y-22430941D01*
X65313580Y-22510130D01*
X65487653Y-22544755D01*
X65516530Y-22550499D01*
X65516534Y-22550500D01*
X65516535Y-22550500D01*
X65723466Y-22550500D01*
X65723467Y-22550499D01*
X65926420Y-22510130D01*
X66117598Y-22430941D01*
X66289655Y-22315977D01*
X66435977Y-22169655D01*
X66550941Y-21997598D01*
X66630130Y-21806420D01*
X66635686Y-21778488D01*
X66642204Y-21745723D01*
X66642204Y-21745722D01*
X66670499Y-21603469D01*
X66670500Y-21603466D01*
X66670500Y-21396534D01*
X66670499Y-21396530D01*
X66651474Y-21300885D01*
X66630130Y-21193580D01*
X66550941Y-21002402D01*
X66435977Y-20830345D01*
X66435975Y-20830342D01*
X66289657Y-20684024D01*
X66164653Y-20600500D01*
X66117598Y-20569059D01*
X65926420Y-20489870D01*
X65926412Y-20489868D01*
X65723469Y-20449500D01*
X65723465Y-20449500D01*
X65516535Y-20449500D01*
X65516530Y-20449500D01*
X65313587Y-20489868D01*
X65313579Y-20489870D01*
X65122403Y-20569058D01*
X64950342Y-20684024D01*
X64804024Y-20830342D01*
X64689057Y-21002403D01*
X64620835Y-21167108D01*
X64576994Y-21221511D01*
X64510700Y-21243576D01*
X64443000Y-21226297D01*
X64395390Y-21175159D01*
X64388343Y-21157973D01*
X64331095Y-20981782D01*
X64234624Y-20792449D01*
X64195270Y-20738282D01*
X64195269Y-20738282D01*
X63562962Y-21370590D01*
X63545925Y-21307007D01*
X63480099Y-21192993D01*
X63387007Y-21099901D01*
X63272993Y-21034075D01*
X63209409Y-21017037D01*
X63841716Y-20384728D01*
X63787550Y-20345375D01*
X63598217Y-20248904D01*
X63582852Y-20243912D01*
X63396129Y-20183242D01*
X63186246Y-20150000D01*
X62973754Y-20150000D01*
X62763872Y-20183242D01*
X62763869Y-20183242D01*
X62561782Y-20248904D01*
X62372439Y-20345380D01*
X62318282Y-20384727D01*
X62318282Y-20384728D01*
X62950591Y-21017037D01*
X62887007Y-21034075D01*
X62772993Y-21099901D01*
X62679901Y-21192993D01*
X62614075Y-21307007D01*
X62597037Y-21370591D01*
X61964728Y-20738282D01*
X61964727Y-20738282D01*
X61925380Y-20792439D01*
X61828905Y-20981781D01*
X61771656Y-21157974D01*
X61732218Y-21215649D01*
X61667859Y-21242847D01*
X61599013Y-21230932D01*
X61547537Y-21183688D01*
X61539164Y-21167107D01*
X61470943Y-21002405D01*
X61355975Y-20830342D01*
X61209657Y-20684024D01*
X61084653Y-20600500D01*
X61037598Y-20569059D01*
X60846420Y-20489870D01*
X60846412Y-20489868D01*
X60643469Y-20449500D01*
X60643465Y-20449500D01*
X60436535Y-20449500D01*
X60436530Y-20449500D01*
X60233587Y-20489868D01*
X60233579Y-20489870D01*
X60042403Y-20569058D01*
X59870342Y-20684024D01*
X59724024Y-20830342D01*
X59609058Y-21002403D01*
X59529870Y-21193579D01*
X59529868Y-21193587D01*
X59489500Y-21396530D01*
X59050499Y-21396530D01*
X59010130Y-21193580D01*
X58930941Y-21002402D01*
X58815977Y-20830345D01*
X58815975Y-20830342D01*
X58669657Y-20684024D01*
X58544653Y-20600500D01*
X58497598Y-20569059D01*
X58306420Y-20489870D01*
X58306412Y-20489868D01*
X58103469Y-20449500D01*
X58103465Y-20449500D01*
X57896535Y-20449500D01*
X57896530Y-20449500D01*
X57693587Y-20489868D01*
X57693579Y-20489870D01*
X57502403Y-20569058D01*
X57330342Y-20684024D01*
X57184024Y-20830342D01*
X57069058Y-21002403D01*
X56989870Y-21193579D01*
X56989868Y-21193587D01*
X56949500Y-21396530D01*
X56510499Y-21396530D01*
X56470130Y-21193580D01*
X56390941Y-21002402D01*
X56275977Y-20830345D01*
X56275975Y-20830342D01*
X56129657Y-20684024D01*
X56004653Y-20600500D01*
X55957598Y-20569059D01*
X55766420Y-20489870D01*
X55766412Y-20489868D01*
X55563469Y-20449500D01*
X55563465Y-20449500D01*
X55356535Y-20449500D01*
X55356530Y-20449500D01*
X55153587Y-20489868D01*
X55153579Y-20489870D01*
X54962403Y-20569058D01*
X54790342Y-20684024D01*
X54644024Y-20830342D01*
X54529058Y-21002403D01*
X54449870Y-21193579D01*
X54449868Y-21193587D01*
X54409500Y-21396530D01*
X53970500Y-21396530D01*
X53970500Y-20630249D01*
X53970499Y-20630247D01*
X53958868Y-20571770D01*
X53958867Y-20571769D01*
X53914552Y-20505447D01*
X53848230Y-20461132D01*
X53848229Y-20461131D01*
X53789752Y-20449500D01*
X53789748Y-20449500D01*
X52050252Y-20449500D01*
X52050247Y-20449500D01*
X51991770Y-20461131D01*
X51991769Y-20461132D01*
X51925447Y-20505447D01*
X51881132Y-20571769D01*
X51881131Y-20571770D01*
X51869500Y-20630247D01*
X47630499Y-20630247D01*
X47618868Y-20571770D01*
X47618867Y-20571769D01*
X47574552Y-20505447D01*
X47508230Y-20461132D01*
X47508229Y-20461131D01*
X47449752Y-20449500D01*
X47449748Y-20449500D01*
X45710252Y-20449500D01*
X45710247Y-20449500D01*
X45651770Y-20461131D01*
X45651769Y-20461132D01*
X45585447Y-20505447D01*
X45541132Y-20571769D01*
X45541131Y-20571770D01*
X45529500Y-20630247D01*
X44629173Y-20630247D01*
X44584653Y-20600500D01*
X44537598Y-20569059D01*
X44346420Y-20489870D01*
X44346412Y-20489868D01*
X44143469Y-20449500D01*
X44143465Y-20449500D01*
X43936535Y-20449500D01*
X43936530Y-20449500D01*
X43733587Y-20489868D01*
X43733579Y-20489870D01*
X43542403Y-20569058D01*
X43370342Y-20684024D01*
X43224024Y-20830342D01*
X43109058Y-21002403D01*
X43029870Y-21193579D01*
X43029868Y-21193587D01*
X42989500Y-21396530D01*
X42550499Y-21396530D01*
X42510130Y-21193580D01*
X42430941Y-21002402D01*
X42315977Y-20830345D01*
X42315975Y-20830342D01*
X42169657Y-20684024D01*
X42044653Y-20600500D01*
X41997598Y-20569059D01*
X41806420Y-20489870D01*
X41806412Y-20489868D01*
X41603469Y-20449500D01*
X41603465Y-20449500D01*
X41396535Y-20449500D01*
X41396530Y-20449500D01*
X41193587Y-20489868D01*
X41193579Y-20489870D01*
X41002403Y-20569058D01*
X40830342Y-20684024D01*
X40684024Y-20830342D01*
X40569058Y-21002403D01*
X40489870Y-21193579D01*
X40489868Y-21193587D01*
X40449500Y-21396530D01*
X40010499Y-21396530D01*
X39970130Y-21193580D01*
X39890941Y-21002402D01*
X39775977Y-20830345D01*
X39775975Y-20830342D01*
X39629657Y-20684024D01*
X39504653Y-20600500D01*
X39457598Y-20569059D01*
X39266420Y-20489870D01*
X39266412Y-20489868D01*
X39063469Y-20449500D01*
X39063465Y-20449500D01*
X38856535Y-20449500D01*
X38856530Y-20449500D01*
X38653587Y-20489868D01*
X38653579Y-20489870D01*
X38462403Y-20569058D01*
X38290342Y-20684024D01*
X38144024Y-20830342D01*
X38029057Y-21002403D01*
X37960835Y-21167108D01*
X37916994Y-21221511D01*
X37850700Y-21243576D01*
X37783000Y-21226297D01*
X37735390Y-21175159D01*
X37728343Y-21157973D01*
X37671095Y-20981782D01*
X37574624Y-20792449D01*
X37535270Y-20738282D01*
X37535269Y-20738282D01*
X36902962Y-21370590D01*
X36885925Y-21307007D01*
X36820099Y-21192993D01*
X36727007Y-21099901D01*
X36612993Y-21034075D01*
X36549409Y-21017037D01*
X37181716Y-20384728D01*
X37127550Y-20345375D01*
X36938217Y-20248904D01*
X36736129Y-20183242D01*
X36526246Y-20150000D01*
X36313754Y-20150000D01*
X36103872Y-20183242D01*
X36103869Y-20183242D01*
X35901782Y-20248904D01*
X35712439Y-20345380D01*
X35658282Y-20384727D01*
X35658282Y-20384728D01*
X36290591Y-21017037D01*
X36227007Y-21034075D01*
X36112993Y-21099901D01*
X36019901Y-21192993D01*
X35954075Y-21307007D01*
X35937037Y-21370591D01*
X35304728Y-20738282D01*
X35304727Y-20738282D01*
X35265380Y-20792439D01*
X35168904Y-20981782D01*
X35103242Y-21183869D01*
X35103242Y-21183872D01*
X35070000Y-21393753D01*
X20502566Y-21393753D01*
X20501157Y-20134108D01*
X73699500Y-20134108D01*
X73699500Y-20265891D01*
X73733608Y-20393187D01*
X73766121Y-20449500D01*
X73799500Y-20507314D01*
X73892686Y-20600500D01*
X74006814Y-20666392D01*
X74134108Y-20700500D01*
X74134110Y-20700500D01*
X74265890Y-20700500D01*
X74265892Y-20700500D01*
X74393186Y-20666392D01*
X74507314Y-20600500D01*
X74600500Y-20507314D01*
X74666392Y-20393186D01*
X74700500Y-20265892D01*
X74700500Y-20134108D01*
X76299500Y-20134108D01*
X76299500Y-20265891D01*
X76333608Y-20393187D01*
X76366121Y-20449500D01*
X76399500Y-20507314D01*
X76492686Y-20600500D01*
X76606814Y-20666392D01*
X76734108Y-20700500D01*
X76734110Y-20700500D01*
X76865890Y-20700500D01*
X76865892Y-20700500D01*
X76993186Y-20666392D01*
X77107314Y-20600500D01*
X77200500Y-20507314D01*
X77266392Y-20393186D01*
X77300500Y-20265892D01*
X77300500Y-20134108D01*
X78299500Y-20134108D01*
X78299500Y-20265891D01*
X78333608Y-20393187D01*
X78366121Y-20449500D01*
X78399500Y-20507314D01*
X78492686Y-20600500D01*
X78606814Y-20666392D01*
X78734108Y-20700500D01*
X78734110Y-20700500D01*
X78865890Y-20700500D01*
X78865892Y-20700500D01*
X78993186Y-20666392D01*
X79107314Y-20600500D01*
X79200500Y-20507314D01*
X79266392Y-20393186D01*
X79300500Y-20265892D01*
X79300500Y-20134108D01*
X79266392Y-20006814D01*
X79242764Y-19965890D01*
X79200503Y-19892691D01*
X79200502Y-19892690D01*
X79200500Y-19892686D01*
X79141922Y-19834108D01*
X81999500Y-19834108D01*
X81999500Y-19965891D01*
X82033608Y-20093187D01*
X82066410Y-20150000D01*
X82099500Y-20207314D01*
X82192686Y-20300500D01*
X82306814Y-20366392D01*
X82434108Y-20400500D01*
X82434110Y-20400500D01*
X82565890Y-20400500D01*
X82565892Y-20400500D01*
X82693186Y-20366392D01*
X82807314Y-20300500D01*
X82900500Y-20207314D01*
X82966392Y-20093186D01*
X83000500Y-19965892D01*
X83000500Y-19834108D01*
X82966392Y-19706814D01*
X82900500Y-19592686D01*
X82807314Y-19499500D01*
X82750250Y-19466554D01*
X82693187Y-19433608D01*
X82629539Y-19416554D01*
X82565892Y-19399500D01*
X82434108Y-19399500D01*
X82306812Y-19433608D01*
X82192686Y-19499500D01*
X82192683Y-19499502D01*
X82099502Y-19592683D01*
X82099500Y-19592686D01*
X82033608Y-19706812D01*
X81999500Y-19834108D01*
X79141922Y-19834108D01*
X79107314Y-19799500D01*
X79050250Y-19766554D01*
X78993187Y-19733608D01*
X78893188Y-19706814D01*
X78865892Y-19699500D01*
X78734108Y-19699500D01*
X78606812Y-19733608D01*
X78492686Y-19799500D01*
X78492683Y-19799502D01*
X78399502Y-19892683D01*
X78399500Y-19892686D01*
X78333608Y-20006812D01*
X78299500Y-20134108D01*
X77300500Y-20134108D01*
X77266392Y-20006814D01*
X77200500Y-19892686D01*
X77107314Y-19799500D01*
X77050250Y-19766554D01*
X76993187Y-19733608D01*
X76893188Y-19706814D01*
X76865892Y-19699500D01*
X76734108Y-19699500D01*
X76606812Y-19733608D01*
X76492686Y-19799500D01*
X76492683Y-19799502D01*
X76399502Y-19892683D01*
X76399500Y-19892686D01*
X76333608Y-20006812D01*
X76299500Y-20134108D01*
X74700500Y-20134108D01*
X74666392Y-20006814D01*
X74600500Y-19892686D01*
X74507314Y-19799500D01*
X74450250Y-19766554D01*
X74393187Y-19733608D01*
X74293188Y-19706814D01*
X74265892Y-19699500D01*
X74134108Y-19699500D01*
X74006812Y-19733608D01*
X73892686Y-19799500D01*
X73892683Y-19799502D01*
X73799502Y-19892683D01*
X73799500Y-19892686D01*
X73733608Y-20006812D01*
X73699500Y-20134108D01*
X20501157Y-20134108D01*
X20500500Y-19547000D01*
X20500500Y-19223335D01*
X20520185Y-19156296D01*
X20572989Y-19110541D01*
X20623833Y-19099337D01*
X39106126Y-19000502D01*
X39106789Y-19000500D01*
X95178362Y-19000500D01*
X95245401Y-19020185D01*
G37*
%TD.AperFunction*%
%TD*%
M02*
