%TF.GenerationSoftware,KiCad,Pcbnew,10.0.5*%
%TF.CreationDate,2026-08-25T12:53:40+01:00*%
%TF.ProjectId,FPGA PROJECT,46504741-2050-4524-9f4a-4543542e6b69,rev?*%
%TF.SameCoordinates,Original*%
%TF.FileFunction,Legend,Top*%
%TF.FilePolarity,Positive*%
%FSLAX46Y46*%
G04 Gerber Fmt 4.6, Leading zero omitted, Abs format (unit mm)*
G04 Created by KiCad (PCBNEW 10.0.5) date 2026-08-25 12:53:40*
%MOMM*%
%LPD*%
G01*
G04 APERTURE LIST*
%ADD10C,0.150000*%
%ADD11C,0.120000*%
G04 APERTURE END LIST*
D10*
X91257142Y-67954819D02*
X90923809Y-67478628D01*
X90685714Y-67954819D02*
X90685714Y-66954819D01*
X90685714Y-66954819D02*
X91066666Y-66954819D01*
X91066666Y-66954819D02*
X91161904Y-67002438D01*
X91161904Y-67002438D02*
X91209523Y-67050057D01*
X91209523Y-67050057D02*
X91257142Y-67145295D01*
X91257142Y-67145295D02*
X91257142Y-67288152D01*
X91257142Y-67288152D02*
X91209523Y-67383390D01*
X91209523Y-67383390D02*
X91161904Y-67431009D01*
X91161904Y-67431009D02*
X91066666Y-67478628D01*
X91066666Y-67478628D02*
X90685714Y-67478628D01*
X91638095Y-67050057D02*
X91685714Y-67002438D01*
X91685714Y-67002438D02*
X91780952Y-66954819D01*
X91780952Y-66954819D02*
X92019047Y-66954819D01*
X92019047Y-66954819D02*
X92114285Y-67002438D01*
X92114285Y-67002438D02*
X92161904Y-67050057D01*
X92161904Y-67050057D02*
X92209523Y-67145295D01*
X92209523Y-67145295D02*
X92209523Y-67240533D01*
X92209523Y-67240533D02*
X92161904Y-67383390D01*
X92161904Y-67383390D02*
X91590476Y-67954819D01*
X91590476Y-67954819D02*
X92209523Y-67954819D01*
X93066666Y-66954819D02*
X92876190Y-66954819D01*
X92876190Y-66954819D02*
X92780952Y-67002438D01*
X92780952Y-67002438D02*
X92733333Y-67050057D01*
X92733333Y-67050057D02*
X92638095Y-67192914D01*
X92638095Y-67192914D02*
X92590476Y-67383390D01*
X92590476Y-67383390D02*
X92590476Y-67764342D01*
X92590476Y-67764342D02*
X92638095Y-67859580D01*
X92638095Y-67859580D02*
X92685714Y-67907200D01*
X92685714Y-67907200D02*
X92780952Y-67954819D01*
X92780952Y-67954819D02*
X92971428Y-67954819D01*
X92971428Y-67954819D02*
X93066666Y-67907200D01*
X93066666Y-67907200D02*
X93114285Y-67859580D01*
X93114285Y-67859580D02*
X93161904Y-67764342D01*
X93161904Y-67764342D02*
X93161904Y-67526247D01*
X93161904Y-67526247D02*
X93114285Y-67431009D01*
X93114285Y-67431009D02*
X93066666Y-67383390D01*
X93066666Y-67383390D02*
X92971428Y-67335771D01*
X92971428Y-67335771D02*
X92780952Y-67335771D01*
X92780952Y-67335771D02*
X92685714Y-67383390D01*
X92685714Y-67383390D02*
X92638095Y-67431009D01*
X92638095Y-67431009D02*
X92590476Y-67526247D01*
X36166666Y-93204819D02*
X36166666Y-93919104D01*
X36166666Y-93919104D02*
X36119047Y-94061961D01*
X36119047Y-94061961D02*
X36023809Y-94157200D01*
X36023809Y-94157200D02*
X35880952Y-94204819D01*
X35880952Y-94204819D02*
X35785714Y-94204819D01*
X36595238Y-93300057D02*
X36642857Y-93252438D01*
X36642857Y-93252438D02*
X36738095Y-93204819D01*
X36738095Y-93204819D02*
X36976190Y-93204819D01*
X36976190Y-93204819D02*
X37071428Y-93252438D01*
X37071428Y-93252438D02*
X37119047Y-93300057D01*
X37119047Y-93300057D02*
X37166666Y-93395295D01*
X37166666Y-93395295D02*
X37166666Y-93490533D01*
X37166666Y-93490533D02*
X37119047Y-93633390D01*
X37119047Y-93633390D02*
X36547619Y-94204819D01*
X36547619Y-94204819D02*
X37166666Y-94204819D01*
X80224819Y-57052857D02*
X79748628Y-57386190D01*
X80224819Y-57624285D02*
X79224819Y-57624285D01*
X79224819Y-57624285D02*
X79224819Y-57243333D01*
X79224819Y-57243333D02*
X79272438Y-57148095D01*
X79272438Y-57148095D02*
X79320057Y-57100476D01*
X79320057Y-57100476D02*
X79415295Y-57052857D01*
X79415295Y-57052857D02*
X79558152Y-57052857D01*
X79558152Y-57052857D02*
X79653390Y-57100476D01*
X79653390Y-57100476D02*
X79701009Y-57148095D01*
X79701009Y-57148095D02*
X79748628Y-57243333D01*
X79748628Y-57243333D02*
X79748628Y-57624285D01*
X80224819Y-56100476D02*
X80224819Y-56671904D01*
X80224819Y-56386190D02*
X79224819Y-56386190D01*
X79224819Y-56386190D02*
X79367676Y-56481428D01*
X79367676Y-56481428D02*
X79462914Y-56576666D01*
X79462914Y-56576666D02*
X79510533Y-56671904D01*
X79224819Y-55767142D02*
X79224819Y-55148095D01*
X79224819Y-55148095D02*
X79605771Y-55481428D01*
X79605771Y-55481428D02*
X79605771Y-55338571D01*
X79605771Y-55338571D02*
X79653390Y-55243333D01*
X79653390Y-55243333D02*
X79701009Y-55195714D01*
X79701009Y-55195714D02*
X79796247Y-55148095D01*
X79796247Y-55148095D02*
X80034342Y-55148095D01*
X80034342Y-55148095D02*
X80129580Y-55195714D01*
X80129580Y-55195714D02*
X80177200Y-55243333D01*
X80177200Y-55243333D02*
X80224819Y-55338571D01*
X80224819Y-55338571D02*
X80224819Y-55624285D01*
X80224819Y-55624285D02*
X80177200Y-55719523D01*
X80177200Y-55719523D02*
X80129580Y-55767142D01*
X36054819Y-39191666D02*
X36054819Y-39667856D01*
X36054819Y-39667856D02*
X35054819Y-39667856D01*
X36054819Y-38334523D02*
X36054819Y-38905951D01*
X36054819Y-38620237D02*
X35054819Y-38620237D01*
X35054819Y-38620237D02*
X35197676Y-38715475D01*
X35197676Y-38715475D02*
X35292914Y-38810713D01*
X35292914Y-38810713D02*
X35340533Y-38905951D01*
X70207142Y-94679580D02*
X70159523Y-94727200D01*
X70159523Y-94727200D02*
X70016666Y-94774819D01*
X70016666Y-94774819D02*
X69921428Y-94774819D01*
X69921428Y-94774819D02*
X69778571Y-94727200D01*
X69778571Y-94727200D02*
X69683333Y-94631961D01*
X69683333Y-94631961D02*
X69635714Y-94536723D01*
X69635714Y-94536723D02*
X69588095Y-94346247D01*
X69588095Y-94346247D02*
X69588095Y-94203390D01*
X69588095Y-94203390D02*
X69635714Y-94012914D01*
X69635714Y-94012914D02*
X69683333Y-93917676D01*
X69683333Y-93917676D02*
X69778571Y-93822438D01*
X69778571Y-93822438D02*
X69921428Y-93774819D01*
X69921428Y-93774819D02*
X70016666Y-93774819D01*
X70016666Y-93774819D02*
X70159523Y-93822438D01*
X70159523Y-93822438D02*
X70207142Y-93870057D01*
X70540476Y-93774819D02*
X71159523Y-93774819D01*
X71159523Y-93774819D02*
X70826190Y-94155771D01*
X70826190Y-94155771D02*
X70969047Y-94155771D01*
X70969047Y-94155771D02*
X71064285Y-94203390D01*
X71064285Y-94203390D02*
X71111904Y-94251009D01*
X71111904Y-94251009D02*
X71159523Y-94346247D01*
X71159523Y-94346247D02*
X71159523Y-94584342D01*
X71159523Y-94584342D02*
X71111904Y-94679580D01*
X71111904Y-94679580D02*
X71064285Y-94727200D01*
X71064285Y-94727200D02*
X70969047Y-94774819D01*
X70969047Y-94774819D02*
X70683333Y-94774819D01*
X70683333Y-94774819D02*
X70588095Y-94727200D01*
X70588095Y-94727200D02*
X70540476Y-94679580D01*
X71492857Y-93774819D02*
X72159523Y-93774819D01*
X72159523Y-93774819D02*
X71730952Y-94774819D01*
X59833333Y-43179580D02*
X59785714Y-43227200D01*
X59785714Y-43227200D02*
X59642857Y-43274819D01*
X59642857Y-43274819D02*
X59547619Y-43274819D01*
X59547619Y-43274819D02*
X59404762Y-43227200D01*
X59404762Y-43227200D02*
X59309524Y-43131961D01*
X59309524Y-43131961D02*
X59261905Y-43036723D01*
X59261905Y-43036723D02*
X59214286Y-42846247D01*
X59214286Y-42846247D02*
X59214286Y-42703390D01*
X59214286Y-42703390D02*
X59261905Y-42512914D01*
X59261905Y-42512914D02*
X59309524Y-42417676D01*
X59309524Y-42417676D02*
X59404762Y-42322438D01*
X59404762Y-42322438D02*
X59547619Y-42274819D01*
X59547619Y-42274819D02*
X59642857Y-42274819D01*
X59642857Y-42274819D02*
X59785714Y-42322438D01*
X59785714Y-42322438D02*
X59833333Y-42370057D01*
X60738095Y-42274819D02*
X60261905Y-42274819D01*
X60261905Y-42274819D02*
X60214286Y-42751009D01*
X60214286Y-42751009D02*
X60261905Y-42703390D01*
X60261905Y-42703390D02*
X60357143Y-42655771D01*
X60357143Y-42655771D02*
X60595238Y-42655771D01*
X60595238Y-42655771D02*
X60690476Y-42703390D01*
X60690476Y-42703390D02*
X60738095Y-42751009D01*
X60738095Y-42751009D02*
X60785714Y-42846247D01*
X60785714Y-42846247D02*
X60785714Y-43084342D01*
X60785714Y-43084342D02*
X60738095Y-43179580D01*
X60738095Y-43179580D02*
X60690476Y-43227200D01*
X60690476Y-43227200D02*
X60595238Y-43274819D01*
X60595238Y-43274819D02*
X60357143Y-43274819D01*
X60357143Y-43274819D02*
X60261905Y-43227200D01*
X60261905Y-43227200D02*
X60214286Y-43179580D01*
X46424819Y-56642857D02*
X45948628Y-56976190D01*
X46424819Y-57214285D02*
X45424819Y-57214285D01*
X45424819Y-57214285D02*
X45424819Y-56833333D01*
X45424819Y-56833333D02*
X45472438Y-56738095D01*
X45472438Y-56738095D02*
X45520057Y-56690476D01*
X45520057Y-56690476D02*
X45615295Y-56642857D01*
X45615295Y-56642857D02*
X45758152Y-56642857D01*
X45758152Y-56642857D02*
X45853390Y-56690476D01*
X45853390Y-56690476D02*
X45901009Y-56738095D01*
X45901009Y-56738095D02*
X45948628Y-56833333D01*
X45948628Y-56833333D02*
X45948628Y-57214285D01*
X46424819Y-55690476D02*
X46424819Y-56261904D01*
X46424819Y-55976190D02*
X45424819Y-55976190D01*
X45424819Y-55976190D02*
X45567676Y-56071428D01*
X45567676Y-56071428D02*
X45662914Y-56166666D01*
X45662914Y-56166666D02*
X45710533Y-56261904D01*
X45758152Y-54833333D02*
X46424819Y-54833333D01*
X45377200Y-55071428D02*
X46091485Y-55309523D01*
X46091485Y-55309523D02*
X46091485Y-54690476D01*
X61057142Y-63484819D02*
X60723809Y-63008628D01*
X60485714Y-63484819D02*
X60485714Y-62484819D01*
X60485714Y-62484819D02*
X60866666Y-62484819D01*
X60866666Y-62484819D02*
X60961904Y-62532438D01*
X60961904Y-62532438D02*
X61009523Y-62580057D01*
X61009523Y-62580057D02*
X61057142Y-62675295D01*
X61057142Y-62675295D02*
X61057142Y-62818152D01*
X61057142Y-62818152D02*
X61009523Y-62913390D01*
X61009523Y-62913390D02*
X60961904Y-62961009D01*
X60961904Y-62961009D02*
X60866666Y-63008628D01*
X60866666Y-63008628D02*
X60485714Y-63008628D01*
X61438095Y-62580057D02*
X61485714Y-62532438D01*
X61485714Y-62532438D02*
X61580952Y-62484819D01*
X61580952Y-62484819D02*
X61819047Y-62484819D01*
X61819047Y-62484819D02*
X61914285Y-62532438D01*
X61914285Y-62532438D02*
X61961904Y-62580057D01*
X61961904Y-62580057D02*
X62009523Y-62675295D01*
X62009523Y-62675295D02*
X62009523Y-62770533D01*
X62009523Y-62770533D02*
X61961904Y-62913390D01*
X61961904Y-62913390D02*
X61390476Y-63484819D01*
X61390476Y-63484819D02*
X62009523Y-63484819D01*
X62390476Y-62580057D02*
X62438095Y-62532438D01*
X62438095Y-62532438D02*
X62533333Y-62484819D01*
X62533333Y-62484819D02*
X62771428Y-62484819D01*
X62771428Y-62484819D02*
X62866666Y-62532438D01*
X62866666Y-62532438D02*
X62914285Y-62580057D01*
X62914285Y-62580057D02*
X62961904Y-62675295D01*
X62961904Y-62675295D02*
X62961904Y-62770533D01*
X62961904Y-62770533D02*
X62914285Y-62913390D01*
X62914285Y-62913390D02*
X62342857Y-63484819D01*
X62342857Y-63484819D02*
X62961904Y-63484819D01*
X30252080Y-43541666D02*
X30299700Y-43589285D01*
X30299700Y-43589285D02*
X30347319Y-43732142D01*
X30347319Y-43732142D02*
X30347319Y-43827380D01*
X30347319Y-43827380D02*
X30299700Y-43970237D01*
X30299700Y-43970237D02*
X30204461Y-44065475D01*
X30204461Y-44065475D02*
X30109223Y-44113094D01*
X30109223Y-44113094D02*
X29918747Y-44160713D01*
X29918747Y-44160713D02*
X29775890Y-44160713D01*
X29775890Y-44160713D02*
X29585414Y-44113094D01*
X29585414Y-44113094D02*
X29490176Y-44065475D01*
X29490176Y-44065475D02*
X29394938Y-43970237D01*
X29394938Y-43970237D02*
X29347319Y-43827380D01*
X29347319Y-43827380D02*
X29347319Y-43732142D01*
X29347319Y-43732142D02*
X29394938Y-43589285D01*
X29394938Y-43589285D02*
X29442557Y-43541666D01*
X30347319Y-42589285D02*
X30347319Y-43160713D01*
X30347319Y-42874999D02*
X29347319Y-42874999D01*
X29347319Y-42874999D02*
X29490176Y-42970237D01*
X29490176Y-42970237D02*
X29585414Y-43065475D01*
X29585414Y-43065475D02*
X29633033Y-43160713D01*
X77837142Y-65859580D02*
X77789523Y-65907200D01*
X77789523Y-65907200D02*
X77646666Y-65954819D01*
X77646666Y-65954819D02*
X77551428Y-65954819D01*
X77551428Y-65954819D02*
X77408571Y-65907200D01*
X77408571Y-65907200D02*
X77313333Y-65811961D01*
X77313333Y-65811961D02*
X77265714Y-65716723D01*
X77265714Y-65716723D02*
X77218095Y-65526247D01*
X77218095Y-65526247D02*
X77218095Y-65383390D01*
X77218095Y-65383390D02*
X77265714Y-65192914D01*
X77265714Y-65192914D02*
X77313333Y-65097676D01*
X77313333Y-65097676D02*
X77408571Y-65002438D01*
X77408571Y-65002438D02*
X77551428Y-64954819D01*
X77551428Y-64954819D02*
X77646666Y-64954819D01*
X77646666Y-64954819D02*
X77789523Y-65002438D01*
X77789523Y-65002438D02*
X77837142Y-65050057D01*
X78694285Y-65288152D02*
X78694285Y-65954819D01*
X78456190Y-64907200D02*
X78218095Y-65621485D01*
X78218095Y-65621485D02*
X78837142Y-65621485D01*
X79646666Y-65288152D02*
X79646666Y-65954819D01*
X79408571Y-64907200D02*
X79170476Y-65621485D01*
X79170476Y-65621485D02*
X79789523Y-65621485D01*
X89166666Y-21304819D02*
X88833333Y-20828628D01*
X88595238Y-21304819D02*
X88595238Y-20304819D01*
X88595238Y-20304819D02*
X88976190Y-20304819D01*
X88976190Y-20304819D02*
X89071428Y-20352438D01*
X89071428Y-20352438D02*
X89119047Y-20400057D01*
X89119047Y-20400057D02*
X89166666Y-20495295D01*
X89166666Y-20495295D02*
X89166666Y-20638152D01*
X89166666Y-20638152D02*
X89119047Y-20733390D01*
X89119047Y-20733390D02*
X89071428Y-20781009D01*
X89071428Y-20781009D02*
X88976190Y-20828628D01*
X88976190Y-20828628D02*
X88595238Y-20828628D01*
X89595238Y-20781009D02*
X89928571Y-20781009D01*
X90071428Y-21304819D02*
X89595238Y-21304819D01*
X89595238Y-21304819D02*
X89595238Y-20304819D01*
X89595238Y-20304819D02*
X90071428Y-20304819D01*
X90833333Y-20781009D02*
X90500000Y-20781009D01*
X90500000Y-21304819D02*
X90500000Y-20304819D01*
X90500000Y-20304819D02*
X90976190Y-20304819D01*
X91500000Y-20304819D02*
X91500000Y-20542914D01*
X91261905Y-20447676D02*
X91500000Y-20542914D01*
X91500000Y-20542914D02*
X91738095Y-20447676D01*
X91357143Y-20733390D02*
X91500000Y-20542914D01*
X91500000Y-20542914D02*
X91642857Y-20733390D01*
X92261905Y-20304819D02*
X92261905Y-20542914D01*
X92023810Y-20447676D02*
X92261905Y-20542914D01*
X92261905Y-20542914D02*
X92500000Y-20447676D01*
X92119048Y-20733390D02*
X92261905Y-20542914D01*
X92261905Y-20542914D02*
X92404762Y-20733390D01*
X76359580Y-83492857D02*
X76407200Y-83540476D01*
X76407200Y-83540476D02*
X76454819Y-83683333D01*
X76454819Y-83683333D02*
X76454819Y-83778571D01*
X76454819Y-83778571D02*
X76407200Y-83921428D01*
X76407200Y-83921428D02*
X76311961Y-84016666D01*
X76311961Y-84016666D02*
X76216723Y-84064285D01*
X76216723Y-84064285D02*
X76026247Y-84111904D01*
X76026247Y-84111904D02*
X75883390Y-84111904D01*
X75883390Y-84111904D02*
X75692914Y-84064285D01*
X75692914Y-84064285D02*
X75597676Y-84016666D01*
X75597676Y-84016666D02*
X75502438Y-83921428D01*
X75502438Y-83921428D02*
X75454819Y-83778571D01*
X75454819Y-83778571D02*
X75454819Y-83683333D01*
X75454819Y-83683333D02*
X75502438Y-83540476D01*
X75502438Y-83540476D02*
X75550057Y-83492857D01*
X75550057Y-83111904D02*
X75502438Y-83064285D01*
X75502438Y-83064285D02*
X75454819Y-82969047D01*
X75454819Y-82969047D02*
X75454819Y-82730952D01*
X75454819Y-82730952D02*
X75502438Y-82635714D01*
X75502438Y-82635714D02*
X75550057Y-82588095D01*
X75550057Y-82588095D02*
X75645295Y-82540476D01*
X75645295Y-82540476D02*
X75740533Y-82540476D01*
X75740533Y-82540476D02*
X75883390Y-82588095D01*
X75883390Y-82588095D02*
X76454819Y-83159523D01*
X76454819Y-83159523D02*
X76454819Y-82540476D01*
X75788152Y-81683333D02*
X76454819Y-81683333D01*
X75407200Y-81921428D02*
X76121485Y-82159523D01*
X76121485Y-82159523D02*
X76121485Y-81540476D01*
X79233333Y-97484819D02*
X78900000Y-97008628D01*
X78661905Y-97484819D02*
X78661905Y-96484819D01*
X78661905Y-96484819D02*
X79042857Y-96484819D01*
X79042857Y-96484819D02*
X79138095Y-96532438D01*
X79138095Y-96532438D02*
X79185714Y-96580057D01*
X79185714Y-96580057D02*
X79233333Y-96675295D01*
X79233333Y-96675295D02*
X79233333Y-96818152D01*
X79233333Y-96818152D02*
X79185714Y-96913390D01*
X79185714Y-96913390D02*
X79138095Y-96961009D01*
X79138095Y-96961009D02*
X79042857Y-97008628D01*
X79042857Y-97008628D02*
X78661905Y-97008628D01*
X79804762Y-96913390D02*
X79709524Y-96865771D01*
X79709524Y-96865771D02*
X79661905Y-96818152D01*
X79661905Y-96818152D02*
X79614286Y-96722914D01*
X79614286Y-96722914D02*
X79614286Y-96675295D01*
X79614286Y-96675295D02*
X79661905Y-96580057D01*
X79661905Y-96580057D02*
X79709524Y-96532438D01*
X79709524Y-96532438D02*
X79804762Y-96484819D01*
X79804762Y-96484819D02*
X79995238Y-96484819D01*
X79995238Y-96484819D02*
X80090476Y-96532438D01*
X80090476Y-96532438D02*
X80138095Y-96580057D01*
X80138095Y-96580057D02*
X80185714Y-96675295D01*
X80185714Y-96675295D02*
X80185714Y-96722914D01*
X80185714Y-96722914D02*
X80138095Y-96818152D01*
X80138095Y-96818152D02*
X80090476Y-96865771D01*
X80090476Y-96865771D02*
X79995238Y-96913390D01*
X79995238Y-96913390D02*
X79804762Y-96913390D01*
X79804762Y-96913390D02*
X79709524Y-96961009D01*
X79709524Y-96961009D02*
X79661905Y-97008628D01*
X79661905Y-97008628D02*
X79614286Y-97103866D01*
X79614286Y-97103866D02*
X79614286Y-97294342D01*
X79614286Y-97294342D02*
X79661905Y-97389580D01*
X79661905Y-97389580D02*
X79709524Y-97437200D01*
X79709524Y-97437200D02*
X79804762Y-97484819D01*
X79804762Y-97484819D02*
X79995238Y-97484819D01*
X79995238Y-97484819D02*
X80090476Y-97437200D01*
X80090476Y-97437200D02*
X80138095Y-97389580D01*
X80138095Y-97389580D02*
X80185714Y-97294342D01*
X80185714Y-97294342D02*
X80185714Y-97103866D01*
X80185714Y-97103866D02*
X80138095Y-97008628D01*
X80138095Y-97008628D02*
X80090476Y-96961009D01*
X80090476Y-96961009D02*
X79995238Y-96913390D01*
X40509580Y-88692857D02*
X40557200Y-88740476D01*
X40557200Y-88740476D02*
X40604819Y-88883333D01*
X40604819Y-88883333D02*
X40604819Y-88978571D01*
X40604819Y-88978571D02*
X40557200Y-89121428D01*
X40557200Y-89121428D02*
X40461961Y-89216666D01*
X40461961Y-89216666D02*
X40366723Y-89264285D01*
X40366723Y-89264285D02*
X40176247Y-89311904D01*
X40176247Y-89311904D02*
X40033390Y-89311904D01*
X40033390Y-89311904D02*
X39842914Y-89264285D01*
X39842914Y-89264285D02*
X39747676Y-89216666D01*
X39747676Y-89216666D02*
X39652438Y-89121428D01*
X39652438Y-89121428D02*
X39604819Y-88978571D01*
X39604819Y-88978571D02*
X39604819Y-88883333D01*
X39604819Y-88883333D02*
X39652438Y-88740476D01*
X39652438Y-88740476D02*
X39700057Y-88692857D01*
X40604819Y-87740476D02*
X40604819Y-88311904D01*
X40604819Y-88026190D02*
X39604819Y-88026190D01*
X39604819Y-88026190D02*
X39747676Y-88121428D01*
X39747676Y-88121428D02*
X39842914Y-88216666D01*
X39842914Y-88216666D02*
X39890533Y-88311904D01*
X40604819Y-87264285D02*
X40604819Y-87073809D01*
X40604819Y-87073809D02*
X40557200Y-86978571D01*
X40557200Y-86978571D02*
X40509580Y-86930952D01*
X40509580Y-86930952D02*
X40366723Y-86835714D01*
X40366723Y-86835714D02*
X40176247Y-86788095D01*
X40176247Y-86788095D02*
X39795295Y-86788095D01*
X39795295Y-86788095D02*
X39700057Y-86835714D01*
X39700057Y-86835714D02*
X39652438Y-86883333D01*
X39652438Y-86883333D02*
X39604819Y-86978571D01*
X39604819Y-86978571D02*
X39604819Y-87169047D01*
X39604819Y-87169047D02*
X39652438Y-87264285D01*
X39652438Y-87264285D02*
X39700057Y-87311904D01*
X39700057Y-87311904D02*
X39795295Y-87359523D01*
X39795295Y-87359523D02*
X40033390Y-87359523D01*
X40033390Y-87359523D02*
X40128628Y-87311904D01*
X40128628Y-87311904D02*
X40176247Y-87264285D01*
X40176247Y-87264285D02*
X40223866Y-87169047D01*
X40223866Y-87169047D02*
X40223866Y-86978571D01*
X40223866Y-86978571D02*
X40176247Y-86883333D01*
X40176247Y-86883333D02*
X40128628Y-86835714D01*
X40128628Y-86835714D02*
X40033390Y-86788095D01*
X85877142Y-71284819D02*
X85543809Y-70808628D01*
X85305714Y-71284819D02*
X85305714Y-70284819D01*
X85305714Y-70284819D02*
X85686666Y-70284819D01*
X85686666Y-70284819D02*
X85781904Y-70332438D01*
X85781904Y-70332438D02*
X85829523Y-70380057D01*
X85829523Y-70380057D02*
X85877142Y-70475295D01*
X85877142Y-70475295D02*
X85877142Y-70618152D01*
X85877142Y-70618152D02*
X85829523Y-70713390D01*
X85829523Y-70713390D02*
X85781904Y-70761009D01*
X85781904Y-70761009D02*
X85686666Y-70808628D01*
X85686666Y-70808628D02*
X85305714Y-70808628D01*
X86258095Y-70380057D02*
X86305714Y-70332438D01*
X86305714Y-70332438D02*
X86400952Y-70284819D01*
X86400952Y-70284819D02*
X86639047Y-70284819D01*
X86639047Y-70284819D02*
X86734285Y-70332438D01*
X86734285Y-70332438D02*
X86781904Y-70380057D01*
X86781904Y-70380057D02*
X86829523Y-70475295D01*
X86829523Y-70475295D02*
X86829523Y-70570533D01*
X86829523Y-70570533D02*
X86781904Y-70713390D01*
X86781904Y-70713390D02*
X86210476Y-71284819D01*
X86210476Y-71284819D02*
X86829523Y-71284819D01*
X87448571Y-70284819D02*
X87543809Y-70284819D01*
X87543809Y-70284819D02*
X87639047Y-70332438D01*
X87639047Y-70332438D02*
X87686666Y-70380057D01*
X87686666Y-70380057D02*
X87734285Y-70475295D01*
X87734285Y-70475295D02*
X87781904Y-70665771D01*
X87781904Y-70665771D02*
X87781904Y-70903866D01*
X87781904Y-70903866D02*
X87734285Y-71094342D01*
X87734285Y-71094342D02*
X87686666Y-71189580D01*
X87686666Y-71189580D02*
X87639047Y-71237200D01*
X87639047Y-71237200D02*
X87543809Y-71284819D01*
X87543809Y-71284819D02*
X87448571Y-71284819D01*
X87448571Y-71284819D02*
X87353333Y-71237200D01*
X87353333Y-71237200D02*
X87305714Y-71189580D01*
X87305714Y-71189580D02*
X87258095Y-71094342D01*
X87258095Y-71094342D02*
X87210476Y-70903866D01*
X87210476Y-70903866D02*
X87210476Y-70665771D01*
X87210476Y-70665771D02*
X87258095Y-70475295D01*
X87258095Y-70475295D02*
X87305714Y-70380057D01*
X87305714Y-70380057D02*
X87353333Y-70332438D01*
X87353333Y-70332438D02*
X87448571Y-70284819D01*
X68853333Y-62019580D02*
X68805714Y-62067200D01*
X68805714Y-62067200D02*
X68662857Y-62114819D01*
X68662857Y-62114819D02*
X68567619Y-62114819D01*
X68567619Y-62114819D02*
X68424762Y-62067200D01*
X68424762Y-62067200D02*
X68329524Y-61971961D01*
X68329524Y-61971961D02*
X68281905Y-61876723D01*
X68281905Y-61876723D02*
X68234286Y-61686247D01*
X68234286Y-61686247D02*
X68234286Y-61543390D01*
X68234286Y-61543390D02*
X68281905Y-61352914D01*
X68281905Y-61352914D02*
X68329524Y-61257676D01*
X68329524Y-61257676D02*
X68424762Y-61162438D01*
X68424762Y-61162438D02*
X68567619Y-61114819D01*
X68567619Y-61114819D02*
X68662857Y-61114819D01*
X68662857Y-61114819D02*
X68805714Y-61162438D01*
X68805714Y-61162438D02*
X68853333Y-61210057D01*
X69424762Y-61543390D02*
X69329524Y-61495771D01*
X69329524Y-61495771D02*
X69281905Y-61448152D01*
X69281905Y-61448152D02*
X69234286Y-61352914D01*
X69234286Y-61352914D02*
X69234286Y-61305295D01*
X69234286Y-61305295D02*
X69281905Y-61210057D01*
X69281905Y-61210057D02*
X69329524Y-61162438D01*
X69329524Y-61162438D02*
X69424762Y-61114819D01*
X69424762Y-61114819D02*
X69615238Y-61114819D01*
X69615238Y-61114819D02*
X69710476Y-61162438D01*
X69710476Y-61162438D02*
X69758095Y-61210057D01*
X69758095Y-61210057D02*
X69805714Y-61305295D01*
X69805714Y-61305295D02*
X69805714Y-61352914D01*
X69805714Y-61352914D02*
X69758095Y-61448152D01*
X69758095Y-61448152D02*
X69710476Y-61495771D01*
X69710476Y-61495771D02*
X69615238Y-61543390D01*
X69615238Y-61543390D02*
X69424762Y-61543390D01*
X69424762Y-61543390D02*
X69329524Y-61591009D01*
X69329524Y-61591009D02*
X69281905Y-61638628D01*
X69281905Y-61638628D02*
X69234286Y-61733866D01*
X69234286Y-61733866D02*
X69234286Y-61924342D01*
X69234286Y-61924342D02*
X69281905Y-62019580D01*
X69281905Y-62019580D02*
X69329524Y-62067200D01*
X69329524Y-62067200D02*
X69424762Y-62114819D01*
X69424762Y-62114819D02*
X69615238Y-62114819D01*
X69615238Y-62114819D02*
X69710476Y-62067200D01*
X69710476Y-62067200D02*
X69758095Y-62019580D01*
X69758095Y-62019580D02*
X69805714Y-61924342D01*
X69805714Y-61924342D02*
X69805714Y-61733866D01*
X69805714Y-61733866D02*
X69758095Y-61638628D01*
X69758095Y-61638628D02*
X69710476Y-61591009D01*
X69710476Y-61591009D02*
X69615238Y-61543390D01*
X93357142Y-71284819D02*
X93023809Y-70808628D01*
X92785714Y-71284819D02*
X92785714Y-70284819D01*
X92785714Y-70284819D02*
X93166666Y-70284819D01*
X93166666Y-70284819D02*
X93261904Y-70332438D01*
X93261904Y-70332438D02*
X93309523Y-70380057D01*
X93309523Y-70380057D02*
X93357142Y-70475295D01*
X93357142Y-70475295D02*
X93357142Y-70618152D01*
X93357142Y-70618152D02*
X93309523Y-70713390D01*
X93309523Y-70713390D02*
X93261904Y-70761009D01*
X93261904Y-70761009D02*
X93166666Y-70808628D01*
X93166666Y-70808628D02*
X92785714Y-70808628D01*
X93738095Y-70380057D02*
X93785714Y-70332438D01*
X93785714Y-70332438D02*
X93880952Y-70284819D01*
X93880952Y-70284819D02*
X94119047Y-70284819D01*
X94119047Y-70284819D02*
X94214285Y-70332438D01*
X94214285Y-70332438D02*
X94261904Y-70380057D01*
X94261904Y-70380057D02*
X94309523Y-70475295D01*
X94309523Y-70475295D02*
X94309523Y-70570533D01*
X94309523Y-70570533D02*
X94261904Y-70713390D01*
X94261904Y-70713390D02*
X93690476Y-71284819D01*
X93690476Y-71284819D02*
X94309523Y-71284819D01*
X95261904Y-71284819D02*
X94690476Y-71284819D01*
X94976190Y-71284819D02*
X94976190Y-70284819D01*
X94976190Y-70284819D02*
X94880952Y-70427676D01*
X94880952Y-70427676D02*
X94785714Y-70522914D01*
X94785714Y-70522914D02*
X94690476Y-70570533D01*
X90877142Y-87699580D02*
X90829523Y-87747200D01*
X90829523Y-87747200D02*
X90686666Y-87794819D01*
X90686666Y-87794819D02*
X90591428Y-87794819D01*
X90591428Y-87794819D02*
X90448571Y-87747200D01*
X90448571Y-87747200D02*
X90353333Y-87651961D01*
X90353333Y-87651961D02*
X90305714Y-87556723D01*
X90305714Y-87556723D02*
X90258095Y-87366247D01*
X90258095Y-87366247D02*
X90258095Y-87223390D01*
X90258095Y-87223390D02*
X90305714Y-87032914D01*
X90305714Y-87032914D02*
X90353333Y-86937676D01*
X90353333Y-86937676D02*
X90448571Y-86842438D01*
X90448571Y-86842438D02*
X90591428Y-86794819D01*
X90591428Y-86794819D02*
X90686666Y-86794819D01*
X90686666Y-86794819D02*
X90829523Y-86842438D01*
X90829523Y-86842438D02*
X90877142Y-86890057D01*
X91829523Y-87794819D02*
X91258095Y-87794819D01*
X91543809Y-87794819D02*
X91543809Y-86794819D01*
X91543809Y-86794819D02*
X91448571Y-86937676D01*
X91448571Y-86937676D02*
X91353333Y-87032914D01*
X91353333Y-87032914D02*
X91258095Y-87080533D01*
X92686666Y-87128152D02*
X92686666Y-87794819D01*
X92448571Y-86747200D02*
X92210476Y-87461485D01*
X92210476Y-87461485D02*
X92829523Y-87461485D01*
X80357142Y-83054819D02*
X80023809Y-82578628D01*
X79785714Y-83054819D02*
X79785714Y-82054819D01*
X79785714Y-82054819D02*
X80166666Y-82054819D01*
X80166666Y-82054819D02*
X80261904Y-82102438D01*
X80261904Y-82102438D02*
X80309523Y-82150057D01*
X80309523Y-82150057D02*
X80357142Y-82245295D01*
X80357142Y-82245295D02*
X80357142Y-82388152D01*
X80357142Y-82388152D02*
X80309523Y-82483390D01*
X80309523Y-82483390D02*
X80261904Y-82531009D01*
X80261904Y-82531009D02*
X80166666Y-82578628D01*
X80166666Y-82578628D02*
X79785714Y-82578628D01*
X81309523Y-83054819D02*
X80738095Y-83054819D01*
X81023809Y-83054819D02*
X81023809Y-82054819D01*
X81023809Y-82054819D02*
X80928571Y-82197676D01*
X80928571Y-82197676D02*
X80833333Y-82292914D01*
X80833333Y-82292914D02*
X80738095Y-82340533D01*
X81690476Y-82150057D02*
X81738095Y-82102438D01*
X81738095Y-82102438D02*
X81833333Y-82054819D01*
X81833333Y-82054819D02*
X82071428Y-82054819D01*
X82071428Y-82054819D02*
X82166666Y-82102438D01*
X82166666Y-82102438D02*
X82214285Y-82150057D01*
X82214285Y-82150057D02*
X82261904Y-82245295D01*
X82261904Y-82245295D02*
X82261904Y-82340533D01*
X82261904Y-82340533D02*
X82214285Y-82483390D01*
X82214285Y-82483390D02*
X81642857Y-83054819D01*
X81642857Y-83054819D02*
X82261904Y-83054819D01*
X60454819Y-41142857D02*
X59978628Y-41476190D01*
X60454819Y-41714285D02*
X59454819Y-41714285D01*
X59454819Y-41714285D02*
X59454819Y-41333333D01*
X59454819Y-41333333D02*
X59502438Y-41238095D01*
X59502438Y-41238095D02*
X59550057Y-41190476D01*
X59550057Y-41190476D02*
X59645295Y-41142857D01*
X59645295Y-41142857D02*
X59788152Y-41142857D01*
X59788152Y-41142857D02*
X59883390Y-41190476D01*
X59883390Y-41190476D02*
X59931009Y-41238095D01*
X59931009Y-41238095D02*
X59978628Y-41333333D01*
X59978628Y-41333333D02*
X59978628Y-41714285D01*
X60454819Y-40190476D02*
X60454819Y-40761904D01*
X60454819Y-40476190D02*
X59454819Y-40476190D01*
X59454819Y-40476190D02*
X59597676Y-40571428D01*
X59597676Y-40571428D02*
X59692914Y-40666666D01*
X59692914Y-40666666D02*
X59740533Y-40761904D01*
X59454819Y-39857142D02*
X59454819Y-39190476D01*
X59454819Y-39190476D02*
X60454819Y-39619047D01*
X89166666Y-98804819D02*
X88833333Y-98328628D01*
X88595238Y-98804819D02*
X88595238Y-97804819D01*
X88595238Y-97804819D02*
X88976190Y-97804819D01*
X88976190Y-97804819D02*
X89071428Y-97852438D01*
X89071428Y-97852438D02*
X89119047Y-97900057D01*
X89119047Y-97900057D02*
X89166666Y-97995295D01*
X89166666Y-97995295D02*
X89166666Y-98138152D01*
X89166666Y-98138152D02*
X89119047Y-98233390D01*
X89119047Y-98233390D02*
X89071428Y-98281009D01*
X89071428Y-98281009D02*
X88976190Y-98328628D01*
X88976190Y-98328628D02*
X88595238Y-98328628D01*
X89595238Y-98281009D02*
X89928571Y-98281009D01*
X90071428Y-98804819D02*
X89595238Y-98804819D01*
X89595238Y-98804819D02*
X89595238Y-97804819D01*
X89595238Y-97804819D02*
X90071428Y-97804819D01*
X90833333Y-98281009D02*
X90500000Y-98281009D01*
X90500000Y-98804819D02*
X90500000Y-97804819D01*
X90500000Y-97804819D02*
X90976190Y-97804819D01*
X91500000Y-97804819D02*
X91500000Y-98042914D01*
X91261905Y-97947676D02*
X91500000Y-98042914D01*
X91500000Y-98042914D02*
X91738095Y-97947676D01*
X91357143Y-98233390D02*
X91500000Y-98042914D01*
X91500000Y-98042914D02*
X91642857Y-98233390D01*
X92261905Y-97804819D02*
X92261905Y-98042914D01*
X92023810Y-97947676D02*
X92261905Y-98042914D01*
X92261905Y-98042914D02*
X92500000Y-97947676D01*
X92119048Y-98233390D02*
X92261905Y-98042914D01*
X92261905Y-98042914D02*
X92404762Y-98233390D01*
X48679580Y-66592857D02*
X48727200Y-66640476D01*
X48727200Y-66640476D02*
X48774819Y-66783333D01*
X48774819Y-66783333D02*
X48774819Y-66878571D01*
X48774819Y-66878571D02*
X48727200Y-67021428D01*
X48727200Y-67021428D02*
X48631961Y-67116666D01*
X48631961Y-67116666D02*
X48536723Y-67164285D01*
X48536723Y-67164285D02*
X48346247Y-67211904D01*
X48346247Y-67211904D02*
X48203390Y-67211904D01*
X48203390Y-67211904D02*
X48012914Y-67164285D01*
X48012914Y-67164285D02*
X47917676Y-67116666D01*
X47917676Y-67116666D02*
X47822438Y-67021428D01*
X47822438Y-67021428D02*
X47774819Y-66878571D01*
X47774819Y-66878571D02*
X47774819Y-66783333D01*
X47774819Y-66783333D02*
X47822438Y-66640476D01*
X47822438Y-66640476D02*
X47870057Y-66592857D01*
X47774819Y-65688095D02*
X47774819Y-66164285D01*
X47774819Y-66164285D02*
X48251009Y-66211904D01*
X48251009Y-66211904D02*
X48203390Y-66164285D01*
X48203390Y-66164285D02*
X48155771Y-66069047D01*
X48155771Y-66069047D02*
X48155771Y-65830952D01*
X48155771Y-65830952D02*
X48203390Y-65735714D01*
X48203390Y-65735714D02*
X48251009Y-65688095D01*
X48251009Y-65688095D02*
X48346247Y-65640476D01*
X48346247Y-65640476D02*
X48584342Y-65640476D01*
X48584342Y-65640476D02*
X48679580Y-65688095D01*
X48679580Y-65688095D02*
X48727200Y-65735714D01*
X48727200Y-65735714D02*
X48774819Y-65830952D01*
X48774819Y-65830952D02*
X48774819Y-66069047D01*
X48774819Y-66069047D02*
X48727200Y-66164285D01*
X48727200Y-66164285D02*
X48679580Y-66211904D01*
X48108152Y-64783333D02*
X48774819Y-64783333D01*
X47727200Y-65021428D02*
X48441485Y-65259523D01*
X48441485Y-65259523D02*
X48441485Y-64640476D01*
X31100595Y-86954819D02*
X31100595Y-87764342D01*
X31100595Y-87764342D02*
X31148214Y-87859580D01*
X31148214Y-87859580D02*
X31195833Y-87907200D01*
X31195833Y-87907200D02*
X31291071Y-87954819D01*
X31291071Y-87954819D02*
X31481547Y-87954819D01*
X31481547Y-87954819D02*
X31576785Y-87907200D01*
X31576785Y-87907200D02*
X31624404Y-87859580D01*
X31624404Y-87859580D02*
X31672023Y-87764342D01*
X31672023Y-87764342D02*
X31672023Y-86954819D01*
X32624404Y-86954819D02*
X32148214Y-86954819D01*
X32148214Y-86954819D02*
X32100595Y-87431009D01*
X32100595Y-87431009D02*
X32148214Y-87383390D01*
X32148214Y-87383390D02*
X32243452Y-87335771D01*
X32243452Y-87335771D02*
X32481547Y-87335771D01*
X32481547Y-87335771D02*
X32576785Y-87383390D01*
X32576785Y-87383390D02*
X32624404Y-87431009D01*
X32624404Y-87431009D02*
X32672023Y-87526247D01*
X32672023Y-87526247D02*
X32672023Y-87764342D01*
X32672023Y-87764342D02*
X32624404Y-87859580D01*
X32624404Y-87859580D02*
X32576785Y-87907200D01*
X32576785Y-87907200D02*
X32481547Y-87954819D01*
X32481547Y-87954819D02*
X32243452Y-87954819D01*
X32243452Y-87954819D02*
X32148214Y-87907200D01*
X32148214Y-87907200D02*
X32100595Y-87859580D01*
X43482142Y-72174580D02*
X43434523Y-72222200D01*
X43434523Y-72222200D02*
X43291666Y-72269819D01*
X43291666Y-72269819D02*
X43196428Y-72269819D01*
X43196428Y-72269819D02*
X43053571Y-72222200D01*
X43053571Y-72222200D02*
X42958333Y-72126961D01*
X42958333Y-72126961D02*
X42910714Y-72031723D01*
X42910714Y-72031723D02*
X42863095Y-71841247D01*
X42863095Y-71841247D02*
X42863095Y-71698390D01*
X42863095Y-71698390D02*
X42910714Y-71507914D01*
X42910714Y-71507914D02*
X42958333Y-71412676D01*
X42958333Y-71412676D02*
X43053571Y-71317438D01*
X43053571Y-71317438D02*
X43196428Y-71269819D01*
X43196428Y-71269819D02*
X43291666Y-71269819D01*
X43291666Y-71269819D02*
X43434523Y-71317438D01*
X43434523Y-71317438D02*
X43482142Y-71365057D01*
X43815476Y-71269819D02*
X44434523Y-71269819D01*
X44434523Y-71269819D02*
X44101190Y-71650771D01*
X44101190Y-71650771D02*
X44244047Y-71650771D01*
X44244047Y-71650771D02*
X44339285Y-71698390D01*
X44339285Y-71698390D02*
X44386904Y-71746009D01*
X44386904Y-71746009D02*
X44434523Y-71841247D01*
X44434523Y-71841247D02*
X44434523Y-72079342D01*
X44434523Y-72079342D02*
X44386904Y-72174580D01*
X44386904Y-72174580D02*
X44339285Y-72222200D01*
X44339285Y-72222200D02*
X44244047Y-72269819D01*
X44244047Y-72269819D02*
X43958333Y-72269819D01*
X43958333Y-72269819D02*
X43863095Y-72222200D01*
X43863095Y-72222200D02*
X43815476Y-72174580D01*
X45005952Y-71698390D02*
X44910714Y-71650771D01*
X44910714Y-71650771D02*
X44863095Y-71603152D01*
X44863095Y-71603152D02*
X44815476Y-71507914D01*
X44815476Y-71507914D02*
X44815476Y-71460295D01*
X44815476Y-71460295D02*
X44863095Y-71365057D01*
X44863095Y-71365057D02*
X44910714Y-71317438D01*
X44910714Y-71317438D02*
X45005952Y-71269819D01*
X45005952Y-71269819D02*
X45196428Y-71269819D01*
X45196428Y-71269819D02*
X45291666Y-71317438D01*
X45291666Y-71317438D02*
X45339285Y-71365057D01*
X45339285Y-71365057D02*
X45386904Y-71460295D01*
X45386904Y-71460295D02*
X45386904Y-71507914D01*
X45386904Y-71507914D02*
X45339285Y-71603152D01*
X45339285Y-71603152D02*
X45291666Y-71650771D01*
X45291666Y-71650771D02*
X45196428Y-71698390D01*
X45196428Y-71698390D02*
X45005952Y-71698390D01*
X45005952Y-71698390D02*
X44910714Y-71746009D01*
X44910714Y-71746009D02*
X44863095Y-71793628D01*
X44863095Y-71793628D02*
X44815476Y-71888866D01*
X44815476Y-71888866D02*
X44815476Y-72079342D01*
X44815476Y-72079342D02*
X44863095Y-72174580D01*
X44863095Y-72174580D02*
X44910714Y-72222200D01*
X44910714Y-72222200D02*
X45005952Y-72269819D01*
X45005952Y-72269819D02*
X45196428Y-72269819D01*
X45196428Y-72269819D02*
X45291666Y-72222200D01*
X45291666Y-72222200D02*
X45339285Y-72174580D01*
X45339285Y-72174580D02*
X45386904Y-72079342D01*
X45386904Y-72079342D02*
X45386904Y-71888866D01*
X45386904Y-71888866D02*
X45339285Y-71793628D01*
X45339285Y-71793628D02*
X45291666Y-71746009D01*
X45291666Y-71746009D02*
X45196428Y-71698390D01*
X57623810Y-71754819D02*
X57623810Y-70754819D01*
X58671428Y-71659580D02*
X58623809Y-71707200D01*
X58623809Y-71707200D02*
X58480952Y-71754819D01*
X58480952Y-71754819D02*
X58385714Y-71754819D01*
X58385714Y-71754819D02*
X58242857Y-71707200D01*
X58242857Y-71707200D02*
X58147619Y-71611961D01*
X58147619Y-71611961D02*
X58100000Y-71516723D01*
X58100000Y-71516723D02*
X58052381Y-71326247D01*
X58052381Y-71326247D02*
X58052381Y-71183390D01*
X58052381Y-71183390D02*
X58100000Y-70992914D01*
X58100000Y-70992914D02*
X58147619Y-70897676D01*
X58147619Y-70897676D02*
X58242857Y-70802438D01*
X58242857Y-70802438D02*
X58385714Y-70754819D01*
X58385714Y-70754819D02*
X58480952Y-70754819D01*
X58480952Y-70754819D02*
X58623809Y-70802438D01*
X58623809Y-70802438D02*
X58671428Y-70850057D01*
X59623809Y-71754819D02*
X59052381Y-71754819D01*
X59338095Y-71754819D02*
X59338095Y-70754819D01*
X59338095Y-70754819D02*
X59242857Y-70897676D01*
X59242857Y-70897676D02*
X59147619Y-70992914D01*
X59147619Y-70992914D02*
X59052381Y-71040533D01*
X42407142Y-92679580D02*
X42359523Y-92727200D01*
X42359523Y-92727200D02*
X42216666Y-92774819D01*
X42216666Y-92774819D02*
X42121428Y-92774819D01*
X42121428Y-92774819D02*
X41978571Y-92727200D01*
X41978571Y-92727200D02*
X41883333Y-92631961D01*
X41883333Y-92631961D02*
X41835714Y-92536723D01*
X41835714Y-92536723D02*
X41788095Y-92346247D01*
X41788095Y-92346247D02*
X41788095Y-92203390D01*
X41788095Y-92203390D02*
X41835714Y-92012914D01*
X41835714Y-92012914D02*
X41883333Y-91917676D01*
X41883333Y-91917676D02*
X41978571Y-91822438D01*
X41978571Y-91822438D02*
X42121428Y-91774819D01*
X42121428Y-91774819D02*
X42216666Y-91774819D01*
X42216666Y-91774819D02*
X42359523Y-91822438D01*
X42359523Y-91822438D02*
X42407142Y-91870057D01*
X43359523Y-92774819D02*
X42788095Y-92774819D01*
X43073809Y-92774819D02*
X43073809Y-91774819D01*
X43073809Y-91774819D02*
X42978571Y-91917676D01*
X42978571Y-91917676D02*
X42883333Y-92012914D01*
X42883333Y-92012914D02*
X42788095Y-92060533D01*
X44264285Y-91774819D02*
X43788095Y-91774819D01*
X43788095Y-91774819D02*
X43740476Y-92251009D01*
X43740476Y-92251009D02*
X43788095Y-92203390D01*
X43788095Y-92203390D02*
X43883333Y-92155771D01*
X43883333Y-92155771D02*
X44121428Y-92155771D01*
X44121428Y-92155771D02*
X44216666Y-92203390D01*
X44216666Y-92203390D02*
X44264285Y-92251009D01*
X44264285Y-92251009D02*
X44311904Y-92346247D01*
X44311904Y-92346247D02*
X44311904Y-92584342D01*
X44311904Y-92584342D02*
X44264285Y-92679580D01*
X44264285Y-92679580D02*
X44216666Y-92727200D01*
X44216666Y-92727200D02*
X44121428Y-92774819D01*
X44121428Y-92774819D02*
X43883333Y-92774819D01*
X43883333Y-92774819D02*
X43788095Y-92727200D01*
X43788095Y-92727200D02*
X43740476Y-92679580D01*
X72509580Y-92842857D02*
X72557200Y-92890476D01*
X72557200Y-92890476D02*
X72604819Y-93033333D01*
X72604819Y-93033333D02*
X72604819Y-93128571D01*
X72604819Y-93128571D02*
X72557200Y-93271428D01*
X72557200Y-93271428D02*
X72461961Y-93366666D01*
X72461961Y-93366666D02*
X72366723Y-93414285D01*
X72366723Y-93414285D02*
X72176247Y-93461904D01*
X72176247Y-93461904D02*
X72033390Y-93461904D01*
X72033390Y-93461904D02*
X71842914Y-93414285D01*
X71842914Y-93414285D02*
X71747676Y-93366666D01*
X71747676Y-93366666D02*
X71652438Y-93271428D01*
X71652438Y-93271428D02*
X71604819Y-93128571D01*
X71604819Y-93128571D02*
X71604819Y-93033333D01*
X71604819Y-93033333D02*
X71652438Y-92890476D01*
X71652438Y-92890476D02*
X71700057Y-92842857D01*
X71604819Y-92509523D02*
X71604819Y-91890476D01*
X71604819Y-91890476D02*
X71985771Y-92223809D01*
X71985771Y-92223809D02*
X71985771Y-92080952D01*
X71985771Y-92080952D02*
X72033390Y-91985714D01*
X72033390Y-91985714D02*
X72081009Y-91938095D01*
X72081009Y-91938095D02*
X72176247Y-91890476D01*
X72176247Y-91890476D02*
X72414342Y-91890476D01*
X72414342Y-91890476D02*
X72509580Y-91938095D01*
X72509580Y-91938095D02*
X72557200Y-91985714D01*
X72557200Y-91985714D02*
X72604819Y-92080952D01*
X72604819Y-92080952D02*
X72604819Y-92366666D01*
X72604819Y-92366666D02*
X72557200Y-92461904D01*
X72557200Y-92461904D02*
X72509580Y-92509523D01*
X71604819Y-90985714D02*
X71604819Y-91461904D01*
X71604819Y-91461904D02*
X72081009Y-91509523D01*
X72081009Y-91509523D02*
X72033390Y-91461904D01*
X72033390Y-91461904D02*
X71985771Y-91366666D01*
X71985771Y-91366666D02*
X71985771Y-91128571D01*
X71985771Y-91128571D02*
X72033390Y-91033333D01*
X72033390Y-91033333D02*
X72081009Y-90985714D01*
X72081009Y-90985714D02*
X72176247Y-90938095D01*
X72176247Y-90938095D02*
X72414342Y-90938095D01*
X72414342Y-90938095D02*
X72509580Y-90985714D01*
X72509580Y-90985714D02*
X72557200Y-91033333D01*
X72557200Y-91033333D02*
X72604819Y-91128571D01*
X72604819Y-91128571D02*
X72604819Y-91366666D01*
X72604819Y-91366666D02*
X72557200Y-91461904D01*
X72557200Y-91461904D02*
X72509580Y-91509523D01*
X25166666Y-21304819D02*
X24833333Y-20828628D01*
X24595238Y-21304819D02*
X24595238Y-20304819D01*
X24595238Y-20304819D02*
X24976190Y-20304819D01*
X24976190Y-20304819D02*
X25071428Y-20352438D01*
X25071428Y-20352438D02*
X25119047Y-20400057D01*
X25119047Y-20400057D02*
X25166666Y-20495295D01*
X25166666Y-20495295D02*
X25166666Y-20638152D01*
X25166666Y-20638152D02*
X25119047Y-20733390D01*
X25119047Y-20733390D02*
X25071428Y-20781009D01*
X25071428Y-20781009D02*
X24976190Y-20828628D01*
X24976190Y-20828628D02*
X24595238Y-20828628D01*
X25595238Y-20781009D02*
X25928571Y-20781009D01*
X26071428Y-21304819D02*
X25595238Y-21304819D01*
X25595238Y-21304819D02*
X25595238Y-20304819D01*
X25595238Y-20304819D02*
X26071428Y-20304819D01*
X26833333Y-20781009D02*
X26500000Y-20781009D01*
X26500000Y-21304819D02*
X26500000Y-20304819D01*
X26500000Y-20304819D02*
X26976190Y-20304819D01*
X27500000Y-20304819D02*
X27500000Y-20542914D01*
X27261905Y-20447676D02*
X27500000Y-20542914D01*
X27500000Y-20542914D02*
X27738095Y-20447676D01*
X27357143Y-20733390D02*
X27500000Y-20542914D01*
X27500000Y-20542914D02*
X27642857Y-20733390D01*
X28261905Y-20304819D02*
X28261905Y-20542914D01*
X28023810Y-20447676D02*
X28261905Y-20542914D01*
X28261905Y-20542914D02*
X28500000Y-20447676D01*
X28119048Y-20733390D02*
X28261905Y-20542914D01*
X28261905Y-20542914D02*
X28404762Y-20733390D01*
X86557142Y-88084819D02*
X86223809Y-87608628D01*
X85985714Y-88084819D02*
X85985714Y-87084819D01*
X85985714Y-87084819D02*
X86366666Y-87084819D01*
X86366666Y-87084819D02*
X86461904Y-87132438D01*
X86461904Y-87132438D02*
X86509523Y-87180057D01*
X86509523Y-87180057D02*
X86557142Y-87275295D01*
X86557142Y-87275295D02*
X86557142Y-87418152D01*
X86557142Y-87418152D02*
X86509523Y-87513390D01*
X86509523Y-87513390D02*
X86461904Y-87561009D01*
X86461904Y-87561009D02*
X86366666Y-87608628D01*
X86366666Y-87608628D02*
X85985714Y-87608628D01*
X86938095Y-87180057D02*
X86985714Y-87132438D01*
X86985714Y-87132438D02*
X87080952Y-87084819D01*
X87080952Y-87084819D02*
X87319047Y-87084819D01*
X87319047Y-87084819D02*
X87414285Y-87132438D01*
X87414285Y-87132438D02*
X87461904Y-87180057D01*
X87461904Y-87180057D02*
X87509523Y-87275295D01*
X87509523Y-87275295D02*
X87509523Y-87370533D01*
X87509523Y-87370533D02*
X87461904Y-87513390D01*
X87461904Y-87513390D02*
X86890476Y-88084819D01*
X86890476Y-88084819D02*
X87509523Y-88084819D01*
X88414285Y-87084819D02*
X87938095Y-87084819D01*
X87938095Y-87084819D02*
X87890476Y-87561009D01*
X87890476Y-87561009D02*
X87938095Y-87513390D01*
X87938095Y-87513390D02*
X88033333Y-87465771D01*
X88033333Y-87465771D02*
X88271428Y-87465771D01*
X88271428Y-87465771D02*
X88366666Y-87513390D01*
X88366666Y-87513390D02*
X88414285Y-87561009D01*
X88414285Y-87561009D02*
X88461904Y-87656247D01*
X88461904Y-87656247D02*
X88461904Y-87894342D01*
X88461904Y-87894342D02*
X88414285Y-87989580D01*
X88414285Y-87989580D02*
X88366666Y-88037200D01*
X88366666Y-88037200D02*
X88271428Y-88084819D01*
X88271428Y-88084819D02*
X88033333Y-88084819D01*
X88033333Y-88084819D02*
X87938095Y-88037200D01*
X87938095Y-88037200D02*
X87890476Y-87989580D01*
X84383333Y-52539580D02*
X84335714Y-52587200D01*
X84335714Y-52587200D02*
X84192857Y-52634819D01*
X84192857Y-52634819D02*
X84097619Y-52634819D01*
X84097619Y-52634819D02*
X83954762Y-52587200D01*
X83954762Y-52587200D02*
X83859524Y-52491961D01*
X83859524Y-52491961D02*
X83811905Y-52396723D01*
X83811905Y-52396723D02*
X83764286Y-52206247D01*
X83764286Y-52206247D02*
X83764286Y-52063390D01*
X83764286Y-52063390D02*
X83811905Y-51872914D01*
X83811905Y-51872914D02*
X83859524Y-51777676D01*
X83859524Y-51777676D02*
X83954762Y-51682438D01*
X83954762Y-51682438D02*
X84097619Y-51634819D01*
X84097619Y-51634819D02*
X84192857Y-51634819D01*
X84192857Y-51634819D02*
X84335714Y-51682438D01*
X84335714Y-51682438D02*
X84383333Y-51730057D01*
X84859524Y-52634819D02*
X85050000Y-52634819D01*
X85050000Y-52634819D02*
X85145238Y-52587200D01*
X85145238Y-52587200D02*
X85192857Y-52539580D01*
X85192857Y-52539580D02*
X85288095Y-52396723D01*
X85288095Y-52396723D02*
X85335714Y-52206247D01*
X85335714Y-52206247D02*
X85335714Y-51825295D01*
X85335714Y-51825295D02*
X85288095Y-51730057D01*
X85288095Y-51730057D02*
X85240476Y-51682438D01*
X85240476Y-51682438D02*
X85145238Y-51634819D01*
X85145238Y-51634819D02*
X84954762Y-51634819D01*
X84954762Y-51634819D02*
X84859524Y-51682438D01*
X84859524Y-51682438D02*
X84811905Y-51730057D01*
X84811905Y-51730057D02*
X84764286Y-51825295D01*
X84764286Y-51825295D02*
X84764286Y-52063390D01*
X84764286Y-52063390D02*
X84811905Y-52158628D01*
X84811905Y-52158628D02*
X84859524Y-52206247D01*
X84859524Y-52206247D02*
X84954762Y-52253866D01*
X84954762Y-52253866D02*
X85145238Y-52253866D01*
X85145238Y-52253866D02*
X85240476Y-52206247D01*
X85240476Y-52206247D02*
X85288095Y-52158628D01*
X85288095Y-52158628D02*
X85335714Y-52063390D01*
X52957142Y-94579580D02*
X52909523Y-94627200D01*
X52909523Y-94627200D02*
X52766666Y-94674819D01*
X52766666Y-94674819D02*
X52671428Y-94674819D01*
X52671428Y-94674819D02*
X52528571Y-94627200D01*
X52528571Y-94627200D02*
X52433333Y-94531961D01*
X52433333Y-94531961D02*
X52385714Y-94436723D01*
X52385714Y-94436723D02*
X52338095Y-94246247D01*
X52338095Y-94246247D02*
X52338095Y-94103390D01*
X52338095Y-94103390D02*
X52385714Y-93912914D01*
X52385714Y-93912914D02*
X52433333Y-93817676D01*
X52433333Y-93817676D02*
X52528571Y-93722438D01*
X52528571Y-93722438D02*
X52671428Y-93674819D01*
X52671428Y-93674819D02*
X52766666Y-93674819D01*
X52766666Y-93674819D02*
X52909523Y-93722438D01*
X52909523Y-93722438D02*
X52957142Y-93770057D01*
X53338095Y-93770057D02*
X53385714Y-93722438D01*
X53385714Y-93722438D02*
X53480952Y-93674819D01*
X53480952Y-93674819D02*
X53719047Y-93674819D01*
X53719047Y-93674819D02*
X53814285Y-93722438D01*
X53814285Y-93722438D02*
X53861904Y-93770057D01*
X53861904Y-93770057D02*
X53909523Y-93865295D01*
X53909523Y-93865295D02*
X53909523Y-93960533D01*
X53909523Y-93960533D02*
X53861904Y-94103390D01*
X53861904Y-94103390D02*
X53290476Y-94674819D01*
X53290476Y-94674819D02*
X53909523Y-94674819D01*
X54814285Y-93674819D02*
X54338095Y-93674819D01*
X54338095Y-93674819D02*
X54290476Y-94151009D01*
X54290476Y-94151009D02*
X54338095Y-94103390D01*
X54338095Y-94103390D02*
X54433333Y-94055771D01*
X54433333Y-94055771D02*
X54671428Y-94055771D01*
X54671428Y-94055771D02*
X54766666Y-94103390D01*
X54766666Y-94103390D02*
X54814285Y-94151009D01*
X54814285Y-94151009D02*
X54861904Y-94246247D01*
X54861904Y-94246247D02*
X54861904Y-94484342D01*
X54861904Y-94484342D02*
X54814285Y-94579580D01*
X54814285Y-94579580D02*
X54766666Y-94627200D01*
X54766666Y-94627200D02*
X54671428Y-94674819D01*
X54671428Y-94674819D02*
X54433333Y-94674819D01*
X54433333Y-94674819D02*
X54338095Y-94627200D01*
X54338095Y-94627200D02*
X54290476Y-94579580D01*
X36954819Y-47166666D02*
X36478628Y-47499999D01*
X36954819Y-47738094D02*
X35954819Y-47738094D01*
X35954819Y-47738094D02*
X35954819Y-47357142D01*
X35954819Y-47357142D02*
X36002438Y-47261904D01*
X36002438Y-47261904D02*
X36050057Y-47214285D01*
X36050057Y-47214285D02*
X36145295Y-47166666D01*
X36145295Y-47166666D02*
X36288152Y-47166666D01*
X36288152Y-47166666D02*
X36383390Y-47214285D01*
X36383390Y-47214285D02*
X36431009Y-47261904D01*
X36431009Y-47261904D02*
X36478628Y-47357142D01*
X36478628Y-47357142D02*
X36478628Y-47738094D01*
X36288152Y-46309523D02*
X36954819Y-46309523D01*
X35907200Y-46547618D02*
X36621485Y-46785713D01*
X36621485Y-46785713D02*
X36621485Y-46166666D01*
X62813333Y-60199580D02*
X62765714Y-60247200D01*
X62765714Y-60247200D02*
X62622857Y-60294819D01*
X62622857Y-60294819D02*
X62527619Y-60294819D01*
X62527619Y-60294819D02*
X62384762Y-60247200D01*
X62384762Y-60247200D02*
X62289524Y-60151961D01*
X62289524Y-60151961D02*
X62241905Y-60056723D01*
X62241905Y-60056723D02*
X62194286Y-59866247D01*
X62194286Y-59866247D02*
X62194286Y-59723390D01*
X62194286Y-59723390D02*
X62241905Y-59532914D01*
X62241905Y-59532914D02*
X62289524Y-59437676D01*
X62289524Y-59437676D02*
X62384762Y-59342438D01*
X62384762Y-59342438D02*
X62527619Y-59294819D01*
X62527619Y-59294819D02*
X62622857Y-59294819D01*
X62622857Y-59294819D02*
X62765714Y-59342438D01*
X62765714Y-59342438D02*
X62813333Y-59390057D01*
X63146667Y-59294819D02*
X63813333Y-59294819D01*
X63813333Y-59294819D02*
X63384762Y-60294819D01*
X81584819Y-79752857D02*
X81108628Y-80086190D01*
X81584819Y-80324285D02*
X80584819Y-80324285D01*
X80584819Y-80324285D02*
X80584819Y-79943333D01*
X80584819Y-79943333D02*
X80632438Y-79848095D01*
X80632438Y-79848095D02*
X80680057Y-79800476D01*
X80680057Y-79800476D02*
X80775295Y-79752857D01*
X80775295Y-79752857D02*
X80918152Y-79752857D01*
X80918152Y-79752857D02*
X81013390Y-79800476D01*
X81013390Y-79800476D02*
X81061009Y-79848095D01*
X81061009Y-79848095D02*
X81108628Y-79943333D01*
X81108628Y-79943333D02*
X81108628Y-80324285D01*
X81584819Y-78800476D02*
X81584819Y-79371904D01*
X81584819Y-79086190D02*
X80584819Y-79086190D01*
X80584819Y-79086190D02*
X80727676Y-79181428D01*
X80727676Y-79181428D02*
X80822914Y-79276666D01*
X80822914Y-79276666D02*
X80870533Y-79371904D01*
X81584819Y-77848095D02*
X81584819Y-78419523D01*
X81584819Y-78133809D02*
X80584819Y-78133809D01*
X80584819Y-78133809D02*
X80727676Y-78229047D01*
X80727676Y-78229047D02*
X80822914Y-78324285D01*
X80822914Y-78324285D02*
X80870533Y-78419523D01*
X37834580Y-78566666D02*
X37882200Y-78614285D01*
X37882200Y-78614285D02*
X37929819Y-78757142D01*
X37929819Y-78757142D02*
X37929819Y-78852380D01*
X37929819Y-78852380D02*
X37882200Y-78995237D01*
X37882200Y-78995237D02*
X37786961Y-79090475D01*
X37786961Y-79090475D02*
X37691723Y-79138094D01*
X37691723Y-79138094D02*
X37501247Y-79185713D01*
X37501247Y-79185713D02*
X37358390Y-79185713D01*
X37358390Y-79185713D02*
X37167914Y-79138094D01*
X37167914Y-79138094D02*
X37072676Y-79090475D01*
X37072676Y-79090475D02*
X36977438Y-78995237D01*
X36977438Y-78995237D02*
X36929819Y-78852380D01*
X36929819Y-78852380D02*
X36929819Y-78757142D01*
X36929819Y-78757142D02*
X36977438Y-78614285D01*
X36977438Y-78614285D02*
X37025057Y-78566666D01*
X36929819Y-77709523D02*
X36929819Y-77899999D01*
X36929819Y-77899999D02*
X36977438Y-77995237D01*
X36977438Y-77995237D02*
X37025057Y-78042856D01*
X37025057Y-78042856D02*
X37167914Y-78138094D01*
X37167914Y-78138094D02*
X37358390Y-78185713D01*
X37358390Y-78185713D02*
X37739342Y-78185713D01*
X37739342Y-78185713D02*
X37834580Y-78138094D01*
X37834580Y-78138094D02*
X37882200Y-78090475D01*
X37882200Y-78090475D02*
X37929819Y-77995237D01*
X37929819Y-77995237D02*
X37929819Y-77804761D01*
X37929819Y-77804761D02*
X37882200Y-77709523D01*
X37882200Y-77709523D02*
X37834580Y-77661904D01*
X37834580Y-77661904D02*
X37739342Y-77614285D01*
X37739342Y-77614285D02*
X37501247Y-77614285D01*
X37501247Y-77614285D02*
X37406009Y-77661904D01*
X37406009Y-77661904D02*
X37358390Y-77709523D01*
X37358390Y-77709523D02*
X37310771Y-77804761D01*
X37310771Y-77804761D02*
X37310771Y-77995237D01*
X37310771Y-77995237D02*
X37358390Y-78090475D01*
X37358390Y-78090475D02*
X37406009Y-78138094D01*
X37406009Y-78138094D02*
X37501247Y-78185713D01*
X68433333Y-29754819D02*
X68100000Y-29278628D01*
X67861905Y-29754819D02*
X67861905Y-28754819D01*
X67861905Y-28754819D02*
X68242857Y-28754819D01*
X68242857Y-28754819D02*
X68338095Y-28802438D01*
X68338095Y-28802438D02*
X68385714Y-28850057D01*
X68385714Y-28850057D02*
X68433333Y-28945295D01*
X68433333Y-28945295D02*
X68433333Y-29088152D01*
X68433333Y-29088152D02*
X68385714Y-29183390D01*
X68385714Y-29183390D02*
X68338095Y-29231009D01*
X68338095Y-29231009D02*
X68242857Y-29278628D01*
X68242857Y-29278628D02*
X67861905Y-29278628D01*
X69385714Y-29754819D02*
X68814286Y-29754819D01*
X69100000Y-29754819D02*
X69100000Y-28754819D01*
X69100000Y-28754819D02*
X69004762Y-28897676D01*
X69004762Y-28897676D02*
X68909524Y-28992914D01*
X68909524Y-28992914D02*
X68814286Y-29040533D01*
X24329166Y-73976009D02*
X23995833Y-73976009D01*
X23995833Y-74499819D02*
X23995833Y-73499819D01*
X23995833Y-73499819D02*
X24472023Y-73499819D01*
X25186309Y-73976009D02*
X25329166Y-74023628D01*
X25329166Y-74023628D02*
X25376785Y-74071247D01*
X25376785Y-74071247D02*
X25424404Y-74166485D01*
X25424404Y-74166485D02*
X25424404Y-74309342D01*
X25424404Y-74309342D02*
X25376785Y-74404580D01*
X25376785Y-74404580D02*
X25329166Y-74452200D01*
X25329166Y-74452200D02*
X25233928Y-74499819D01*
X25233928Y-74499819D02*
X24852976Y-74499819D01*
X24852976Y-74499819D02*
X24852976Y-73499819D01*
X24852976Y-73499819D02*
X25186309Y-73499819D01*
X25186309Y-73499819D02*
X25281547Y-73547438D01*
X25281547Y-73547438D02*
X25329166Y-73595057D01*
X25329166Y-73595057D02*
X25376785Y-73690295D01*
X25376785Y-73690295D02*
X25376785Y-73785533D01*
X25376785Y-73785533D02*
X25329166Y-73880771D01*
X25329166Y-73880771D02*
X25281547Y-73928390D01*
X25281547Y-73928390D02*
X25186309Y-73976009D01*
X25186309Y-73976009D02*
X24852976Y-73976009D01*
X26376785Y-74499819D02*
X25805357Y-74499819D01*
X26091071Y-74499819D02*
X26091071Y-73499819D01*
X26091071Y-73499819D02*
X25995833Y-73642676D01*
X25995833Y-73642676D02*
X25900595Y-73737914D01*
X25900595Y-73737914D02*
X25805357Y-73785533D01*
X65123809Y-62178628D02*
X65123809Y-62654819D01*
X64790476Y-61654819D02*
X65123809Y-62178628D01*
X65123809Y-62178628D02*
X65457142Y-61654819D01*
X66314285Y-62654819D02*
X65742857Y-62654819D01*
X66028571Y-62654819D02*
X66028571Y-61654819D01*
X66028571Y-61654819D02*
X65933333Y-61797676D01*
X65933333Y-61797676D02*
X65838095Y-61892914D01*
X65838095Y-61892914D02*
X65742857Y-61940533D01*
X77361009Y-43833333D02*
X77361009Y-44166666D01*
X77884819Y-44166666D02*
X76884819Y-44166666D01*
X76884819Y-44166666D02*
X76884819Y-43690476D01*
X77361009Y-42976190D02*
X77408628Y-42833333D01*
X77408628Y-42833333D02*
X77456247Y-42785714D01*
X77456247Y-42785714D02*
X77551485Y-42738095D01*
X77551485Y-42738095D02*
X77694342Y-42738095D01*
X77694342Y-42738095D02*
X77789580Y-42785714D01*
X77789580Y-42785714D02*
X77837200Y-42833333D01*
X77837200Y-42833333D02*
X77884819Y-42928571D01*
X77884819Y-42928571D02*
X77884819Y-43309523D01*
X77884819Y-43309523D02*
X76884819Y-43309523D01*
X76884819Y-43309523D02*
X76884819Y-42976190D01*
X76884819Y-42976190D02*
X76932438Y-42880952D01*
X76932438Y-42880952D02*
X76980057Y-42833333D01*
X76980057Y-42833333D02*
X77075295Y-42785714D01*
X77075295Y-42785714D02*
X77170533Y-42785714D01*
X77170533Y-42785714D02*
X77265771Y-42833333D01*
X77265771Y-42833333D02*
X77313390Y-42880952D01*
X77313390Y-42880952D02*
X77361009Y-42976190D01*
X77361009Y-42976190D02*
X77361009Y-43309523D01*
X76980057Y-42357142D02*
X76932438Y-42309523D01*
X76932438Y-42309523D02*
X76884819Y-42214285D01*
X76884819Y-42214285D02*
X76884819Y-41976190D01*
X76884819Y-41976190D02*
X76932438Y-41880952D01*
X76932438Y-41880952D02*
X76980057Y-41833333D01*
X76980057Y-41833333D02*
X77075295Y-41785714D01*
X77075295Y-41785714D02*
X77170533Y-41785714D01*
X77170533Y-41785714D02*
X77313390Y-41833333D01*
X77313390Y-41833333D02*
X77884819Y-42404761D01*
X77884819Y-42404761D02*
X77884819Y-41785714D01*
X82199580Y-70622857D02*
X82247200Y-70670476D01*
X82247200Y-70670476D02*
X82294819Y-70813333D01*
X82294819Y-70813333D02*
X82294819Y-70908571D01*
X82294819Y-70908571D02*
X82247200Y-71051428D01*
X82247200Y-71051428D02*
X82151961Y-71146666D01*
X82151961Y-71146666D02*
X82056723Y-71194285D01*
X82056723Y-71194285D02*
X81866247Y-71241904D01*
X81866247Y-71241904D02*
X81723390Y-71241904D01*
X81723390Y-71241904D02*
X81532914Y-71194285D01*
X81532914Y-71194285D02*
X81437676Y-71146666D01*
X81437676Y-71146666D02*
X81342438Y-71051428D01*
X81342438Y-71051428D02*
X81294819Y-70908571D01*
X81294819Y-70908571D02*
X81294819Y-70813333D01*
X81294819Y-70813333D02*
X81342438Y-70670476D01*
X81342438Y-70670476D02*
X81390057Y-70622857D01*
X81628152Y-69765714D02*
X82294819Y-69765714D01*
X81247200Y-70003809D02*
X81961485Y-70241904D01*
X81961485Y-70241904D02*
X81961485Y-69622857D01*
X81294819Y-69337142D02*
X81294819Y-68718095D01*
X81294819Y-68718095D02*
X81675771Y-69051428D01*
X81675771Y-69051428D02*
X81675771Y-68908571D01*
X81675771Y-68908571D02*
X81723390Y-68813333D01*
X81723390Y-68813333D02*
X81771009Y-68765714D01*
X81771009Y-68765714D02*
X81866247Y-68718095D01*
X81866247Y-68718095D02*
X82104342Y-68718095D01*
X82104342Y-68718095D02*
X82199580Y-68765714D01*
X82199580Y-68765714D02*
X82247200Y-68813333D01*
X82247200Y-68813333D02*
X82294819Y-68908571D01*
X82294819Y-68908571D02*
X82294819Y-69194285D01*
X82294819Y-69194285D02*
X82247200Y-69289523D01*
X82247200Y-69289523D02*
X82199580Y-69337142D01*
X25303333Y-77199580D02*
X25255714Y-77247200D01*
X25255714Y-77247200D02*
X25112857Y-77294819D01*
X25112857Y-77294819D02*
X25017619Y-77294819D01*
X25017619Y-77294819D02*
X24874762Y-77247200D01*
X24874762Y-77247200D02*
X24779524Y-77151961D01*
X24779524Y-77151961D02*
X24731905Y-77056723D01*
X24731905Y-77056723D02*
X24684286Y-76866247D01*
X24684286Y-76866247D02*
X24684286Y-76723390D01*
X24684286Y-76723390D02*
X24731905Y-76532914D01*
X24731905Y-76532914D02*
X24779524Y-76437676D01*
X24779524Y-76437676D02*
X24874762Y-76342438D01*
X24874762Y-76342438D02*
X25017619Y-76294819D01*
X25017619Y-76294819D02*
X25112857Y-76294819D01*
X25112857Y-76294819D02*
X25255714Y-76342438D01*
X25255714Y-76342438D02*
X25303333Y-76390057D01*
X25636667Y-76294819D02*
X26255714Y-76294819D01*
X26255714Y-76294819D02*
X25922381Y-76675771D01*
X25922381Y-76675771D02*
X26065238Y-76675771D01*
X26065238Y-76675771D02*
X26160476Y-76723390D01*
X26160476Y-76723390D02*
X26208095Y-76771009D01*
X26208095Y-76771009D02*
X26255714Y-76866247D01*
X26255714Y-76866247D02*
X26255714Y-77104342D01*
X26255714Y-77104342D02*
X26208095Y-77199580D01*
X26208095Y-77199580D02*
X26160476Y-77247200D01*
X26160476Y-77247200D02*
X26065238Y-77294819D01*
X26065238Y-77294819D02*
X25779524Y-77294819D01*
X25779524Y-77294819D02*
X25684286Y-77247200D01*
X25684286Y-77247200D02*
X25636667Y-77199580D01*
X51354819Y-43441666D02*
X51354819Y-43917856D01*
X51354819Y-43917856D02*
X50354819Y-43917856D01*
X50450057Y-43155951D02*
X50402438Y-43108332D01*
X50402438Y-43108332D02*
X50354819Y-43013094D01*
X50354819Y-43013094D02*
X50354819Y-42774999D01*
X50354819Y-42774999D02*
X50402438Y-42679761D01*
X50402438Y-42679761D02*
X50450057Y-42632142D01*
X50450057Y-42632142D02*
X50545295Y-42584523D01*
X50545295Y-42584523D02*
X50640533Y-42584523D01*
X50640533Y-42584523D02*
X50783390Y-42632142D01*
X50783390Y-42632142D02*
X51354819Y-43203570D01*
X51354819Y-43203570D02*
X51354819Y-42584523D01*
X82859580Y-73922857D02*
X82907200Y-73970476D01*
X82907200Y-73970476D02*
X82954819Y-74113333D01*
X82954819Y-74113333D02*
X82954819Y-74208571D01*
X82954819Y-74208571D02*
X82907200Y-74351428D01*
X82907200Y-74351428D02*
X82811961Y-74446666D01*
X82811961Y-74446666D02*
X82716723Y-74494285D01*
X82716723Y-74494285D02*
X82526247Y-74541904D01*
X82526247Y-74541904D02*
X82383390Y-74541904D01*
X82383390Y-74541904D02*
X82192914Y-74494285D01*
X82192914Y-74494285D02*
X82097676Y-74446666D01*
X82097676Y-74446666D02*
X82002438Y-74351428D01*
X82002438Y-74351428D02*
X81954819Y-74208571D01*
X81954819Y-74208571D02*
X81954819Y-74113333D01*
X81954819Y-74113333D02*
X82002438Y-73970476D01*
X82002438Y-73970476D02*
X82050057Y-73922857D01*
X81954819Y-73018095D02*
X81954819Y-73494285D01*
X81954819Y-73494285D02*
X82431009Y-73541904D01*
X82431009Y-73541904D02*
X82383390Y-73494285D01*
X82383390Y-73494285D02*
X82335771Y-73399047D01*
X82335771Y-73399047D02*
X82335771Y-73160952D01*
X82335771Y-73160952D02*
X82383390Y-73065714D01*
X82383390Y-73065714D02*
X82431009Y-73018095D01*
X82431009Y-73018095D02*
X82526247Y-72970476D01*
X82526247Y-72970476D02*
X82764342Y-72970476D01*
X82764342Y-72970476D02*
X82859580Y-73018095D01*
X82859580Y-73018095D02*
X82907200Y-73065714D01*
X82907200Y-73065714D02*
X82954819Y-73160952D01*
X82954819Y-73160952D02*
X82954819Y-73399047D01*
X82954819Y-73399047D02*
X82907200Y-73494285D01*
X82907200Y-73494285D02*
X82859580Y-73541904D01*
X81954819Y-72351428D02*
X81954819Y-72256190D01*
X81954819Y-72256190D02*
X82002438Y-72160952D01*
X82002438Y-72160952D02*
X82050057Y-72113333D01*
X82050057Y-72113333D02*
X82145295Y-72065714D01*
X82145295Y-72065714D02*
X82335771Y-72018095D01*
X82335771Y-72018095D02*
X82573866Y-72018095D01*
X82573866Y-72018095D02*
X82764342Y-72065714D01*
X82764342Y-72065714D02*
X82859580Y-72113333D01*
X82859580Y-72113333D02*
X82907200Y-72160952D01*
X82907200Y-72160952D02*
X82954819Y-72256190D01*
X82954819Y-72256190D02*
X82954819Y-72351428D01*
X82954819Y-72351428D02*
X82907200Y-72446666D01*
X82907200Y-72446666D02*
X82859580Y-72494285D01*
X82859580Y-72494285D02*
X82764342Y-72541904D01*
X82764342Y-72541904D02*
X82573866Y-72589523D01*
X82573866Y-72589523D02*
X82335771Y-72589523D01*
X82335771Y-72589523D02*
X82145295Y-72541904D01*
X82145295Y-72541904D02*
X82050057Y-72494285D01*
X82050057Y-72494285D02*
X82002438Y-72446666D01*
X82002438Y-72446666D02*
X81954819Y-72351428D01*
X37907142Y-41759580D02*
X37859523Y-41807200D01*
X37859523Y-41807200D02*
X37716666Y-41854819D01*
X37716666Y-41854819D02*
X37621428Y-41854819D01*
X37621428Y-41854819D02*
X37478571Y-41807200D01*
X37478571Y-41807200D02*
X37383333Y-41711961D01*
X37383333Y-41711961D02*
X37335714Y-41616723D01*
X37335714Y-41616723D02*
X37288095Y-41426247D01*
X37288095Y-41426247D02*
X37288095Y-41283390D01*
X37288095Y-41283390D02*
X37335714Y-41092914D01*
X37335714Y-41092914D02*
X37383333Y-40997676D01*
X37383333Y-40997676D02*
X37478571Y-40902438D01*
X37478571Y-40902438D02*
X37621428Y-40854819D01*
X37621428Y-40854819D02*
X37716666Y-40854819D01*
X37716666Y-40854819D02*
X37859523Y-40902438D01*
X37859523Y-40902438D02*
X37907142Y-40950057D01*
X38859523Y-41854819D02*
X38288095Y-41854819D01*
X38573809Y-41854819D02*
X38573809Y-40854819D01*
X38573809Y-40854819D02*
X38478571Y-40997676D01*
X38478571Y-40997676D02*
X38383333Y-41092914D01*
X38383333Y-41092914D02*
X38288095Y-41140533D01*
X39478571Y-40854819D02*
X39573809Y-40854819D01*
X39573809Y-40854819D02*
X39669047Y-40902438D01*
X39669047Y-40902438D02*
X39716666Y-40950057D01*
X39716666Y-40950057D02*
X39764285Y-41045295D01*
X39764285Y-41045295D02*
X39811904Y-41235771D01*
X39811904Y-41235771D02*
X39811904Y-41473866D01*
X39811904Y-41473866D02*
X39764285Y-41664342D01*
X39764285Y-41664342D02*
X39716666Y-41759580D01*
X39716666Y-41759580D02*
X39669047Y-41807200D01*
X39669047Y-41807200D02*
X39573809Y-41854819D01*
X39573809Y-41854819D02*
X39478571Y-41854819D01*
X39478571Y-41854819D02*
X39383333Y-41807200D01*
X39383333Y-41807200D02*
X39335714Y-41759580D01*
X39335714Y-41759580D02*
X39288095Y-41664342D01*
X39288095Y-41664342D02*
X39240476Y-41473866D01*
X39240476Y-41473866D02*
X39240476Y-41235771D01*
X39240476Y-41235771D02*
X39288095Y-41045295D01*
X39288095Y-41045295D02*
X39335714Y-40950057D01*
X39335714Y-40950057D02*
X39383333Y-40902438D01*
X39383333Y-40902438D02*
X39478571Y-40854819D01*
X27284819Y-90166666D02*
X26808628Y-90499999D01*
X27284819Y-90738094D02*
X26284819Y-90738094D01*
X26284819Y-90738094D02*
X26284819Y-90357142D01*
X26284819Y-90357142D02*
X26332438Y-90261904D01*
X26332438Y-90261904D02*
X26380057Y-90214285D01*
X26380057Y-90214285D02*
X26475295Y-90166666D01*
X26475295Y-90166666D02*
X26618152Y-90166666D01*
X26618152Y-90166666D02*
X26713390Y-90214285D01*
X26713390Y-90214285D02*
X26761009Y-90261904D01*
X26761009Y-90261904D02*
X26808628Y-90357142D01*
X26808628Y-90357142D02*
X26808628Y-90738094D01*
X26284819Y-89261904D02*
X26284819Y-89738094D01*
X26284819Y-89738094D02*
X26761009Y-89785713D01*
X26761009Y-89785713D02*
X26713390Y-89738094D01*
X26713390Y-89738094D02*
X26665771Y-89642856D01*
X26665771Y-89642856D02*
X26665771Y-89404761D01*
X26665771Y-89404761D02*
X26713390Y-89309523D01*
X26713390Y-89309523D02*
X26761009Y-89261904D01*
X26761009Y-89261904D02*
X26856247Y-89214285D01*
X26856247Y-89214285D02*
X27094342Y-89214285D01*
X27094342Y-89214285D02*
X27189580Y-89261904D01*
X27189580Y-89261904D02*
X27237200Y-89309523D01*
X27237200Y-89309523D02*
X27284819Y-89404761D01*
X27284819Y-89404761D02*
X27284819Y-89642856D01*
X27284819Y-89642856D02*
X27237200Y-89738094D01*
X27237200Y-89738094D02*
X27189580Y-89785713D01*
X66957142Y-55824819D02*
X66623809Y-55348628D01*
X66385714Y-55824819D02*
X66385714Y-54824819D01*
X66385714Y-54824819D02*
X66766666Y-54824819D01*
X66766666Y-54824819D02*
X66861904Y-54872438D01*
X66861904Y-54872438D02*
X66909523Y-54920057D01*
X66909523Y-54920057D02*
X66957142Y-55015295D01*
X66957142Y-55015295D02*
X66957142Y-55158152D01*
X66957142Y-55158152D02*
X66909523Y-55253390D01*
X66909523Y-55253390D02*
X66861904Y-55301009D01*
X66861904Y-55301009D02*
X66766666Y-55348628D01*
X66766666Y-55348628D02*
X66385714Y-55348628D01*
X67909523Y-55824819D02*
X67338095Y-55824819D01*
X67623809Y-55824819D02*
X67623809Y-54824819D01*
X67623809Y-54824819D02*
X67528571Y-54967676D01*
X67528571Y-54967676D02*
X67433333Y-55062914D01*
X67433333Y-55062914D02*
X67338095Y-55110533D01*
X68814285Y-54824819D02*
X68338095Y-54824819D01*
X68338095Y-54824819D02*
X68290476Y-55301009D01*
X68290476Y-55301009D02*
X68338095Y-55253390D01*
X68338095Y-55253390D02*
X68433333Y-55205771D01*
X68433333Y-55205771D02*
X68671428Y-55205771D01*
X68671428Y-55205771D02*
X68766666Y-55253390D01*
X68766666Y-55253390D02*
X68814285Y-55301009D01*
X68814285Y-55301009D02*
X68861904Y-55396247D01*
X68861904Y-55396247D02*
X68861904Y-55634342D01*
X68861904Y-55634342D02*
X68814285Y-55729580D01*
X68814285Y-55729580D02*
X68766666Y-55777200D01*
X68766666Y-55777200D02*
X68671428Y-55824819D01*
X68671428Y-55824819D02*
X68433333Y-55824819D01*
X68433333Y-55824819D02*
X68338095Y-55777200D01*
X68338095Y-55777200D02*
X68290476Y-55729580D01*
X56857142Y-34784819D02*
X56523809Y-34308628D01*
X56285714Y-34784819D02*
X56285714Y-33784819D01*
X56285714Y-33784819D02*
X56666666Y-33784819D01*
X56666666Y-33784819D02*
X56761904Y-33832438D01*
X56761904Y-33832438D02*
X56809523Y-33880057D01*
X56809523Y-33880057D02*
X56857142Y-33975295D01*
X56857142Y-33975295D02*
X56857142Y-34118152D01*
X56857142Y-34118152D02*
X56809523Y-34213390D01*
X56809523Y-34213390D02*
X56761904Y-34261009D01*
X56761904Y-34261009D02*
X56666666Y-34308628D01*
X56666666Y-34308628D02*
X56285714Y-34308628D01*
X57809523Y-34784819D02*
X57238095Y-34784819D01*
X57523809Y-34784819D02*
X57523809Y-33784819D01*
X57523809Y-33784819D02*
X57428571Y-33927676D01*
X57428571Y-33927676D02*
X57333333Y-34022914D01*
X57333333Y-34022914D02*
X57238095Y-34070533D01*
X58380952Y-34213390D02*
X58285714Y-34165771D01*
X58285714Y-34165771D02*
X58238095Y-34118152D01*
X58238095Y-34118152D02*
X58190476Y-34022914D01*
X58190476Y-34022914D02*
X58190476Y-33975295D01*
X58190476Y-33975295D02*
X58238095Y-33880057D01*
X58238095Y-33880057D02*
X58285714Y-33832438D01*
X58285714Y-33832438D02*
X58380952Y-33784819D01*
X58380952Y-33784819D02*
X58571428Y-33784819D01*
X58571428Y-33784819D02*
X58666666Y-33832438D01*
X58666666Y-33832438D02*
X58714285Y-33880057D01*
X58714285Y-33880057D02*
X58761904Y-33975295D01*
X58761904Y-33975295D02*
X58761904Y-34022914D01*
X58761904Y-34022914D02*
X58714285Y-34118152D01*
X58714285Y-34118152D02*
X58666666Y-34165771D01*
X58666666Y-34165771D02*
X58571428Y-34213390D01*
X58571428Y-34213390D02*
X58380952Y-34213390D01*
X58380952Y-34213390D02*
X58285714Y-34261009D01*
X58285714Y-34261009D02*
X58238095Y-34308628D01*
X58238095Y-34308628D02*
X58190476Y-34403866D01*
X58190476Y-34403866D02*
X58190476Y-34594342D01*
X58190476Y-34594342D02*
X58238095Y-34689580D01*
X58238095Y-34689580D02*
X58285714Y-34737200D01*
X58285714Y-34737200D02*
X58380952Y-34784819D01*
X58380952Y-34784819D02*
X58571428Y-34784819D01*
X58571428Y-34784819D02*
X58666666Y-34737200D01*
X58666666Y-34737200D02*
X58714285Y-34689580D01*
X58714285Y-34689580D02*
X58761904Y-34594342D01*
X58761904Y-34594342D02*
X58761904Y-34403866D01*
X58761904Y-34403866D02*
X58714285Y-34308628D01*
X58714285Y-34308628D02*
X58666666Y-34261009D01*
X58666666Y-34261009D02*
X58571428Y-34213390D01*
X25333333Y-81679580D02*
X25285714Y-81727200D01*
X25285714Y-81727200D02*
X25142857Y-81774819D01*
X25142857Y-81774819D02*
X25047619Y-81774819D01*
X25047619Y-81774819D02*
X24904762Y-81727200D01*
X24904762Y-81727200D02*
X24809524Y-81631961D01*
X24809524Y-81631961D02*
X24761905Y-81536723D01*
X24761905Y-81536723D02*
X24714286Y-81346247D01*
X24714286Y-81346247D02*
X24714286Y-81203390D01*
X24714286Y-81203390D02*
X24761905Y-81012914D01*
X24761905Y-81012914D02*
X24809524Y-80917676D01*
X24809524Y-80917676D02*
X24904762Y-80822438D01*
X24904762Y-80822438D02*
X25047619Y-80774819D01*
X25047619Y-80774819D02*
X25142857Y-80774819D01*
X25142857Y-80774819D02*
X25285714Y-80822438D01*
X25285714Y-80822438D02*
X25333333Y-80870057D01*
X25714286Y-80870057D02*
X25761905Y-80822438D01*
X25761905Y-80822438D02*
X25857143Y-80774819D01*
X25857143Y-80774819D02*
X26095238Y-80774819D01*
X26095238Y-80774819D02*
X26190476Y-80822438D01*
X26190476Y-80822438D02*
X26238095Y-80870057D01*
X26238095Y-80870057D02*
X26285714Y-80965295D01*
X26285714Y-80965295D02*
X26285714Y-81060533D01*
X26285714Y-81060533D02*
X26238095Y-81203390D01*
X26238095Y-81203390D02*
X25666667Y-81774819D01*
X25666667Y-81774819D02*
X26285714Y-81774819D01*
X84307142Y-34679580D02*
X84259523Y-34727200D01*
X84259523Y-34727200D02*
X84116666Y-34774819D01*
X84116666Y-34774819D02*
X84021428Y-34774819D01*
X84021428Y-34774819D02*
X83878571Y-34727200D01*
X83878571Y-34727200D02*
X83783333Y-34631961D01*
X83783333Y-34631961D02*
X83735714Y-34536723D01*
X83735714Y-34536723D02*
X83688095Y-34346247D01*
X83688095Y-34346247D02*
X83688095Y-34203390D01*
X83688095Y-34203390D02*
X83735714Y-34012914D01*
X83735714Y-34012914D02*
X83783333Y-33917676D01*
X83783333Y-33917676D02*
X83878571Y-33822438D01*
X83878571Y-33822438D02*
X84021428Y-33774819D01*
X84021428Y-33774819D02*
X84116666Y-33774819D01*
X84116666Y-33774819D02*
X84259523Y-33822438D01*
X84259523Y-33822438D02*
X84307142Y-33870057D01*
X84640476Y-33774819D02*
X85259523Y-33774819D01*
X85259523Y-33774819D02*
X84926190Y-34155771D01*
X84926190Y-34155771D02*
X85069047Y-34155771D01*
X85069047Y-34155771D02*
X85164285Y-34203390D01*
X85164285Y-34203390D02*
X85211904Y-34251009D01*
X85211904Y-34251009D02*
X85259523Y-34346247D01*
X85259523Y-34346247D02*
X85259523Y-34584342D01*
X85259523Y-34584342D02*
X85211904Y-34679580D01*
X85211904Y-34679580D02*
X85164285Y-34727200D01*
X85164285Y-34727200D02*
X85069047Y-34774819D01*
X85069047Y-34774819D02*
X84783333Y-34774819D01*
X84783333Y-34774819D02*
X84688095Y-34727200D01*
X84688095Y-34727200D02*
X84640476Y-34679580D01*
X85735714Y-34774819D02*
X85926190Y-34774819D01*
X85926190Y-34774819D02*
X86021428Y-34727200D01*
X86021428Y-34727200D02*
X86069047Y-34679580D01*
X86069047Y-34679580D02*
X86164285Y-34536723D01*
X86164285Y-34536723D02*
X86211904Y-34346247D01*
X86211904Y-34346247D02*
X86211904Y-33965295D01*
X86211904Y-33965295D02*
X86164285Y-33870057D01*
X86164285Y-33870057D02*
X86116666Y-33822438D01*
X86116666Y-33822438D02*
X86021428Y-33774819D01*
X86021428Y-33774819D02*
X85830952Y-33774819D01*
X85830952Y-33774819D02*
X85735714Y-33822438D01*
X85735714Y-33822438D02*
X85688095Y-33870057D01*
X85688095Y-33870057D02*
X85640476Y-33965295D01*
X85640476Y-33965295D02*
X85640476Y-34203390D01*
X85640476Y-34203390D02*
X85688095Y-34298628D01*
X85688095Y-34298628D02*
X85735714Y-34346247D01*
X85735714Y-34346247D02*
X85830952Y-34393866D01*
X85830952Y-34393866D02*
X86021428Y-34393866D01*
X86021428Y-34393866D02*
X86116666Y-34346247D01*
X86116666Y-34346247D02*
X86164285Y-34298628D01*
X86164285Y-34298628D02*
X86211904Y-34203390D01*
X80546905Y-37654819D02*
X80546905Y-38464342D01*
X80546905Y-38464342D02*
X80594524Y-38559580D01*
X80594524Y-38559580D02*
X80642143Y-38607200D01*
X80642143Y-38607200D02*
X80737381Y-38654819D01*
X80737381Y-38654819D02*
X80927857Y-38654819D01*
X80927857Y-38654819D02*
X81023095Y-38607200D01*
X81023095Y-38607200D02*
X81070714Y-38559580D01*
X81070714Y-38559580D02*
X81118333Y-38464342D01*
X81118333Y-38464342D02*
X81118333Y-37654819D01*
X82118333Y-38654819D02*
X81546905Y-38654819D01*
X81832619Y-38654819D02*
X81832619Y-37654819D01*
X81832619Y-37654819D02*
X81737381Y-37797676D01*
X81737381Y-37797676D02*
X81642143Y-37892914D01*
X81642143Y-37892914D02*
X81546905Y-37940533D01*
X82737381Y-37654819D02*
X82832619Y-37654819D01*
X82832619Y-37654819D02*
X82927857Y-37702438D01*
X82927857Y-37702438D02*
X82975476Y-37750057D01*
X82975476Y-37750057D02*
X83023095Y-37845295D01*
X83023095Y-37845295D02*
X83070714Y-38035771D01*
X83070714Y-38035771D02*
X83070714Y-38273866D01*
X83070714Y-38273866D02*
X83023095Y-38464342D01*
X83023095Y-38464342D02*
X82975476Y-38559580D01*
X82975476Y-38559580D02*
X82927857Y-38607200D01*
X82927857Y-38607200D02*
X82832619Y-38654819D01*
X82832619Y-38654819D02*
X82737381Y-38654819D01*
X82737381Y-38654819D02*
X82642143Y-38607200D01*
X82642143Y-38607200D02*
X82594524Y-38559580D01*
X82594524Y-38559580D02*
X82546905Y-38464342D01*
X82546905Y-38464342D02*
X82499286Y-38273866D01*
X82499286Y-38273866D02*
X82499286Y-38035771D01*
X82499286Y-38035771D02*
X82546905Y-37845295D01*
X82546905Y-37845295D02*
X82594524Y-37750057D01*
X82594524Y-37750057D02*
X82642143Y-37702438D01*
X82642143Y-37702438D02*
X82737381Y-37654819D01*
X65433333Y-51324819D02*
X65100000Y-50848628D01*
X64861905Y-51324819D02*
X64861905Y-50324819D01*
X64861905Y-50324819D02*
X65242857Y-50324819D01*
X65242857Y-50324819D02*
X65338095Y-50372438D01*
X65338095Y-50372438D02*
X65385714Y-50420057D01*
X65385714Y-50420057D02*
X65433333Y-50515295D01*
X65433333Y-50515295D02*
X65433333Y-50658152D01*
X65433333Y-50658152D02*
X65385714Y-50753390D01*
X65385714Y-50753390D02*
X65338095Y-50801009D01*
X65338095Y-50801009D02*
X65242857Y-50848628D01*
X65242857Y-50848628D02*
X64861905Y-50848628D01*
X65909524Y-51324819D02*
X66100000Y-51324819D01*
X66100000Y-51324819D02*
X66195238Y-51277200D01*
X66195238Y-51277200D02*
X66242857Y-51229580D01*
X66242857Y-51229580D02*
X66338095Y-51086723D01*
X66338095Y-51086723D02*
X66385714Y-50896247D01*
X66385714Y-50896247D02*
X66385714Y-50515295D01*
X66385714Y-50515295D02*
X66338095Y-50420057D01*
X66338095Y-50420057D02*
X66290476Y-50372438D01*
X66290476Y-50372438D02*
X66195238Y-50324819D01*
X66195238Y-50324819D02*
X66004762Y-50324819D01*
X66004762Y-50324819D02*
X65909524Y-50372438D01*
X65909524Y-50372438D02*
X65861905Y-50420057D01*
X65861905Y-50420057D02*
X65814286Y-50515295D01*
X65814286Y-50515295D02*
X65814286Y-50753390D01*
X65814286Y-50753390D02*
X65861905Y-50848628D01*
X65861905Y-50848628D02*
X65909524Y-50896247D01*
X65909524Y-50896247D02*
X66004762Y-50943866D01*
X66004762Y-50943866D02*
X66195238Y-50943866D01*
X66195238Y-50943866D02*
X66290476Y-50896247D01*
X66290476Y-50896247D02*
X66338095Y-50848628D01*
X66338095Y-50848628D02*
X66385714Y-50753390D01*
X52857142Y-34454819D02*
X52523809Y-33978628D01*
X52285714Y-34454819D02*
X52285714Y-33454819D01*
X52285714Y-33454819D02*
X52666666Y-33454819D01*
X52666666Y-33454819D02*
X52761904Y-33502438D01*
X52761904Y-33502438D02*
X52809523Y-33550057D01*
X52809523Y-33550057D02*
X52857142Y-33645295D01*
X52857142Y-33645295D02*
X52857142Y-33788152D01*
X52857142Y-33788152D02*
X52809523Y-33883390D01*
X52809523Y-33883390D02*
X52761904Y-33931009D01*
X52761904Y-33931009D02*
X52666666Y-33978628D01*
X52666666Y-33978628D02*
X52285714Y-33978628D01*
X53809523Y-34454819D02*
X53238095Y-34454819D01*
X53523809Y-34454819D02*
X53523809Y-33454819D01*
X53523809Y-33454819D02*
X53428571Y-33597676D01*
X53428571Y-33597676D02*
X53333333Y-33692914D01*
X53333333Y-33692914D02*
X53238095Y-33740533D01*
X54666666Y-33454819D02*
X54476190Y-33454819D01*
X54476190Y-33454819D02*
X54380952Y-33502438D01*
X54380952Y-33502438D02*
X54333333Y-33550057D01*
X54333333Y-33550057D02*
X54238095Y-33692914D01*
X54238095Y-33692914D02*
X54190476Y-33883390D01*
X54190476Y-33883390D02*
X54190476Y-34264342D01*
X54190476Y-34264342D02*
X54238095Y-34359580D01*
X54238095Y-34359580D02*
X54285714Y-34407200D01*
X54285714Y-34407200D02*
X54380952Y-34454819D01*
X54380952Y-34454819D02*
X54571428Y-34454819D01*
X54571428Y-34454819D02*
X54666666Y-34407200D01*
X54666666Y-34407200D02*
X54714285Y-34359580D01*
X54714285Y-34359580D02*
X54761904Y-34264342D01*
X54761904Y-34264342D02*
X54761904Y-34026247D01*
X54761904Y-34026247D02*
X54714285Y-33931009D01*
X54714285Y-33931009D02*
X54666666Y-33883390D01*
X54666666Y-33883390D02*
X54571428Y-33835771D01*
X54571428Y-33835771D02*
X54380952Y-33835771D01*
X54380952Y-33835771D02*
X54285714Y-33883390D01*
X54285714Y-33883390D02*
X54238095Y-33931009D01*
X54238095Y-33931009D02*
X54190476Y-34026247D01*
X48057142Y-88184580D02*
X48009523Y-88232200D01*
X48009523Y-88232200D02*
X47866666Y-88279819D01*
X47866666Y-88279819D02*
X47771428Y-88279819D01*
X47771428Y-88279819D02*
X47628571Y-88232200D01*
X47628571Y-88232200D02*
X47533333Y-88136961D01*
X47533333Y-88136961D02*
X47485714Y-88041723D01*
X47485714Y-88041723D02*
X47438095Y-87851247D01*
X47438095Y-87851247D02*
X47438095Y-87708390D01*
X47438095Y-87708390D02*
X47485714Y-87517914D01*
X47485714Y-87517914D02*
X47533333Y-87422676D01*
X47533333Y-87422676D02*
X47628571Y-87327438D01*
X47628571Y-87327438D02*
X47771428Y-87279819D01*
X47771428Y-87279819D02*
X47866666Y-87279819D01*
X47866666Y-87279819D02*
X48009523Y-87327438D01*
X48009523Y-87327438D02*
X48057142Y-87375057D01*
X48438095Y-87375057D02*
X48485714Y-87327438D01*
X48485714Y-87327438D02*
X48580952Y-87279819D01*
X48580952Y-87279819D02*
X48819047Y-87279819D01*
X48819047Y-87279819D02*
X48914285Y-87327438D01*
X48914285Y-87327438D02*
X48961904Y-87375057D01*
X48961904Y-87375057D02*
X49009523Y-87470295D01*
X49009523Y-87470295D02*
X49009523Y-87565533D01*
X49009523Y-87565533D02*
X48961904Y-87708390D01*
X48961904Y-87708390D02*
X48390476Y-88279819D01*
X48390476Y-88279819D02*
X49009523Y-88279819D01*
X49628571Y-87279819D02*
X49723809Y-87279819D01*
X49723809Y-87279819D02*
X49819047Y-87327438D01*
X49819047Y-87327438D02*
X49866666Y-87375057D01*
X49866666Y-87375057D02*
X49914285Y-87470295D01*
X49914285Y-87470295D02*
X49961904Y-87660771D01*
X49961904Y-87660771D02*
X49961904Y-87898866D01*
X49961904Y-87898866D02*
X49914285Y-88089342D01*
X49914285Y-88089342D02*
X49866666Y-88184580D01*
X49866666Y-88184580D02*
X49819047Y-88232200D01*
X49819047Y-88232200D02*
X49723809Y-88279819D01*
X49723809Y-88279819D02*
X49628571Y-88279819D01*
X49628571Y-88279819D02*
X49533333Y-88232200D01*
X49533333Y-88232200D02*
X49485714Y-88184580D01*
X49485714Y-88184580D02*
X49438095Y-88089342D01*
X49438095Y-88089342D02*
X49390476Y-87898866D01*
X49390476Y-87898866D02*
X49390476Y-87660771D01*
X49390476Y-87660771D02*
X49438095Y-87470295D01*
X49438095Y-87470295D02*
X49485714Y-87375057D01*
X49485714Y-87375057D02*
X49533333Y-87327438D01*
X49533333Y-87327438D02*
X49628571Y-87279819D01*
X48414819Y-21833333D02*
X49129104Y-21833333D01*
X49129104Y-21833333D02*
X49271961Y-21880952D01*
X49271961Y-21880952D02*
X49367200Y-21976190D01*
X49367200Y-21976190D02*
X49414819Y-22119047D01*
X49414819Y-22119047D02*
X49414819Y-22214285D01*
X48748152Y-20928571D02*
X49414819Y-20928571D01*
X48367200Y-21166666D02*
X49081485Y-21404761D01*
X49081485Y-21404761D02*
X49081485Y-20785714D01*
X48758095Y-74154819D02*
X48758095Y-74964342D01*
X48758095Y-74964342D02*
X48805714Y-75059580D01*
X48805714Y-75059580D02*
X48853333Y-75107200D01*
X48853333Y-75107200D02*
X48948571Y-75154819D01*
X48948571Y-75154819D02*
X49139047Y-75154819D01*
X49139047Y-75154819D02*
X49234285Y-75107200D01*
X49234285Y-75107200D02*
X49281904Y-75059580D01*
X49281904Y-75059580D02*
X49329523Y-74964342D01*
X49329523Y-74964342D02*
X49329523Y-74154819D01*
X50234285Y-74488152D02*
X50234285Y-75154819D01*
X49996190Y-74107200D02*
X49758095Y-74821485D01*
X49758095Y-74821485D02*
X50377142Y-74821485D01*
X47859580Y-40092857D02*
X47907200Y-40140476D01*
X47907200Y-40140476D02*
X47954819Y-40283333D01*
X47954819Y-40283333D02*
X47954819Y-40378571D01*
X47954819Y-40378571D02*
X47907200Y-40521428D01*
X47907200Y-40521428D02*
X47811961Y-40616666D01*
X47811961Y-40616666D02*
X47716723Y-40664285D01*
X47716723Y-40664285D02*
X47526247Y-40711904D01*
X47526247Y-40711904D02*
X47383390Y-40711904D01*
X47383390Y-40711904D02*
X47192914Y-40664285D01*
X47192914Y-40664285D02*
X47097676Y-40616666D01*
X47097676Y-40616666D02*
X47002438Y-40521428D01*
X47002438Y-40521428D02*
X46954819Y-40378571D01*
X46954819Y-40378571D02*
X46954819Y-40283333D01*
X46954819Y-40283333D02*
X47002438Y-40140476D01*
X47002438Y-40140476D02*
X47050057Y-40092857D01*
X47954819Y-39140476D02*
X47954819Y-39711904D01*
X47954819Y-39426190D02*
X46954819Y-39426190D01*
X46954819Y-39426190D02*
X47097676Y-39521428D01*
X47097676Y-39521428D02*
X47192914Y-39616666D01*
X47192914Y-39616666D02*
X47240533Y-39711904D01*
X46954819Y-38807142D02*
X46954819Y-38188095D01*
X46954819Y-38188095D02*
X47335771Y-38521428D01*
X47335771Y-38521428D02*
X47335771Y-38378571D01*
X47335771Y-38378571D02*
X47383390Y-38283333D01*
X47383390Y-38283333D02*
X47431009Y-38235714D01*
X47431009Y-38235714D02*
X47526247Y-38188095D01*
X47526247Y-38188095D02*
X47764342Y-38188095D01*
X47764342Y-38188095D02*
X47859580Y-38235714D01*
X47859580Y-38235714D02*
X47907200Y-38283333D01*
X47907200Y-38283333D02*
X47954819Y-38378571D01*
X47954819Y-38378571D02*
X47954819Y-38664285D01*
X47954819Y-38664285D02*
X47907200Y-38759523D01*
X47907200Y-38759523D02*
X47859580Y-38807142D01*
X83843333Y-87854819D02*
X83510000Y-87378628D01*
X83271905Y-87854819D02*
X83271905Y-86854819D01*
X83271905Y-86854819D02*
X83652857Y-86854819D01*
X83652857Y-86854819D02*
X83748095Y-86902438D01*
X83748095Y-86902438D02*
X83795714Y-86950057D01*
X83795714Y-86950057D02*
X83843333Y-87045295D01*
X83843333Y-87045295D02*
X83843333Y-87188152D01*
X83843333Y-87188152D02*
X83795714Y-87283390D01*
X83795714Y-87283390D02*
X83748095Y-87331009D01*
X83748095Y-87331009D02*
X83652857Y-87378628D01*
X83652857Y-87378628D02*
X83271905Y-87378628D01*
X84176667Y-86854819D02*
X84843333Y-86854819D01*
X84843333Y-86854819D02*
X84414762Y-87854819D01*
X29188095Y-38554819D02*
X29188095Y-39364342D01*
X29188095Y-39364342D02*
X29235714Y-39459580D01*
X29235714Y-39459580D02*
X29283333Y-39507200D01*
X29283333Y-39507200D02*
X29378571Y-39554819D01*
X29378571Y-39554819D02*
X29569047Y-39554819D01*
X29569047Y-39554819D02*
X29664285Y-39507200D01*
X29664285Y-39507200D02*
X29711904Y-39459580D01*
X29711904Y-39459580D02*
X29759523Y-39364342D01*
X29759523Y-39364342D02*
X29759523Y-38554819D01*
X30188095Y-38650057D02*
X30235714Y-38602438D01*
X30235714Y-38602438D02*
X30330952Y-38554819D01*
X30330952Y-38554819D02*
X30569047Y-38554819D01*
X30569047Y-38554819D02*
X30664285Y-38602438D01*
X30664285Y-38602438D02*
X30711904Y-38650057D01*
X30711904Y-38650057D02*
X30759523Y-38745295D01*
X30759523Y-38745295D02*
X30759523Y-38840533D01*
X30759523Y-38840533D02*
X30711904Y-38983390D01*
X30711904Y-38983390D02*
X30140476Y-39554819D01*
X30140476Y-39554819D02*
X30759523Y-39554819D01*
X31392080Y-50642857D02*
X31439700Y-50690476D01*
X31439700Y-50690476D02*
X31487319Y-50833333D01*
X31487319Y-50833333D02*
X31487319Y-50928571D01*
X31487319Y-50928571D02*
X31439700Y-51071428D01*
X31439700Y-51071428D02*
X31344461Y-51166666D01*
X31344461Y-51166666D02*
X31249223Y-51214285D01*
X31249223Y-51214285D02*
X31058747Y-51261904D01*
X31058747Y-51261904D02*
X30915890Y-51261904D01*
X30915890Y-51261904D02*
X30725414Y-51214285D01*
X30725414Y-51214285D02*
X30630176Y-51166666D01*
X30630176Y-51166666D02*
X30534938Y-51071428D01*
X30534938Y-51071428D02*
X30487319Y-50928571D01*
X30487319Y-50928571D02*
X30487319Y-50833333D01*
X30487319Y-50833333D02*
X30534938Y-50690476D01*
X30534938Y-50690476D02*
X30582557Y-50642857D01*
X30487319Y-50309523D02*
X30487319Y-49690476D01*
X30487319Y-49690476D02*
X30868271Y-50023809D01*
X30868271Y-50023809D02*
X30868271Y-49880952D01*
X30868271Y-49880952D02*
X30915890Y-49785714D01*
X30915890Y-49785714D02*
X30963509Y-49738095D01*
X30963509Y-49738095D02*
X31058747Y-49690476D01*
X31058747Y-49690476D02*
X31296842Y-49690476D01*
X31296842Y-49690476D02*
X31392080Y-49738095D01*
X31392080Y-49738095D02*
X31439700Y-49785714D01*
X31439700Y-49785714D02*
X31487319Y-49880952D01*
X31487319Y-49880952D02*
X31487319Y-50166666D01*
X31487319Y-50166666D02*
X31439700Y-50261904D01*
X31439700Y-50261904D02*
X31392080Y-50309523D01*
X31487319Y-48738095D02*
X31487319Y-49309523D01*
X31487319Y-49023809D02*
X30487319Y-49023809D01*
X30487319Y-49023809D02*
X30630176Y-49119047D01*
X30630176Y-49119047D02*
X30725414Y-49214285D01*
X30725414Y-49214285D02*
X30773033Y-49309523D01*
X90054819Y-80261904D02*
X90864342Y-80261904D01*
X90864342Y-80261904D02*
X90959580Y-80214285D01*
X90959580Y-80214285D02*
X91007200Y-80166666D01*
X91007200Y-80166666D02*
X91054819Y-80071428D01*
X91054819Y-80071428D02*
X91054819Y-79880952D01*
X91054819Y-79880952D02*
X91007200Y-79785714D01*
X91007200Y-79785714D02*
X90959580Y-79738095D01*
X90959580Y-79738095D02*
X90864342Y-79690476D01*
X90864342Y-79690476D02*
X90054819Y-79690476D01*
X90483390Y-79071428D02*
X90435771Y-79166666D01*
X90435771Y-79166666D02*
X90388152Y-79214285D01*
X90388152Y-79214285D02*
X90292914Y-79261904D01*
X90292914Y-79261904D02*
X90245295Y-79261904D01*
X90245295Y-79261904D02*
X90150057Y-79214285D01*
X90150057Y-79214285D02*
X90102438Y-79166666D01*
X90102438Y-79166666D02*
X90054819Y-79071428D01*
X90054819Y-79071428D02*
X90054819Y-78880952D01*
X90054819Y-78880952D02*
X90102438Y-78785714D01*
X90102438Y-78785714D02*
X90150057Y-78738095D01*
X90150057Y-78738095D02*
X90245295Y-78690476D01*
X90245295Y-78690476D02*
X90292914Y-78690476D01*
X90292914Y-78690476D02*
X90388152Y-78738095D01*
X90388152Y-78738095D02*
X90435771Y-78785714D01*
X90435771Y-78785714D02*
X90483390Y-78880952D01*
X90483390Y-78880952D02*
X90483390Y-79071428D01*
X90483390Y-79071428D02*
X90531009Y-79166666D01*
X90531009Y-79166666D02*
X90578628Y-79214285D01*
X90578628Y-79214285D02*
X90673866Y-79261904D01*
X90673866Y-79261904D02*
X90864342Y-79261904D01*
X90864342Y-79261904D02*
X90959580Y-79214285D01*
X90959580Y-79214285D02*
X91007200Y-79166666D01*
X91007200Y-79166666D02*
X91054819Y-79071428D01*
X91054819Y-79071428D02*
X91054819Y-78880952D01*
X91054819Y-78880952D02*
X91007200Y-78785714D01*
X91007200Y-78785714D02*
X90959580Y-78738095D01*
X90959580Y-78738095D02*
X90864342Y-78690476D01*
X90864342Y-78690476D02*
X90673866Y-78690476D01*
X90673866Y-78690476D02*
X90578628Y-78738095D01*
X90578628Y-78738095D02*
X90531009Y-78785714D01*
X90531009Y-78785714D02*
X90483390Y-78880952D01*
X83184819Y-26866666D02*
X82708628Y-27199999D01*
X83184819Y-27438094D02*
X82184819Y-27438094D01*
X82184819Y-27438094D02*
X82184819Y-27057142D01*
X82184819Y-27057142D02*
X82232438Y-26961904D01*
X82232438Y-26961904D02*
X82280057Y-26914285D01*
X82280057Y-26914285D02*
X82375295Y-26866666D01*
X82375295Y-26866666D02*
X82518152Y-26866666D01*
X82518152Y-26866666D02*
X82613390Y-26914285D01*
X82613390Y-26914285D02*
X82661009Y-26961904D01*
X82661009Y-26961904D02*
X82708628Y-27057142D01*
X82708628Y-27057142D02*
X82708628Y-27438094D01*
X82280057Y-26485713D02*
X82232438Y-26438094D01*
X82232438Y-26438094D02*
X82184819Y-26342856D01*
X82184819Y-26342856D02*
X82184819Y-26104761D01*
X82184819Y-26104761D02*
X82232438Y-26009523D01*
X82232438Y-26009523D02*
X82280057Y-25961904D01*
X82280057Y-25961904D02*
X82375295Y-25914285D01*
X82375295Y-25914285D02*
X82470533Y-25914285D01*
X82470533Y-25914285D02*
X82613390Y-25961904D01*
X82613390Y-25961904D02*
X83184819Y-26533332D01*
X83184819Y-26533332D02*
X83184819Y-25914285D01*
X49994819Y-21833333D02*
X50709104Y-21833333D01*
X50709104Y-21833333D02*
X50851961Y-21880952D01*
X50851961Y-21880952D02*
X50947200Y-21976190D01*
X50947200Y-21976190D02*
X50994819Y-22119047D01*
X50994819Y-22119047D02*
X50994819Y-22214285D01*
X49994819Y-21452380D02*
X49994819Y-20833333D01*
X49994819Y-20833333D02*
X50375771Y-21166666D01*
X50375771Y-21166666D02*
X50375771Y-21023809D01*
X50375771Y-21023809D02*
X50423390Y-20928571D01*
X50423390Y-20928571D02*
X50471009Y-20880952D01*
X50471009Y-20880952D02*
X50566247Y-20833333D01*
X50566247Y-20833333D02*
X50804342Y-20833333D01*
X50804342Y-20833333D02*
X50899580Y-20880952D01*
X50899580Y-20880952D02*
X50947200Y-20928571D01*
X50947200Y-20928571D02*
X50994819Y-21023809D01*
X50994819Y-21023809D02*
X50994819Y-21309523D01*
X50994819Y-21309523D02*
X50947200Y-21404761D01*
X50947200Y-21404761D02*
X50899580Y-21452380D01*
X79847142Y-93784819D02*
X79513809Y-93308628D01*
X79275714Y-93784819D02*
X79275714Y-92784819D01*
X79275714Y-92784819D02*
X79656666Y-92784819D01*
X79656666Y-92784819D02*
X79751904Y-92832438D01*
X79751904Y-92832438D02*
X79799523Y-92880057D01*
X79799523Y-92880057D02*
X79847142Y-92975295D01*
X79847142Y-92975295D02*
X79847142Y-93118152D01*
X79847142Y-93118152D02*
X79799523Y-93213390D01*
X79799523Y-93213390D02*
X79751904Y-93261009D01*
X79751904Y-93261009D02*
X79656666Y-93308628D01*
X79656666Y-93308628D02*
X79275714Y-93308628D01*
X80228095Y-92880057D02*
X80275714Y-92832438D01*
X80275714Y-92832438D02*
X80370952Y-92784819D01*
X80370952Y-92784819D02*
X80609047Y-92784819D01*
X80609047Y-92784819D02*
X80704285Y-92832438D01*
X80704285Y-92832438D02*
X80751904Y-92880057D01*
X80751904Y-92880057D02*
X80799523Y-92975295D01*
X80799523Y-92975295D02*
X80799523Y-93070533D01*
X80799523Y-93070533D02*
X80751904Y-93213390D01*
X80751904Y-93213390D02*
X80180476Y-93784819D01*
X80180476Y-93784819D02*
X80799523Y-93784819D01*
X81656666Y-93118152D02*
X81656666Y-93784819D01*
X81418571Y-92737200D02*
X81180476Y-93451485D01*
X81180476Y-93451485D02*
X81799523Y-93451485D01*
X58607142Y-94579580D02*
X58559523Y-94627200D01*
X58559523Y-94627200D02*
X58416666Y-94674819D01*
X58416666Y-94674819D02*
X58321428Y-94674819D01*
X58321428Y-94674819D02*
X58178571Y-94627200D01*
X58178571Y-94627200D02*
X58083333Y-94531961D01*
X58083333Y-94531961D02*
X58035714Y-94436723D01*
X58035714Y-94436723D02*
X57988095Y-94246247D01*
X57988095Y-94246247D02*
X57988095Y-94103390D01*
X57988095Y-94103390D02*
X58035714Y-93912914D01*
X58035714Y-93912914D02*
X58083333Y-93817676D01*
X58083333Y-93817676D02*
X58178571Y-93722438D01*
X58178571Y-93722438D02*
X58321428Y-93674819D01*
X58321428Y-93674819D02*
X58416666Y-93674819D01*
X58416666Y-93674819D02*
X58559523Y-93722438D01*
X58559523Y-93722438D02*
X58607142Y-93770057D01*
X58940476Y-93674819D02*
X59559523Y-93674819D01*
X59559523Y-93674819D02*
X59226190Y-94055771D01*
X59226190Y-94055771D02*
X59369047Y-94055771D01*
X59369047Y-94055771D02*
X59464285Y-94103390D01*
X59464285Y-94103390D02*
X59511904Y-94151009D01*
X59511904Y-94151009D02*
X59559523Y-94246247D01*
X59559523Y-94246247D02*
X59559523Y-94484342D01*
X59559523Y-94484342D02*
X59511904Y-94579580D01*
X59511904Y-94579580D02*
X59464285Y-94627200D01*
X59464285Y-94627200D02*
X59369047Y-94674819D01*
X59369047Y-94674819D02*
X59083333Y-94674819D01*
X59083333Y-94674819D02*
X58988095Y-94627200D01*
X58988095Y-94627200D02*
X58940476Y-94579580D01*
X59892857Y-93674819D02*
X60511904Y-93674819D01*
X60511904Y-93674819D02*
X60178571Y-94055771D01*
X60178571Y-94055771D02*
X60321428Y-94055771D01*
X60321428Y-94055771D02*
X60416666Y-94103390D01*
X60416666Y-94103390D02*
X60464285Y-94151009D01*
X60464285Y-94151009D02*
X60511904Y-94246247D01*
X60511904Y-94246247D02*
X60511904Y-94484342D01*
X60511904Y-94484342D02*
X60464285Y-94579580D01*
X60464285Y-94579580D02*
X60416666Y-94627200D01*
X60416666Y-94627200D02*
X60321428Y-94674819D01*
X60321428Y-94674819D02*
X60035714Y-94674819D01*
X60035714Y-94674819D02*
X59940476Y-94627200D01*
X59940476Y-94627200D02*
X59892857Y-94579580D01*
X56837142Y-65519580D02*
X56789523Y-65567200D01*
X56789523Y-65567200D02*
X56646666Y-65614819D01*
X56646666Y-65614819D02*
X56551428Y-65614819D01*
X56551428Y-65614819D02*
X56408571Y-65567200D01*
X56408571Y-65567200D02*
X56313333Y-65471961D01*
X56313333Y-65471961D02*
X56265714Y-65376723D01*
X56265714Y-65376723D02*
X56218095Y-65186247D01*
X56218095Y-65186247D02*
X56218095Y-65043390D01*
X56218095Y-65043390D02*
X56265714Y-64852914D01*
X56265714Y-64852914D02*
X56313333Y-64757676D01*
X56313333Y-64757676D02*
X56408571Y-64662438D01*
X56408571Y-64662438D02*
X56551428Y-64614819D01*
X56551428Y-64614819D02*
X56646666Y-64614819D01*
X56646666Y-64614819D02*
X56789523Y-64662438D01*
X56789523Y-64662438D02*
X56837142Y-64710057D01*
X57694285Y-64948152D02*
X57694285Y-65614819D01*
X57456190Y-64567200D02*
X57218095Y-65281485D01*
X57218095Y-65281485D02*
X57837142Y-65281485D01*
X58122857Y-64614819D02*
X58789523Y-64614819D01*
X58789523Y-64614819D02*
X58360952Y-65614819D01*
X47679580Y-93642857D02*
X47727200Y-93690476D01*
X47727200Y-93690476D02*
X47774819Y-93833333D01*
X47774819Y-93833333D02*
X47774819Y-93928571D01*
X47774819Y-93928571D02*
X47727200Y-94071428D01*
X47727200Y-94071428D02*
X47631961Y-94166666D01*
X47631961Y-94166666D02*
X47536723Y-94214285D01*
X47536723Y-94214285D02*
X47346247Y-94261904D01*
X47346247Y-94261904D02*
X47203390Y-94261904D01*
X47203390Y-94261904D02*
X47012914Y-94214285D01*
X47012914Y-94214285D02*
X46917676Y-94166666D01*
X46917676Y-94166666D02*
X46822438Y-94071428D01*
X46822438Y-94071428D02*
X46774819Y-93928571D01*
X46774819Y-93928571D02*
X46774819Y-93833333D01*
X46774819Y-93833333D02*
X46822438Y-93690476D01*
X46822438Y-93690476D02*
X46870057Y-93642857D01*
X46774819Y-92738095D02*
X46774819Y-93214285D01*
X46774819Y-93214285D02*
X47251009Y-93261904D01*
X47251009Y-93261904D02*
X47203390Y-93214285D01*
X47203390Y-93214285D02*
X47155771Y-93119047D01*
X47155771Y-93119047D02*
X47155771Y-92880952D01*
X47155771Y-92880952D02*
X47203390Y-92785714D01*
X47203390Y-92785714D02*
X47251009Y-92738095D01*
X47251009Y-92738095D02*
X47346247Y-92690476D01*
X47346247Y-92690476D02*
X47584342Y-92690476D01*
X47584342Y-92690476D02*
X47679580Y-92738095D01*
X47679580Y-92738095D02*
X47727200Y-92785714D01*
X47727200Y-92785714D02*
X47774819Y-92880952D01*
X47774819Y-92880952D02*
X47774819Y-93119047D01*
X47774819Y-93119047D02*
X47727200Y-93214285D01*
X47727200Y-93214285D02*
X47679580Y-93261904D01*
X46774819Y-91833333D02*
X46774819Y-92023809D01*
X46774819Y-92023809D02*
X46822438Y-92119047D01*
X46822438Y-92119047D02*
X46870057Y-92166666D01*
X46870057Y-92166666D02*
X47012914Y-92261904D01*
X47012914Y-92261904D02*
X47203390Y-92309523D01*
X47203390Y-92309523D02*
X47584342Y-92309523D01*
X47584342Y-92309523D02*
X47679580Y-92261904D01*
X47679580Y-92261904D02*
X47727200Y-92214285D01*
X47727200Y-92214285D02*
X47774819Y-92119047D01*
X47774819Y-92119047D02*
X47774819Y-91928571D01*
X47774819Y-91928571D02*
X47727200Y-91833333D01*
X47727200Y-91833333D02*
X47679580Y-91785714D01*
X47679580Y-91785714D02*
X47584342Y-91738095D01*
X47584342Y-91738095D02*
X47346247Y-91738095D01*
X47346247Y-91738095D02*
X47251009Y-91785714D01*
X47251009Y-91785714D02*
X47203390Y-91833333D01*
X47203390Y-91833333D02*
X47155771Y-91928571D01*
X47155771Y-91928571D02*
X47155771Y-92119047D01*
X47155771Y-92119047D02*
X47203390Y-92214285D01*
X47203390Y-92214285D02*
X47251009Y-92261904D01*
X47251009Y-92261904D02*
X47346247Y-92309523D01*
X37777142Y-84909580D02*
X37729523Y-84957200D01*
X37729523Y-84957200D02*
X37586666Y-85004819D01*
X37586666Y-85004819D02*
X37491428Y-85004819D01*
X37491428Y-85004819D02*
X37348571Y-84957200D01*
X37348571Y-84957200D02*
X37253333Y-84861961D01*
X37253333Y-84861961D02*
X37205714Y-84766723D01*
X37205714Y-84766723D02*
X37158095Y-84576247D01*
X37158095Y-84576247D02*
X37158095Y-84433390D01*
X37158095Y-84433390D02*
X37205714Y-84242914D01*
X37205714Y-84242914D02*
X37253333Y-84147676D01*
X37253333Y-84147676D02*
X37348571Y-84052438D01*
X37348571Y-84052438D02*
X37491428Y-84004819D01*
X37491428Y-84004819D02*
X37586666Y-84004819D01*
X37586666Y-84004819D02*
X37729523Y-84052438D01*
X37729523Y-84052438D02*
X37777142Y-84100057D01*
X38729523Y-85004819D02*
X38158095Y-85004819D01*
X38443809Y-85004819D02*
X38443809Y-84004819D01*
X38443809Y-84004819D02*
X38348571Y-84147676D01*
X38348571Y-84147676D02*
X38253333Y-84242914D01*
X38253333Y-84242914D02*
X38158095Y-84290533D01*
X39062857Y-84004819D02*
X39729523Y-84004819D01*
X39729523Y-84004819D02*
X39300952Y-85004819D01*
X24666666Y-99304819D02*
X24333333Y-98828628D01*
X24095238Y-99304819D02*
X24095238Y-98304819D01*
X24095238Y-98304819D02*
X24476190Y-98304819D01*
X24476190Y-98304819D02*
X24571428Y-98352438D01*
X24571428Y-98352438D02*
X24619047Y-98400057D01*
X24619047Y-98400057D02*
X24666666Y-98495295D01*
X24666666Y-98495295D02*
X24666666Y-98638152D01*
X24666666Y-98638152D02*
X24619047Y-98733390D01*
X24619047Y-98733390D02*
X24571428Y-98781009D01*
X24571428Y-98781009D02*
X24476190Y-98828628D01*
X24476190Y-98828628D02*
X24095238Y-98828628D01*
X25095238Y-98781009D02*
X25428571Y-98781009D01*
X25571428Y-99304819D02*
X25095238Y-99304819D01*
X25095238Y-99304819D02*
X25095238Y-98304819D01*
X25095238Y-98304819D02*
X25571428Y-98304819D01*
X26333333Y-98781009D02*
X26000000Y-98781009D01*
X26000000Y-99304819D02*
X26000000Y-98304819D01*
X26000000Y-98304819D02*
X26476190Y-98304819D01*
X27000000Y-98304819D02*
X27000000Y-98542914D01*
X26761905Y-98447676D02*
X27000000Y-98542914D01*
X27000000Y-98542914D02*
X27238095Y-98447676D01*
X26857143Y-98733390D02*
X27000000Y-98542914D01*
X27000000Y-98542914D02*
X27142857Y-98733390D01*
X27761905Y-98304819D02*
X27761905Y-98542914D01*
X27523810Y-98447676D02*
X27761905Y-98542914D01*
X27761905Y-98542914D02*
X28000000Y-98447676D01*
X27619048Y-98733390D02*
X27761905Y-98542914D01*
X27761905Y-98542914D02*
X27904762Y-98733390D01*
X38607142Y-71459580D02*
X38559523Y-71507200D01*
X38559523Y-71507200D02*
X38416666Y-71554819D01*
X38416666Y-71554819D02*
X38321428Y-71554819D01*
X38321428Y-71554819D02*
X38178571Y-71507200D01*
X38178571Y-71507200D02*
X38083333Y-71411961D01*
X38083333Y-71411961D02*
X38035714Y-71316723D01*
X38035714Y-71316723D02*
X37988095Y-71126247D01*
X37988095Y-71126247D02*
X37988095Y-70983390D01*
X37988095Y-70983390D02*
X38035714Y-70792914D01*
X38035714Y-70792914D02*
X38083333Y-70697676D01*
X38083333Y-70697676D02*
X38178571Y-70602438D01*
X38178571Y-70602438D02*
X38321428Y-70554819D01*
X38321428Y-70554819D02*
X38416666Y-70554819D01*
X38416666Y-70554819D02*
X38559523Y-70602438D01*
X38559523Y-70602438D02*
X38607142Y-70650057D01*
X39559523Y-71554819D02*
X38988095Y-71554819D01*
X39273809Y-71554819D02*
X39273809Y-70554819D01*
X39273809Y-70554819D02*
X39178571Y-70697676D01*
X39178571Y-70697676D02*
X39083333Y-70792914D01*
X39083333Y-70792914D02*
X38988095Y-70840533D01*
X40130952Y-70983390D02*
X40035714Y-70935771D01*
X40035714Y-70935771D02*
X39988095Y-70888152D01*
X39988095Y-70888152D02*
X39940476Y-70792914D01*
X39940476Y-70792914D02*
X39940476Y-70745295D01*
X39940476Y-70745295D02*
X39988095Y-70650057D01*
X39988095Y-70650057D02*
X40035714Y-70602438D01*
X40035714Y-70602438D02*
X40130952Y-70554819D01*
X40130952Y-70554819D02*
X40321428Y-70554819D01*
X40321428Y-70554819D02*
X40416666Y-70602438D01*
X40416666Y-70602438D02*
X40464285Y-70650057D01*
X40464285Y-70650057D02*
X40511904Y-70745295D01*
X40511904Y-70745295D02*
X40511904Y-70792914D01*
X40511904Y-70792914D02*
X40464285Y-70888152D01*
X40464285Y-70888152D02*
X40416666Y-70935771D01*
X40416666Y-70935771D02*
X40321428Y-70983390D01*
X40321428Y-70983390D02*
X40130952Y-70983390D01*
X40130952Y-70983390D02*
X40035714Y-71031009D01*
X40035714Y-71031009D02*
X39988095Y-71078628D01*
X39988095Y-71078628D02*
X39940476Y-71173866D01*
X39940476Y-71173866D02*
X39940476Y-71364342D01*
X39940476Y-71364342D02*
X39988095Y-71459580D01*
X39988095Y-71459580D02*
X40035714Y-71507200D01*
X40035714Y-71507200D02*
X40130952Y-71554819D01*
X40130952Y-71554819D02*
X40321428Y-71554819D01*
X40321428Y-71554819D02*
X40416666Y-71507200D01*
X40416666Y-71507200D02*
X40464285Y-71459580D01*
X40464285Y-71459580D02*
X40511904Y-71364342D01*
X40511904Y-71364342D02*
X40511904Y-71173866D01*
X40511904Y-71173866D02*
X40464285Y-71078628D01*
X40464285Y-71078628D02*
X40416666Y-71031009D01*
X40416666Y-71031009D02*
X40321428Y-70983390D01*
X89377142Y-71284819D02*
X89043809Y-70808628D01*
X88805714Y-71284819D02*
X88805714Y-70284819D01*
X88805714Y-70284819D02*
X89186666Y-70284819D01*
X89186666Y-70284819D02*
X89281904Y-70332438D01*
X89281904Y-70332438D02*
X89329523Y-70380057D01*
X89329523Y-70380057D02*
X89377142Y-70475295D01*
X89377142Y-70475295D02*
X89377142Y-70618152D01*
X89377142Y-70618152D02*
X89329523Y-70713390D01*
X89329523Y-70713390D02*
X89281904Y-70761009D01*
X89281904Y-70761009D02*
X89186666Y-70808628D01*
X89186666Y-70808628D02*
X88805714Y-70808628D01*
X90329523Y-71284819D02*
X89758095Y-71284819D01*
X90043809Y-71284819D02*
X90043809Y-70284819D01*
X90043809Y-70284819D02*
X89948571Y-70427676D01*
X89948571Y-70427676D02*
X89853333Y-70522914D01*
X89853333Y-70522914D02*
X89758095Y-70570533D01*
X90805714Y-71284819D02*
X90996190Y-71284819D01*
X90996190Y-71284819D02*
X91091428Y-71237200D01*
X91091428Y-71237200D02*
X91139047Y-71189580D01*
X91139047Y-71189580D02*
X91234285Y-71046723D01*
X91234285Y-71046723D02*
X91281904Y-70856247D01*
X91281904Y-70856247D02*
X91281904Y-70475295D01*
X91281904Y-70475295D02*
X91234285Y-70380057D01*
X91234285Y-70380057D02*
X91186666Y-70332438D01*
X91186666Y-70332438D02*
X91091428Y-70284819D01*
X91091428Y-70284819D02*
X90900952Y-70284819D01*
X90900952Y-70284819D02*
X90805714Y-70332438D01*
X90805714Y-70332438D02*
X90758095Y-70380057D01*
X90758095Y-70380057D02*
X90710476Y-70475295D01*
X90710476Y-70475295D02*
X90710476Y-70713390D01*
X90710476Y-70713390D02*
X90758095Y-70808628D01*
X90758095Y-70808628D02*
X90805714Y-70856247D01*
X90805714Y-70856247D02*
X90900952Y-70903866D01*
X90900952Y-70903866D02*
X91091428Y-70903866D01*
X91091428Y-70903866D02*
X91186666Y-70856247D01*
X91186666Y-70856247D02*
X91234285Y-70808628D01*
X91234285Y-70808628D02*
X91281904Y-70713390D01*
X84367142Y-92784819D02*
X84033809Y-92308628D01*
X83795714Y-92784819D02*
X83795714Y-91784819D01*
X83795714Y-91784819D02*
X84176666Y-91784819D01*
X84176666Y-91784819D02*
X84271904Y-91832438D01*
X84271904Y-91832438D02*
X84319523Y-91880057D01*
X84319523Y-91880057D02*
X84367142Y-91975295D01*
X84367142Y-91975295D02*
X84367142Y-92118152D01*
X84367142Y-92118152D02*
X84319523Y-92213390D01*
X84319523Y-92213390D02*
X84271904Y-92261009D01*
X84271904Y-92261009D02*
X84176666Y-92308628D01*
X84176666Y-92308628D02*
X83795714Y-92308628D01*
X84748095Y-91880057D02*
X84795714Y-91832438D01*
X84795714Y-91832438D02*
X84890952Y-91784819D01*
X84890952Y-91784819D02*
X85129047Y-91784819D01*
X85129047Y-91784819D02*
X85224285Y-91832438D01*
X85224285Y-91832438D02*
X85271904Y-91880057D01*
X85271904Y-91880057D02*
X85319523Y-91975295D01*
X85319523Y-91975295D02*
X85319523Y-92070533D01*
X85319523Y-92070533D02*
X85271904Y-92213390D01*
X85271904Y-92213390D02*
X84700476Y-92784819D01*
X84700476Y-92784819D02*
X85319523Y-92784819D01*
X85652857Y-91784819D02*
X86271904Y-91784819D01*
X86271904Y-91784819D02*
X85938571Y-92165771D01*
X85938571Y-92165771D02*
X86081428Y-92165771D01*
X86081428Y-92165771D02*
X86176666Y-92213390D01*
X86176666Y-92213390D02*
X86224285Y-92261009D01*
X86224285Y-92261009D02*
X86271904Y-92356247D01*
X86271904Y-92356247D02*
X86271904Y-92594342D01*
X86271904Y-92594342D02*
X86224285Y-92689580D01*
X86224285Y-92689580D02*
X86176666Y-92737200D01*
X86176666Y-92737200D02*
X86081428Y-92784819D01*
X86081428Y-92784819D02*
X85795714Y-92784819D01*
X85795714Y-92784819D02*
X85700476Y-92737200D01*
X85700476Y-92737200D02*
X85652857Y-92689580D01*
X77657142Y-89454819D02*
X77323809Y-88978628D01*
X77085714Y-89454819D02*
X77085714Y-88454819D01*
X77085714Y-88454819D02*
X77466666Y-88454819D01*
X77466666Y-88454819D02*
X77561904Y-88502438D01*
X77561904Y-88502438D02*
X77609523Y-88550057D01*
X77609523Y-88550057D02*
X77657142Y-88645295D01*
X77657142Y-88645295D02*
X77657142Y-88788152D01*
X77657142Y-88788152D02*
X77609523Y-88883390D01*
X77609523Y-88883390D02*
X77561904Y-88931009D01*
X77561904Y-88931009D02*
X77466666Y-88978628D01*
X77466666Y-88978628D02*
X77085714Y-88978628D01*
X78609523Y-89454819D02*
X78038095Y-89454819D01*
X78323809Y-89454819D02*
X78323809Y-88454819D01*
X78323809Y-88454819D02*
X78228571Y-88597676D01*
X78228571Y-88597676D02*
X78133333Y-88692914D01*
X78133333Y-88692914D02*
X78038095Y-88740533D01*
X79228571Y-88454819D02*
X79323809Y-88454819D01*
X79323809Y-88454819D02*
X79419047Y-88502438D01*
X79419047Y-88502438D02*
X79466666Y-88550057D01*
X79466666Y-88550057D02*
X79514285Y-88645295D01*
X79514285Y-88645295D02*
X79561904Y-88835771D01*
X79561904Y-88835771D02*
X79561904Y-89073866D01*
X79561904Y-89073866D02*
X79514285Y-89264342D01*
X79514285Y-89264342D02*
X79466666Y-89359580D01*
X79466666Y-89359580D02*
X79419047Y-89407200D01*
X79419047Y-89407200D02*
X79323809Y-89454819D01*
X79323809Y-89454819D02*
X79228571Y-89454819D01*
X79228571Y-89454819D02*
X79133333Y-89407200D01*
X79133333Y-89407200D02*
X79085714Y-89359580D01*
X79085714Y-89359580D02*
X79038095Y-89264342D01*
X79038095Y-89264342D02*
X78990476Y-89073866D01*
X78990476Y-89073866D02*
X78990476Y-88835771D01*
X78990476Y-88835771D02*
X79038095Y-88645295D01*
X79038095Y-88645295D02*
X79085714Y-88550057D01*
X79085714Y-88550057D02*
X79133333Y-88502438D01*
X79133333Y-88502438D02*
X79228571Y-88454819D01*
X64007142Y-94579580D02*
X63959523Y-94627200D01*
X63959523Y-94627200D02*
X63816666Y-94674819D01*
X63816666Y-94674819D02*
X63721428Y-94674819D01*
X63721428Y-94674819D02*
X63578571Y-94627200D01*
X63578571Y-94627200D02*
X63483333Y-94531961D01*
X63483333Y-94531961D02*
X63435714Y-94436723D01*
X63435714Y-94436723D02*
X63388095Y-94246247D01*
X63388095Y-94246247D02*
X63388095Y-94103390D01*
X63388095Y-94103390D02*
X63435714Y-93912914D01*
X63435714Y-93912914D02*
X63483333Y-93817676D01*
X63483333Y-93817676D02*
X63578571Y-93722438D01*
X63578571Y-93722438D02*
X63721428Y-93674819D01*
X63721428Y-93674819D02*
X63816666Y-93674819D01*
X63816666Y-93674819D02*
X63959523Y-93722438D01*
X63959523Y-93722438D02*
X64007142Y-93770057D01*
X64340476Y-93674819D02*
X64959523Y-93674819D01*
X64959523Y-93674819D02*
X64626190Y-94055771D01*
X64626190Y-94055771D02*
X64769047Y-94055771D01*
X64769047Y-94055771D02*
X64864285Y-94103390D01*
X64864285Y-94103390D02*
X64911904Y-94151009D01*
X64911904Y-94151009D02*
X64959523Y-94246247D01*
X64959523Y-94246247D02*
X64959523Y-94484342D01*
X64959523Y-94484342D02*
X64911904Y-94579580D01*
X64911904Y-94579580D02*
X64864285Y-94627200D01*
X64864285Y-94627200D02*
X64769047Y-94674819D01*
X64769047Y-94674819D02*
X64483333Y-94674819D01*
X64483333Y-94674819D02*
X64388095Y-94627200D01*
X64388095Y-94627200D02*
X64340476Y-94579580D01*
X65816666Y-94008152D02*
X65816666Y-94674819D01*
X65578571Y-93627200D02*
X65340476Y-94341485D01*
X65340476Y-94341485D02*
X65959523Y-94341485D01*
X41482142Y-89514580D02*
X41434523Y-89562200D01*
X41434523Y-89562200D02*
X41291666Y-89609819D01*
X41291666Y-89609819D02*
X41196428Y-89609819D01*
X41196428Y-89609819D02*
X41053571Y-89562200D01*
X41053571Y-89562200D02*
X40958333Y-89466961D01*
X40958333Y-89466961D02*
X40910714Y-89371723D01*
X40910714Y-89371723D02*
X40863095Y-89181247D01*
X40863095Y-89181247D02*
X40863095Y-89038390D01*
X40863095Y-89038390D02*
X40910714Y-88847914D01*
X40910714Y-88847914D02*
X40958333Y-88752676D01*
X40958333Y-88752676D02*
X41053571Y-88657438D01*
X41053571Y-88657438D02*
X41196428Y-88609819D01*
X41196428Y-88609819D02*
X41291666Y-88609819D01*
X41291666Y-88609819D02*
X41434523Y-88657438D01*
X41434523Y-88657438D02*
X41482142Y-88705057D01*
X41863095Y-88705057D02*
X41910714Y-88657438D01*
X41910714Y-88657438D02*
X42005952Y-88609819D01*
X42005952Y-88609819D02*
X42244047Y-88609819D01*
X42244047Y-88609819D02*
X42339285Y-88657438D01*
X42339285Y-88657438D02*
X42386904Y-88705057D01*
X42386904Y-88705057D02*
X42434523Y-88800295D01*
X42434523Y-88800295D02*
X42434523Y-88895533D01*
X42434523Y-88895533D02*
X42386904Y-89038390D01*
X42386904Y-89038390D02*
X41815476Y-89609819D01*
X41815476Y-89609819D02*
X42434523Y-89609819D01*
X43386904Y-89609819D02*
X42815476Y-89609819D01*
X43101190Y-89609819D02*
X43101190Y-88609819D01*
X43101190Y-88609819D02*
X43005952Y-88752676D01*
X43005952Y-88752676D02*
X42910714Y-88847914D01*
X42910714Y-88847914D02*
X42815476Y-88895533D01*
X29454819Y-48666666D02*
X28978628Y-48999999D01*
X29454819Y-49238094D02*
X28454819Y-49238094D01*
X28454819Y-49238094D02*
X28454819Y-48857142D01*
X28454819Y-48857142D02*
X28502438Y-48761904D01*
X28502438Y-48761904D02*
X28550057Y-48714285D01*
X28550057Y-48714285D02*
X28645295Y-48666666D01*
X28645295Y-48666666D02*
X28788152Y-48666666D01*
X28788152Y-48666666D02*
X28883390Y-48714285D01*
X28883390Y-48714285D02*
X28931009Y-48761904D01*
X28931009Y-48761904D02*
X28978628Y-48857142D01*
X28978628Y-48857142D02*
X28978628Y-49238094D01*
X28454819Y-48333332D02*
X28454819Y-47714285D01*
X28454819Y-47714285D02*
X28835771Y-48047618D01*
X28835771Y-48047618D02*
X28835771Y-47904761D01*
X28835771Y-47904761D02*
X28883390Y-47809523D01*
X28883390Y-47809523D02*
X28931009Y-47761904D01*
X28931009Y-47761904D02*
X29026247Y-47714285D01*
X29026247Y-47714285D02*
X29264342Y-47714285D01*
X29264342Y-47714285D02*
X29359580Y-47761904D01*
X29359580Y-47761904D02*
X29407200Y-47809523D01*
X29407200Y-47809523D02*
X29454819Y-47904761D01*
X29454819Y-47904761D02*
X29454819Y-48190475D01*
X29454819Y-48190475D02*
X29407200Y-48285713D01*
X29407200Y-48285713D02*
X29359580Y-48333332D01*
X75359580Y-37142857D02*
X75407200Y-37190476D01*
X75407200Y-37190476D02*
X75454819Y-37333333D01*
X75454819Y-37333333D02*
X75454819Y-37428571D01*
X75454819Y-37428571D02*
X75407200Y-37571428D01*
X75407200Y-37571428D02*
X75311961Y-37666666D01*
X75311961Y-37666666D02*
X75216723Y-37714285D01*
X75216723Y-37714285D02*
X75026247Y-37761904D01*
X75026247Y-37761904D02*
X74883390Y-37761904D01*
X74883390Y-37761904D02*
X74692914Y-37714285D01*
X74692914Y-37714285D02*
X74597676Y-37666666D01*
X74597676Y-37666666D02*
X74502438Y-37571428D01*
X74502438Y-37571428D02*
X74454819Y-37428571D01*
X74454819Y-37428571D02*
X74454819Y-37333333D01*
X74454819Y-37333333D02*
X74502438Y-37190476D01*
X74502438Y-37190476D02*
X74550057Y-37142857D01*
X74788152Y-36285714D02*
X75454819Y-36285714D01*
X74407200Y-36523809D02*
X75121485Y-36761904D01*
X75121485Y-36761904D02*
X75121485Y-36142857D01*
X74454819Y-35571428D02*
X74454819Y-35476190D01*
X74454819Y-35476190D02*
X74502438Y-35380952D01*
X74502438Y-35380952D02*
X74550057Y-35333333D01*
X74550057Y-35333333D02*
X74645295Y-35285714D01*
X74645295Y-35285714D02*
X74835771Y-35238095D01*
X74835771Y-35238095D02*
X75073866Y-35238095D01*
X75073866Y-35238095D02*
X75264342Y-35285714D01*
X75264342Y-35285714D02*
X75359580Y-35333333D01*
X75359580Y-35333333D02*
X75407200Y-35380952D01*
X75407200Y-35380952D02*
X75454819Y-35476190D01*
X75454819Y-35476190D02*
X75454819Y-35571428D01*
X75454819Y-35571428D02*
X75407200Y-35666666D01*
X75407200Y-35666666D02*
X75359580Y-35714285D01*
X75359580Y-35714285D02*
X75264342Y-35761904D01*
X75264342Y-35761904D02*
X75073866Y-35809523D01*
X75073866Y-35809523D02*
X74835771Y-35809523D01*
X74835771Y-35809523D02*
X74645295Y-35761904D01*
X74645295Y-35761904D02*
X74550057Y-35714285D01*
X74550057Y-35714285D02*
X74502438Y-35666666D01*
X74502438Y-35666666D02*
X74454819Y-35571428D01*
X54238095Y-36554819D02*
X54238095Y-37364342D01*
X54238095Y-37364342D02*
X54285714Y-37459580D01*
X54285714Y-37459580D02*
X54333333Y-37507200D01*
X54333333Y-37507200D02*
X54428571Y-37554819D01*
X54428571Y-37554819D02*
X54619047Y-37554819D01*
X54619047Y-37554819D02*
X54714285Y-37507200D01*
X54714285Y-37507200D02*
X54761904Y-37459580D01*
X54761904Y-37459580D02*
X54809523Y-37364342D01*
X54809523Y-37364342D02*
X54809523Y-36554819D01*
X55190476Y-36554819D02*
X55857142Y-36554819D01*
X55857142Y-36554819D02*
X55428571Y-37554819D01*
X68323333Y-24784819D02*
X67990000Y-24308628D01*
X67751905Y-24784819D02*
X67751905Y-23784819D01*
X67751905Y-23784819D02*
X68132857Y-23784819D01*
X68132857Y-23784819D02*
X68228095Y-23832438D01*
X68228095Y-23832438D02*
X68275714Y-23880057D01*
X68275714Y-23880057D02*
X68323333Y-23975295D01*
X68323333Y-23975295D02*
X68323333Y-24118152D01*
X68323333Y-24118152D02*
X68275714Y-24213390D01*
X68275714Y-24213390D02*
X68228095Y-24261009D01*
X68228095Y-24261009D02*
X68132857Y-24308628D01*
X68132857Y-24308628D02*
X67751905Y-24308628D01*
X69180476Y-23784819D02*
X68990000Y-23784819D01*
X68990000Y-23784819D02*
X68894762Y-23832438D01*
X68894762Y-23832438D02*
X68847143Y-23880057D01*
X68847143Y-23880057D02*
X68751905Y-24022914D01*
X68751905Y-24022914D02*
X68704286Y-24213390D01*
X68704286Y-24213390D02*
X68704286Y-24594342D01*
X68704286Y-24594342D02*
X68751905Y-24689580D01*
X68751905Y-24689580D02*
X68799524Y-24737200D01*
X68799524Y-24737200D02*
X68894762Y-24784819D01*
X68894762Y-24784819D02*
X69085238Y-24784819D01*
X69085238Y-24784819D02*
X69180476Y-24737200D01*
X69180476Y-24737200D02*
X69228095Y-24689580D01*
X69228095Y-24689580D02*
X69275714Y-24594342D01*
X69275714Y-24594342D02*
X69275714Y-24356247D01*
X69275714Y-24356247D02*
X69228095Y-24261009D01*
X69228095Y-24261009D02*
X69180476Y-24213390D01*
X69180476Y-24213390D02*
X69085238Y-24165771D01*
X69085238Y-24165771D02*
X68894762Y-24165771D01*
X68894762Y-24165771D02*
X68799524Y-24213390D01*
X68799524Y-24213390D02*
X68751905Y-24261009D01*
X68751905Y-24261009D02*
X68704286Y-24356247D01*
X38109580Y-74416666D02*
X38157200Y-74464285D01*
X38157200Y-74464285D02*
X38204819Y-74607142D01*
X38204819Y-74607142D02*
X38204819Y-74702380D01*
X38204819Y-74702380D02*
X38157200Y-74845237D01*
X38157200Y-74845237D02*
X38061961Y-74940475D01*
X38061961Y-74940475D02*
X37966723Y-74988094D01*
X37966723Y-74988094D02*
X37776247Y-75035713D01*
X37776247Y-75035713D02*
X37633390Y-75035713D01*
X37633390Y-75035713D02*
X37442914Y-74988094D01*
X37442914Y-74988094D02*
X37347676Y-74940475D01*
X37347676Y-74940475D02*
X37252438Y-74845237D01*
X37252438Y-74845237D02*
X37204819Y-74702380D01*
X37204819Y-74702380D02*
X37204819Y-74607142D01*
X37204819Y-74607142D02*
X37252438Y-74464285D01*
X37252438Y-74464285D02*
X37300057Y-74416666D01*
X37538152Y-73559523D02*
X38204819Y-73559523D01*
X37157200Y-73797618D02*
X37871485Y-74035713D01*
X37871485Y-74035713D02*
X37871485Y-73416666D01*
X71266666Y-19454819D02*
X71266666Y-20169104D01*
X71266666Y-20169104D02*
X71219047Y-20311961D01*
X71219047Y-20311961D02*
X71123809Y-20407200D01*
X71123809Y-20407200D02*
X70980952Y-20454819D01*
X70980952Y-20454819D02*
X70885714Y-20454819D01*
X72219047Y-19454819D02*
X71742857Y-19454819D01*
X71742857Y-19454819D02*
X71695238Y-19931009D01*
X71695238Y-19931009D02*
X71742857Y-19883390D01*
X71742857Y-19883390D02*
X71838095Y-19835771D01*
X71838095Y-19835771D02*
X72076190Y-19835771D01*
X72076190Y-19835771D02*
X72171428Y-19883390D01*
X72171428Y-19883390D02*
X72219047Y-19931009D01*
X72219047Y-19931009D02*
X72266666Y-20026247D01*
X72266666Y-20026247D02*
X72266666Y-20264342D01*
X72266666Y-20264342D02*
X72219047Y-20359580D01*
X72219047Y-20359580D02*
X72171428Y-20407200D01*
X72171428Y-20407200D02*
X72076190Y-20454819D01*
X72076190Y-20454819D02*
X71838095Y-20454819D01*
X71838095Y-20454819D02*
X71742857Y-20407200D01*
X71742857Y-20407200D02*
X71695238Y-20359580D01*
X82519580Y-90622857D02*
X82567200Y-90670476D01*
X82567200Y-90670476D02*
X82614819Y-90813333D01*
X82614819Y-90813333D02*
X82614819Y-90908571D01*
X82614819Y-90908571D02*
X82567200Y-91051428D01*
X82567200Y-91051428D02*
X82471961Y-91146666D01*
X82471961Y-91146666D02*
X82376723Y-91194285D01*
X82376723Y-91194285D02*
X82186247Y-91241904D01*
X82186247Y-91241904D02*
X82043390Y-91241904D01*
X82043390Y-91241904D02*
X81852914Y-91194285D01*
X81852914Y-91194285D02*
X81757676Y-91146666D01*
X81757676Y-91146666D02*
X81662438Y-91051428D01*
X81662438Y-91051428D02*
X81614819Y-90908571D01*
X81614819Y-90908571D02*
X81614819Y-90813333D01*
X81614819Y-90813333D02*
X81662438Y-90670476D01*
X81662438Y-90670476D02*
X81710057Y-90622857D01*
X81948152Y-89765714D02*
X82614819Y-89765714D01*
X81567200Y-90003809D02*
X82281485Y-90241904D01*
X82281485Y-90241904D02*
X82281485Y-89622857D01*
X82614819Y-89194285D02*
X82614819Y-89003809D01*
X82614819Y-89003809D02*
X82567200Y-88908571D01*
X82567200Y-88908571D02*
X82519580Y-88860952D01*
X82519580Y-88860952D02*
X82376723Y-88765714D01*
X82376723Y-88765714D02*
X82186247Y-88718095D01*
X82186247Y-88718095D02*
X81805295Y-88718095D01*
X81805295Y-88718095D02*
X81710057Y-88765714D01*
X81710057Y-88765714D02*
X81662438Y-88813333D01*
X81662438Y-88813333D02*
X81614819Y-88908571D01*
X81614819Y-88908571D02*
X81614819Y-89099047D01*
X81614819Y-89099047D02*
X81662438Y-89194285D01*
X81662438Y-89194285D02*
X81710057Y-89241904D01*
X81710057Y-89241904D02*
X81805295Y-89289523D01*
X81805295Y-89289523D02*
X82043390Y-89289523D01*
X82043390Y-89289523D02*
X82138628Y-89241904D01*
X82138628Y-89241904D02*
X82186247Y-89194285D01*
X82186247Y-89194285D02*
X82233866Y-89099047D01*
X82233866Y-89099047D02*
X82233866Y-88908571D01*
X82233866Y-88908571D02*
X82186247Y-88813333D01*
X82186247Y-88813333D02*
X82138628Y-88765714D01*
X82138628Y-88765714D02*
X82043390Y-88718095D01*
X31407142Y-70679580D02*
X31359523Y-70727200D01*
X31359523Y-70727200D02*
X31216666Y-70774819D01*
X31216666Y-70774819D02*
X31121428Y-70774819D01*
X31121428Y-70774819D02*
X30978571Y-70727200D01*
X30978571Y-70727200D02*
X30883333Y-70631961D01*
X30883333Y-70631961D02*
X30835714Y-70536723D01*
X30835714Y-70536723D02*
X30788095Y-70346247D01*
X30788095Y-70346247D02*
X30788095Y-70203390D01*
X30788095Y-70203390D02*
X30835714Y-70012914D01*
X30835714Y-70012914D02*
X30883333Y-69917676D01*
X30883333Y-69917676D02*
X30978571Y-69822438D01*
X30978571Y-69822438D02*
X31121428Y-69774819D01*
X31121428Y-69774819D02*
X31216666Y-69774819D01*
X31216666Y-69774819D02*
X31359523Y-69822438D01*
X31359523Y-69822438D02*
X31407142Y-69870057D01*
X31740476Y-69774819D02*
X32359523Y-69774819D01*
X32359523Y-69774819D02*
X32026190Y-70155771D01*
X32026190Y-70155771D02*
X32169047Y-70155771D01*
X32169047Y-70155771D02*
X32264285Y-70203390D01*
X32264285Y-70203390D02*
X32311904Y-70251009D01*
X32311904Y-70251009D02*
X32359523Y-70346247D01*
X32359523Y-70346247D02*
X32359523Y-70584342D01*
X32359523Y-70584342D02*
X32311904Y-70679580D01*
X32311904Y-70679580D02*
X32264285Y-70727200D01*
X32264285Y-70727200D02*
X32169047Y-70774819D01*
X32169047Y-70774819D02*
X31883333Y-70774819D01*
X31883333Y-70774819D02*
X31788095Y-70727200D01*
X31788095Y-70727200D02*
X31740476Y-70679580D01*
X32740476Y-69870057D02*
X32788095Y-69822438D01*
X32788095Y-69822438D02*
X32883333Y-69774819D01*
X32883333Y-69774819D02*
X33121428Y-69774819D01*
X33121428Y-69774819D02*
X33216666Y-69822438D01*
X33216666Y-69822438D02*
X33264285Y-69870057D01*
X33264285Y-69870057D02*
X33311904Y-69965295D01*
X33311904Y-69965295D02*
X33311904Y-70060533D01*
X33311904Y-70060533D02*
X33264285Y-70203390D01*
X33264285Y-70203390D02*
X32692857Y-70774819D01*
X32692857Y-70774819D02*
X33311904Y-70774819D01*
%TO.C,R26*%
D11*
X92253641Y-68320000D02*
X91946359Y-68320000D01*
X92253641Y-69080000D02*
X91946359Y-69080000D01*
%TO.C,J2*%
X32820000Y-96700000D02*
X32820000Y-100300000D01*
X34700000Y-94820000D02*
X38300000Y-94820000D01*
X34700000Y-102180000D02*
X38300000Y-102180000D01*
X40180000Y-96700000D02*
X40180000Y-100300000D01*
%TO.C,R13*%
X78220000Y-56256359D02*
X78220000Y-56563641D01*
X78980000Y-56256359D02*
X78980000Y-56563641D01*
%TO.C,L1*%
X32440000Y-38763748D02*
X32440000Y-39286252D01*
X34660000Y-38763748D02*
X34660000Y-39286252D01*
%TO.C,C37*%
X70588748Y-95265000D02*
X71111252Y-95265000D01*
X70588748Y-96735000D02*
X71111252Y-96735000D01*
%TO.C,C5*%
X58238748Y-43765000D02*
X58761252Y-43765000D01*
X58238748Y-45235000D02*
X58761252Y-45235000D01*
%TO.C,R14*%
X44420000Y-55846359D02*
X44420000Y-56153641D01*
X45180000Y-55846359D02*
X45180000Y-56153641D01*
%TO.C,R22*%
X61546359Y-63820000D02*
X61853641Y-63820000D01*
X61546359Y-64580000D02*
X61853641Y-64580000D01*
%TO.C,C1*%
X27477500Y-42188748D02*
X27477500Y-42711252D01*
X28947500Y-42188748D02*
X28947500Y-42711252D01*
%TO.C,C44*%
X78372164Y-66140000D02*
X78587836Y-66140000D01*
X78372164Y-66860000D02*
X78587836Y-66860000D01*
%TO.C,C24*%
X74490000Y-82827836D02*
X74490000Y-82612164D01*
X75210000Y-82827836D02*
X75210000Y-82612164D01*
%TO.C,R8*%
X79246359Y-97820000D02*
X79553641Y-97820000D01*
X79246359Y-98580000D02*
X79553641Y-98580000D01*
%TO.C,C19*%
X38620000Y-86892164D02*
X38620000Y-87107836D01*
X39340000Y-86892164D02*
X39340000Y-87107836D01*
%TO.C,R20*%
X86366359Y-71620000D02*
X86673641Y-71620000D01*
X86366359Y-72380000D02*
X86673641Y-72380000D01*
%TO.C,C8*%
X69127836Y-60140000D02*
X68912164Y-60140000D01*
X69127836Y-60860000D02*
X68912164Y-60860000D01*
%TO.C,R21*%
X93846359Y-71620000D02*
X94153641Y-71620000D01*
X93846359Y-72380000D02*
X94153641Y-72380000D01*
%TO.C,C14*%
X91412164Y-88140000D02*
X91627836Y-88140000D01*
X91412164Y-88860000D02*
X91627836Y-88860000D01*
%TO.C,R12*%
X80820000Y-84363641D02*
X80820000Y-84056359D01*
X81580000Y-84363641D02*
X81580000Y-84056359D01*
%TO.C,R17*%
X58120000Y-40346359D02*
X58120000Y-40653641D01*
X58880000Y-40346359D02*
X58880000Y-40653641D01*
%TO.C,C54*%
X49265000Y-66211252D02*
X49265000Y-65688748D01*
X50735000Y-66211252D02*
X50735000Y-65688748D01*
%TO.C,U5*%
X33590000Y-88440000D02*
X35410000Y-88440000D01*
X33590000Y-88490000D02*
X33590000Y-88440000D01*
X33590000Y-91560000D02*
X33590000Y-91510000D01*
X35410000Y-88440000D02*
X35410000Y-88490000D01*
X35410000Y-91510000D02*
X35410000Y-91560000D01*
X35410000Y-91560000D02*
X33590000Y-91560000D01*
X33050000Y-88490000D02*
X32810000Y-88160000D01*
X33290000Y-88160000D01*
X33050000Y-88490000D01*
G36*
X33050000Y-88490000D02*
G01*
X32810000Y-88160000D01*
X33290000Y-88160000D01*
X33050000Y-88490000D01*
G37*
%TO.C,C38*%
X44017164Y-72615000D02*
X44232836Y-72615000D01*
X44017164Y-73335000D02*
X44232836Y-73335000D01*
%TO.C,IC1*%
X58200000Y-72800000D02*
X58200000Y-86680000D01*
X58520000Y-87000000D02*
X72400000Y-87000000D01*
X72400000Y-72800000D02*
X58200000Y-72800000D01*
X72400000Y-87000000D02*
X72400000Y-72800000D01*
X58200000Y-87000000D02*
X58200000Y-87500000D01*
X57700000Y-87000000D01*
X58200000Y-87000000D01*
G36*
X58200000Y-87500000D02*
G01*
X57700000Y-87000000D01*
X58200000Y-87000000D01*
X58200000Y-87500000D01*
G37*
%TO.C,C15*%
X42788748Y-93265000D02*
X43311252Y-93265000D01*
X42788748Y-94735000D02*
X43311252Y-94735000D01*
%TO.C,C35*%
X72895000Y-91322836D02*
X72895000Y-91107164D01*
X73615000Y-91322836D02*
X73615000Y-91107164D01*
%TO.C,R25*%
X87046359Y-88420000D02*
X87353641Y-88420000D01*
X87046359Y-89180000D02*
X87353641Y-89180000D01*
%TO.C,C9*%
X84811252Y-49765000D02*
X84288748Y-49765000D01*
X84811252Y-51235000D02*
X84288748Y-51235000D01*
%TO.C,C25*%
X53338748Y-95165000D02*
X53861252Y-95165000D01*
X53338748Y-96635000D02*
X53861252Y-96635000D01*
%TO.C,R4*%
X34695000Y-47153641D02*
X34695000Y-46846359D01*
X35455000Y-47153641D02*
X35455000Y-46846359D01*
%TO.C,C7*%
X62872164Y-60640000D02*
X63087836Y-60640000D01*
X62872164Y-61360000D02*
X63087836Y-61360000D01*
%TO.C,R11*%
X81920000Y-79263641D02*
X81920000Y-78956359D01*
X82680000Y-79263641D02*
X82680000Y-78956359D01*
%TO.C,C6*%
X38315000Y-77512836D02*
X38315000Y-77297164D01*
X39035000Y-77512836D02*
X39035000Y-77297164D01*
%TO.C,R1*%
X68653641Y-27720000D02*
X68346359Y-27720000D01*
X68653641Y-28480000D02*
X68346359Y-28480000D01*
%TO.C,FB1*%
X25325279Y-72105000D02*
X24999721Y-72105000D01*
X25325279Y-73125000D02*
X24999721Y-73125000D01*
%TO.C,Y1*%
X65390000Y-65320000D02*
X65390000Y-64680000D01*
X66120000Y-63440000D02*
X65430000Y-63440000D01*
X66330000Y-66360000D02*
X66670000Y-66360000D01*
X66340000Y-63640000D02*
X66670000Y-63640000D01*
X67610000Y-65320000D02*
X67610000Y-64680000D01*
X66120000Y-63440000D02*
G75*
G02*
X66340001Y-63640000I-90001J-320002D01*
G01*
%TO.C,FB2*%
X75490000Y-42837221D02*
X75490000Y-43162779D01*
X76510000Y-42837221D02*
X76510000Y-43162779D01*
%TO.C,C43*%
X82640000Y-70087836D02*
X82640000Y-69872164D01*
X83360000Y-70087836D02*
X83360000Y-69872164D01*
%TO.C,C3*%
X25362164Y-77640000D02*
X25577836Y-77640000D01*
X25362164Y-78360000D02*
X25577836Y-78360000D01*
%TO.C,L2*%
X51990000Y-43536252D02*
X51990000Y-43013748D01*
X54210000Y-43536252D02*
X54210000Y-43013748D01*
%TO.C,C50*%
X80740000Y-73172164D02*
X80740000Y-73387836D01*
X81460000Y-73172164D02*
X81460000Y-73387836D01*
%TO.C,C10*%
X35415000Y-42261252D02*
X35415000Y-41738748D01*
X36885000Y-42261252D02*
X36885000Y-41738748D01*
%TO.C,R5*%
X27620000Y-90153641D02*
X27620000Y-89846359D01*
X28380000Y-90153641D02*
X28380000Y-89846359D01*
%TO.C,R15*%
X67753641Y-53820000D02*
X67446359Y-53820000D01*
X67753641Y-54580000D02*
X67446359Y-54580000D01*
%TO.C,R18*%
X57346359Y-35120000D02*
X57653641Y-35120000D01*
X57346359Y-35880000D02*
X57653641Y-35880000D01*
%TO.C,C2*%
X25238748Y-82265000D02*
X25761252Y-82265000D01*
X25238748Y-83735000D02*
X25761252Y-83735000D01*
%TO.C,C39*%
X84688748Y-35265000D02*
X85211252Y-35265000D01*
X84688748Y-36735000D02*
X85211252Y-36735000D01*
%TO.C,U10*%
X82300000Y-39290000D02*
X86060000Y-39290000D01*
X82300000Y-46110000D02*
X86060000Y-46110000D01*
X86060000Y-39290000D02*
X86060000Y-40550000D01*
X86060000Y-46110000D02*
X86060000Y-44850000D01*
X81020000Y-39390000D02*
X80780000Y-39060000D01*
X81260000Y-39060000D01*
X81020000Y-39390000D01*
G36*
X81020000Y-39390000D02*
G01*
X80780000Y-39060000D01*
X81260000Y-39060000D01*
X81020000Y-39390000D01*
G37*
%TO.C,R9*%
X65753641Y-49320000D02*
X65446359Y-49320000D01*
X65753641Y-50080000D02*
X65446359Y-50080000D01*
%TO.C,R16*%
X53346359Y-35620000D02*
X53653641Y-35620000D01*
X53346359Y-36380000D02*
X53653641Y-36380000D01*
%TO.C,C20*%
X48587836Y-86065000D02*
X48372164Y-86065000D01*
X48587836Y-86785000D02*
X48372164Y-86785000D01*
%TO.C,J4*%
X35040000Y-20120000D02*
X35040000Y-22880000D01*
X45310000Y-20120000D02*
X35040000Y-20120000D01*
X45310000Y-20120000D02*
X45310000Y-22880000D01*
X45310000Y-22880000D02*
X35040000Y-22880000D01*
X46580000Y-20120000D02*
X47960000Y-20120000D01*
X47960000Y-20120000D02*
X47960000Y-21500000D01*
%TO.C,U4*%
X42740000Y-74790000D02*
X48260000Y-74790000D01*
X42740000Y-75315000D02*
X42740000Y-74790000D01*
X42740000Y-85210000D02*
X42740000Y-84685000D01*
X48260000Y-74790000D02*
X48260000Y-75315000D01*
X48260000Y-84685000D02*
X48260000Y-85210000D01*
X48260000Y-85210000D02*
X42740000Y-85210000D01*
X49000000Y-84690000D02*
X49340000Y-85160000D01*
X48660000Y-85160000D01*
X49000000Y-84690000D01*
G36*
X49340000Y-85160000D02*
G01*
X48660000Y-85160000D01*
X49000000Y-84690000D01*
X49340000Y-85160000D01*
G37*
%TO.C,C13*%
X49765000Y-39188748D02*
X49765000Y-39711252D01*
X51235000Y-39188748D02*
X51235000Y-39711252D01*
%TO.C,R7*%
X83856359Y-85620000D02*
X84163641Y-85620000D01*
X83856359Y-86380000D02*
X84163641Y-86380000D01*
%TO.C,U2*%
X31665000Y-41490000D02*
X33485000Y-41490000D01*
X31665000Y-41540000D02*
X31665000Y-41490000D01*
X31665000Y-43440000D02*
X31665000Y-42660000D01*
X31665000Y-44610000D02*
X31665000Y-44560000D01*
X33485000Y-41490000D02*
X33485000Y-41540000D01*
X33485000Y-44560000D02*
X33485000Y-44610000D01*
X33485000Y-44610000D02*
X31665000Y-44610000D01*
X34025000Y-44560000D02*
X34265000Y-44890000D01*
X33785000Y-44890000D01*
X34025000Y-44560000D01*
G36*
X34265000Y-44890000D02*
G01*
X33785000Y-44890000D01*
X34025000Y-44560000D01*
X34265000Y-44890000D01*
G37*
%TO.C,C31*%
X31977500Y-50261252D02*
X31977500Y-49738748D01*
X33447500Y-50261252D02*
X33447500Y-49738748D01*
%TO.C,U8*%
X84240000Y-76740000D02*
X84510000Y-76740000D01*
X84240000Y-82260000D02*
X84240000Y-76740000D01*
X84510000Y-82260000D02*
X84240000Y-82260000D01*
X89490000Y-76740000D02*
X89760000Y-76740000D01*
X89760000Y-76740000D02*
X89760000Y-82260000D01*
X89760000Y-82260000D02*
X89490000Y-82260000D01*
X89500000Y-75910000D02*
X89970000Y-75570000D01*
X89970000Y-76250000D01*
X89500000Y-75910000D01*
G36*
X89970000Y-76250000D02*
G01*
X89500000Y-75910000D01*
X89970000Y-75570000D01*
X89970000Y-76250000D01*
G37*
%TO.C,R2*%
X83520000Y-26853641D02*
X83520000Y-26546359D01*
X84280000Y-26853641D02*
X84280000Y-26546359D01*
%TO.C,J3*%
X51540000Y-22880000D02*
X51540000Y-21500000D01*
X52920000Y-22880000D02*
X51540000Y-22880000D01*
X54190000Y-20120000D02*
X67000000Y-20120000D01*
X54190000Y-22880000D02*
X54190000Y-20120000D01*
X54190000Y-22880000D02*
X67000000Y-22880000D01*
X67000000Y-22880000D02*
X67000000Y-20120000D01*
%TO.C,R24*%
X80336359Y-94120000D02*
X80643641Y-94120000D01*
X80336359Y-94880000D02*
X80643641Y-94880000D01*
%TO.C,C33*%
X58988748Y-95165000D02*
X59511252Y-95165000D01*
X58988748Y-96635000D02*
X59511252Y-96635000D01*
%TO.C,C47*%
X57587836Y-63640000D02*
X57372164Y-63640000D01*
X57587836Y-64360000D02*
X57372164Y-64360000D01*
%TO.C,C56*%
X48265000Y-93261252D02*
X48265000Y-92738748D01*
X49735000Y-93261252D02*
X49735000Y-92738748D01*
%TO.C,C17*%
X38527836Y-82190000D02*
X38312164Y-82190000D01*
X38527836Y-82910000D02*
X38312164Y-82910000D01*
%TO.C,C18*%
X40040000Y-73437836D02*
X40040000Y-73222164D01*
X40760000Y-73437836D02*
X40760000Y-73222164D01*
%TO.C,R19*%
X89866359Y-71620000D02*
X90173641Y-71620000D01*
X89866359Y-72380000D02*
X90173641Y-72380000D01*
%TO.C,R23*%
X84856359Y-93120000D02*
X85163641Y-93120000D01*
X84856359Y-93880000D02*
X85163641Y-93880000D01*
%TO.C,R10*%
X78020000Y-87263641D02*
X78020000Y-86956359D01*
X78780000Y-87263641D02*
X78780000Y-86956359D01*
%TO.C,C34*%
X64388748Y-95165000D02*
X64911252Y-95165000D01*
X64388748Y-96635000D02*
X64911252Y-96635000D01*
%TO.C,C21*%
X42015000Y-86897164D02*
X42015000Y-87112836D01*
X42735000Y-86897164D02*
X42735000Y-87112836D01*
%TO.C,R3*%
X29832500Y-46856359D02*
X29832500Y-47163641D01*
X30592500Y-46856359D02*
X30592500Y-47163641D01*
%TO.C,C40*%
X75765000Y-36761252D02*
X75765000Y-36238748D01*
X77235000Y-36761252D02*
X77235000Y-36238748D01*
%TO.C,U7*%
X53590000Y-37940000D02*
X55410000Y-37940000D01*
X53590000Y-37990000D02*
X53590000Y-37940000D01*
X53590000Y-41060000D02*
X53590000Y-41010000D01*
X55410000Y-37940000D02*
X55410000Y-37990000D01*
X55410000Y-39110000D02*
X55410000Y-39890000D01*
X55410000Y-41010000D02*
X55410000Y-41060000D01*
X55410000Y-41060000D02*
X53590000Y-41060000D01*
X53050000Y-37990000D02*
X52810000Y-37660000D01*
X53290000Y-37660000D01*
X53050000Y-37990000D01*
G36*
X53050000Y-37990000D02*
G01*
X52810000Y-37660000D01*
X53290000Y-37660000D01*
X53050000Y-37990000D01*
G37*
%TO.C,R6*%
X68336359Y-25120000D02*
X68643641Y-25120000D01*
X68336359Y-25880000D02*
X68643641Y-25880000D01*
%TO.C,C4*%
X38490000Y-74792164D02*
X38490000Y-75007836D01*
X39210000Y-74792164D02*
X39210000Y-75007836D01*
%TO.C,J5*%
X71830000Y-25400000D02*
X71830000Y-23700000D01*
X81170000Y-25400000D02*
X81170000Y-23700000D01*
%TO.C,C49*%
X80640000Y-89872164D02*
X80640000Y-90087836D01*
X81360000Y-89872164D02*
X81360000Y-90087836D01*
%TO.C,C32*%
X31788748Y-71265000D02*
X32311252Y-71265000D01*
X31788748Y-72735000D02*
X32311252Y-72735000D01*
%TD*%
M02*
